<?xml version="1.0" standalone="no"?>
<!DOCTYPE svg PUBLIC "-//W3C//DTD SVG 1.1//EN" "http://www.w3.org/Graphics/SVG/1.1/DTD/svg11.dtd" >
<svg xmlns="http://www.w3.org/2000/svg" xmlns:xlink="http://www.w3.org/1999/xlink" version="1.1">
<metadata>
Created by FontForge 20201107 at Tue May 22 17:41:49 2018
 By Unknown
Copyright (c) 2016 by Zetafonts. All rights reserved.
</metadata>
<defs>
<font id="CocogoosePro-Thin" horiz-adv-x="2373" >
  <font-face 
    font-family="Cocogoose Pro"
    font-weight="250"
    font-stretch="normal"
    units-per-em="1920"
    panose-1="2 0 5 3 2 0 0 2 0 4"
    ascent="1536"
    descent="-384"
    x-height="1225"
    cap-height="1427"
    bbox="-323 -1436.91 2586 1955"
    underline-thickness="96"
    underline-position="-192"
    unicode-range="U+000D-FB04"
  />
<missing-glyph horiz-adv-x="602" 
d="M987 541q0 -93 -35.5 -175t-96 -143t-142 -96t-173.5 -35q-94 0 -175.5 36.5t-141.5 98t-94.5 143t-34.5 171.5t33.5 171t93 142.5t141 98t178.5 36.5q92 0 173 -35.5t142 -96.5t96.5 -142.5t35.5 -173.5zM271 240q55 -46 123 -74t146 -28t146.5 28t123.5 74h-539z
M228 797q-43 -54 -66.5 -118t-23.5 -138q0 -78 26 -146.5t74 -123.5l524 526h-534zM1025 541q0 96 -36.5 184.5t-101 156t-153.5 107.5t-194 40q-98 0 -186.5 -37.5t-155 -103t-105.5 -154.5t-39 -193q0 -98 37 -186t102 -154.5t154 -105.5t193 -39q100 0 188 38t154 103.5
t104.5 154t38.5 189.5zM941 541q0 145 -102 271l-524 -528h536q43 54 66.5 119t23.5 138zM806 841q-52 48 -120 76t-146 28t-147 -27.5t-124 -76.5h537z" />
    <glyph glyph-name="f_f" unicode="ff" horiz-adv-x="1389" 
d="M298 32q0 -14 6.5 -23t20.5 -9h1q14 0 20.5 9t6.5 23v1019h632v-1019q0 -14 6.5 -23t20.5 -9h1q14 0 20.5 9t6.5 23v1019h274q28 0 28 26v1q0 23 -28 23h-274v152q0 72 19 132.5t57 104t95.5 67.5t133.5 24q13 0 20 3.5t10.5 8t4.5 8.5t1 5v2q0 8 -4 15q-3 5 -9.5 9.5
t-18.5 4.5q-81 0 -148 -24.5t-115 -73t-74.5 -120t-26.5 -166.5v-152h-632v152q0 72 19 132.5t57 104t95.5 67.5t133.5 24q13 0 20 3.5t10.5 8t4.5 8.5t1 5v2q0 8 -4 15q-3 5 -9.5 9.5t-18.5 4.5q-81 0 -148 -24.5t-115 -73t-74.5 -120t-26.5 -166.5v-152h-223
q-12 0 -20 -5.5t-8 -17.5v-1q0 -14 8 -20t20 -6h223v-1019z" />
    <glyph glyph-name="f_f_i" unicode="ffi" horiz-adv-x="1848" 
d="M288 32q0 -14 6.5 -23t20.5 -9h1q14 0 20.5 9t6.5 23v1019h660v-1019q0 -14 6.5 -23t20.5 -9h1q14 0 20.5 9t6.5 23v1019h560v-1019q0 -14 7 -23t21 -9h1q14 0 20.5 9t6.5 23v1046q0 11 -7.5 16.5t-19.5 6.5h-589v152q0 72 19 132.5t57 104t95.5 67.5t133.5 24
q13 0 20 3.5t10.5 8t4.5 8.5t1 5v2q0 1 -0.5 5.5t-3.5 10t-9.5 9.5t-18.5 4q-81 0 -148 -24.5t-115 -73t-74.5 -120t-26.5 -166.5v-152h-660v152q0 72 19 132.5t57 104t95.5 67.5t133.5 24q13 0 20 3.5t10.5 8t4.5 8.5t1 5v2q0 1 -0.5 5.5t-3.5 10t-9.5 9.5t-18.5 4
q-81 0 -148 -24.5t-115 -73t-74.5 -120t-26.5 -166.5v-152h-223q-12 0 -20 -5.5t-8 -17.5v-1q0 -14 8 -20t20 -6h223v-1019zM1600 1509q0 -11 4.5 -16.5t16.5 -5.5h48q8 0 13.5 4.5t5.5 17.5v44q0 22 -19 22h-49q-20 0 -20 -20v-46z" />
    <glyph glyph-name="fi" unicode="fi" horiz-adv-x="1092" 
d="M287 1051v-1019q0 -14 6.5 -23t20.5 -9h1q14 0 20.5 9t6.5 23v1019h538v-1019q0 -14 7 -23t21 -9h1q14 0 20.5 9t6.5 23v1046q0 11 -7.5 16.5t-19.5 6.5h-567v152q0 72 19 132.5t57 104t95.5 67.5t133.5 24q13 0 20 3.5t10.5 8t4.5 8.5t1 5v2q0 1 -0.5 5.5t-3.5 10
t-9.5 9.5t-18.5 4q-81 0 -148 -24.5t-115 -73t-74.5 -120t-26.5 -166.5v-152h-220q-12 0 -20 -5.5t-8 -17.5v-1q0 -14 8 -20t20 -6h220zM862 1509q0 -11 4.5 -16.5t16.5 -5.5h48q8 0 13.5 4.5t5.5 17.5v44q0 22 -19 22h-49q-20 0 -20 -20v-46z" />
    <glyph glyph-name="f_f_j" unicode="ffj" horiz-adv-x="1839" 
d="M288 32q0 -14 6.5 -23t20.5 -9h1q14 0 20.5 9t6.5 23v1019h662v-1019q0 -14 6.5 -23t20.5 -9h1q14 0 20.5 9t6.5 23v1019h552v-1068q0 -61 -17.5 -120t-54.5 -105.5t-95 -75t-139 -28.5q-13 0 -20.5 -3.5t-11 -8t-4.5 -8.5t-1 -5v-2q0 -1 0.5 -5t3.5 -9t9.5 -9t19.5 -4
q97 0 166 36t113 92t65 123.5t21 130.5v1096q0 11 -7.5 16.5t-19.5 6.5h-580v152q0 72 19 132.5t57 104t95.5 67.5t133.5 24q13 0 20 3.5t10.5 8t4.5 8.5t1 5v2q0 1 -0.5 5.5t-3.5 10t-9.5 9.5t-18.5 4q-81 0 -148 -24.5t-115 -73t-74.5 -120t-26.5 -166.5v-152h-662v152
q0 72 19 132.5t57 104t95.5 67.5t133.5 24q13 0 20 3.5t10.5 8t4.5 8.5t1 5v2q0 1 -0.5 5.5t-3.5 10t-9.5 9.5t-18.5 4q-81 0 -148 -24.5t-115 -73t-74.5 -120t-26.5 -166.5v-152h-223q-12 0 -20 -5.5t-8 -17.5v-1q0 -14 8 -20t20 -6h223v-1019zM1593 1509q0 -11 4.5 -16.5
t16.5 -5.5h48q8 0 13.5 4.5t5.5 17.5v44q0 22 -19 22h-49q-20 0 -20 -20v-46z" />
    <glyph glyph-name="f_j" unicode="fj" horiz-adv-x="1142" 
d="M911 -17q0 -61 -17.5 -120t-54.5 -105.5t-95 -75t-139 -28.5q-13 0 -20.5 -3.5t-11 -8t-4.5 -8.5t-1 -5v-2q0 -1 0.5 -5t3.5 -9t9.5 -9t19.5 -4q96 0 165.5 36t113.5 92t65 123.5t21 130.5v1096q0 11 -7.5 16.5t-19.5 6.5h-597v152q0 72 19 132.5t57 104t95.5 67.5
t133.5 24q13 0 20 3.5t10.5 8t4.5 8.5t1 5v2q0 1 -0.5 5.5t-3.5 10t-9.5 9.5t-18.5 4q-81 0 -148 -24.5t-115 -73t-74.5 -120t-26.5 -166.5v-152h-220q-12 0 -20 -5.5t-8 -17.5v-1q0 -14 8 -20t20 -6h220v-1019q0 -14 6.5 -23t20.5 -9h1q14 0 20.5 9t6.5 23v1019h569v-1068z
M892 1509q0 -11 4.5 -16.5t16.5 -5.5h48q8 0 13.5 4.5t5.5 17.5v44q0 22 -19 22h-49q-20 0 -20 -20v-46z" />
    <glyph glyph-name=".notdef" horiz-adv-x="602" 
d="M987 541q0 -93 -35.5 -175t-96 -143t-142 -96t-173.5 -35q-94 0 -175.5 36.5t-141.5 98t-94.5 143t-34.5 171.5t33.5 171t93 142.5t141 98t178.5 36.5q92 0 173 -35.5t142 -96.5t96.5 -142.5t35.5 -173.5zM271 240q55 -46 123 -74t146 -28t146.5 28t123.5 74h-539z
M228 797q-43 -54 -66.5 -118t-23.5 -138q0 -78 26 -146.5t74 -123.5l524 526h-534zM1025 541q0 96 -36.5 184.5t-101 156t-153.5 107.5t-194 40q-98 0 -186.5 -37.5t-155 -103t-105.5 -154.5t-39 -193q0 -98 37 -186t102 -154.5t154 -105.5t193 -39q100 0 188 38t154 103.5
t104.5 154t38.5 189.5zM941 541q0 145 -102 271l-524 -528h536q43 54 66.5 119t23.5 138zM806 841q-52 48 -120 76t-146 28t-147 -27.5t-124 -76.5h537z" />
    <glyph glyph-name="uni0000" horiz-adv-x="0" 
 />
    <glyph glyph-name="uni0000" horiz-adv-x="0" 
 />
    <glyph glyph-name="uni000D" unicode="&#xd;" horiz-adv-x="601" 
 />
    <glyph glyph-name="space" unicode=" " horiz-adv-x="601" 
 />
    <glyph glyph-name="F" unicode="F" horiz-adv-x="1181" 
d="M157 28q0 -28 27 -28h1q26 0 26 28v632h736q26 0 26 28v1q0 27 -26 27h-736v655h908q25 0 25 28v1q0 27 -25 27h-935q-27 0 -27 -27v-1372z" />
    <glyph glyph-name="H" unicode="H" horiz-adv-x="1465" 
d="M1241 32q0 -14 6.5 -23t20.5 -9h1q14 0 20 9t6 23v1363q0 14 -6 23t-20 9h-1q-14 0 -20.5 -9t-6.5 -23v-658h-1033v658q0 14 -6 23t-20 9h-1q-14 0 -20.5 -9t-6.5 -23v-1363q0 -14 6.5 -23t20.5 -9h1q14 0 20 9t6 23v651h1033v-651z" />
    <glyph glyph-name="I" unicode="I" horiz-adv-x="430" 
d="M154 33q0 -14 6.5 -23.5t20.5 -9.5h1q14 0 20 9.5t6 23.5v1362q0 14 -6 23t-20 9h-1q-13 0 -20 -9t-7 -23v-1362z" />
    <glyph glyph-name="J" unicode="J" horiz-adv-x="430" 
d="M192 -76q0 -47 -19.5 -93.5t-55 -83.5t-86 -60t-111.5 -23q-78 0 -126 24t-71 50q-4 4 -10 7.5t-13 3.5q-8 0 -13 -5l-2 -2q-8 -8 -8 -17q0 -10 7.5 -19t12.5 -14q42 -42 100 -62.5t126 -20.5t127 25t102.5 67.5t68.5 99t25 119.5v1475q0 12 -6 22.5t-19 10.5h-2
q-14 0 -20.5 -9.5t-6.5 -23.5v-1471z" />
    <glyph glyph-name="K" unicode="K" horiz-adv-x="1356" 
d="M1093 1381q7 8 7 18q0 11 -8 19.5t-19 8.5h-2q-3 0 -11 -3.5t-19 -15.5l-833 -893v879q0 14 -6 23t-20 9h-1q-14 0 -20.5 -9t-6.5 -23v-1362q0 -14 6.5 -23t20.5 -9h1q14 0 20 9t6 23v409l332 353l653 -776q9 -11 17 -14.5t13 -3.5h1q11 0 19.5 8t8.5 19q0 8 -6 15
l-668 793z" />
    <glyph glyph-name="L" unicode="L" horiz-adv-x="1112" 
d="M157 28q0 -28 27 -28h850q14 0 24 7.5t10 21.5v1q0 15 -10 20.5t-24 5.5h-823v1339q0 14 -6 23t-20 9h-1q-14 0 -20.5 -9t-6.5 -23v-1367z" />
    <glyph glyph-name="M" unicode="M" horiz-adv-x="1699" 
d="M811 149q5 -10 13 -11.5t10 -1.5h3q2 0 9.5 1.5t12.5 11.5l537 1147l109 -1270q2 -15 8.5 -20.5t20.5 -5.5h1q24 3 24 24l-117 1379q-1 12 -9 18.5t-20 6.5h-1q-3 0 -10.5 -3.5t-12.5 -14.5l-554 -1185l-560 1189q-4 8 -9.5 11t-8.5 3h-4q-13 -1 -20.5 -8.5t-8.5 -16.5
l-116 -1370q0 -30 24 -33h1q26 0 29 28l108 1270z" />
    <glyph glyph-name="P" unicode="P" horiz-adv-x="1187" 
d="M645 1372q82 0 152.5 -30.5t122.5 -83t82 -123.5t30 -153q0 -81 -30 -151.5t-82 -122.5t-122.5 -82t-152.5 -30h-439v776h439zM152 32q0 -14 6.5 -23t20.5 -9h1q14 0 20 9t6 23v508h439q92 0 173 34.5t141 94.5t95 140.5t35 172.5t-35 173t-95 141.5t-141 95.5t-173 35
h-466q-27 0 -27 -27v-1368z" />
    <glyph glyph-name="R" unicode="R" horiz-adv-x="1279" 
d="M722 1372q82 0 152.5 -30.5t122.5 -83t82 -123.5t30 -153q0 -81 -30 -151.5t-82 -122.5t-122.5 -82t-152.5 -30h-516v776h516zM1073 20q5 -12 14 -16t14 -4h3q10 0 18.5 8.5t8.5 19.5q0 4 -2 10l-224 541q57 26 105 67t82.5 93t53.5 114t19 129q0 92 -35 173t-95 141.5
t-140.5 95.5t-172.5 35h-543q-27 0 -27 -27v-1372q0 -28 27 -28h1q26 0 26 28v512h516q67 0 127 18z" />
    <glyph glyph-name="S" unicode="S" horiz-adv-x="1256" 
d="M105 199q50 -60 105 -101.5t116.5 -67.5t130 -37.5t146.5 -11.5q111 0 207.5 24.5t168.5 75t113 128t41 182.5q0 68 -23 118.5t-62 88t-90 63.5t-108.5 44t-117 31t-114.5 24q-84 17 -163 40t-140.5 59t-99 87.5t-37.5 123.5q0 90 40 151t104.5 98t145 52.5t160.5 15.5
q72 0 125 -7.5t95.5 -24t80 -42t78.5 -60.5q9 -8 17.5 -14t17.5 -6q10 0 17 5l2 2q6 8 6 18q0 13 -9 22q-46 45 -94 76t-100 50.5t-110 28t-126 8.5q-116 0 -209.5 -24.5t-159 -72t-101 -117t-35.5 -159.5q0 -76 30 -133.5t90.5 -100.5t151 -73.5t210.5 -53.5q46 -8 99 -19
t105.5 -27t101 -39t85.5 -55.5t59.5 -76t22.5 -101.5q0 -97 -38 -164.5t-103.5 -110t-151.5 -61.5t-182 -19q-82 0 -149.5 13t-123 38.5t-100.5 62t-83 82.5q-16 19 -30 19q-8 0 -15 -4l-2 -2q-8 -8 -8 -19q0 -8 4 -14.5t9 -12.5z" />
    <glyph glyph-name="T" unicode="T" horiz-adv-x="1202" 
d="M69 1399q0 -28 28 -28h486v-1343q0 -28 28 -28h1q26 0 26 28v1343h483q26 0 26 28v1q0 27 -26 27h-1024q-28 0 -28 -27v-1z" />
    <glyph glyph-name="A" unicode="A" horiz-adv-x="1377" 
d="M1040 461h-732l367 874zM74 40q-3 -7 -3 -15q0 -12 8.5 -18.5t19.5 -6.5h3q4 0 10 3.5t11 16.5l162 386h778l162 -387q5 -13 11.5 -16t10.5 -3h3q9 0 18.5 7.5t9.5 19.5q0 6 -3 13l-573 1365q-5 14 -13.5 17.5t-11.5 3.5h-5q-5 -1 -12 -4.5t-12 -16.5z" />
    <glyph glyph-name="U" unicode="U" horiz-adv-x="1442" 
d="M191 1398q0 14 -6 22t-20 8h-1q-14 0 -21 -8t-7 -22v-838q0 -121 46 -227.5t125 -185.5t185 -124.5t227 -45.5t227 45t185 122.5t125 182t46 224.5v845q0 14 -6 23t-20 9h-1q-14 0 -21 -9t-7 -23v-836q0 -110 -41 -206.5t-112.5 -168t-168 -112.5t-206.5 -41t-206.5 41
t-168 112.5t-112.5 168t-41 206.5v838z" />
    <glyph glyph-name="V" unicode="V" horiz-adv-x="1336" 
d="M1238 1384q4 8 4 17q0 14 -9.5 20.5t-18.5 6.5h-2q-4 0 -11 -3.5t-12 -17.5l-548 -1315l-549 1314q-5 13 -11.5 17.5t-10.5 4.5h-3q-8 0 -17.5 -7t-9.5 -20q0 -8 4 -16l572 -1367q5 -11 11.5 -15.5t11.5 -4.5h5q5 1 11 5t11 15z" />
    <glyph glyph-name="W" unicode="W" horiz-adv-x="1985" 
d="M1300 20q5 -13 13 -16.5t12 -3.5h5q4 0 11.5 4t12.5 16l574 1368q3 6 3 12q0 13 -10.5 20t-18.5 7h-3q-4 0 -10 -2.5t-11 -16.5l-551 -1319l-318 758l225 541q3 8 3 13q0 13 -10 19.5t-19 6.5h-2q-4 0 -10.5 -2.5t-11.5 -16.5l-548 -1317l-551 1317q-5 13 -11 16t-10 3
h-3q-8 0 -18 -6.5t-10 -19.5q0 -5 3 -13l574 -1368q6 -15 14 -17.5t11 -2.5h3q4 0 12 3.5t13 16.5l317 757z" />
    <glyph glyph-name="X" unicode="X" horiz-adv-x="1118" 
d="M1042 1385q6 9 6 17q0 12 -9.5 19.5t-17.5 7.5q-4 0 -10.5 -1.5t-14.5 -12.5l-443 -653l-440 651q-7 10 -14 12t-10 2h-1q-8 0 -16.5 -7t-8.5 -19q0 -4 1 -8.5t5 -9.5l452 -669l-454 -670q-6 -10 -6 -18q0 -14 10.5 -20t18.5 -6q4 0 9.5 2t12.5 12l441 651l443 -652
q7 -10 14.5 -11.5t10.5 -1.5h1q8 0 17 6.5t9 18.5q0 8 -6 18l-456 671z" />
    <glyph glyph-name="Y" unicode="Y" horiz-adv-x="1126" 
d="M1056 1384q5 8 5 16q0 12 -8 19.5t-16 7.5h-3q-4 0 -9.5 -2t-13.5 -14l-453 -705l-452 706q-8 12 -13.5 13.5t-9.5 1.5h-3q-8 0 -16 -7.5t-8 -18.5q0 -8 5 -16l470 -735v-616q0 -14 6.5 -24t20.5 -10h1q27 0 27 34v616z" />
    <glyph glyph-name="Z" unicode="Z" horiz-adv-x="1254" 
d="M112 1427q-14 0 -23.5 -6.5t-9.5 -20.5v-1q0 -14 9.5 -20t24.5 -6l962 1l-1030 -1335q-3 -6 -3 -11v-1q0 -27 27 -27h1035q31 0 31 27v1q0 26 -31 26h-979l1024 1328q5 8 7 16v5q-1 26 -27 26z" />
    <glyph glyph-name="bar" unicode="|" horiz-adv-x="482" 
d="M199 -341q0 -28 27 -28h1q26 0 26 28v1740q0 27 -26 27h-1q-27 0 -27 -27v-1740z" />
    <glyph glyph-name="brokenbar" unicode="&#xa6;" horiz-adv-x="574" 
d="M179 657q0 -28 27 -28h1q26 0 26 28v742q0 27 -26 27h-1q-27 0 -27 -27v-742zM179 -339q0 -28 27 -28h1q26 0 26 28v742q0 27 -26 27h-1q-27 0 -27 -27v-742z" />
    <glyph glyph-name="bracketleft" unicode="[" horiz-adv-x="492" 
d="M157 -161q0 -13 8 -20t18 -7h246q12 0 20.5 8t8.5 18v1q0 14 -9 21t-20 7h-218v1663h218q12 0 20.5 8t8.5 18v1q0 14 -9 21t-20 7h-248q-10 -1 -16.5 -6.5t-7.5 -16.5v-1723z" />
    <glyph glyph-name="bracketright" unicode="]" horiz-adv-x="492" 
d="M318.98 -161q0 -13 -7.99902 -20q-8 -7 -17.999 -7h-245.985q-11.999 0 -20.499 8q-8.49902 8 -8.49902 18v1q0 14 8.99902 21q9 7 19.999 7h217.986v1663h-217.986q-11.999 0 -20.499 8q-8.49902 8 -8.49902 18v1q0 14 8.99902 21q9 7 19.999 7h247.985
q9.99902 -1 16.499 -6.5q6.49902 -5.5 7.49902 -16.5v-1723z" />
    <glyph glyph-name="braceleft" unicode="{" horiz-adv-x="595" 
d="M65 696q1 -12 8 -18.5t18 -6.5h6q17 0 42.5 -3.5t50.5 -24.5t42.5 -66.5t17.5 -129.5v-351q0 -68 16.5 -116.5t42.5 -81t59 -52t65 -29t61 -12.5t48 -3q11 0 20 7t9 21v1q0 14 -11 20t-25 6q-12 0 -34 1.5t-47.5 8.5t-52 21.5t-48 40.5t-35 65t-13.5 96v361q0 55 -8 96
t-21.5 71t-30.5 49t-36 31q19 12 36 31.5t30.5 49t21.5 71t8 96.5v381q0 120 62 176.5t175 56.5q12 0 20.5 8t8.5 18v1q0 14 -9 21t-20 7q-19 0 -48 -3t-61 -12.5t-65 -29t-59 -52t-42.5 -81t-16.5 -116.5v-371q0 -84 -17.5 -129.5t-42.5 -66.5t-50.5 -24.5t-42.5 -3.5
q-20 0 -26 -10t-6 -15v-5z" />
    <glyph glyph-name="underscore" unicode="_" horiz-adv-x="1254" 
d="M89 -37q0 -15 9 -21t23 -6h992q12 0 20.5 8t8.5 18v1q0 14 -9 21t-20 7h-992q-14 0 -23 -6.5t-9 -20.5v-1z" />
    <glyph glyph-name="endash" unicode="&#x2013;" horiz-adv-x="1292" 
d="M159 525q0 -15 8.5 -21t22.5 -6h913q12 0 19.5 8.5t7.5 17.5v1q0 14 -8 21t-19 7h-913q-14 0 -22.5 -6.5t-8.5 -20.5v-1z" />
    <glyph glyph-name="bullet" unicode="&#x2022;" horiz-adv-x="455" 
d="M115 626q0 -35 24.5 -59.5t59.5 -24.5t59.5 24.5t24.5 59.5t-24.5 59.5t-59.5 24.5t-59.5 -24.5t-24.5 -59.5z" />
    <glyph glyph-name="asciicircum" unicode="^" horiz-adv-x="937" 
d="M247 1203q-10 -10 -10 -22q0 -11 8 -18l1 -1q7 -7 17 -7q12 0 23 11l193 192l190 -190q12 -12 24 -12q10 0 18.5 9t8.5 19q0 12 -11 23l-210 210q-10 10 -20 10t-19 -10z" />
    <glyph glyph-name="backslash" unicode="\" horiz-adv-x="695" 
d="M585 18q5 -13 11.5 -15.5t10.5 -2.5h2q8 0 19 5.5t11 19.5q0 6 -3 13l-541 1369q-5 14 -11 16.5t-10 2.5h-3q-9 0 -19 -7t-10 -20q0 -6 3 -12z" />
    <glyph glyph-name="asciitilde" unicode="~" horiz-adv-x="825" 
d="M194 490q23 26 44 42.5t57 16.5q26 0 50.5 -13t49 -29t50 -29t54.5 -13q43 0 78.5 21t67.5 64q5 6 8 12.5t3 13.5t-6 15.5t-18 8.5t-24 -12.5t-26.5 -27.5t-32 -27.5t-40.5 -12.5q-28 0 -54.5 13t-52.5 29t-52 29t-55 13q-44 0 -77 -21.5t-69 -62.5q-11 -11 -11 -21
q0 -8 8 -16l2 -2q10 -8 17 -8q8 0 14.5 4.5t14.5 12.5z" />
    <glyph glyph-name="braceright" unicode="}" horiz-adv-x="685" 
d="M540.967 696q-1 -12 -7.99902 -18.5q-7 -6.5 -17.999 -6.5h-6q-16.999 0 -42.4971 -3.5q-25.499 -3.5 -50.4971 -24.5t-42.4971 -66.5t-17.499 -129.5v-351q0 -68 -16.499 -116.5t-42.498 -81q-25.998 -32.5 -58.9961 -52t-64.9961 -29t-60.9961 -12.5t-47.9971 -3
q-10.999 0 -19.999 7q-8.99902 7 -8.99902 21v1q0 14 10.999 20t24.999 6q11.999 0 33.9971 1.5q21.999 1.5 47.4971 8.5q25.499 7 51.9971 21.5q26.499 14.5 47.9971 40.5q21.499 26 34.998 65t13.499 96v361q0 55 8 96q7.99902 41 21.498 71t30.498 49t35.998 31
q-18.999 12 -35.998 31.5t-30.498 49t-21.498 71q-8 41.5 -8 96.5v381q0 120 -61.9961 176.5t-174.989 56.5q-11.999 0 -20.499 8q-8.49902 8 -8.49902 18v1q0 14 8.99902 21q9 7 19.999 7q18.999 0 47.9971 -3t60.9961 -12.5t64.9961 -29t58.9961 -52
q25.999 -32.5 42.498 -81t16.499 -116.5v-371q0 -84 17.499 -129.5t42.4971 -66.5t50.4971 -24.5q25.498 -3.5 42.4971 -3.5q19.999 0 25.999 -10q5.99902 -10 5.99902 -15v-5z" />
    <glyph glyph-name="Euro" unicode="&#x20ac;" horiz-adv-x="1480" 
d="M48 582q0 -15 8.5 -21t22.5 -6h93q27 -124 93.5 -229.5t161 -182.5t213 -121t250.5 -44q131 0 248 40t209 119q13 11 13 26q0 10 -6 16l-2 2q-8 7 -17 7q-11 0 -22 -9q-88 -69 -195 -107.5t-228 -38.5t-229.5 39.5t-195.5 109t-148.5 165.5t-88.5 208h472q12 0 19.5 8.5
t7.5 17.5v1q0 14 -8 21t-19 7h-482q-4 25 -6 51t-2 52q0 47 6 93h484q12 0 19.5 8.5t7.5 17.5v1q0 14 -8 21t-19 7h-474q25 114 86 212t149 169t197.5 111.5t231.5 40.5t229.5 -40t196.5 -109q11 -8 22 -8q9 0 15 4t7 5l1 1q1 2 3 4q2 5 2 10t-3.5 12t-12.5 15
q-94 77 -211.5 119t-248.5 42q-133 0 -253 -44.5t-215 -123.5t-160.5 -186.5t-91.5 -233.5h-91q-14 0 -22.5 -6.5t-8.5 -20.5v-1q0 -15 8.5 -21t22.5 -6h82q-6 -46 -6 -93q0 -26 2 -52t5 -51h-83q-14 0 -22.5 -6.5t-8.5 -20.5v-1z" />
    <glyph glyph-name="E" unicode="E" horiz-adv-x="1213" 
d="M156 28q0 -28 27 -28h948q14 0 23 7t9 21v1q0 14 -9 20.5t-23 6.5h-921v656h738q14 0 24 6.5t10 20.5v1q0 14 -10 20.5t-24 6.5h-738v604h901q14 0 23 7t9 21v1q0 14 -9 20.5t-23 6.5h-928q-27 0 -27 -27v-1372z" />
    <glyph glyph-name="ellipsis" unicode="&#x2026;" horiz-adv-x="1009" 
d="M711 21q0 -11 5 -16t13 -5h80q11 0 14.5 7.5t3.5 15.5v67q0 10 -4 17.5t-18 7.5h-72q-11 0 -16.5 -7t-5.5 -16v-71zM426 21q0 -11 5 -16t13 -5h80q11 0 14.5 7.5t3.5 15.5v67q0 10 -4 17.5t-18 7.5h-72q-11 0 -16.5 -7t-5.5 -16v-71zM150 21q0 -11 5 -16t13 -5h80
q11 0 14.5 7.5t3.5 15.5v67q0 10 -4 17.5t-18 7.5h-72q-11 0 -16.5 -7t-5.5 -16v-71z" />
    <glyph glyph-name="quoteleft" unicode="&#x2018;" horiz-adv-x="457" 
d="M279 1295q0 12 -4 18.5t-19 6.5h-25q-8 0 -11 2.5t-3 14.5q0 9 5 17.5t10.5 17t10.5 16.5t5 14q0 4 -3 7l-17 14q-4 4 -8 4q-7 0 -17 -9.5t-19 -26t-15 -38.5t-6 -47v-79q0 -22 20 -22h73q13 0 18 7t5 15v68z" />
    <glyph glyph-name="quoteright" unicode="&#x2019;" horiz-adv-x="451" 
d="M135.992 -1304.92q0 -12 3.99902 -18.499q4 -6.5 18.999 -6.5h24.998q8 0 11 -2.5t3 -14.499q0 -8.99902 -5 -17.499q-5 -8.49902 -10.499 -16.999q-5.5 -8.49902 -10.5 -16.499q-4.99902 -7.99902 -4.99902 -13.999q0 -4 2.99902 -6.99902l16.999 -13.999q4 -4 8 -4
q6.99902 0 16.999 9.49902q9.99902 9.5 18.999 25.999q8.99902 16.499 14.999 38.4971q5.99902 21.999 5.99902 46.9971v78.9951q0 21.999 -19.998 21.999h-72.9961q-12.999 0 -17.999 -7q-4.99902 -6.99902 -4.99902 -14.999v-67.9951z" />
    <glyph glyph-name="quotedblleft" unicode="&#x201c;" horiz-adv-x="753" 
d="M262 1295q0 12 -4 18.5t-19 6.5h-25q-8 0 -11 2.5t-3 14.5q0 9 5 17.5t10.5 17t10.5 16.5t5 14q0 4 -3 7l-17 14q-4 4 -8 4q-7 0 -17 -9.5t-19 -26t-15 -38.5t-6 -47v-79q0 -22 20 -22h73q13 0 18 7t5 15v68zM44 1294q0 12 -4 18.5t-19 6.5h-25q-8 0 -11 2.5t-3 14.5
q0 9 5 17.5t10.5 17t10.5 16.5t5 14q0 4 -3 7l-17 14q-4 4 -8 4q-7 0 -17 -9.5t-19 -26t-15 -38.5t-6 -47v-79q0 -22 20 -22h73q13 0 18 7t5 15v68z" />
    <glyph glyph-name="quotedblright" unicode="&#x201d;" horiz-adv-x="653" 
d="M85.9951 -1302.92q0 -11.999 3.99902 -18.498q4 -6.5 18.999 -6.5h24.999q7.99902 0 10.999 -2.5t3 -14.499q0 -8.99902 -5 -17.499q-5 -8.49902 -10.499 -16.999q-5.5 -8.49902 -10.5 -16.499q-4.99902 -7.99902 -4.99902 -13.999q0 -4 2.99902 -6.99902l16.999 -14
q4 -3.99902 8 -3.99902q6.99902 0 16.999 9.49902q9.99902 9.49902 18.999 25.998q8.99902 16.499 14.999 38.498q5.99902 21.999 5.99902 46.9971v78.9951q0 21.999 -19.998 21.999h-72.9961q-12.999 0 -17.999 -7q-4.99902 -6.99902 -4.99902 -14.999v-67.9961z
M-131.992 -1303.92q0 -12 4 -18.499q4 -6.5 18.999 -6.5h24.998q8 0 11 -2.5q2.99902 -2.5 2.99902 -14.499q0 -8.99902 -4.99902 -17.499q-5 -8.49902 -10.5 -16.999q-5.49902 -8.49902 -10.499 -16.499q-5 -7.99902 -5 -13.999q0 -4 3 -6.99902l16.999 -13.999q4 -4 8 -4
q6.99902 0 16.999 9.49902q9.99902 9.5 18.998 25.999q9 16.498 14.999 38.4971q6 21.999 6 46.9971v78.9951q0 21.999 -19.999 21.999h-72.9951q-12.999 0 -17.999 -7q-5 -6.99902 -5 -14.999v-67.9951z" />
    <glyph glyph-name="sterling" unicode="&#xa3;" horiz-adv-x="1080" 
d="M230 954q0 97 40 175.5t102 133.5t138.5 84.5t149.5 29.5q47 0 91 -11t83 -28t71 -37.5t53 -38.5q7 -7 19 -7q15 0 20 11l2 3q2 4 2 11q0 12 -10 20.5t-18 16.5q-25 21 -62.5 41t-80.5 35.5t-88 25t-85 9.5q-94 0 -180.5 -35.5t-153.5 -97.5t-107 -145t-40 -179v-253h-67
q-14 0 -23 -6.5t-9 -20.5v-1q0 -15 9 -21t23 -6h67v-635q0 -28 27 -28h797q14 0 24 7.5t10 21.5v1q0 15 -10 20.5t-24 5.5h-770v607h383q12 0 20.5 8t8.5 18v1q0 14 -9 21t-20 7h-383v236z" />
    <glyph glyph-name="cent" unicode="&#xa2;" horiz-adv-x="1213" 
d="M707 -205q15 0 21 9t6 23v154q103 5 195.5 38t165.5 96q13 10 13 25q0 10 -6.5 18t-17.5 8q-12 0 -23 -9q-71 -61 -162.5 -91.5t-194.5 -30.5q-119 0 -223.5 44.5t-182 122t-122 182t-44.5 223.5q0 125 49.5 230.5t131.5 182.5t187.5 120t217.5 43q90 0 178.5 -33.5
t166.5 -94.5q10 -7 20 -7q14 0 20.5 7.5t6.5 19.5t-12 23q-84 67 -176.5 101.5t-187.5 37.5v162q0 12 -8 20.5t-18 8.5h-1q-14 0 -21 -9t-7 -20v-162q-117 -7 -226 -56.5t-192.5 -133t-133.5 -196t-50 -244.5q0 -127 47 -239t128.5 -196.5t191 -135t235.5 -55.5v-154
q0 -14 6.5 -23t20.5 -9h1z" />
    <glyph glyph-name="dagger" unicode="&#x2020;" horiz-adv-x="820" 
d="M76 548q0 -15 9 -21t23 -6h279v-861q0 -8 5 -18t20 -10h3q26 0 26 28v861h285q12 0 20.5 8t8.5 18v1q0 14 -9 21t-20 7h-285v821q0 14 -7.5 21.5t-17.5 7.5h-2q-27 0 -27 -29v-821h-279q-14 0 -23 -6.5t-9 -20.5v-1z" />
    <glyph glyph-name="daggerdbl" unicode="&#x2021;" horiz-adv-x="849" 
d="M81 759q0 -15 9 -21t23 -6h279v-403h-279q-14 0 -23 -6.5t-9 -20.5v-1q0 -15 9 -21t23 -6h279v-614q0 -8 5 -18t20 -10h3q26 0 26 28v614h285q12 0 20.5 8t8.5 18v1q0 14 -9 21t-20 7h-285v403h285q12 0 20.5 8t8.5 18v1q0 14 -9 21t-20 7h-285v610q0 14 -7.5 21.5
t-17.5 7.5h-2q-27 0 -27 -29v-610h-279q-14 0 -23 -6.5t-9 -20.5v-1z" />
    <glyph glyph-name="florin" unicode="&#x192;" horiz-adv-x="735" 
d="M616 1023q31 0 31 28v1q0 26 -31 26h-249v133q0 98 15 168t50.5 115t93.5 66t145 21q13 0 20 3.5t10.5 7.5t4.5 7.5t1 4.5v2l-0.5 4.5t-3.5 9t-9.5 8.5t-18.5 4q-99 0 -167.5 -25t-112 -76.5t-63 -131t-19.5 -188.5v-133h-157q-14 0 -22.5 -6t-8.5 -20v-1q0 -14 8.5 -21
t22.5 -7h157v-1078q0 -60 -19.5 -109.5t-56 -84.5t-89 -54.5t-118.5 -19.5q-13 0 -20.5 -4t-11 -8.5t-4.5 -8.5t-1 -5v-2v-4.5t3 -10t10 -9.5t20 -4q88 0 152 27t105.5 71t62 101.5t21.5 119.5v1083h249z" />
    <glyph glyph-name="trademark" unicode="&#x2122;" horiz-adv-x="1277" 
d="M123 1426q-27 0 -27 -22v-5q0 -28 27 -28h169v-506q0 -28 28 -28h1q26 0 26 28v506h166q29 0 29 25v3q0 27 -29 27h-390zM1153 1387q-2 18 -10 27t-17 9h-1q-24 0 -33 -19l-210 -440l-192 441q-3 8 -10 11.5t-12 3.5h-1q-11 0 -20 -8t-11 -26l-42 -520q0 -11 6.5 -19
t17.5 -8h3q10 0 18 5.5t10 19.5l34 419l174 -400q9 -22 27 -22h2q9 0 14.5 7t9.5 15l194 410l35 -423q2 -17 11 -22t19 -5h1q9 0 16 7t7 21z" />
    <glyph glyph-name="yen" unicode="&#xa5;" horiz-adv-x="1139" 
d="M216 546q0 -15 8.5 -21t22.5 -6h263v-205h-263q-14 0 -22.5 -6.5t-8.5 -20.5v-1q0 -15 8.5 -21t22.5 -6h263v-226q0 -14 6.5 -23.5t20.5 -9.5h1q27 0 27 33v226h260q12 0 19.5 8.5t7.5 17.5v1q0 14 -8 21t-19 7h-260v205h260q12 0 19.5 8.5t7.5 17.5v1q0 14 -8 21t-19 7
h-260v93l480 717q5 8 5 15q0 11 -8 18t-16 9l-3 1q-11 1 -23 -16l-463 -690l-441 690q-6 10 -11 13.5t-9 3.5l-6 -2q-8 -2 -16 -9t-8 -18q0 -7 5 -15l459 -719v-91h-263q-14 0 -22.5 -6.5t-8.5 -20.5v-1z" />
    <glyph glyph-name="emdash" unicode="&#x2014;" horiz-adv-x="1601" 
d="M156 531q0 -15 8.5 -21t22.5 -6h1221q12 0 19.5 8.5t7.5 17.5v1q0 14 -8 21t-19 7h-1221q-14 0 -22.5 -6.5t-8.5 -20.5v-1z" />
    <glyph glyph-name="guilsinglright" unicode="&#x203a;" horiz-adv-x="820" 
d="M697 537q0 -2 -1 -4.5t-6 -7.5l-501 -495q-11 -11 -25 -11q-9 0 -14 5l-2 2q-9 9 -9 20q0 12 10 22l475 469l-475 469q-10 10 -10 22q0 11 9 20l2 2q5 5 14 5q14 0 25 -11l501 -495q7 -7 7 -12z" />
    <glyph glyph-name="N" unicode="N" horiz-adv-x="1493" 
d="M1262 18q11 -13 18 -15.5t11 -2.5h6q14 0 20 9t6 24v1367q0 27 -26 27h-1q-28 0 -28 -27v-1300l-1053 1308q-16 19 -30 19h-5q-14 -1 -20 -9.5t-6 -17.5v-1367q0 -14 6.5 -23.5t20.5 -9.5h1q14 0 20 9.5t6 23.5v1296z" />
    <glyph glyph-name="Zcaron" unicode="&#x17d;" horiz-adv-x="1254" 
d="M112 1427q-14 0 -23.5 -6.5t-9.5 -20.5v-1q0 -14 9.5 -20t24.5 -6l962 1l-1030 -1335q-3 -6 -3 -11v-1q0 -27 27 -27h1035q31 0 31 27v1q0 26 -31 26h-979l1024 1328q5 8 7 16v5q-1 26 -27 26zM888 1785q10 10 10 23q0 10 -8 18l-1 1q-7 7 -17 7q-6 0 -12 -3t-11 -8
l-194 -193l-193 193q-5 5 -11 8t-13 3q-9 0 -16 -7l-1 -1q-8 -8 -8 -18q0 -13 10 -23l213 -213q9 -9 19 -9q11 0 21 10z" />
    <glyph glyph-name="exclamdown" unicode="&#xa1;" horiz-adv-x="430" 
d="M180 854q0 14 7 22.5t20 8.5h3q11 0 17.5 -7.5t6.5 -25.5v-1163q0 -32 -26 -32h-1q-12 0 -19.5 9.5t-7.5 22.5v1165zM170 1213q0 13 13 13h49q13 0 13 -13v-47q0 -8 -2.5 -11t-10.5 -3h-49q-8 0 -10.5 4.5t-2.5 9.5v47z" />
    <glyph glyph-name="Ecircumflex" unicode="&#xca;" horiz-adv-x="1213" 
d="M156 28q0 -28 27 -28h948q14 0 23 7t9 21v1q0 14 -9 20.5t-23 6.5h-921v656h738q14 0 24 6.5t10 20.5v1q0 14 -10 20.5t-24 6.5h-738v604h901q14 0 23 7t9 21v1q0 14 -9 20.5t-23 6.5h-928q-27 0 -27 -27v-1372zM438 1621q-10 -10 -10 -22q0 -11 8 -18l1 -1q7 -7 17 -7
q12 0 23 11l193 192l190 -190q12 -12 24 -12q10 0 18.5 9t8.5 19q0 12 -11 23l-210 210q-10 10 -20 10t-19 -10z" />
    <glyph glyph-name="Edieresis" unicode="&#xcb;" horiz-adv-x="1213" 
d="M156 28q0 -28 27 -28h948q14 0 23 7t9 21v1q0 14 -9 20.5t-23 6.5h-921v656h738q14 0 24 6.5t10 20.5v1q0 14 -10 20.5t-24 6.5h-738v604h901q14 0 23 7t9 21v1q0 14 -9 20.5t-23 6.5h-928q-27 0 -27 -27v-1372zM461 1617q0 -14 5.5 -21t20.5 -7h60q10 0 17 5.5t7 22.5
v54q0 28 -24 28h-61q-25 0 -25 -25v-57zM771 1617q0 -14 5.5 -21t20.5 -7h60q10 0 17 5.5t7 22.5v54q0 28 -24 28h-61q-25 0 -25 -25v-57z" />
    <glyph glyph-name="Igrave" unicode="&#xcc;" horiz-adv-x="430" 
d="M154 33q0 -14 6.5 -23.5t20.5 -9.5h1q14 0 20 9.5t6 23.5v1362q0 14 -6 23t-20 9h-1q-13 0 -20 -9t-7 -23v-1362zM142 1586q8 -14 15 -17t11 -3h2q9 1 18 7t9 18q0 6 -5 18l-128 229q-8 14 -14 17t-11 3h-2q-10 -1 -18.5 -8t-8.5 -19q0 -9 5 -17z" />
    <glyph glyph-name="Iacute" unicode="&#xcd;" horiz-adv-x="430" 
d="M154 33q0 -14 6.5 -23.5t20.5 -9.5h1q14 0 20 9.5t6 23.5v1362q0 14 -6 23t-20 9h-1q-13 0 -20 -9t-7 -23v-1362zM412 1811q5 8 5 17q0 11 -8.5 18.5t-18.5 8.5h-2q-5 0 -11 -3t-14 -17l-128 -229q-5 -9 -5 -18q0 -12 9 -18t18 -7h2q4 0 11 3t15 17z" />
    <glyph glyph-name="Icircumflex" unicode="&#xce;" horiz-adv-x="430" 
d="M154 33q0 -14 6.5 -23.5t20.5 -9.5h1q14 0 20 9.5t6 23.5v1362q0 14 -6 23t-20 9h-1q-13 0 -20 -9t-7 -23v-1362zM-55 1621q-10 -10 -10 -22q0 -11 8 -18l1 -1q7 -7 17 -7q12 0 23 11l193 192l190 -190q12 -12 24 -12q10 0 18.5 9t8.5 19q0 12 -11 23l-210 210
q-10 10 -20 10t-19 -10z" />
    <glyph glyph-name="Idieresis" unicode="&#xcf;" horiz-adv-x="430" 
d="M154 33q0 -14 6.5 -23.5t20.5 -9.5h1q14 0 20 9.5t6 23.5v1362q0 14 -6 23t-20 9h-1q-13 0 -20 -9t-7 -23v-1362zM-25 1608q0 -14 5.5 -21t20.5 -7h60q10 0 17 5.5t7 22.5v54q0 28 -24 28h-61q-25 0 -25 -25v-57zM285 1608q0 -14 5.5 -21t20.5 -7h60q10 0 17 5.5t7 22.5
v54q0 28 -24 28h-61q-25 0 -25 -25v-57z" />
    <glyph glyph-name="Ntilde" unicode="&#xd1;" horiz-adv-x="1493" 
d="M1262 18q11 -13 18 -15.5t11 -2.5h6q14 0 20 9t6 24v1367q0 27 -26 27h-1q-28 0 -28 -27v-1300l-1053 1308q-16 19 -30 19h-5q-14 -1 -20 -9.5t-6 -17.5v-1367q0 -14 6.5 -23.5t20.5 -9.5h1q14 0 20 9.5t6 23.5v1296zM576 1591q23 26 44 42.5t57 16.5q26 0 50.5 -13
t49 -29t50 -29t54.5 -13q43 0 78.5 21t67.5 64q5 6 8 12.5t3 13.5t-6 15.5t-18 8.5t-24 -12.5t-26.5 -27.5t-32 -27.5t-40.5 -12.5q-28 0 -54.5 13t-52.5 29t-52 29t-55 13q-44 0 -77 -21.5t-69 -62.5q-11 -11 -11 -21q0 -8 8 -16l2 -2q10 -8 17 -8q8 0 14.5 4.5t14.5 12.5z
" />
    <glyph glyph-name="Ucircumflex" unicode="&#xdb;" horiz-adv-x="1442" 
d="M191 1398q0 14 -6 22t-20 8h-1q-14 0 -21 -8t-7 -22v-838q0 -121 46 -227.5t125 -185.5t185 -124.5t227 -45.5t227 45t185 122.5t125 182t46 224.5v845q0 14 -6 23t-20 9h-1q-14 0 -21 -9t-7 -23v-836q0 -110 -41 -206.5t-112.5 -168t-168 -112.5t-206.5 -41t-206.5 41
t-168 112.5t-112.5 168t-41 206.5v838zM480 1632q-10 -10 -10 -22q0 -11 8 -18l1 -1q7 -7 17 -7q12 0 23 11l193 192l190 -190q12 -12 24 -12q10 0 18.5 9t8.5 19q0 12 -11 23l-210 210q-10 10 -20 10t-19 -10z" />
    <glyph glyph-name="Udieresis" unicode="&#xdc;" horiz-adv-x="1442" 
d="M191 1398q0 14 -6 22t-20 8h-1q-14 0 -21 -8t-7 -22v-838q0 -121 46 -227.5t125 -185.5t185 -124.5t227 -45.5t227 45t185 122.5t125 182t46 224.5v845q0 14 -6 23t-20 9h-1q-14 0 -21 -9t-7 -23v-836q0 -110 -41 -206.5t-112.5 -168t-168 -112.5t-206.5 -41t-206.5 41
t-168 112.5t-112.5 168t-41 206.5v838zM515 1608q0 -14 5.5 -21t20.5 -7h60q10 0 17 5.5t7 22.5v54q0 28 -24 28h-61q-25 0 -25 -25v-57zM825 1608q0 -14 5.5 -21t20.5 -7h60q10 0 17 5.5t7 22.5v54q0 28 -24 28h-61q-25 0 -25 -25v-57z" />
    <glyph glyph-name="icircumflex" unicode="&#xee;" horiz-adv-x="430" 
d="M169 32q0 -14 7 -23t21 -9h1q14 0 20.5 9t6.5 23v1163q0 31 -27 31h-1q-28 0 -28 -31v-1163zM-48 1419q-10 -10 -10 -22q0 -11 8 -18l1 -1q7 -7 17 -7q12 0 23 11l193 192l190 -190q12 -12 24 -12q10 0 18.5 9t8.5 19q0 12 -11 23l-210 210q-10 10 -20 10t-19 -10z" />
    <glyph glyph-name="idieresis" unicode="&#xef;" horiz-adv-x="430" 
d="M169 32q0 -14 7 -23t21 -9h1q14 0 20.5 9t6.5 23v1163q0 31 -27 31h-1q-28 0 -28 -31v-1163zM-15 1420q0 -14 5.5 -21t20.5 -7h60q10 0 17 5.5t7 22.5v54q0 28 -24 28h-61q-25 0 -25 -25v-57zM295 1420q0 -14 5.5 -21t20.5 -7h60q10 0 17 5.5t7 22.5v54q0 28 -24 28h-61
q-25 0 -25 -25v-57z" />
    <glyph glyph-name="mu" unicode="&#xb5;" horiz-adv-x="1139" 
d="M570 -25q90 0 163 34t124.5 91t80 132t28.5 156v522q0 17 -9.5 24t-17.5 7h-4q-27 0 -27 -32v-541q0 -70 -26 -131.5t-71.5 -107t-107 -71.5t-133.5 -26t-133.5 26t-107 71.5t-71.5 107t-26 131.5v540q0 12 -6 21t-19 9h-3q-29 0 -29 -28v-1251q0 -21 12 -25t17 -4h2
q8 0 17 6t9 24v505q54 -88 141.5 -139t196.5 -51z" />
    <glyph glyph-name="periodcentered" unicode="&#xb7;" horiz-adv-x="415" 
d="M150 500q0 -11 5 -16t13 -5h80q11 0 14.5 7.5t3.5 15.5v67q0 10 -4 17.5t-18 7.5h-72q-11 0 -16.5 -7t-5.5 -16v-71z" />
    <glyph glyph-name="Ccedilla" unicode="&#xc7;" horiz-adv-x="1402" 
d="M1246 196q-88 -69 -193 -111.5t-226 -42.5q-141 0 -265 52t-216 142.5t-145.5 213t-53.5 263.5t53.5 263.5t145.5 213t216 142.5t265 52q122 0 226.5 -41.5t193.5 -110.5q11 -8 22 -8q9 0 15 4t7 5l1 1q1 2 3 4q2 5 2 10t-3.5 12t-12.5 15q-94 77 -208.5 122t-245.5 45
q-152 0 -286.5 -56.5t-234.5 -155t-158 -231.5t-58 -286q0 -152 58 -285t158 -231.5t234.5 -155.5t286.5 -57q131 0 246 45.5t207 124.5q13 11 13 26q0 10 -6 16l-2 2q-8 7 -17 7q-11 0 -22 -9zM807 -181q0 -12 15 -16.5t27 -7.5q42 -11 69.5 -39.5t27.5 -72.5
q0 -24 -8.5 -45t-24 -36.5t-36.5 -25t-46 -9.5q-11 0 -19 -7.5t-8 -18.5t7.5 -19.5t20.5 -8.5q35 0 65.5 13.5t53.5 36.5t36 54t13 66q0 30 -11 58.5t-30 51t-45.5 38t-56.5 20.5v152q0 14 -5.5 20.5t-19.5 6.5h-1q-13 0 -18.5 -7.5t-5.5 -19.5v-184z" />
    <glyph glyph-name="degree" unicode="&#xb0;" horiz-adv-x="655" 
d="M84 1004q0 -51 19.5 -96t53 -78t78 -52.5t95.5 -19.5t96 19.5t78 52.5t52.5 78t19.5 96t-19.5 95.5t-52.5 78t-78 53t-96 19.5t-95.5 -19.5t-78 -53t-53 -78t-19.5 -95.5zM147 1001q0 38 14 71t38.5 58t57.5 39t70 14q39 0 72.5 -14t57.5 -38.5t38 -58t14 -71.5
q0 -37 -14 -70.5t-38.5 -58t-58 -39t-71.5 -14.5q-37 0 -70 14.5t-57.5 39t-38.5 58t-14 70.5z" />
    <glyph glyph-name="Ydieresis" unicode="&#x178;" horiz-adv-x="1126" 
d="M1056 1384q5 8 5 16q0 12 -8 19.5t-16 7.5h-3q-4 0 -9.5 -2t-13.5 -14l-453 -705l-452 706q-8 12 -13.5 13.5t-9.5 1.5h-3q-8 0 -16 -7.5t-8 -18.5q0 -8 5 -16l470 -735v-616q0 -14 6.5 -24t20.5 -10h1q27 0 27 34v616zM357 1599q0 -14 5.5 -21t20.5 -7h60q10 0 17 5.5
t7 22.5v54q0 28 -24 28h-61q-25 0 -25 -25v-57zM667 1599q0 -14 5.5 -21t20.5 -7h60q10 0 17 5.5t7 22.5v54q0 28 -24 28h-61q-25 0 -25 -25v-57z" />
    <glyph glyph-name="Ccircumflex" unicode="&#x108;" horiz-adv-x="1402" 
d="M1246 196q-88 -69 -193 -111.5t-226 -42.5q-141 0 -265 52t-216 142.5t-145.5 213t-53.5 263.5t53.5 263.5t145.5 213t216 142.5t265 52q122 0 226.5 -41.5t193.5 -110.5q11 -8 22 -8q9 0 15 4t7 5l1 1q1 2 3 4q2 5 2 10t-3.5 12t-12.5 15q-94 77 -208.5 122t-245.5 45
q-152 0 -286.5 -56.5t-234.5 -155t-158 -231.5t-58 -286q0 -152 58 -285t158 -231.5t234.5 -155.5t286.5 -57q131 0 246 45.5t207 124.5q13 11 13 26q0 10 -6 16l-2 2q-8 7 -17 7q-11 0 -22 -9zM564 1610q-10 -10 -10 -22q0 -11 8 -18l1 -1q7 -7 17 -7q12 0 23 11l193 192
l190 -190q12 -12 24 -12q10 0 18.5 9t8.5 19q0 12 -11 23l-210 210q-10 10 -20 10t-19 -10z" />
    <glyph glyph-name="Cdotaccent" unicode="&#x10a;" horiz-adv-x="1402" 
d="M1246 196q-88 -69 -193 -111.5t-226 -42.5q-141 0 -265 52t-216 142.5t-145.5 213t-53.5 263.5t53.5 263.5t145.5 213t216 142.5t265 52q122 0 226.5 -41.5t193.5 -110.5q11 -8 22 -8q9 0 15 4t7 5l1 1q1 2 3 4q2 5 2 10t-3.5 12t-12.5 15q-94 77 -208.5 122t-245.5 45
q-152 0 -286.5 -56.5t-234.5 -155t-158 -231.5t-58 -286q0 -152 58 -285t158 -231.5t234.5 -155.5t286.5 -57q131 0 246 45.5t207 124.5q13 11 13 26q0 10 -6 16l-2 2q-8 7 -17 7q-11 0 -22 -9zM758 1602q0 -14 5.5 -21t20.5 -7h60q10 0 17 5.5t7 22.5v54q0 28 -24 28h-61
q-25 0 -25 -25v-57z" />
    <glyph glyph-name="Edotaccent" unicode="&#x116;" horiz-adv-x="1213" 
d="M156 28q0 -28 27 -28h948q14 0 23 7t9 21v1q0 14 -9 20.5t-23 6.5h-921v656h738q14 0 24 6.5t10 20.5v1q0 14 -10 20.5t-24 6.5h-738v604h901q14 0 23 7t9 21v1q0 14 -9 20.5t-23 6.5h-928q-27 0 -27 -27v-1372zM629 1607q0 -14 5.5 -21t20.5 -7h60q10 0 17 5.5t7 22.5
v54q0 28 -24 28h-61q-25 0 -25 -25v-57z" />
    <glyph glyph-name="Eogonek" unicode="&#x118;" horiz-adv-x="1213" 
d="M156 28q0 -28 27 -28h948q14 0 23 7t9 21v1q0 14 -9 20.5t-23 6.5h-921v656h738q14 0 24 6.5t10 20.5v1q0 14 -10 20.5t-24 6.5h-738v604h901q14 0 23 7t9 21v1q0 14 -9 20.5t-23 6.5h-928q-27 0 -27 -27v-1372zM1173 -268q0 16 -7.5 24t-19.5 8q-11 0 -18.5 -8t-7.5 -27
q0 -16 -6.5 -33t-19.5 -30.5t-32 -22.5t-43 -9q-27 0 -45.5 10t-30.5 25t-17 32.5t-5 32.5q0 21 9.5 39.5t24 36t31.5 33t31 29.5l135 132q11 11 11 21q0 9 -9 18l-1 1q-9 10 -18 10q-8 0 -19 -11l-137 -135q-22 -21 -41.5 -39.5t-34.5 -38.5t-24 -43t-9 -54
q0 -32 11.5 -59.5t32 -47.5t48.5 -31.5t60 -11.5q33 0 61 12t48 32.5t31 47.5t11 57z" />
    <glyph glyph-name="Hcircumflex" unicode="&#x124;" horiz-adv-x="1493" 
d="M1241 32q0 -14 6.5 -23t20.5 -9h1q14 0 20 9t6 23v1363q0 14 -6 23t-20 9h-1q-14 0 -20.5 -9t-6.5 -23v-658h-1033v658q0 14 -6 23t-20 9h-1q-14 0 -20.5 -9t-6.5 -23v-1363q0 -14 6.5 -23t20.5 -9h1q14 0 20 9t6 23v651h1033v-651zM507 1614q-10 -10 -10 -22
q0 -11 8 -18l1 -1q7 -7 17 -7q12 0 23 11l193 192l190 -190q12 -12 24 -12q10 0 18.5 9t8.5 19q0 12 -11 23l-210 210q-10 10 -20 10t-19 -10z" />
    <glyph glyph-name="Ibreve" unicode="&#x12c;" horiz-adv-x="430" 
d="M154 33q0 -14 6.5 -23.5t20.5 -9.5h1q14 0 20 9.5t6 23.5v1362q0 14 -6 23t-20 9h-1q-13 0 -20 -9t-7 -23v-1362zM191 1568q39 0 72.5 13.5t58 36.5t39 53t14.5 62q0 11 -4.5 23t-20.5 13h-3q-14 0 -19.5 -10t-5.5 -25q0 -18 -10 -38t-27.5 -37.5t-41 -29t-50.5 -11.5
q-30 0 -54 11t-40.5 27.5t-25.5 37t-9 38.5q0 16 -5 26t-19 11h-2q-17 0 -21.5 -12t-4.5 -25q0 -32 13.5 -61.5t37 -52.5t56.5 -36.5t72 -13.5z" />
    <glyph glyph-name="Itilde" unicode="&#x128;" horiz-adv-x="430" 
d="M154 33q0 -14 6.5 -23.5t20.5 -9.5h1q14 0 20 9.5t6 23.5v1362q0 14 -6 23t-20 9h-1q-13 0 -20 -9t-7 -23v-1362zM-28 1593q23 26 44 42.5t57 16.5q26 0 50.5 -13t49 -29t50 -29t54.5 -13q43 0 78.5 21t67.5 64q5 6 8 12.5t3 13.5t-6 15.5t-18 8.5t-24 -12.5t-26.5 -27.5
t-32 -27.5t-40.5 -12.5q-28 0 -54.5 13t-52.5 29t-52 29t-55 13q-44 0 -77 -21.5t-69 -62.5q-11 -11 -11 -21q0 -8 8 -16l2 -2q10 -8 17 -8q8 0 14.5 4.5t14.5 12.5z" />
    <glyph glyph-name="IJ" unicode="&#x132;" horiz-adv-x="835" 
d="M181 33q0 -14 6.5 -23.5t20.5 -9.5h1q14 0 20 9.5t6 23.5v1362q0 14 -6 23t-20 9h-1q-13 0 -20 -9t-7 -23v-1362zM605 -76q0 -47 -19.5 -93.5t-55 -83.5t-86 -60t-111.5 -23q-78 0 -126 24t-71 50q-4 4 -10 7.5t-13 3.5q-8 0 -13 -5l-2 -2q-8 -8 -8 -17q0 -10 7.5 -19
t12.5 -14q42 -42 100 -62.5t126 -20.5t127 25t102.5 67.5t68.5 99t25 119.5v1475q0 12 -6 22.5t-19 10.5h-2q-14 0 -20.5 -9.5t-6.5 -23.5v-1471z" />
    <glyph glyph-name="Jcircumflex" unicode="&#x134;" horiz-adv-x="430" 
d="M192 -76q0 -47 -19.5 -93.5t-55 -83.5t-86 -60t-111.5 -23q-78 0 -126 24t-71 50q-4 4 -10 7.5t-13 3.5q-8 0 -13 -5l-2 -2q-8 -8 -8 -17q0 -10 7.5 -19t12.5 -14q42 -42 100 -62.5t126 -20.5t127 25t102.5 67.5t68.5 99t25 119.5v1475q0 12 -6 22.5t-19 10.5h-2
q-14 0 -20.5 -9.5t-6.5 -23.5v-1471zM2 1618q-10 -10 -10 -22q0 -11 8 -18l1 -1q7 -7 17 -7q12 0 23 11l193 192l190 -190q12 -12 24 -12q10 0 18.5 9t8.5 19q0 12 -11 23l-210 210q-10 10 -20 10t-19 -10z" />
    <glyph glyph-name="Scedilla" unicode="&#x15e;" horiz-adv-x="1256" 
d="M105 199q50 -60 105 -101.5t116.5 -67.5t130 -37.5t146.5 -11.5q111 0 207.5 24.5t168.5 75t113 128t41 182.5q0 68 -23 118.5t-62 88t-90 63.5t-108.5 44t-117 31t-114.5 24q-84 17 -163 40t-140.5 59t-99 87.5t-37.5 123.5q0 90 40 151t104.5 98t145 52.5t160.5 15.5
q72 0 125 -7.5t95.5 -24t80 -42t78.5 -60.5q9 -8 17.5 -14t17.5 -6q10 0 17 5l2 2q6 8 6 18q0 13 -9 22q-46 45 -94 76t-100 50.5t-110 28t-126 8.5q-116 0 -209.5 -24.5t-159 -72t-101 -117t-35.5 -159.5q0 -76 30 -133.5t90.5 -100.5t151 -73.5t210.5 -53.5q46 -8 99 -19
t105.5 -27t101 -39t85.5 -55.5t59.5 -76t22.5 -101.5q0 -97 -38 -164.5t-103.5 -110t-151.5 -61.5t-182 -19q-82 0 -149.5 13t-123 38.5t-100.5 62t-83 82.5q-16 19 -30 19q-8 0 -15 -4l-2 -2q-8 -8 -8 -19q0 -8 4 -14.5t9 -12.5zM592 -177q0 -12 15 -16.5t27 -7.5
q42 -11 69.5 -39.5t27.5 -72.5q0 -24 -8.5 -45t-24 -36.5t-36.5 -25t-46 -9.5q-11 0 -19 -7.5t-8 -18.5t7.5 -19.5t20.5 -8.5q35 0 65.5 13.5t53.5 36.5t36 54t13 66q0 30 -11 58.5t-30 51t-45.5 38t-56.5 20.5v152q0 14 -5.5 20.5t-19.5 6.5h-1q-13 0 -18.5 -7.5
t-5.5 -19.5v-184z" />
    <glyph glyph-name="Scircumflex" unicode="&#x15c;" horiz-adv-x="1256" 
d="M105 199q50 -60 105 -101.5t116.5 -67.5t130 -37.5t146.5 -11.5q111 0 207.5 24.5t168.5 75t113 128t41 182.5q0 68 -23 118.5t-62 88t-90 63.5t-108.5 44t-117 31t-114.5 24q-84 17 -163 40t-140.5 59t-99 87.5t-37.5 123.5q0 90 40 151t104.5 98t145 52.5t160.5 15.5
q72 0 125 -7.5t95.5 -24t80 -42t78.5 -60.5q9 -8 17.5 -14t17.5 -6q10 0 17 5l2 2q6 8 6 18q0 13 -9 22q-46 45 -94 76t-100 50.5t-110 28t-126 8.5q-116 0 -209.5 -24.5t-159 -72t-101 -117t-35.5 -159.5q0 -76 30 -133.5t90.5 -100.5t151 -73.5t210.5 -53.5q46 -8 99 -19
t105.5 -27t101 -39t85.5 -55.5t59.5 -76t22.5 -101.5q0 -97 -38 -164.5t-103.5 -110t-151.5 -61.5t-182 -19q-82 0 -149.5 13t-123 38.5t-100.5 62t-83 82.5q-16 19 -30 19q-8 0 -15 -4l-2 -2q-8 -8 -8 -19q0 -8 4 -14.5t9 -12.5zM382 1616q-10 -10 -10 -22q0 -11 8 -18
l1 -1q7 -7 17 -7q12 0 23 11l193 192l190 -190q12 -12 24 -12q10 0 18.5 9t8.5 19q0 12 -11 23l-210 210q-10 10 -20 10t-19 -10z" />
    <glyph glyph-name="Wcircumflex" unicode="&#x174;" horiz-adv-x="1985" 
d="M1300 20q5 -13 13 -16.5t12 -3.5h5q4 0 11.5 4t12.5 16l574 1368q3 6 3 12q0 13 -10.5 20t-18.5 7h-3q-4 0 -10 -2.5t-11 -16.5l-551 -1319l-318 758l225 541q3 8 3 13q0 13 -10 19.5t-19 6.5h-2q-4 0 -10.5 -2.5t-11.5 -16.5l-548 -1317l-551 1317q-5 13 -11 16t-10 3
h-3q-8 0 -18 -6.5t-10 -19.5q0 -5 3 -13l574 -1368q6 -15 14 -17.5t11 -2.5h3q4 0 12 3.5t13 16.5l317 757zM757 1612q-10 -10 -10 -22q0 -11 8 -18l1 -1q7 -7 17 -7q12 0 23 11l193 192l190 -190q12 -12 24 -12q10 0 18.5 9t8.5 19q0 12 -11 23l-210 210q-10 10 -20 10
t-19 -10z" />
    <glyph glyph-name="Wdieresis" unicode="&#x1e84;" horiz-adv-x="1985" 
d="M1300 20q5 -13 13 -16.5t12 -3.5h5q4 0 11.5 4t12.5 16l574 1368q3 6 3 12q0 13 -10.5 20t-18.5 7h-3q-4 0 -10 -2.5t-11 -16.5l-551 -1319l-318 758l225 541q3 8 3 13q0 13 -10 19.5t-19 6.5h-2q-4 0 -10.5 -2.5t-11.5 -16.5l-548 -1317l-551 1317q-5 13 -11 16t-10 3
h-3q-8 0 -18 -6.5t-10 -19.5q0 -5 3 -13l574 -1368q6 -15 14 -17.5t11 -2.5h3q4 0 12 3.5t13 16.5l317 757zM805 1598q0 -14 5.5 -21t20.5 -7h60q10 0 17 5.5t7 22.5v54q0 28 -24 28h-61q-25 0 -25 -25v-57zM1115 1598q0 -14 5.5 -21t20.5 -7h60q10 0 17 5.5t7 22.5v54
q0 28 -24 28h-61q-25 0 -25 -25v-57z" />
    <glyph glyph-name="Wgrave" unicode="&#x1e80;" horiz-adv-x="1985" 
d="M1300 20q5 -13 13 -16.5t12 -3.5h5q4 0 11.5 4t12.5 16l574 1368q3 6 3 12q0 13 -10.5 20t-18.5 7h-3q-4 0 -10 -2.5t-11 -16.5l-551 -1319l-318 758l225 541q3 8 3 13q0 13 -10 19.5t-19 6.5h-2q-4 0 -10.5 -2.5t-11.5 -16.5l-548 -1317l-551 1317q-5 13 -11 16t-10 3
h-3q-8 0 -18 -6.5t-10 -19.5q0 -5 3 -13l574 -1368q6 -15 14 -17.5t11 -2.5h3q4 0 12 3.5t13 16.5l317 757zM1038 1573q8 -14 15 -17t11 -3h2q9 1 18 7t9 18q0 6 -5 18l-128 229q-8 14 -14 17t-11 3h-2q-10 -1 -18.5 -8t-8.5 -19q0 -9 5 -17z" />
    <glyph glyph-name="Ycircumflex" unicode="&#x176;" horiz-adv-x="1126" 
d="M1056 1384q5 8 5 16q0 12 -8 19.5t-16 7.5h-3q-4 0 -9.5 -2t-13.5 -14l-453 -705l-452 706q-8 12 -13.5 13.5t-9.5 1.5h-3q-8 0 -16 -7.5t-8 -18.5q0 -8 5 -16l470 -735v-616q0 -14 6.5 -24t20.5 -10h1q27 0 27 34v616zM328 1609q-10 -10 -10 -22q0 -11 8 -18l1 -1
q7 -7 17 -7q12 0 23 11l193 192l190 -190q12 -12 24 -12q10 0 18.5 9t8.5 19q0 12 -11 23l-210 210q-10 10 -20 10t-19 -10z" />
    <glyph glyph-name="Zdotaccent" unicode="&#x17b;" horiz-adv-x="1254" 
d="M112 1427q-14 0 -23.5 -6.5t-9.5 -20.5v-1q0 -14 9.5 -20t24.5 -6l962 1l-1030 -1335q-3 -6 -3 -11v-1q0 -27 27 -27h1035q31 0 31 27v1q0 26 -31 26h-979l1024 1328q5 8 7 16v5q-1 26 -27 26zM593 1609q0 -14 5.5 -21t20.5 -7h60q10 0 17 5.5t7 22.5v54q0 28 -24 28h-61
q-25 0 -25 -25v-57z" />
    <glyph glyph-name="Ubreve" unicode="&#x16c;" horiz-adv-x="1442" 
d="M191 1398q0 14 -6 22t-20 8h-1q-14 0 -21 -8t-7 -22v-838q0 -121 46 -227.5t125 -185.5t185 -124.5t227 -45.5t227 45t185 122.5t125 182t46 224.5v845q0 14 -6 23t-20 9h-1q-14 0 -21 -9t-7 -23v-836q0 -110 -41 -206.5t-112.5 -168t-168 -112.5t-206.5 -41t-206.5 41
t-168 112.5t-112.5 168t-41 206.5v838zM717 1575q39 0 72.5 13.5t58 36.5t39 53t14.5 62q0 11 -4.5 23t-20.5 13h-3q-14 0 -19.5 -10t-5.5 -25q0 -18 -10 -38t-27.5 -37.5t-41 -29t-50.5 -11.5q-30 0 -54 11t-40.5 27.5t-25.5 37t-9 38.5q0 16 -5 26t-19 11h-2
q-17 0 -21.5 -12t-4.5 -25q0 -32 13.5 -61.5t37 -52.5t56.5 -36.5t72 -13.5z" />
    <glyph glyph-name="Uogonek" unicode="&#x172;" horiz-adv-x="1442" 
d="M191 1398q0 14 -6 22t-20 8h-1q-14 0 -21 -8t-7 -22v-838q0 -121 46 -227.5t125 -185.5t185 -124.5t227 -45.5t227 45t185 122.5t125 182t46 224.5v845q0 14 -6 23t-20 9h-1q-14 0 -21 -9t-7 -23v-836q0 -110 -41 -206.5t-112.5 -168t-168 -112.5t-206.5 -41t-206.5 41
t-168 112.5t-112.5 168t-41 206.5v838zM1112 -164q0 16 -7.5 24t-19.5 8q-11 0 -18.5 -8t-7.5 -27q0 -16 -6.5 -33t-19.5 -30.5t-32 -22.5t-43 -9q-27 0 -45.5 10t-30.5 25t-17 32.5t-5 32.5q0 21 9.5 39.5t24 36t31.5 33t31 29.5l135 132q11 11 11 21q0 9 -9 18l-1 1
q-9 10 -18 10q-8 0 -19 -11l-137 -135q-22 -21 -41.5 -39.5t-34.5 -38.5t-24 -43t-9 -54q0 -32 11.5 -59.5t32 -47.5t48.5 -31.5t60 -11.5q33 0 61 12t48 32.5t31 47.5t11 57z" />
    <glyph glyph-name="Uring" unicode="&#x16e;" horiz-adv-x="1442" 
d="M191 1398q0 14 -6 22t-20 8h-1q-14 0 -21 -8t-7 -22v-838q0 -121 46 -227.5t125 -185.5t185 -124.5t227 -45.5t227 45t185 122.5t125 182t46 224.5v845q0 14 -6 23t-20 9h-1q-14 0 -21 -9t-7 -23v-836q0 -110 -41 -206.5t-112.5 -168t-168 -112.5t-206.5 -41t-206.5 41
t-168 112.5t-112.5 168t-41 206.5v838zM711 1850q-32 0 -60 -12t-48.5 -33t-32.5 -49t-12 -60t12 -60t32.5 -48.5t48.5 -32.5t60 -12t60.5 12t49.5 32.5t33 48.5t12 60t-12 60t-33 49t-49.5 33t-60.5 12zM711 1803q47 0 77.5 -30.5t30.5 -76.5t-30.5 -75t-77.5 -29
q-45 0 -74.5 29t-29.5 75t29.5 76.5t74.5 30.5z" />
    <glyph glyph-name="Utilde" unicode="&#x168;" horiz-adv-x="1442" 
d="M191 1398q0 14 -6 22t-20 8h-1q-14 0 -21 -8t-7 -22v-838q0 -121 46 -227.5t125 -185.5t185 -124.5t227 -45.5t227 45t185 122.5t125 182t46 224.5v845q0 14 -6 23t-20 9h-1q-14 0 -21 -9t-7 -23v-836q0 -110 -41 -206.5t-112.5 -168t-168 -112.5t-206.5 -41t-206.5 41
t-168 112.5t-112.5 168t-41 206.5v838zM539 1591q23 26 44 42.5t57 16.5q26 0 50.5 -13t49 -29t50 -29t54.5 -13q43 0 78.5 21t67.5 64q5 6 8 12.5t3 13.5t-6 15.5t-18 8.5t-24 -12.5t-26.5 -27.5t-32 -27.5t-40.5 -12.5q-28 0 -54.5 13t-52.5 29t-52 29t-55 13
q-44 0 -77 -21.5t-69 -62.5q-11 -11 -11 -21q0 -8 8 -16l2 -2q10 -8 17 -8q8 0 14.5 4.5t14.5 12.5z" />
    <glyph glyph-name="Lacute" unicode="&#x139;" horiz-adv-x="1112" 
d="M157 28q0 -28 27 -28h850q14 0 24 7.5t10 21.5v1q0 15 -10 20.5t-24 5.5h-823v1339q0 14 -6 23t-20 9h-1q-14 0 -20.5 -9t-6.5 -23v-1367zM360 1812q5 8 5 17q0 11 -8.5 18.5t-18.5 8.5h-2q-5 0 -11 -3t-14 -17l-128 -229q-5 -9 -5 -18q0 -12 9 -18t18 -7h2q4 0 11 3
t15 17z" />
    <glyph glyph-name="Lslash" unicode="&#x141;" horiz-adv-x="1112" 
d="M157 29q0 -28 27 -28h850q14 0 24 7.5t10 21.5v1q0 15 -10 20.5t-24 5.5h-823v607l289 111q18 6 18 25q0 12 -6 20t-19 8q-5 0 -13 -2l-269 -103v672q0 14 -6 23t-20 9h-1q-14 0 -20.5 -9t-6.5 -23v-693l-171 -65q-21 -8 -21 -26q0 -7 2 -12q3 -9 9 -13t13 -4q10 0 18 4
l150 57v-614z" />
    <glyph glyph-name="lacute" unicode="&#x13a;" horiz-adv-x="419" 
d="M154 33q0 -14 6.5 -23.5t20.5 -9.5h1q14 0 20.5 9.5t6.5 23.5v1516q0 14 -6.5 24t-20.5 10h-1q-14 0 -20.5 -10t-6.5 -24v-1516zM416 1911q5 8 5 17q0 11 -8.5 18.5t-18.5 8.5h-2q-5 0 -11 -3t-14 -17l-128 -229q-5 -9 -5 -18q0 -12 9 -18t18 -7h2q4 0 11 3t15 17z" />
    <glyph glyph-name="racute" unicode="&#x155;" horiz-adv-x="1041" 
d="M156 32q0 -14 6.5 -23t20.5 -9h1q14 0 20.5 9t6.5 23v646q0 132 43.5 223.5t109.5 147.5t144 81t147 25q45 0 85.5 -10t75.5 -26.5t64.5 -36.5t53.5 -40q10 -9 21 -9q8 0 13.5 3.5t8.5 7.5l1 1q4 4 4 12q0 18 -31 44t-79 50t-106.5 41.5t-113.5 17.5q-58 0 -123 -15.5
t-126.5 -48.5t-112.5 -84t-80 -122v255q0 14 -6 22.5t-20 8.5h-1q-14 0 -20.5 -8.5t-6.5 -22.5v-1163zM808 1620q5 8 5 17q0 11 -8.5 18.5t-18.5 8.5h-2q-5 0 -11 -3t-14 -17l-128 -229q-5 -9 -5 -18q0 -12 9 -18t18 -7h2q4 0 11 3t15 17z" />
    <glyph glyph-name="tbar" unicode="&#x167;" horiz-adv-x="597" 
d="M267 1440q0 14 -7 22.5t-21 8.5h-1q-14 0 -20 -8.5t-6 -22.5v-323h-163q-12 0 -20 -5.5t-8 -19.5t8 -19.5t20 -5.5h163v-306h-137q-12 0 -20 -6t-8 -19v-1q0 -14 8 -19t20 -5h137v-508q0 -36 10 -69.5t29.5 -60.5t48.5 -45t68 -24q18 -3 37.5 -3.5t42.5 -0.5q13 0 19.5 4
t9.5 9.5t3.5 10l0.5 4.5v2q0 1 -0.5 5t-3.5 8t-10.5 7t-22.5 3h-39q-40 0 -66.5 14.5t-42.5 37t-22.5 50t-6.5 52.5v504h175q11 0 17.5 7.5t6.5 15.5v1q0 13 -7 19.5t-17 6.5h-175v306h233q11 0 18 8t7 16v1q0 13 -7 19t-18 6h-233v323z" />
    <glyph glyph-name="tcaron" unicode="&#x165;" horiz-adv-x="597" 
d="M267 1440q0 14 -7 22.5t-21 8.5h-1q-14 0 -20 -8.5t-6 -22.5v-323h-163q-12 0 -20 -5.5t-8 -19.5t8 -19.5t20 -5.5h163v-864q0 -36 10 -69.5t29.5 -60.5t48.5 -45t68 -24q18 -3 37.5 -3.5t42.5 -0.5q13 0 19.5 4t9.5 9.5t3.5 10l0.5 4.5v2q0 1 -0.5 5t-3.5 8t-10.5 7
t-22.5 3h-39q-40 0 -66.5 14.5t-42.5 37t-22.5 50t-6.5 52.5v860h233q11 0 18 8t7 16v1q0 13 -7 19t-18 6h-233v323zM500 1382q0 -11 3.5 -16t16.5 -5h16q8 0 8 -8v-11q0 -12 -6.5 -30t-20.5 -33q-4 -4 -4 -9q0 -6 4 -9l13 -12q6 -6 12 -6q5 0 14.5 8t18.5 23t16 37t7 50v73
q0 19 -17 19h-61q-11 0 -15.5 -6t-4.5 -13v-52z" />
    <glyph glyph-name="Tbar" unicode="&#x166;" horiz-adv-x="1202" 
d="M69 1399q0 -28 28 -28h486v-478h-278q-14 0 -22.5 -6.5t-8.5 -20.5v-1q0 -15 8.5 -21t22.5 -6h278v-810q0 -28 28 -28h1q26 0 26 28v810h288q12 0 19.5 8.5t7.5 17.5v1q0 14 -8 21t-19 7h-288v478h483q26 0 26 28v1q0 27 -26 27h-1024q-28 0 -28 -27v-1z" />
    <glyph glyph-name="plusminus" unicode="&#xb1;" horiz-adv-x="954" 
d="M451 273q15 0 21 9t6 23v279h287q12 0 20.5 8t8.5 18v1q0 14 -9 21t-20 7h-287v310q0 12 -8 20.5t-18 8.5h-1q-14 0 -21 -9t-7 -20v-310h-276q-14 0 -23 -6.5t-9 -20.5v-1q0 -15 9 -21t23 -6h276v-279q0 -14 6.5 -23t20.5 -9h1zM777 0q14 0 22 7.5t8 19.5v2q0 12 -8 19.5
t-22 7.5h-618q-15 0 -21.5 -8t-6.5 -20v-1q0 -11 7 -19t21 -8h618z" />
    <glyph glyph-name="fraction" unicode="&#x2044;" horiz-adv-x="888" 
d="M38 44q-5 -6 -5 -17q0 -10 6 -17.5t19 -9.5h1q5 0 10.5 2t10.5 8l744 1373q5 7 5 15q0 9 -6 17t-21 8h-1q-12 0 -22 -13z" />
    <glyph glyph-name="dotlessi" unicode="&#x131;" horiz-adv-x="430" 
d="M169 32q0 -14 7 -23t21 -9h1q14 0 20.5 9t6.5 23v1163q0 31 -27 31h-1q-28 0 -28 -31v-1163z" />
    <glyph glyph-name="guillemotright" unicode="&#xbb;" horiz-adv-x="1304" 
d="M1149 537q0 -2 -1 -4.5t-6 -7.5l-501 -495q-11 -11 -25 -11q-9 0 -14 5l-2 2q-9 9 -9 20q0 12 10 22l475 469l-475 469q-10 10 -10 22q0 11 9 20l2 2q5 5 14 5q14 0 25 -11l501 -495q5 -5 6 -7.5t1 -4.5zM695 537q0 -2 -1 -4.5t-6 -7.5l-501 -495q-11 -11 -25 -11
q-9 0 -14 5l-2 2q-9 9 -9 20q0 12 10 22l475 469l-475 469q-10 10 -10 22q0 11 9 20l2 2q5 5 14 5q14 0 25 -11l501 -495q7 -7 7 -12z" />
    <glyph glyph-name="guillemotleft" unicode="&#xab;" horiz-adv-x="1296" 
d="M135.992 537q0 -2 0.999023 -4.5q1 -2.5 6 -7.5l500.97 -495q10.999 -11 24.998 -11q9 0 13.999 5l2 2q9 9 9 20q0 12 -10 22l-474.971 469l474.971 469q10 10 10 22q0 11 -9 20l-2 2q-4.99902 5 -13.999 5q-13.999 0 -24.998 -11l-500.97 -495q-5 -5 -6 -7.5
q-0.999023 -2.5 -0.999023 -4.5zM589.964 537q0 -2 1 -4.5t6 -7.5l500.969 -495q11 -11 24.999 -11q8.99902 0 13.999 5l2 2q8.99902 9 8.99902 20q0 12 -9.99902 22l-474.971 469l474.971 469q9.99902 10 9.99902 22q0 11 -8.99902 20l-2 2q-5 5 -13.999 5
q-13.999 0 -24.999 -11l-500.969 -495q-7 -7 -7 -12z" />
    <glyph glyph-name="minus" unicode="&#x2212;" horiz-adv-x="1039" 
d="M813 624q14 0 22 7.5t8 19.5v2q0 12 -8 19.5t-22 7.5h-618q-15 0 -21.5 -8t-6.5 -20v-1q0 -11 7 -19t21 -8h618z" />
    <glyph glyph-name="figuredash" unicode="&#x2012;" horiz-adv-x="1037" 
d="M165 671q0 -15 8.5 -21t22.5 -6h660q12 0 19.5 8.5t7.5 17.5v1q0 14 -8 21t-19 7h-660q-14 0 -22.5 -6.5t-8.5 -20.5v-1z" />
    <glyph glyph-name="uni00AD" unicode="&#xad;" horiz-adv-x="1037" 
d="M165 671q0 -15 8.5 -21t22.5 -6h660q12 0 19.5 8.5t7.5 17.5v1q0 14 -8 21t-19 7h-660q-14 0 -22.5 -6.5t-8.5 -20.5v-1z" />
    <glyph glyph-name="onedotenleader" unicode="&#x2024;" horiz-adv-x="465" 
d="M163 48q0 -24 16.5 -41t40.5 -17t41 17t17 41t-17 41t-41 17t-40.5 -17t-16.5 -41z" />
    <glyph glyph-name="twodotenleader" unicode="&#x2025;" horiz-adv-x="876" 
d="M175 48q0 -24 17 -41t40 -17q24 0 41 17t17 41t-17 41t-41 17q-23 0 -40 -17t-17 -41zM584 48q0 -24 17 -41t40 -17q24 0 41 17t17 41t-17 41t-41 17q-23 0 -40 -17t-17 -41z" />
    <glyph glyph-name="exclamdbl" unicode="&#x203c;" horiz-adv-x="826" 
d="M525 370.978q0 -13.999 7 -22.499q7 -8.49902 20 -8.49902h3q11 0 17.5 7.49902q6.5 7.5 6.5 25.499v1162.93q0 31.998 -26 31.998h-1q-12 0 -19.5 -9.49902q-7.5 -9.5 -7.5 -22.499v-1164.93zM515 11.999q0 -12.999 13 -12.999h49q13 0 13 12.999v46.9971q0 8 -2.5 11
q-2.5 2.99902 -10.5 2.99902h-49q-8 0 -10.5 -4.49902q-2.5 -4.5 -2.5 -9.5v-46.9971zM180 370.978q0 -13.999 7 -22.499q7 -8.49902 20 -8.49902h3q11 0 17.5 7.49902q6.5 7.5 6.5 25.499v1162.93q0 31.998 -26 31.998h-1q-12 0 -19.5 -9.49902q-7.5 -9.5 -7.5 -22.499
v-1164.93zM170 11.999q0 -12.999 13 -12.999h49q13 0 13 12.999v46.9971q0 8 -2.5 11q-2.5 2.99902 -10.5 2.99902h-49q-8 0 -10.5 -4.49902q-2.5 -4.5 -2.5 -9.5v-46.9971z" />
    <glyph glyph-name="Dcroat" unicode="&#x110;" horiz-adv-x="1482" 
d="M207 671h220q12 0 19.5 8.5t7.5 17.5v1q0 14 -8 21t-19 7h-220v647h425q137 0 258 -52t211.5 -142t143 -210.5t52.5 -257.5q0 -136 -52.5 -255.5t-143 -208.5t-211.5 -140.5t-258 -51.5h-425v616zM19 698q0 -15 8.5 -21t22.5 -6h102v-652q0 -19 28 -19h452q149 0 280 55
t229.5 151t155.5 226t57 279t-56 278t-152.5 225.5t-225.5 153.5t-276 60h-473q-10 -2 -14.5 -9t-4.5 -18v-675h-102q-14 0 -22.5 -6.5t-8.5 -20.5v-1z" />
    <glyph glyph-name="twosuperior" unicode="&#xb2;" 
d="M2323 1024v-550h-2254v550h854q0 28 5 55t19 50q11 27 24.5 49t34.5 39q36 39 86 58q25 11 51 16t53 5q31 0 58 -6t50 -15q55 -27 88.5 -60.5t58.5 -89.5q18 -49 18 -101h854zM947 1024q0 -57 17.5 -96.5t52.5 -82.5q36 -35 82 -55t97 -20q50 0 96 17.5t80 55.5
q20 18 33 38t24 41q20 51 20 102q0 43 -13.5 82t-41.5 72q-13 18 -27.5 31t-32.5 24q-17 7 -35 16.5t-37 16.5q-14 3 -30.5 6t-35.5 3q-55 0 -100 -23q-46 -16 -79 -54q-34 -34 -52 -80t-18 -94zM1070 877l295 298q58 -73 58 -151q0 -22 -3 -42t-11 -39q-13 -35 -38 -66
h-301zM1026 870q-26 34 -41 71q-8 17 -11 38t-3 45q0 18 3 37.5t11 39.5q4 18 13.5 33.5t23.5 30.5h299zM2058 194q3 -4 5.5 -10t4.5 -13q4 -7 4 -14v-29q0 -7 -4 -11q-2 -7 -4.5 -14t-5.5 -13q-4 -7 -15 -19q-6 -5 -11.5 -9.5t-12.5 -8.5q-5 -5 -11.5 -7t-12.5 -4
q-8 -2 -13 -2h-16q-19 0 -40 6q-8 6 -15.5 12t-15.5 13q-8 6 -13.5 13.5t-7.5 19.5q-6 9 -7.5 18.5t-1.5 21.5q0 8 1 13.5t1 13.5q3 7 6 13t7 10q2 8 5.5 12.5t9.5 10.5q3 4 9.5 8t11.5 9q4 2 10.5 4t12.5 6q10 0 15.5 1t11.5 1q9 0 16 -1t13 -1q6 -4 12.5 -6t11.5 -4
q13 -10 24 -17q2 -6 7.5 -10.5t7.5 -12.5zM1064 194q2 -4 4 -10t5 -13q2 -10 2 -14v-29q0 -5 -2 -11q-3 -7 -5 -14t-4 -13q-5 -4 -9.5 -9.5t-8.5 -9.5q-14 -14 -21.5 -18t-24.5 -11q-4 -1 -7 -1.5t-7 -0.5h-15q-9 0 -18.5 2t-21.5 4q-11 6 -17.5 12t-15.5 13
q-15 14 -21.5 33.5t-6.5 39.5v13q0 4 2 14q5 17 11 23q4 8 7.5 12.5t7.5 10.5q7 4 11.5 8t10.5 9l27 10q4 0 10.5 1t13.5 1q8 0 15 -1t14 -1q6 -4 12.5 -6t13.5 -4l20 -17q4 -6 8.5 -10.5t9.5 -12.5zM2281 244l1 1l41 1v-206h-35v150l-5 -9v-6q-8 -18 -14.5 -36t-14.5 -31
q-6 -18 -11.5 -33.5t-13.5 -34.5h-34l-52 131q-5 3 -5 10l-3 6v-147h-39v206h37q5 0 6.5 -1t3.5 -1q2 -2 3 -2t3 -2l7 -4q0 -2 2 -3.5t2 -3.5q4 -16 10.5 -30t14.5 -32q6 -15 11.5 -30.5t11.5 -28.5v-12l5 12l9 13l42 108l4 7l5 4q2 2 4 2t4 2zM1246 246h36v-206h-34
l-94 138l-4 3v2q-5 9 -7 11t-5 2v-156h-36v206h32q4 0 8.5 -1t4.5 -3q3 -2 5 -2t4 -2l21 -31q5 -8 9.5 -16t9.5 -17q13 -13 23 -27.5t23 -27.5q0 -2 1 -4.5t1 -6.5l2 -5v143zM630 246l88 -206h-23q-8 0 -15 4q-2 2 -4 6.5t-6 8.5l-12 25h-94l-9 -25q0 -6 -4 -6l-7 -9
q-2 0 -3.5 -1t-5.5 -1l-28 -2l90 206h33zM244 246h130v-37h-94v-46h77v-38h-77v-48h94v-37h-130v206zM69 246h149v-23l-7 -14l-99 -134h1l2 2h102v-37h-155v13q0 9 2 11q0 2 5 7v4l2 4q2 2 4 3.5t2 5.5l88 121h-96v37zM786 618q1 6 2 10t1 9q0 12 -3 21q0 5 -3.5 8.5
t-5.5 9.5q-2 3 -4.5 6t-6.5 7l-7 6q-2 3 -8 8l-8 4q-2 1 -4.5 2t-5.5 2h-38q-10 -4 -17 -8q-4 -5 -7.5 -7.5t-7.5 -6.5q-11 -8 -12 -13q-4 -6 -5 -9.5t-3 -8.5q-1 -5 -1.5 -10t-0.5 -11q0 -15 6 -27.5t16 -23.5q11 -14 24 -14q11 -6 27 -6h19q6 2 10.5 4t7.5 4q11 5 15 12
q7 7 11 15q2 4 5.5 8.5t3.5 8.5zM1843 618v40q-2 5 -3.5 9t-3.5 9q-5 6 -14 13q-1 4 -5.5 6.5t-8.5 7.5l-4 2t-5 2l-7 4h-39l-10 -4l-10 -4q-3 -5 -6 -7.5t-7 -6.5q-3 -4 -6 -6.5t-5 -6.5q-2 -6 -4.5 -9.5t-2.5 -8.5q-5 -10 -5 -21q0 -5 2.5 -13t5.5 -14q5 -15 15 -24
q8 -14 24 -14q11 -6 28 -6h20q3 2 8 4t8 4q4 3 8.5 5.5t5.5 6.5q9 5 14 15zM1724 190q-7 -7 -13 -23q-2 -4 -4 -9.5t-2 -13.5q0 -9 6 -25.5t13 -22.5q9 -9 22 -15q12 -4 26 -4q5 0 9.5 1t10.5 1q3 2 8 4.5t8 6.5q2 0 8 2h12q2 0 8 -2q2 -1 7 -6l6 -7q-3 -4 -6 -7.5t-7 -7.5
q-6 -3 -10.5 -6t-11.5 -6q-5 -3 -15.5 -6.5t-16.5 -3.5h-10q-11 0 -22 2t-20 4q-20 9 -33 25q-15 14 -21 33q-4 9 -6.5 18.5t-2.5 21.5q0 8 1 13.5t3 13.5q2 16 9 23q6 8 8.5 12.5t8.5 10.5l23 17l26 10q5 0 11.5 1t14.5 1h12q4 0 15 -3t15 -5l22 -13q4 -4 7 -8l6 -8
l-13 -15h-14q-7 0 -14 4q-3 2 -8 4.5t-8 4.5q-8 2 -11 2h-9q-15 0 -26 -6q-15 -2 -22 -13zM1594 125q5 -8 5 -19q0 -14 -7 -27l-8 -12q-3 -5 -8 -8q-6 -6 -10.5 -9.5t-12.5 -5.5q-5 -2 -13 -3t-14 -1q-11 0 -31 4q-9 4 -20 18q-4 1 -6 5l-4 8q-6 2 -6 9l6 4l8 2l2 2h9
q12 -3 13 -4q5 -4 8.5 -5.5t5.5 -3.5q2 0 6 -1t9 -1h5q8 2 12 3.5t7 3.5l4 4t3 4q2 4 4 7t2 7q0 6 -6 9q-4 6 -7 6q-2 4 -6.5 5t-6.5 2q-5 0 -13 6q-5 0 -9 1t-9 6q-9 3 -12.5 6t-7.5 7q-11 4 -11 13q-6 11 -6 23q0 18 6 25q1 4 5 10l8 9q4 2 9 4t12 6q6 0 10.5 1t12.5 1
q4 0 8 -1t10 -1l15 -6q3 -4 6 -6.5t7 -6.5q3 -2 6.5 -5t3.5 -7l-13 -8l-20 -3l-5 1q-3 1 -6 4q-2 0 -3.5 1t-3.5 1h-16q-2 0 -3 -1t-5 -3l-6 -5q-1 -3 -1 -10q3 -6 4 -9t3 -7h6q8 -2 13 -4.5t10 -4.5l8 -2q5 -4 9 -5t9 -4q6 -2 16 -12.5t10 -16.5zM1480 315q-11 8 -15 19
q-6 14 -6 29v15l10 18q2 2 4.5 5.5t6.5 7.5q6 8 12 9q3 5 8.5 6t8.5 3q4 0 8 1.5t9 1.5q4 0 10 -1.5t10 -1.5q4 -2 7.5 -3t7.5 -6l11 -9l12 -13q2 -4 4 -8.5t4 -9.5q0 -4 1 -8.5t1 -6.5q0 -6 -1 -13.5t-5 -15.5q-4 -12 -16 -19q-4 -4 -8.5 -7.5t-11.5 -8.5q-10 -2 -26 -2
h-14q-4 0 -10 2q-15 4 -22 16zM2030 119q5 12 5 25q0 15 -5 23q-3 13 -13.5 23t-23.5 13q-4 4 -11 5t-16 1q-10 0 -24 -6q-7 -1 -11.5 -4t-10.5 -9q-8 -6 -15 -23q0 -4 -1 -9.5t-1 -13.5t1 -13.5t1 -11.5q8 -16 15 -23q6 -4 10.5 -8t11.5 -7q7 -2 13.5 -3t10.5 -1q20 0 27 4
q28 10 37 38zM2141 315q-6 -4 -12 -7.5t-11 -8.5q-8 -2 -12 -2h-28q-4 0 -12 2q-11 4 -21 16q-7 7 -13 19q-2 8 -4 15.5t-2 13.5q0 2 1 6.5t1 8.5q2 4 3 9t4 9q2 3 5 6t5 7q7 5 16 9q3 5 8 6t7 3q5 0 8 1.5t10 1.5q2 0 7.5 -1.5t10.5 -1.5q4 -2 7.5 -3t5.5 -6q4 -2 8.5 -4.5
t7.5 -4.5q1 -2 2 -3.5t2 -3.5l4 -6q6 -10 7 -18q2 -4 3 -8.5t1 -6.5q0 -6 -1 -13.5t-5 -15.5q0 -6 -5 -11zM1039 144q0 14 -4 23q-4 17 -18 23q-2 6 -7.5 9t-11.5 4q-10 6 -27 6q-13 0 -24 -6q-10 -1 -22 -13q-8 -5 -13 -23q-5 -5 -5 -10v-27q0 -4 5 -11q5 -14 13 -22.5
t22 -15.5q9 -4 24 -4q18 0 27 4q14 7 19 15q13 5 17.5 20.5t4.5 27.5zM726 246h130v-37h-94v-52h77v-36h-77v-81h-36v206zM535 209h-55v-169h-40v169h-59v37h154v-37zM1302 246h155v-37h-61v-169h-37v169h-57v37zM1281 1233q16 -8 33.5 -19.5t33.5 -21.5h-304q34 28 70 41
q37 17 82 17t85 -17zM1114 810q-18 7 -35 18t-33 24h302q-16 -13 -33.5 -24t-33.5 -18q-22 -6 -43 -10.5t-42 -4.5q-23 0 -42.5 4.5t-39.5 10.5zM524 566l-44 64q4 0 11 4q7 3 8 9q8 6 8 11v24q-6 14 -12 19q-5 8 -13 8q-2 4 -6.5 5t-8.5 1h-53v-145h22v60h22l37 -52
q1 -4 7 -6zM1096 566l-63 145h-20l-62 -145h11q7 0 9 2q0 2 6 6l10 25h72l11 -25q1 -4 5 -6q2 -2 8 -2h13zM1810 676q2 -2 6.5 -7.5t5.5 -10.5q4 -7 4 -21q0 -12 -4 -21q-1 -4 -6 -9l-6 -6q-5 -4 -9 -6.5t-8 -6.5q-8 -4 -21 -4q-14 0 -21 4q-5 4 -9.5 6.5t-8.5 6.5
q-3 2 -6 6.5t-3 8.5q-4 6 -5 11t-1 10q0 11 6 21q0 5 3 10.5t6 7.5q8 8 18.5 11.5t20.5 3.5q12 0 21 -4zM751 676q6 -2 8.5 -7.5t4.5 -10.5q4 -7 4 -21q0 -10 -4 -21q-2 -4 -4.5 -8.5t-8.5 -6.5q-5 -9 -16 -13t-21 -4t-21 4q-4 4 -8.5 6.5t-8.5 6.5q-2 2 -5.5 6.5t-5.5 8.5
q-4 11 -4 21q0 20 8.5 30.5t23.5 19.5q5 2 11.5 3t9.5 1q13 0 21 -4q12 -4 16 -11zM277 647q5 12 5 18q0 9 -5 18q0 2 -4 6l-6 6q-2 3 -5 6.5t-9 3.5q-2 4 -7.5 5t-9.5 1h-49v-145h16v55h33q4 0 9.5 0.5t7.5 2.5q10 4 14 10q4 2 7 5.5t3 7.5zM2079 311h29l6 3q5 4 9 6l8 4
l3 6q3 6 6 11t3 9v32q-2 6 -6 10t-6 7q-6 2 -9.5 5t-7.5 7h-40q-6 -4 -9.5 -7t-8.5 -5q-7 -5 -11 -17q-2 -8 -2 -12v-20q0 -4 1 -8.5t4 -7.5l4 -4q3 -3 4 -6l6 -3q7 -5 10.5 -6.5t6.5 -3.5zM1993 711h-20v-112q-1 2 -2 5t-3 4l-70 97l-3 6h-23v-145h21v114l84 -114h16v145z
M1480 382q-3 -6 -4 -11.5t-1 -7.5v-8q3 -14 7 -21q0 -2 2 -4t4 -6l5 -3q2 -2 9 -2q2 -4 5.5 -5t5.5 -3h26q5 2 8 3t6 5l10 5q2 4 4.5 6t2.5 4q2 3 3 7.5t3 8.5q0 2 1 5.5t1 7.5q0 2 -1 7.5t-5 11.5q0 6 -3.5 10t-5.5 7q-3 1 -8 6l-9 6h-40q-4 -4 -9 -7t-9 -5q-2 -3 -5 -7
t-3 -10zM935 711h-17v-112l-73 106q-4 0 -6 6h-23v-145h19v117h2l2 -1v-4l81 -112h15v145zM1982 357q-4 -1 -7 -2t-5 -2l42 -56h-11q-7 2 -8.5 3.5t-1.5 5.5l-36 47h-26v-56h-15v130h54q3 0 9 -2q2 -2 5.5 -4.5t4.5 -4.5q4 -2 5 -5.5t7 -7.5v-25q-4 -4 -5 -7.5t-3 -5.5z
M1259 357q-3 -3 -11 -4l44 -56h-14q-9 3 -9 9l-36 47h-26v-56h-13v130h53q9 -2 13.5 -4.5t8.5 -6.5q0 -2 3 -5.5t3 -7.5l2 -19q-3 -16 -6 -19l-5 -4q-2 -2 -7 -4zM386 711h-91v-145h91v20h-69v44h55v17h-55v42h69v22zM1614 711h-88v-145h88v20h-66v44h55v17h-55v42h66v22z
M2306 425l17 2v-130h-11v106l-2 -2v-2q-4 -7 -6.5 -16t-7.5 -13q-4 -7 -6 -12.5t-7 -13.5q-2 -8 -3 -14t-5 -9q-3 -8 -6 -12.5t-5 -11.5h-14q-9 12 -14 24.5t-10 26.5q-4 11 -11 24.5t-11 26.5v2h-4v-104h-13v130h13l8 -4v-5l46 -99l3 -2v4q0 1 7 5l38 92q2 5 3 5t1 2z
M1387 711h-20v-97q0 -3 -2 -7q-1 -7 -9 -12q0 -2 -4 -3.5t-6 -5.5l-8 -2h-8q-7 0 -13 2q-5 4 -8 5.5t-5 3.5l-10 12q0 3 -1 7t-1 10v87h-19v-87q0 -7 1.5 -16.5t6.5 -14.5q2 -6 9 -11q2 -3 4.5 -5.5t7.5 -4.5q2 -2 6 -3t7 -3q4 0 7 -1t8 -1q4 0 7.5 1t10.5 1q2 2 5 3t6 3
q8 6 12 10q3 2 5 5t5 6q0 4 3 7t3 7v104zM622 592q2 5 3 8t1 8q0 10 -5 18t-11 13q-2 0 -3.5 2t-5.5 4l-4 2h-4q-4 3 -6 3.5t-3 1.5q-7 2 -8.5 3t-5.5 3q-6 3 -8 3l-3 21q8 7 11 7l14 2q10 -3 11 -6l6 -2q9 0 13 4l4 2l-6 8q-2 1 -4.5 3.5t-6.5 4.5q-2 0 -4 2t-5 4h-28
q-5 -2 -7 -4t-6 -4q-2 -5 -5.5 -7.5t-6.5 -6.5q0 -4 -2 -6.5t-2 -8.5q0 -7 4 -16l5 -7l5 -4q2 -2 6 -5t7 -3l7 -4q2 -1 7 -1q1 -2 5.5 -2t6.5 -2l5 -2q5 -4 5.5 -5l2.5 -5l2 -15q-4 -5 -4 -7.5t-2 -3.5q-1 -3 -6 -5l-3 -1q-4 0 -7.5 -1t-4.5 -1q-5 0 -11 1.5t-6 6.5l-4 1
q-4 4 -11 4h-5l-9 -4l9 -16h3q7 -7 15.5 -9t18.5 -2h8q5 0 11 2q4 2 8.5 4t6.5 5q4 2 7.5 5.5t4.5 9.5zM1497 592q7 7 7 16q0 10 -4.5 18t-11.5 13q-6 5 -6 6h-4l-36 16l-6 6q0 1 -1 3t-1 4q0 4 4 8q5 4 6.5 5.5t4.5 1.5q2 2 10 2l3 -1l7.5 -3t5.5 -2q6 -2 7 -2q7 0 8 4l5 2
q0 2 -2.5 4t-4.5 4q0 1 -3 3.5t-5 4.5q-3 0 -5 2t-6 4h-6l-4 1q-6 0 -9.5 -0.5t-7.5 -0.5l-13 -8l-11 -14q-1 -4 -3 -6.5t-2 -8.5q0 -4 2 -7.5t3 -8.5q2 -4 4.5 -6.5l4.5 -4.5q4 -2 6.5 -5t6.5 -3q8 -5 13 -5q4 -2 6.5 -2t5.5 -2q5 0 10 -3.5t5 -8.5l2 -14q-2 -7 -3.5 -9
t-3.5 -3q-11 -8 -22 -8q-2 0 -5.5 1t-5.5 1q-3 1 -8 6l-2 1q-4 4 -9 4h-6l-10 -4l8 -9v-2q7 -5 8 -5q6 -7 13.5 -9t16.5 -2h11q3 0 11 2q2 2 5.5 4t7.5 5l5 7q3 3 4 8zM1632 297h-16v130h18l77 -106v106h13v-130h-11l-77 106v4h-4v-110zM73 328q-4 4 -5 7.5t-2 8.5
q-2 6 -3 9.5t-1 9.5t4 15q1 4 2 9t5 9l9 13q2 2 6 4.5t6 4.5q5 5 9.5 6t8.5 3q3 0 8 1.5t10 1.5q15 0 26 -7q13 -4 20 -14l-4 -6h-13q-3 2 -6 5t-7 3h-34l-20 -12q-4 -3 -7 -7t-4 -10q-2 -6 -3 -11.5t-1 -7.5q0 -9 4 -13q0 -4 0.5 -8.5t0.5 -7.5l4 -4q5 -1 6 -6l7 -4
q2 -1 7 -1q2 -4 4.5 -5t6.5 -3h31q2 2 6.5 3t8.5 5v27h-13v2l-6 4h-2l-1 7h35v-48q-2 -5 -3.5 -6t-5.5 -6h-11q-8 -2 -12 -2h-32q-5 0 -18 9q-7 0 -12 9zM225 411v-41h52v-15h-52v-44h63v-14h-79v130h79v-16h-63zM1098 411v-41h56v-15h-56v-44h64v-14h-79v130h79v-16h-64z
M2226 711h-18q-5 0 -9 -4t-4 -9l-35 -44h-4l-36 44q-3 13 -15 13h-16l54 -72v-2l4 -3v-68h20v66l4 5v2zM2112 586h-64v125h-20v-145h84v20zM601 427v-79q0 -6 2 -9t5 -5q0 -6 3 -9t5 -4q0 -2 4 -4t6 -4q6 -2 8 -2h15l12 6t7 4q4 1 8 13q4 3 4 14v79h13v-79q0 -9 -3.5 -20.5
t-11.5 -16.5q-5 -12 -15 -12q-6 -1 -11.5 -1.5t-10.5 -0.5t-10.5 0.5t-12.5 1.5q-3 0 -15 12l-10 15q-1 6 -3 11t-2 11v79h13zM1191 586h-62v125h-19v-145h81v20zM1361 315q1 2 2 3.5t2 3.5q2 2 3 6t1 6q0 17 -15 21q-3 0 -12.5 4t-11.5 6q-9 0 -13 7q-2 0 -3.5 3t-3.5 6v21
q0 1 2 7q0 8 7 9l6 5q2 1 3.5 2t3.5 2q4 0 6.5 1.5t7.5 1.5l10 -3q3 0 4 -1t5 -3q6 0 6 -7q5 0 6 -3l1 -2l-2 -2q-6 -2 -9 -2h-6l-23 4q-8 0 -8 -2q-5 -7 -5 -8q-4 0 -4 -7q0 -5 4 -6q0 -4 3 -6l6 -4q4 -4 7 -4t7 -2l6 -2q3 0 7 -5h4l6 -2q5 -4 7.5 -7t4.5 -4q1 -5 1.5 -9.5
t0.5 -8.5v-10l-7.5 -12t-6.5 -6q-2 -2 -6 -4.5t-6 -2.5q-4 -2 -9 -2h-9q-9 0 -16.5 1t-12.5 8q-2 0 -3 2.5t-5 4.5v4l-2 2l4 2h6q1 0 3 -1t4 -1q4 -4 6.5 -5t4.5 -3h20q7 0 11 4zM1002 297l-55 130h5q10 0 14 -9l40 -97v-2h2l2 2q5 13 12 25.5t11 23.5q4 14 9.5 25.5
t11.5 22.5q0 5 1.5 5t1.5 2l16 2q-7 -16 -14 -32.5t-15 -31.5q-4 -8 -7 -17l-6 -18l-14 -31h-15zM499 411v-46h56v-12h-56v-56h-15v130h80v-16h-65zM1836 411v-46h51v-12h-51v-56h-15v130h77v-16h-62zM824 427v-116h59v-14h-75v130h16zM348 297v114h-44v16h99v-16h-44v-114
h-11zM735 427v-116h60v-14h-75v130h15zM253 683q2 -1 3 -4t3 -5q3 -4 3 -9v-4q0 -2 -3 -7q-2 -2 -3 -4.5t-3 -2.5q-1 -2 -3 -4l-4 -4h-43v50h33q4 0 10 -2zM1242 365q5 0 6 3q4 4 9 4l2 4q5 10 5 16q0 2 -1 3t-1 4q-3 2 -4 3t-1 5q-5 0 -9 4h-41v-46h35zM1970 368q4 4 7 4
q5 7 5 9q2 4 2 11q0 3 -2 7q0 1 -5 8q-3 0 -7 4h-41v-46h33q4 0 8 3zM486 658l-4 -7q-2 0 -3 -2t-3 -2q-2 -2 -9 -2h-31v44h31q3 0 9 -2l6 -4q1 -2 2 -3.5t2 -3.5q3 -1 3 -9q0 -6 -3 -9zM1429 427v-130h-16v130h16zM641 121l-27 69h-2l-28 -69h57zM1024 682v-4l26 -60h-55
l27 60v5zM1645 77q6 0 6 -6l2 -9q0 -7 -2 -9q0 -4 -6 -9l-22 -4q-4 4 -9 4q0 2 -5 9q-2 2 -2 9v4l7 11q7 4 9 4l14 3z" />
    <glyph glyph-name="threesuperior" unicode="&#xb3;" 
d="M2323 1024v-550h-2254v550h854q0 28 5 55t19 50q11 27 24.5 49t34.5 39q36 39 86 58q25 11 51 16t53 5q31 0 58 -6t50 -15q55 -27 88.5 -60.5t58.5 -89.5q18 -49 18 -101h854zM947 1024q0 -57 17.5 -96.5t52.5 -82.5q36 -35 82 -55t97 -20q50 0 96 17.5t80 55.5
q20 18 33 38t24 41q20 51 20 102q0 43 -13.5 82t-41.5 72q-13 18 -27.5 31t-32.5 24q-17 7 -35 16.5t-37 16.5q-14 3 -30.5 6t-35.5 3q-55 0 -100 -23q-46 -16 -79 -54q-34 -34 -52 -80t-18 -94zM1070 877l295 298q58 -73 58 -151q0 -22 -3 -42t-11 -39q-13 -35 -38 -66
h-301zM1026 870q-26 34 -41 71q-8 17 -11 38t-3 45q0 18 3 37.5t11 39.5q4 18 13.5 33.5t23.5 30.5h299zM2058 194q3 -4 5.5 -10t4.5 -13q4 -7 4 -14v-29q0 -7 -4 -11q-2 -7 -4.5 -14t-5.5 -13q-4 -7 -15 -19q-6 -5 -11.5 -9.5t-12.5 -8.5q-5 -5 -11.5 -7t-12.5 -4
q-8 -2 -13 -2h-16q-19 0 -40 6q-8 6 -15.5 12t-15.5 13q-8 6 -13.5 13.5t-7.5 19.5q-6 9 -7.5 18.5t-1.5 21.5q0 8 1 13.5t1 13.5q3 7 6 13t7 10q2 8 5.5 12.5t9.5 10.5q3 4 9.5 8t11.5 9q4 2 10.5 4t12.5 6q10 0 15.5 1t11.5 1q9 0 16 -1t13 -1q6 -4 12.5 -6t11.5 -4
q13 -10 24 -17q2 -6 7.5 -10.5t7.5 -12.5zM1064 194q2 -4 4 -10t5 -13q2 -10 2 -14v-29q0 -5 -2 -11q-3 -7 -5 -14t-4 -13q-5 -4 -9.5 -9.5t-8.5 -9.5q-14 -14 -21.5 -18t-24.5 -11q-4 -1 -7 -1.5t-7 -0.5h-15q-9 0 -18.5 2t-21.5 4q-11 6 -17.5 12t-15.5 13
q-15 14 -21.5 33.5t-6.5 39.5v13q0 4 2 14q5 17 11 23q4 8 7.5 12.5t7.5 10.5q7 4 11.5 8t10.5 9l27 10q4 0 10.5 1t13.5 1q8 0 15 -1t14 -1q6 -4 12.5 -6t13.5 -4l20 -17q4 -6 8.5 -10.5t9.5 -12.5zM2281 244l1 1l41 1v-206h-35v150l-5 -9v-6q-8 -18 -14.5 -36t-14.5 -31
q-6 -18 -11.5 -33.5t-13.5 -34.5h-34l-52 131q-5 3 -5 10l-3 6v-147h-39v206h37q5 0 6.5 -1t3.5 -1q2 -2 3 -2t3 -2l7 -4q0 -2 2 -3.5t2 -3.5q4 -16 10.5 -30t14.5 -32q6 -15 11.5 -30.5t11.5 -28.5v-12l5 12l9 13l42 108l4 7l5 4q2 2 4 2t4 2zM1246 246h36v-206h-34
l-94 138l-4 3v2q-5 9 -7 11t-5 2v-156h-36v206h32q4 0 8.5 -1t4.5 -3q3 -2 5 -2t4 -2l21 -31q5 -8 9.5 -16t9.5 -17q13 -13 23 -27.5t23 -27.5q0 -2 1 -4.5t1 -6.5l2 -5v143zM630 246l88 -206h-23q-8 0 -15 4q-2 2 -4 6.5t-6 8.5l-12 25h-94l-9 -25q0 -6 -4 -6l-7 -9
q-2 0 -3.5 -1t-5.5 -1l-28 -2l90 206h33zM244 246h130v-37h-94v-46h77v-38h-77v-48h94v-37h-130v206zM69 246h149v-23l-7 -14l-99 -134h1l2 2h102v-37h-155v13q0 9 2 11q0 2 5 7v4l2 4q2 2 4 3.5t2 5.5l88 121h-96v37zM786 618q1 6 2 10t1 9q0 12 -3 21q0 5 -3.5 8.5
t-5.5 9.5q-2 3 -4.5 6t-6.5 7l-7 6q-2 3 -8 8l-8 4q-2 1 -4.5 2t-5.5 2h-38q-10 -4 -17 -8q-4 -5 -7.5 -7.5t-7.5 -6.5q-11 -8 -12 -13q-4 -6 -5 -9.5t-3 -8.5q-1 -5 -1.5 -10t-0.5 -11q0 -15 6 -27.5t16 -23.5q11 -14 24 -14q11 -6 27 -6h19q6 2 10.5 4t7.5 4q11 5 15 12
q7 7 11 15q2 4 5.5 8.5t3.5 8.5zM1843 618v40q-2 5 -3.5 9t-3.5 9q-5 6 -14 13q-1 4 -5.5 6.5t-8.5 7.5l-4 2t-5 2l-7 4h-39l-10 -4l-10 -4q-3 -5 -6 -7.5t-7 -6.5q-3 -4 -6 -6.5t-5 -6.5q-2 -6 -4.5 -9.5t-2.5 -8.5q-5 -10 -5 -21q0 -5 2.5 -13t5.5 -14q5 -15 15 -24
q8 -14 24 -14q11 -6 28 -6h20q3 2 8 4t8 4q4 3 8.5 5.5t5.5 6.5q9 5 14 15zM1724 190q-7 -7 -13 -23q-2 -4 -4 -9.5t-2 -13.5q0 -9 6 -25.5t13 -22.5q9 -9 22 -15q12 -4 26 -4q5 0 9.5 1t10.5 1q3 2 8 4.5t8 6.5q2 0 8 2h12q2 0 8 -2q2 -1 7 -6l6 -7q-3 -4 -6 -7.5t-7 -7.5
q-6 -3 -10.5 -6t-11.5 -6q-5 -3 -15.5 -6.5t-16.5 -3.5h-10q-11 0 -22 2t-20 4q-20 9 -33 25q-15 14 -21 33q-4 9 -6.5 18.5t-2.5 21.5q0 8 1 13.5t3 13.5q2 16 9 23q6 8 8.5 12.5t8.5 10.5l23 17l26 10q5 0 11.5 1t14.5 1h12q4 0 15 -3t15 -5l22 -13q4 -4 7 -8l6 -8
l-13 -15h-14q-7 0 -14 4q-3 2 -8 4.5t-8 4.5q-8 2 -11 2h-9q-15 0 -26 -6q-15 -2 -22 -13zM1594 125q5 -8 5 -19q0 -14 -7 -27l-8 -12q-3 -5 -8 -8q-6 -6 -10.5 -9.5t-12.5 -5.5q-5 -2 -13 -3t-14 -1q-11 0 -31 4q-9 4 -20 18q-4 1 -6 5l-4 8q-6 2 -6 9l6 4l8 2l2 2h9
q12 -3 13 -4q5 -4 8.5 -5.5t5.5 -3.5q2 0 6 -1t9 -1h5q8 2 12 3.5t7 3.5l4 4t3 4q2 4 4 7t2 7q0 6 -6 9q-4 6 -7 6q-2 4 -6.5 5t-6.5 2q-5 0 -13 6q-5 0 -9 1t-9 6q-9 3 -12.5 6t-7.5 7q-11 4 -11 13q-6 11 -6 23q0 18 6 25q1 4 5 10l8 9q4 2 9 4t12 6q6 0 10.5 1t12.5 1
q4 0 8 -1t10 -1l15 -6q3 -4 6 -6.5t7 -6.5q3 -2 6.5 -5t3.5 -7l-13 -8l-20 -3l-5 1q-3 1 -6 4q-2 0 -3.5 1t-3.5 1h-16q-2 0 -3 -1t-5 -3l-6 -5q-1 -3 -1 -10q3 -6 4 -9t3 -7h6q8 -2 13 -4.5t10 -4.5l8 -2q5 -4 9 -5t9 -4q6 -2 16 -12.5t10 -16.5zM1480 315q-11 8 -15 19
q-6 14 -6 29v15l10 18q2 2 4.5 5.5t6.5 7.5q6 8 12 9q3 5 8.5 6t8.5 3q4 0 8 1.5t9 1.5q4 0 10 -1.5t10 -1.5q4 -2 7.5 -3t7.5 -6l11 -9l12 -13q2 -4 4 -8.5t4 -9.5q0 -4 1 -8.5t1 -6.5q0 -6 -1 -13.5t-5 -15.5q-4 -12 -16 -19q-4 -4 -8.5 -7.5t-11.5 -8.5q-10 -2 -26 -2
h-14q-4 0 -10 2q-15 4 -22 16zM2030 119q5 12 5 25q0 15 -5 23q-3 13 -13.5 23t-23.5 13q-4 4 -11 5t-16 1q-10 0 -24 -6q-7 -1 -11.5 -4t-10.5 -9q-8 -6 -15 -23q0 -4 -1 -9.5t-1 -13.5t1 -13.5t1 -11.5q8 -16 15 -23q6 -4 10.5 -8t11.5 -7q7 -2 13.5 -3t10.5 -1q20 0 27 4
q28 10 37 38zM2141 315q-6 -4 -12 -7.5t-11 -8.5q-8 -2 -12 -2h-28q-4 0 -12 2q-11 4 -21 16q-7 7 -13 19q-2 8 -4 15.5t-2 13.5q0 2 1 6.5t1 8.5q2 4 3 9t4 9q2 3 5 6t5 7q7 5 16 9q3 5 8 6t7 3q5 0 8 1.5t10 1.5q2 0 7.5 -1.5t10.5 -1.5q4 -2 7.5 -3t5.5 -6q4 -2 8.5 -4.5
t7.5 -4.5q1 -2 2 -3.5t2 -3.5l4 -6q6 -10 7 -18q2 -4 3 -8.5t1 -6.5q0 -6 -1 -13.5t-5 -15.5q0 -6 -5 -11zM1039 144q0 14 -4 23q-4 17 -18 23q-2 6 -7.5 9t-11.5 4q-10 6 -27 6q-13 0 -24 -6q-10 -1 -22 -13q-8 -5 -13 -23q-5 -5 -5 -10v-27q0 -4 5 -11q5 -14 13 -22.5
t22 -15.5q9 -4 24 -4q18 0 27 4q14 7 19 15q13 5 17.5 20.5t4.5 27.5zM726 246h130v-37h-94v-52h77v-36h-77v-81h-36v206zM535 209h-55v-169h-40v169h-59v37h154v-37zM1302 246h155v-37h-61v-169h-37v169h-57v37zM1281 1233q16 -8 33.5 -19.5t33.5 -21.5h-304q34 28 70 41
q37 17 82 17t85 -17zM1114 810q-18 7 -35 18t-33 24h302q-16 -13 -33.5 -24t-33.5 -18q-22 -6 -43 -10.5t-42 -4.5q-23 0 -42.5 4.5t-39.5 10.5zM524 566l-44 64q4 0 11 4q7 3 8 9q8 6 8 11v24q-6 14 -12 19q-5 8 -13 8q-2 4 -6.5 5t-8.5 1h-53v-145h22v60h22l37 -52
q1 -4 7 -6zM1096 566l-63 145h-20l-62 -145h11q7 0 9 2q0 2 6 6l10 25h72l11 -25q1 -4 5 -6q2 -2 8 -2h13zM1810 676q2 -2 6.5 -7.5t5.5 -10.5q4 -7 4 -21q0 -12 -4 -21q-1 -4 -6 -9l-6 -6q-5 -4 -9 -6.5t-8 -6.5q-8 -4 -21 -4q-14 0 -21 4q-5 4 -9.5 6.5t-8.5 6.5
q-3 2 -6 6.5t-3 8.5q-4 6 -5 11t-1 10q0 11 6 21q0 5 3 10.5t6 7.5q8 8 18.5 11.5t20.5 3.5q12 0 21 -4zM751 676q6 -2 8.5 -7.5t4.5 -10.5q4 -7 4 -21q0 -10 -4 -21q-2 -4 -4.5 -8.5t-8.5 -6.5q-5 -9 -16 -13t-21 -4t-21 4q-4 4 -8.5 6.5t-8.5 6.5q-2 2 -5.5 6.5t-5.5 8.5
q-4 11 -4 21q0 20 8.5 30.5t23.5 19.5q5 2 11.5 3t9.5 1q13 0 21 -4q12 -4 16 -11zM277 647q5 12 5 18q0 9 -5 18q0 2 -4 6l-6 6q-2 3 -5 6.5t-9 3.5q-2 4 -7.5 5t-9.5 1h-49v-145h16v55h33q4 0 9.5 0.5t7.5 2.5q10 4 14 10q4 2 7 5.5t3 7.5zM2079 311h29l6 3q5 4 9 6l8 4
l3 6q3 6 6 11t3 9v32q-2 6 -6 10t-6 7q-6 2 -9.5 5t-7.5 7h-40q-6 -4 -9.5 -7t-8.5 -5q-7 -5 -11 -17q-2 -8 -2 -12v-20q0 -4 1 -8.5t4 -7.5l4 -4q3 -3 4 -6l6 -3q7 -5 10.5 -6.5t6.5 -3.5zM1993 711h-20v-112q-1 2 -2 5t-3 4l-70 97l-3 6h-23v-145h21v114l84 -114h16v145z
M1480 382q-3 -6 -4 -11.5t-1 -7.5v-8q3 -14 7 -21q0 -2 2 -4t4 -6l5 -3q2 -2 9 -2q2 -4 5.5 -5t5.5 -3h26q5 2 8 3t6 5l10 5q2 4 4.5 6t2.5 4q2 3 3 7.5t3 8.5q0 2 1 5.5t1 7.5q0 2 -1 7.5t-5 11.5q0 6 -3.5 10t-5.5 7q-3 1 -8 6l-9 6h-40q-4 -4 -9 -7t-9 -5q-2 -3 -5 -7
t-3 -10zM935 711h-17v-112l-73 106q-4 0 -6 6h-23v-145h19v117h2l2 -1v-4l81 -112h15v145zM1982 357q-4 -1 -7 -2t-5 -2l42 -56h-11q-7 2 -8.5 3.5t-1.5 5.5l-36 47h-26v-56h-15v130h54q3 0 9 -2q2 -2 5.5 -4.5t4.5 -4.5q4 -2 5 -5.5t7 -7.5v-25q-4 -4 -5 -7.5t-3 -5.5z
M1259 357q-3 -3 -11 -4l44 -56h-14q-9 3 -9 9l-36 47h-26v-56h-13v130h53q9 -2 13.5 -4.5t8.5 -6.5q0 -2 3 -5.5t3 -7.5l2 -19q-3 -16 -6 -19l-5 -4q-2 -2 -7 -4zM386 711h-91v-145h91v20h-69v44h55v17h-55v42h69v22zM1614 711h-88v-145h88v20h-66v44h55v17h-55v42h66v22z
M2306 425l17 2v-130h-11v106l-2 -2v-2q-4 -7 -6.5 -16t-7.5 -13q-4 -7 -6 -12.5t-7 -13.5q-2 -8 -3 -14t-5 -9q-3 -8 -6 -12.5t-5 -11.5h-14q-9 12 -14 24.5t-10 26.5q-4 11 -11 24.5t-11 26.5v2h-4v-104h-13v130h13l8 -4v-5l46 -99l3 -2v4q0 1 7 5l38 92q2 5 3 5t1 2z
M1387 711h-20v-97q0 -3 -2 -7q-1 -7 -9 -12q0 -2 -4 -3.5t-6 -5.5l-8 -2h-8q-7 0 -13 2q-5 4 -8 5.5t-5 3.5l-10 12q0 3 -1 7t-1 10v87h-19v-87q0 -7 1.5 -16.5t6.5 -14.5q2 -6 9 -11q2 -3 4.5 -5.5t7.5 -4.5q2 -2 6 -3t7 -3q4 0 7 -1t8 -1q4 0 7.5 1t10.5 1q2 2 5 3t6 3
q8 6 12 10q3 2 5 5t5 6q0 4 3 7t3 7v104zM622 592q2 5 3 8t1 8q0 10 -5 18t-11 13q-2 0 -3.5 2t-5.5 4l-4 2h-4q-4 3 -6 3.5t-3 1.5q-7 2 -8.5 3t-5.5 3q-6 3 -8 3l-3 21q8 7 11 7l14 2q10 -3 11 -6l6 -2q9 0 13 4l4 2l-6 8q-2 1 -4.5 3.5t-6.5 4.5q-2 0 -4 2t-5 4h-28
q-5 -2 -7 -4t-6 -4q-2 -5 -5.5 -7.5t-6.5 -6.5q0 -4 -2 -6.5t-2 -8.5q0 -7 4 -16l5 -7l5 -4q2 -2 6 -5t7 -3l7 -4q2 -1 7 -1q1 -2 5.5 -2t6.5 -2l5 -2q5 -4 5.5 -5l2.5 -5l2 -15q-4 -5 -4 -7.5t-2 -3.5q-1 -3 -6 -5l-3 -1q-4 0 -7.5 -1t-4.5 -1q-5 0 -11 1.5t-6 6.5l-4 1
q-4 4 -11 4h-5l-9 -4l9 -16h3q7 -7 15.5 -9t18.5 -2h8q5 0 11 2q4 2 8.5 4t6.5 5q4 2 7.5 5.5t4.5 9.5zM1497 592q7 7 7 16q0 10 -4.5 18t-11.5 13q-6 5 -6 6h-4l-36 16l-6 6q0 1 -1 3t-1 4q0 4 4 8q5 4 6.5 5.5t4.5 1.5q2 2 10 2l3 -1l7.5 -3t5.5 -2q6 -2 7 -2q7 0 8 4l5 2
q0 2 -2.5 4t-4.5 4q0 1 -3 3.5t-5 4.5q-3 0 -5 2t-6 4h-6l-4 1q-6 0 -9.5 -0.5t-7.5 -0.5l-13 -8l-11 -14q-1 -4 -3 -6.5t-2 -8.5q0 -4 2 -7.5t3 -8.5q2 -4 4.5 -6.5l4.5 -4.5q4 -2 6.5 -5t6.5 -3q8 -5 13 -5q4 -2 6.5 -2t5.5 -2q5 0 10 -3.5t5 -8.5l2 -14q-2 -7 -3.5 -9
t-3.5 -3q-11 -8 -22 -8q-2 0 -5.5 1t-5.5 1q-3 1 -8 6l-2 1q-4 4 -9 4h-6l-10 -4l8 -9v-2q7 -5 8 -5q6 -7 13.5 -9t16.5 -2h11q3 0 11 2q2 2 5.5 4t7.5 5l5 7q3 3 4 8zM1632 297h-16v130h18l77 -106v106h13v-130h-11l-77 106v4h-4v-110zM73 328q-4 4 -5 7.5t-2 8.5
q-2 6 -3 9.5t-1 9.5t4 15q1 4 2 9t5 9l9 13q2 2 6 4.5t6 4.5q5 5 9.5 6t8.5 3q3 0 8 1.5t10 1.5q15 0 26 -7q13 -4 20 -14l-4 -6h-13q-3 2 -6 5t-7 3h-34l-20 -12q-4 -3 -7 -7t-4 -10q-2 -6 -3 -11.5t-1 -7.5q0 -9 4 -13q0 -4 0.5 -8.5t0.5 -7.5l4 -4q5 -1 6 -6l7 -4
q2 -1 7 -1q2 -4 4.5 -5t6.5 -3h31q2 2 6.5 3t8.5 5v27h-13v2l-6 4h-2l-1 7h35v-48q-2 -5 -3.5 -6t-5.5 -6h-11q-8 -2 -12 -2h-32q-5 0 -18 9q-7 0 -12 9zM225 411v-41h52v-15h-52v-44h63v-14h-79v130h79v-16h-63zM1098 411v-41h56v-15h-56v-44h64v-14h-79v130h79v-16h-64z
M2226 711h-18q-5 0 -9 -4t-4 -9l-35 -44h-4l-36 44q-3 13 -15 13h-16l54 -72v-2l4 -3v-68h20v66l4 5v2zM2112 586h-64v125h-20v-145h84v20zM601 427v-79q0 -6 2 -9t5 -5q0 -6 3 -9t5 -4q0 -2 4 -4t6 -4q6 -2 8 -2h15l12 6t7 4q4 1 8 13q4 3 4 14v79h13v-79q0 -9 -3.5 -20.5
t-11.5 -16.5q-5 -12 -15 -12q-6 -1 -11.5 -1.5t-10.5 -0.5t-10.5 0.5t-12.5 1.5q-3 0 -15 12l-10 15q-1 6 -3 11t-2 11v79h13zM1191 586h-62v125h-19v-145h81v20zM1361 315q1 2 2 3.5t2 3.5q2 2 3 6t1 6q0 17 -15 21q-3 0 -12.5 4t-11.5 6q-9 0 -13 7q-2 0 -3.5 3t-3.5 6v21
q0 1 2 7q0 8 7 9l6 5q2 1 3.5 2t3.5 2q4 0 6.5 1.5t7.5 1.5l10 -3q3 0 4 -1t5 -3q6 0 6 -7q5 0 6 -3l1 -2l-2 -2q-6 -2 -9 -2h-6l-23 4q-8 0 -8 -2q-5 -7 -5 -8q-4 0 -4 -7q0 -5 4 -6q0 -4 3 -6l6 -4q4 -4 7 -4t7 -2l6 -2q3 0 7 -5h4l6 -2q5 -4 7.5 -7t4.5 -4q1 -5 1.5 -9.5
t0.5 -8.5v-10l-7.5 -12t-6.5 -6q-2 -2 -6 -4.5t-6 -2.5q-4 -2 -9 -2h-9q-9 0 -16.5 1t-12.5 8q-2 0 -3 2.5t-5 4.5v4l-2 2l4 2h6q1 0 3 -1t4 -1q4 -4 6.5 -5t4.5 -3h20q7 0 11 4zM1002 297l-55 130h5q10 0 14 -9l40 -97v-2h2l2 2q5 13 12 25.5t11 23.5q4 14 9.5 25.5
t11.5 22.5q0 5 1.5 5t1.5 2l16 2q-7 -16 -14 -32.5t-15 -31.5q-4 -8 -7 -17l-6 -18l-14 -31h-15zM499 411v-46h56v-12h-56v-56h-15v130h80v-16h-65zM1836 411v-46h51v-12h-51v-56h-15v130h77v-16h-62zM824 427v-116h59v-14h-75v130h16zM348 297v114h-44v16h99v-16h-44v-114
h-11zM735 427v-116h60v-14h-75v130h15zM253 683q2 -1 3 -4t3 -5q3 -4 3 -9v-4q0 -2 -3 -7q-2 -2 -3 -4.5t-3 -2.5q-1 -2 -3 -4l-4 -4h-43v50h33q4 0 10 -2zM1242 365q5 0 6 3q4 4 9 4l2 4q5 10 5 16q0 2 -1 3t-1 4q-3 2 -4 3t-1 5q-5 0 -9 4h-41v-46h35zM1970 368q4 4 7 4
q5 7 5 9q2 4 2 11q0 3 -2 7q0 1 -5 8q-3 0 -7 4h-41v-46h33q4 0 8 3zM486 658l-4 -7q-2 0 -3 -2t-3 -2q-2 -2 -9 -2h-31v44h31q3 0 9 -2l6 -4q1 -2 2 -3.5t2 -3.5q3 -1 3 -9q0 -6 -3 -9zM1429 427v-130h-16v130h16zM641 121l-27 69h-2l-28 -69h57zM1024 682v-4l26 -60h-55
l27 60v5zM1645 77q6 0 6 -6l2 -9q0 -7 -2 -9q0 -4 -6 -9l-22 -4q-4 4 -9 4q0 2 -5 9q-2 2 -2 9v4l7 11q7 4 9 4l14 3z" />
    <glyph glyph-name="onesuperior" unicode="&#xb9;" 
d="M2323 1024v-550h-2254v550h854q0 28 5 55t19 50q11 27 24.5 49t34.5 39q36 39 86 58q25 11 51 16t53 5q31 0 58 -6t50 -15q55 -27 88.5 -60.5t58.5 -89.5q18 -49 18 -101h854zM947 1024q0 -57 17.5 -96.5t52.5 -82.5q36 -35 82 -55t97 -20q50 0 96 17.5t80 55.5
q20 18 33 38t24 41q20 51 20 102q0 43 -13.5 82t-41.5 72q-13 18 -27.5 31t-32.5 24q-17 7 -35 16.5t-37 16.5q-14 3 -30.5 6t-35.5 3q-55 0 -100 -23q-46 -16 -79 -54q-34 -34 -52 -80t-18 -94zM1070 877l295 298q58 -73 58 -151q0 -22 -3 -42t-11 -39q-13 -35 -38 -66
h-301zM1026 870q-26 34 -41 71q-8 17 -11 38t-3 45q0 18 3 37.5t11 39.5q4 18 13.5 33.5t23.5 30.5h299zM2058 194q3 -4 5.5 -10t4.5 -13q4 -7 4 -14v-29q0 -7 -4 -11q-2 -7 -4.5 -14t-5.5 -13q-4 -7 -15 -19q-6 -5 -11.5 -9.5t-12.5 -8.5q-5 -5 -11.5 -7t-12.5 -4
q-8 -2 -13 -2h-16q-19 0 -40 6q-8 6 -15.5 12t-15.5 13q-8 6 -13.5 13.5t-7.5 19.5q-6 9 -7.5 18.5t-1.5 21.5q0 8 1 13.5t1 13.5q3 7 6 13t7 10q2 8 5.5 12.5t9.5 10.5q3 4 9.5 8t11.5 9q4 2 10.5 4t12.5 6q10 0 15.5 1t11.5 1q9 0 16 -1t13 -1q6 -4 12.5 -6t11.5 -4
q13 -10 24 -17q2 -6 7.5 -10.5t7.5 -12.5zM1064 194q2 -4 4 -10t5 -13q2 -10 2 -14v-29q0 -5 -2 -11q-3 -7 -5 -14t-4 -13q-5 -4 -9.5 -9.5t-8.5 -9.5q-14 -14 -21.5 -18t-24.5 -11q-4 -1 -7 -1.5t-7 -0.5h-15q-9 0 -18.5 2t-21.5 4q-11 6 -17.5 12t-15.5 13
q-15 14 -21.5 33.5t-6.5 39.5v13q0 4 2 14q5 17 11 23q4 8 7.5 12.5t7.5 10.5q7 4 11.5 8t10.5 9l27 10q4 0 10.5 1t13.5 1q8 0 15 -1t14 -1q6 -4 12.5 -6t13.5 -4l20 -17q4 -6 8.5 -10.5t9.5 -12.5zM2281 244l1 1l41 1v-206h-35v150l-5 -9v-6q-8 -18 -14.5 -36t-14.5 -31
q-6 -18 -11.5 -33.5t-13.5 -34.5h-34l-52 131q-5 3 -5 10l-3 6v-147h-39v206h37q5 0 6.5 -1t3.5 -1q2 -2 3 -2t3 -2l7 -4q0 -2 2 -3.5t2 -3.5q4 -16 10.5 -30t14.5 -32q6 -15 11.5 -30.5t11.5 -28.5v-12l5 12l9 13l42 108l4 7l5 4q2 2 4 2t4 2zM1246 246h36v-206h-34
l-94 138l-4 3v2q-5 9 -7 11t-5 2v-156h-36v206h32q4 0 8.5 -1t4.5 -3q3 -2 5 -2t4 -2l21 -31q5 -8 9.5 -16t9.5 -17q13 -13 23 -27.5t23 -27.5q0 -2 1 -4.5t1 -6.5l2 -5v143zM630 246l88 -206h-23q-8 0 -15 4q-2 2 -4 6.5t-6 8.5l-12 25h-94l-9 -25q0 -6 -4 -6l-7 -9
q-2 0 -3.5 -1t-5.5 -1l-28 -2l90 206h33zM244 246h130v-37h-94v-46h77v-38h-77v-48h94v-37h-130v206zM69 246h149v-23l-7 -14l-99 -134h1l2 2h102v-37h-155v13q0 9 2 11q0 2 5 7v4l2 4q2 2 4 3.5t2 5.5l88 121h-96v37zM786 618q1 6 2 10t1 9q0 12 -3 21q0 5 -3.5 8.5
t-5.5 9.5q-2 3 -4.5 6t-6.5 7l-7 6q-2 3 -8 8l-8 4q-2 1 -4.5 2t-5.5 2h-38q-10 -4 -17 -8q-4 -5 -7.5 -7.5t-7.5 -6.5q-11 -8 -12 -13q-4 -6 -5 -9.5t-3 -8.5q-1 -5 -1.5 -10t-0.5 -11q0 -15 6 -27.5t16 -23.5q11 -14 24 -14q11 -6 27 -6h19q6 2 10.5 4t7.5 4q11 5 15 12
q7 7 11 15q2 4 5.5 8.5t3.5 8.5zM1843 618v40q-2 5 -3.5 9t-3.5 9q-5 6 -14 13q-1 4 -5.5 6.5t-8.5 7.5l-4 2t-5 2l-7 4h-39l-10 -4l-10 -4q-3 -5 -6 -7.5t-7 -6.5q-3 -4 -6 -6.5t-5 -6.5q-2 -6 -4.5 -9.5t-2.5 -8.5q-5 -10 -5 -21q0 -5 2.5 -13t5.5 -14q5 -15 15 -24
q8 -14 24 -14q11 -6 28 -6h20q3 2 8 4t8 4q4 3 8.5 5.5t5.5 6.5q9 5 14 15zM1724 190q-7 -7 -13 -23q-2 -4 -4 -9.5t-2 -13.5q0 -9 6 -25.5t13 -22.5q9 -9 22 -15q12 -4 26 -4q5 0 9.5 1t10.5 1q3 2 8 4.5t8 6.5q2 0 8 2h12q2 0 8 -2q2 -1 7 -6l6 -7q-3 -4 -6 -7.5t-7 -7.5
q-6 -3 -10.5 -6t-11.5 -6q-5 -3 -15.5 -6.5t-16.5 -3.5h-10q-11 0 -22 2t-20 4q-20 9 -33 25q-15 14 -21 33q-4 9 -6.5 18.5t-2.5 21.5q0 8 1 13.5t3 13.5q2 16 9 23q6 8 8.5 12.5t8.5 10.5l23 17l26 10q5 0 11.5 1t14.5 1h12q4 0 15 -3t15 -5l22 -13q4 -4 7 -8l6 -8
l-13 -15h-14q-7 0 -14 4q-3 2 -8 4.5t-8 4.5q-8 2 -11 2h-9q-15 0 -26 -6q-15 -2 -22 -13zM1594 125q5 -8 5 -19q0 -14 -7 -27l-8 -12q-3 -5 -8 -8q-6 -6 -10.5 -9.5t-12.5 -5.5q-5 -2 -13 -3t-14 -1q-11 0 -31 4q-9 4 -20 18q-4 1 -6 5l-4 8q-6 2 -6 9l6 4l8 2l2 2h9
q12 -3 13 -4q5 -4 8.5 -5.5t5.5 -3.5q2 0 6 -1t9 -1h5q8 2 12 3.5t7 3.5l4 4t3 4q2 4 4 7t2 7q0 6 -6 9q-4 6 -7 6q-2 4 -6.5 5t-6.5 2q-5 0 -13 6q-5 0 -9 1t-9 6q-9 3 -12.5 6t-7.5 7q-11 4 -11 13q-6 11 -6 23q0 18 6 25q1 4 5 10l8 9q4 2 9 4t12 6q6 0 10.5 1t12.5 1
q4 0 8 -1t10 -1l15 -6q3 -4 6 -6.5t7 -6.5q3 -2 6.5 -5t3.5 -7l-13 -8l-20 -3l-5 1q-3 1 -6 4q-2 0 -3.5 1t-3.5 1h-16q-2 0 -3 -1t-5 -3l-6 -5q-1 -3 -1 -10q3 -6 4 -9t3 -7h6q8 -2 13 -4.5t10 -4.5l8 -2q5 -4 9 -5t9 -4q6 -2 16 -12.5t10 -16.5zM1480 315q-11 8 -15 19
q-6 14 -6 29v15l10 18q2 2 4.5 5.5t6.5 7.5q6 8 12 9q3 5 8.5 6t8.5 3q4 0 8 1.5t9 1.5q4 0 10 -1.5t10 -1.5q4 -2 7.5 -3t7.5 -6l11 -9l12 -13q2 -4 4 -8.5t4 -9.5q0 -4 1 -8.5t1 -6.5q0 -6 -1 -13.5t-5 -15.5q-4 -12 -16 -19q-4 -4 -8.5 -7.5t-11.5 -8.5q-10 -2 -26 -2
h-14q-4 0 -10 2q-15 4 -22 16zM2030 119q5 12 5 25q0 15 -5 23q-3 13 -13.5 23t-23.5 13q-4 4 -11 5t-16 1q-10 0 -24 -6q-7 -1 -11.5 -4t-10.5 -9q-8 -6 -15 -23q0 -4 -1 -9.5t-1 -13.5t1 -13.5t1 -11.5q8 -16 15 -23q6 -4 10.5 -8t11.5 -7q7 -2 13.5 -3t10.5 -1q20 0 27 4
q28 10 37 38zM2141 315q-6 -4 -12 -7.5t-11 -8.5q-8 -2 -12 -2h-28q-4 0 -12 2q-11 4 -21 16q-7 7 -13 19q-2 8 -4 15.5t-2 13.5q0 2 1 6.5t1 8.5q2 4 3 9t4 9q2 3 5 6t5 7q7 5 16 9q3 5 8 6t7 3q5 0 8 1.5t10 1.5q2 0 7.5 -1.5t10.5 -1.5q4 -2 7.5 -3t5.5 -6q4 -2 8.5 -4.5
t7.5 -4.5q1 -2 2 -3.5t2 -3.5l4 -6q6 -10 7 -18q2 -4 3 -8.5t1 -6.5q0 -6 -1 -13.5t-5 -15.5q0 -6 -5 -11zM1039 144q0 14 -4 23q-4 17 -18 23q-2 6 -7.5 9t-11.5 4q-10 6 -27 6q-13 0 -24 -6q-10 -1 -22 -13q-8 -5 -13 -23q-5 -5 -5 -10v-27q0 -4 5 -11q5 -14 13 -22.5
t22 -15.5q9 -4 24 -4q18 0 27 4q14 7 19 15q13 5 17.5 20.5t4.5 27.5zM726 246h130v-37h-94v-52h77v-36h-77v-81h-36v206zM535 209h-55v-169h-40v169h-59v37h154v-37zM1302 246h155v-37h-61v-169h-37v169h-57v37zM1281 1233q16 -8 33.5 -19.5t33.5 -21.5h-304q34 28 70 41
q37 17 82 17t85 -17zM1114 810q-18 7 -35 18t-33 24h302q-16 -13 -33.5 -24t-33.5 -18q-22 -6 -43 -10.5t-42 -4.5q-23 0 -42.5 4.5t-39.5 10.5zM524 566l-44 64q4 0 11 4q7 3 8 9q8 6 8 11v24q-6 14 -12 19q-5 8 -13 8q-2 4 -6.5 5t-8.5 1h-53v-145h22v60h22l37 -52
q1 -4 7 -6zM1096 566l-63 145h-20l-62 -145h11q7 0 9 2q0 2 6 6l10 25h72l11 -25q1 -4 5 -6q2 -2 8 -2h13zM1810 676q2 -2 6.5 -7.5t5.5 -10.5q4 -7 4 -21q0 -12 -4 -21q-1 -4 -6 -9l-6 -6q-5 -4 -9 -6.5t-8 -6.5q-8 -4 -21 -4q-14 0 -21 4q-5 4 -9.5 6.5t-8.5 6.5
q-3 2 -6 6.5t-3 8.5q-4 6 -5 11t-1 10q0 11 6 21q0 5 3 10.5t6 7.5q8 8 18.5 11.5t20.5 3.5q12 0 21 -4zM751 676q6 -2 8.5 -7.5t4.5 -10.5q4 -7 4 -21q0 -10 -4 -21q-2 -4 -4.5 -8.5t-8.5 -6.5q-5 -9 -16 -13t-21 -4t-21 4q-4 4 -8.5 6.5t-8.5 6.5q-2 2 -5.5 6.5t-5.5 8.5
q-4 11 -4 21q0 20 8.5 30.5t23.5 19.5q5 2 11.5 3t9.5 1q13 0 21 -4q12 -4 16 -11zM277 647q5 12 5 18q0 9 -5 18q0 2 -4 6l-6 6q-2 3 -5 6.5t-9 3.5q-2 4 -7.5 5t-9.5 1h-49v-145h16v55h33q4 0 9.5 0.5t7.5 2.5q10 4 14 10q4 2 7 5.5t3 7.5zM2079 311h29l6 3q5 4 9 6l8 4
l3 6q3 6 6 11t3 9v32q-2 6 -6 10t-6 7q-6 2 -9.5 5t-7.5 7h-40q-6 -4 -9.5 -7t-8.5 -5q-7 -5 -11 -17q-2 -8 -2 -12v-20q0 -4 1 -8.5t4 -7.5l4 -4q3 -3 4 -6l6 -3q7 -5 10.5 -6.5t6.5 -3.5zM1993 711h-20v-112q-1 2 -2 5t-3 4l-70 97l-3 6h-23v-145h21v114l84 -114h16v145z
M1480 382q-3 -6 -4 -11.5t-1 -7.5v-8q3 -14 7 -21q0 -2 2 -4t4 -6l5 -3q2 -2 9 -2q2 -4 5.5 -5t5.5 -3h26q5 2 8 3t6 5l10 5q2 4 4.5 6t2.5 4q2 3 3 7.5t3 8.5q0 2 1 5.5t1 7.5q0 2 -1 7.5t-5 11.5q0 6 -3.5 10t-5.5 7q-3 1 -8 6l-9 6h-40q-4 -4 -9 -7t-9 -5q-2 -3 -5 -7
t-3 -10zM935 711h-17v-112l-73 106q-4 0 -6 6h-23v-145h19v117h2l2 -1v-4l81 -112h15v145zM1982 357q-4 -1 -7 -2t-5 -2l42 -56h-11q-7 2 -8.5 3.5t-1.5 5.5l-36 47h-26v-56h-15v130h54q3 0 9 -2q2 -2 5.5 -4.5t4.5 -4.5q4 -2 5 -5.5t7 -7.5v-25q-4 -4 -5 -7.5t-3 -5.5z
M1259 357q-3 -3 -11 -4l44 -56h-14q-9 3 -9 9l-36 47h-26v-56h-13v130h53q9 -2 13.5 -4.5t8.5 -6.5q0 -2 3 -5.5t3 -7.5l2 -19q-3 -16 -6 -19l-5 -4q-2 -2 -7 -4zM386 711h-91v-145h91v20h-69v44h55v17h-55v42h69v22zM1614 711h-88v-145h88v20h-66v44h55v17h-55v42h66v22z
M2306 425l17 2v-130h-11v106l-2 -2v-2q-4 -7 -6.5 -16t-7.5 -13q-4 -7 -6 -12.5t-7 -13.5q-2 -8 -3 -14t-5 -9q-3 -8 -6 -12.5t-5 -11.5h-14q-9 12 -14 24.5t-10 26.5q-4 11 -11 24.5t-11 26.5v2h-4v-104h-13v130h13l8 -4v-5l46 -99l3 -2v4q0 1 7 5l38 92q2 5 3 5t1 2z
M1387 711h-20v-97q0 -3 -2 -7q-1 -7 -9 -12q0 -2 -4 -3.5t-6 -5.5l-8 -2h-8q-7 0 -13 2q-5 4 -8 5.5t-5 3.5l-10 12q0 3 -1 7t-1 10v87h-19v-87q0 -7 1.5 -16.5t6.5 -14.5q2 -6 9 -11q2 -3 4.5 -5.5t7.5 -4.5q2 -2 6 -3t7 -3q4 0 7 -1t8 -1q4 0 7.5 1t10.5 1q2 2 5 3t6 3
q8 6 12 10q3 2 5 5t5 6q0 4 3 7t3 7v104zM622 592q2 5 3 8t1 8q0 10 -5 18t-11 13q-2 0 -3.5 2t-5.5 4l-4 2h-4q-4 3 -6 3.5t-3 1.5q-7 2 -8.5 3t-5.5 3q-6 3 -8 3l-3 21q8 7 11 7l14 2q10 -3 11 -6l6 -2q9 0 13 4l4 2l-6 8q-2 1 -4.5 3.5t-6.5 4.5q-2 0 -4 2t-5 4h-28
q-5 -2 -7 -4t-6 -4q-2 -5 -5.5 -7.5t-6.5 -6.5q0 -4 -2 -6.5t-2 -8.5q0 -7 4 -16l5 -7l5 -4q2 -2 6 -5t7 -3l7 -4q2 -1 7 -1q1 -2 5.5 -2t6.5 -2l5 -2q5 -4 5.5 -5l2.5 -5l2 -15q-4 -5 -4 -7.5t-2 -3.5q-1 -3 -6 -5l-3 -1q-4 0 -7.5 -1t-4.5 -1q-5 0 -11 1.5t-6 6.5l-4 1
q-4 4 -11 4h-5l-9 -4l9 -16h3q7 -7 15.5 -9t18.5 -2h8q5 0 11 2q4 2 8.5 4t6.5 5q4 2 7.5 5.5t4.5 9.5zM1497 592q7 7 7 16q0 10 -4.5 18t-11.5 13q-6 5 -6 6h-4l-36 16l-6 6q0 1 -1 3t-1 4q0 4 4 8q5 4 6.5 5.5t4.5 1.5q2 2 10 2l3 -1l7.5 -3t5.5 -2q6 -2 7 -2q7 0 8 4l5 2
q0 2 -2.5 4t-4.5 4q0 1 -3 3.5t-5 4.5q-3 0 -5 2t-6 4h-6l-4 1q-6 0 -9.5 -0.5t-7.5 -0.5l-13 -8l-11 -14q-1 -4 -3 -6.5t-2 -8.5q0 -4 2 -7.5t3 -8.5q2 -4 4.5 -6.5l4.5 -4.5q4 -2 6.5 -5t6.5 -3q8 -5 13 -5q4 -2 6.5 -2t5.5 -2q5 0 10 -3.5t5 -8.5l2 -14q-2 -7 -3.5 -9
t-3.5 -3q-11 -8 -22 -8q-2 0 -5.5 1t-5.5 1q-3 1 -8 6l-2 1q-4 4 -9 4h-6l-10 -4l8 -9v-2q7 -5 8 -5q6 -7 13.5 -9t16.5 -2h11q3 0 11 2q2 2 5.5 4t7.5 5l5 7q3 3 4 8zM1632 297h-16v130h18l77 -106v106h13v-130h-11l-77 106v4h-4v-110zM73 328q-4 4 -5 7.5t-2 8.5
q-2 6 -3 9.5t-1 9.5t4 15q1 4 2 9t5 9l9 13q2 2 6 4.5t6 4.5q5 5 9.5 6t8.5 3q3 0 8 1.5t10 1.5q15 0 26 -7q13 -4 20 -14l-4 -6h-13q-3 2 -6 5t-7 3h-34l-20 -12q-4 -3 -7 -7t-4 -10q-2 -6 -3 -11.5t-1 -7.5q0 -9 4 -13q0 -4 0.5 -8.5t0.5 -7.5l4 -4q5 -1 6 -6l7 -4
q2 -1 7 -1q2 -4 4.5 -5t6.5 -3h31q2 2 6.5 3t8.5 5v27h-13v2l-6 4h-2l-1 7h35v-48q-2 -5 -3.5 -6t-5.5 -6h-11q-8 -2 -12 -2h-32q-5 0 -18 9q-7 0 -12 9zM225 411v-41h52v-15h-52v-44h63v-14h-79v130h79v-16h-63zM1098 411v-41h56v-15h-56v-44h64v-14h-79v130h79v-16h-64z
M2226 711h-18q-5 0 -9 -4t-4 -9l-35 -44h-4l-36 44q-3 13 -15 13h-16l54 -72v-2l4 -3v-68h20v66l4 5v2zM2112 586h-64v125h-20v-145h84v20zM601 427v-79q0 -6 2 -9t5 -5q0 -6 3 -9t5 -4q0 -2 4 -4t6 -4q6 -2 8 -2h15l12 6t7 4q4 1 8 13q4 3 4 14v79h13v-79q0 -9 -3.5 -20.5
t-11.5 -16.5q-5 -12 -15 -12q-6 -1 -11.5 -1.5t-10.5 -0.5t-10.5 0.5t-12.5 1.5q-3 0 -15 12l-10 15q-1 6 -3 11t-2 11v79h13zM1191 586h-62v125h-19v-145h81v20zM1361 315q1 2 2 3.5t2 3.5q2 2 3 6t1 6q0 17 -15 21q-3 0 -12.5 4t-11.5 6q-9 0 -13 7q-2 0 -3.5 3t-3.5 6v21
q0 1 2 7q0 8 7 9l6 5q2 1 3.5 2t3.5 2q4 0 6.5 1.5t7.5 1.5l10 -3q3 0 4 -1t5 -3q6 0 6 -7q5 0 6 -3l1 -2l-2 -2q-6 -2 -9 -2h-6l-23 4q-8 0 -8 -2q-5 -7 -5 -8q-4 0 -4 -7q0 -5 4 -6q0 -4 3 -6l6 -4q4 -4 7 -4t7 -2l6 -2q3 0 7 -5h4l6 -2q5 -4 7.5 -7t4.5 -4q1 -5 1.5 -9.5
t0.5 -8.5v-10l-7.5 -12t-6.5 -6q-2 -2 -6 -4.5t-6 -2.5q-4 -2 -9 -2h-9q-9 0 -16.5 1t-12.5 8q-2 0 -3 2.5t-5 4.5v4l-2 2l4 2h6q1 0 3 -1t4 -1q4 -4 6.5 -5t4.5 -3h20q7 0 11 4zM1002 297l-55 130h5q10 0 14 -9l40 -97v-2h2l2 2q5 13 12 25.5t11 23.5q4 14 9.5 25.5
t11.5 22.5q0 5 1.5 5t1.5 2l16 2q-7 -16 -14 -32.5t-15 -31.5q-4 -8 -7 -17l-6 -18l-14 -31h-15zM499 411v-46h56v-12h-56v-56h-15v130h80v-16h-65zM1836 411v-46h51v-12h-51v-56h-15v130h77v-16h-62zM824 427v-116h59v-14h-75v130h16zM348 297v114h-44v16h99v-16h-44v-114
h-11zM735 427v-116h60v-14h-75v130h15zM253 683q2 -1 3 -4t3 -5q3 -4 3 -9v-4q0 -2 -3 -7q-2 -2 -3 -4.5t-3 -2.5q-1 -2 -3 -4l-4 -4h-43v50h33q4 0 10 -2zM1242 365q5 0 6 3q4 4 9 4l2 4q5 10 5 16q0 2 -1 3t-1 4q-3 2 -4 3t-1 5q-5 0 -9 4h-41v-46h35zM1970 368q4 4 7 4
q5 7 5 9q2 4 2 11q0 3 -2 7q0 1 -5 8q-3 0 -7 4h-41v-46h33q4 0 8 3zM486 658l-4 -7q-2 0 -3 -2t-3 -2q-2 -2 -9 -2h-31v44h31q3 0 9 -2l6 -4q1 -2 2 -3.5t2 -3.5q3 -1 3 -9q0 -6 -3 -9zM1429 427v-130h-16v130h16zM641 121l-27 69h-2l-28 -69h57zM1024 682v-4l26 -60h-55
l27 60v5zM1645 77q6 0 6 -6l2 -9q0 -7 -2 -9q0 -4 -6 -9l-22 -4q-4 4 -9 4q0 2 -5 9q-2 2 -2 9v4l7 11q7 4 9 4l14 3z" />
    <glyph glyph-name="ordmasculine" unicode="&#xba;" horiz-adv-x="1031" 
d="M129 1093q0 -74 28 -139t77 -113t114 -76t139 -28q68 0 132.5 24.5t114.5 70.5t80 112t30 149q0 74 -28 139.5t-76.5 114t-113.5 76.5t-139 28t-139 -28t-114 -76.5t-77 -114t-28 -139.5zM186 1093q0 61 24 115.5t65 95.5t95.5 65t116.5 24t117 -24t95.5 -65t64 -95.5
t23.5 -115.5q0 -63 -23.5 -117.5t-64 -95t-95.5 -63.5t-117 -23t-116.5 23t-95.5 63.5t-65 95t-24 117.5z" />
    <glyph glyph-name="ordfeminine" unicode="&#xaa;" horiz-adv-x="975" 
d="M165 1093q0 61 24 115.5t65 95.5t96 65t117 24t116.5 -24t95 -65t64 -95.5t23.5 -115.5q0 -63 -23.5 -117.5t-64 -95t-95 -63.5t-116.5 -23t-117 23t-96 63.5t-65 95t-24 117.5zM769 774q0 -13 9.5 -22t23.5 -9h2q11 0 20.5 9.5t9.5 20.5l-8 629q0 12 -7.5 20.5
t-18.5 8.5h-1q-14 0 -22 -8t-8 -21v-120q-48 76 -126.5 122.5t-175.5 46.5q-74 0 -139.5 -28t-114 -76.5t-76.5 -114t-28 -139.5t28 -139t76.5 -113t114 -76t139.5 -28q62 0 108 11t80.5 31.5t61.5 51t52 69.5v-126z" />
    <glyph glyph-name="onequarter" unicode="&#xbc;" 
d="M2323 1024v-550h-2254v550h854q0 28 5 55t19 50q11 27 24.5 49t34.5 39q36 39 86 58q25 11 51 16t53 5q31 0 58 -6t50 -15q55 -27 88.5 -60.5t58.5 -89.5q18 -49 18 -101h854zM947 1024q0 -57 17.5 -96.5t52.5 -82.5q36 -35 82 -55t97 -20q50 0 96 17.5t80 55.5
q20 18 33 38t24 41q20 51 20 102q0 43 -13.5 82t-41.5 72q-13 18 -27.5 31t-32.5 24q-17 7 -35 16.5t-37 16.5q-14 3 -30.5 6t-35.5 3q-55 0 -100 -23q-46 -16 -79 -54q-34 -34 -52 -80t-18 -94zM1070 877l295 298q58 -73 58 -151q0 -22 -3 -42t-11 -39q-13 -35 -38 -66
h-301zM1026 870q-26 34 -41 71q-8 17 -11 38t-3 45q0 18 3 37.5t11 39.5q4 18 13.5 33.5t23.5 30.5h299zM2058 194q3 -4 5.5 -10t4.5 -13q4 -7 4 -14v-29q0 -7 -4 -11q-2 -7 -4.5 -14t-5.5 -13q-4 -7 -15 -19q-6 -5 -11.5 -9.5t-12.5 -8.5q-5 -5 -11.5 -7t-12.5 -4
q-8 -2 -13 -2h-16q-19 0 -40 6q-8 6 -15.5 12t-15.5 13q-8 6 -13.5 13.5t-7.5 19.5q-6 9 -7.5 18.5t-1.5 21.5q0 8 1 13.5t1 13.5q3 7 6 13t7 10q2 8 5.5 12.5t9.5 10.5q3 4 9.5 8t11.5 9q4 2 10.5 4t12.5 6q10 0 15.5 1t11.5 1q9 0 16 -1t13 -1q6 -4 12.5 -6t11.5 -4
q13 -10 24 -17q2 -6 7.5 -10.5t7.5 -12.5zM1064 194q2 -4 4 -10t5 -13q2 -10 2 -14v-29q0 -5 -2 -11q-3 -7 -5 -14t-4 -13q-5 -4 -9.5 -9.5t-8.5 -9.5q-14 -14 -21.5 -18t-24.5 -11q-4 -1 -7 -1.5t-7 -0.5h-15q-9 0 -18.5 2t-21.5 4q-11 6 -17.5 12t-15.5 13
q-15 14 -21.5 33.5t-6.5 39.5v13q0 4 2 14q5 17 11 23q4 8 7.5 12.5t7.5 10.5q7 4 11.5 8t10.5 9l27 10q4 0 10.5 1t13.5 1q8 0 15 -1t14 -1q6 -4 12.5 -6t13.5 -4l20 -17q4 -6 8.5 -10.5t9.5 -12.5zM2281 244l1 1l41 1v-206h-35v150l-5 -9v-6q-8 -18 -14.5 -36t-14.5 -31
q-6 -18 -11.5 -33.5t-13.5 -34.5h-34l-52 131q-5 3 -5 10l-3 6v-147h-39v206h37q5 0 6.5 -1t3.5 -1q2 -2 3 -2t3 -2l7 -4q0 -2 2 -3.5t2 -3.5q4 -16 10.5 -30t14.5 -32q6 -15 11.5 -30.5t11.5 -28.5v-12l5 12l9 13l42 108l4 7l5 4q2 2 4 2t4 2zM1246 246h36v-206h-34
l-94 138l-4 3v2q-5 9 -7 11t-5 2v-156h-36v206h32q4 0 8.5 -1t4.5 -3q3 -2 5 -2t4 -2l21 -31q5 -8 9.5 -16t9.5 -17q13 -13 23 -27.5t23 -27.5q0 -2 1 -4.5t1 -6.5l2 -5v143zM630 246l88 -206h-23q-8 0 -15 4q-2 2 -4 6.5t-6 8.5l-12 25h-94l-9 -25q0 -6 -4 -6l-7 -9
q-2 0 -3.5 -1t-5.5 -1l-28 -2l90 206h33zM244 246h130v-37h-94v-46h77v-38h-77v-48h94v-37h-130v206zM69 246h149v-23l-7 -14l-99 -134h1l2 2h102v-37h-155v13q0 9 2 11q0 2 5 7v4l2 4q2 2 4 3.5t2 5.5l88 121h-96v37zM786 618q1 6 2 10t1 9q0 12 -3 21q0 5 -3.5 8.5
t-5.5 9.5q-2 3 -4.5 6t-6.5 7l-7 6q-2 3 -8 8l-8 4q-2 1 -4.5 2t-5.5 2h-38q-10 -4 -17 -8q-4 -5 -7.5 -7.5t-7.5 -6.5q-11 -8 -12 -13q-4 -6 -5 -9.5t-3 -8.5q-1 -5 -1.5 -10t-0.5 -11q0 -15 6 -27.5t16 -23.5q11 -14 24 -14q11 -6 27 -6h19q6 2 10.5 4t7.5 4q11 5 15 12
q7 7 11 15q2 4 5.5 8.5t3.5 8.5zM1843 618v40q-2 5 -3.5 9t-3.5 9q-5 6 -14 13q-1 4 -5.5 6.5t-8.5 7.5l-4 2t-5 2l-7 4h-39l-10 -4l-10 -4q-3 -5 -6 -7.5t-7 -6.5q-3 -4 -6 -6.5t-5 -6.5q-2 -6 -4.5 -9.5t-2.5 -8.5q-5 -10 -5 -21q0 -5 2.5 -13t5.5 -14q5 -15 15 -24
q8 -14 24 -14q11 -6 28 -6h20q3 2 8 4t8 4q4 3 8.5 5.5t5.5 6.5q9 5 14 15zM1724 190q-7 -7 -13 -23q-2 -4 -4 -9.5t-2 -13.5q0 -9 6 -25.5t13 -22.5q9 -9 22 -15q12 -4 26 -4q5 0 9.5 1t10.5 1q3 2 8 4.5t8 6.5q2 0 8 2h12q2 0 8 -2q2 -1 7 -6l6 -7q-3 -4 -6 -7.5t-7 -7.5
q-6 -3 -10.5 -6t-11.5 -6q-5 -3 -15.5 -6.5t-16.5 -3.5h-10q-11 0 -22 2t-20 4q-20 9 -33 25q-15 14 -21 33q-4 9 -6.5 18.5t-2.5 21.5q0 8 1 13.5t3 13.5q2 16 9 23q6 8 8.5 12.5t8.5 10.5l23 17l26 10q5 0 11.5 1t14.5 1h12q4 0 15 -3t15 -5l22 -13q4 -4 7 -8l6 -8
l-13 -15h-14q-7 0 -14 4q-3 2 -8 4.5t-8 4.5q-8 2 -11 2h-9q-15 0 -26 -6q-15 -2 -22 -13zM1594 125q5 -8 5 -19q0 -14 -7 -27l-8 -12q-3 -5 -8 -8q-6 -6 -10.5 -9.5t-12.5 -5.5q-5 -2 -13 -3t-14 -1q-11 0 -31 4q-9 4 -20 18q-4 1 -6 5l-4 8q-6 2 -6 9l6 4l8 2l2 2h9
q12 -3 13 -4q5 -4 8.5 -5.5t5.5 -3.5q2 0 6 -1t9 -1h5q8 2 12 3.5t7 3.5l4 4t3 4q2 4 4 7t2 7q0 6 -6 9q-4 6 -7 6q-2 4 -6.5 5t-6.5 2q-5 0 -13 6q-5 0 -9 1t-9 6q-9 3 -12.5 6t-7.5 7q-11 4 -11 13q-6 11 -6 23q0 18 6 25q1 4 5 10l8 9q4 2 9 4t12 6q6 0 10.5 1t12.5 1
q4 0 8 -1t10 -1l15 -6q3 -4 6 -6.5t7 -6.5q3 -2 6.5 -5t3.5 -7l-13 -8l-20 -3l-5 1q-3 1 -6 4q-2 0 -3.5 1t-3.5 1h-16q-2 0 -3 -1t-5 -3l-6 -5q-1 -3 -1 -10q3 -6 4 -9t3 -7h6q8 -2 13 -4.5t10 -4.5l8 -2q5 -4 9 -5t9 -4q6 -2 16 -12.5t10 -16.5zM1480 315q-11 8 -15 19
q-6 14 -6 29v15l10 18q2 2 4.5 5.5t6.5 7.5q6 8 12 9q3 5 8.5 6t8.5 3q4 0 8 1.5t9 1.5q4 0 10 -1.5t10 -1.5q4 -2 7.5 -3t7.5 -6l11 -9l12 -13q2 -4 4 -8.5t4 -9.5q0 -4 1 -8.5t1 -6.5q0 -6 -1 -13.5t-5 -15.5q-4 -12 -16 -19q-4 -4 -8.5 -7.5t-11.5 -8.5q-10 -2 -26 -2
h-14q-4 0 -10 2q-15 4 -22 16zM2030 119q5 12 5 25q0 15 -5 23q-3 13 -13.5 23t-23.5 13q-4 4 -11 5t-16 1q-10 0 -24 -6q-7 -1 -11.5 -4t-10.5 -9q-8 -6 -15 -23q0 -4 -1 -9.5t-1 -13.5t1 -13.5t1 -11.5q8 -16 15 -23q6 -4 10.5 -8t11.5 -7q7 -2 13.5 -3t10.5 -1q20 0 27 4
q28 10 37 38zM2141 315q-6 -4 -12 -7.5t-11 -8.5q-8 -2 -12 -2h-28q-4 0 -12 2q-11 4 -21 16q-7 7 -13 19q-2 8 -4 15.5t-2 13.5q0 2 1 6.5t1 8.5q2 4 3 9t4 9q2 3 5 6t5 7q7 5 16 9q3 5 8 6t7 3q5 0 8 1.5t10 1.5q2 0 7.5 -1.5t10.5 -1.5q4 -2 7.5 -3t5.5 -6q4 -2 8.5 -4.5
t7.5 -4.5q1 -2 2 -3.5t2 -3.5l4 -6q6 -10 7 -18q2 -4 3 -8.5t1 -6.5q0 -6 -1 -13.5t-5 -15.5q0 -6 -5 -11zM1039 144q0 14 -4 23q-4 17 -18 23q-2 6 -7.5 9t-11.5 4q-10 6 -27 6q-13 0 -24 -6q-10 -1 -22 -13q-8 -5 -13 -23q-5 -5 -5 -10v-27q0 -4 5 -11q5 -14 13 -22.5
t22 -15.5q9 -4 24 -4q18 0 27 4q14 7 19 15q13 5 17.5 20.5t4.5 27.5zM726 246h130v-37h-94v-52h77v-36h-77v-81h-36v206zM535 209h-55v-169h-40v169h-59v37h154v-37zM1302 246h155v-37h-61v-169h-37v169h-57v37zM1281 1233q16 -8 33.5 -19.5t33.5 -21.5h-304q34 28 70 41
q37 17 82 17t85 -17zM1114 810q-18 7 -35 18t-33 24h302q-16 -13 -33.5 -24t-33.5 -18q-22 -6 -43 -10.5t-42 -4.5q-23 0 -42.5 4.5t-39.5 10.5zM524 566l-44 64q4 0 11 4q7 3 8 9q8 6 8 11v24q-6 14 -12 19q-5 8 -13 8q-2 4 -6.5 5t-8.5 1h-53v-145h22v60h22l37 -52
q1 -4 7 -6zM1096 566l-63 145h-20l-62 -145h11q7 0 9 2q0 2 6 6l10 25h72l11 -25q1 -4 5 -6q2 -2 8 -2h13zM1810 676q2 -2 6.5 -7.5t5.5 -10.5q4 -7 4 -21q0 -12 -4 -21q-1 -4 -6 -9l-6 -6q-5 -4 -9 -6.5t-8 -6.5q-8 -4 -21 -4q-14 0 -21 4q-5 4 -9.5 6.5t-8.5 6.5
q-3 2 -6 6.5t-3 8.5q-4 6 -5 11t-1 10q0 11 6 21q0 5 3 10.5t6 7.5q8 8 18.5 11.5t20.5 3.5q12 0 21 -4zM751 676q6 -2 8.5 -7.5t4.5 -10.5q4 -7 4 -21q0 -10 -4 -21q-2 -4 -4.5 -8.5t-8.5 -6.5q-5 -9 -16 -13t-21 -4t-21 4q-4 4 -8.5 6.5t-8.5 6.5q-2 2 -5.5 6.5t-5.5 8.5
q-4 11 -4 21q0 20 8.5 30.5t23.5 19.5q5 2 11.5 3t9.5 1q13 0 21 -4q12 -4 16 -11zM277 647q5 12 5 18q0 9 -5 18q0 2 -4 6l-6 6q-2 3 -5 6.5t-9 3.5q-2 4 -7.5 5t-9.5 1h-49v-145h16v55h33q4 0 9.5 0.5t7.5 2.5q10 4 14 10q4 2 7 5.5t3 7.5zM2079 311h29l6 3q5 4 9 6l8 4
l3 6q3 6 6 11t3 9v32q-2 6 -6 10t-6 7q-6 2 -9.5 5t-7.5 7h-40q-6 -4 -9.5 -7t-8.5 -5q-7 -5 -11 -17q-2 -8 -2 -12v-20q0 -4 1 -8.5t4 -7.5l4 -4q3 -3 4 -6l6 -3q7 -5 10.5 -6.5t6.5 -3.5zM1993 711h-20v-112q-1 2 -2 5t-3 4l-70 97l-3 6h-23v-145h21v114l84 -114h16v145z
M1480 382q-3 -6 -4 -11.5t-1 -7.5v-8q3 -14 7 -21q0 -2 2 -4t4 -6l5 -3q2 -2 9 -2q2 -4 5.5 -5t5.5 -3h26q5 2 8 3t6 5l10 5q2 4 4.5 6t2.5 4q2 3 3 7.5t3 8.5q0 2 1 5.5t1 7.5q0 2 -1 7.5t-5 11.5q0 6 -3.5 10t-5.5 7q-3 1 -8 6l-9 6h-40q-4 -4 -9 -7t-9 -5q-2 -3 -5 -7
t-3 -10zM935 711h-17v-112l-73 106q-4 0 -6 6h-23v-145h19v117h2l2 -1v-4l81 -112h15v145zM1982 357q-4 -1 -7 -2t-5 -2l42 -56h-11q-7 2 -8.5 3.5t-1.5 5.5l-36 47h-26v-56h-15v130h54q3 0 9 -2q2 -2 5.5 -4.5t4.5 -4.5q4 -2 5 -5.5t7 -7.5v-25q-4 -4 -5 -7.5t-3 -5.5z
M1259 357q-3 -3 -11 -4l44 -56h-14q-9 3 -9 9l-36 47h-26v-56h-13v130h53q9 -2 13.5 -4.5t8.5 -6.5q0 -2 3 -5.5t3 -7.5l2 -19q-3 -16 -6 -19l-5 -4q-2 -2 -7 -4zM386 711h-91v-145h91v20h-69v44h55v17h-55v42h69v22zM1614 711h-88v-145h88v20h-66v44h55v17h-55v42h66v22z
M2306 425l17 2v-130h-11v106l-2 -2v-2q-4 -7 -6.5 -16t-7.5 -13q-4 -7 -6 -12.5t-7 -13.5q-2 -8 -3 -14t-5 -9q-3 -8 -6 -12.5t-5 -11.5h-14q-9 12 -14 24.5t-10 26.5q-4 11 -11 24.5t-11 26.5v2h-4v-104h-13v130h13l8 -4v-5l46 -99l3 -2v4q0 1 7 5l38 92q2 5 3 5t1 2z
M1387 711h-20v-97q0 -3 -2 -7q-1 -7 -9 -12q0 -2 -4 -3.5t-6 -5.5l-8 -2h-8q-7 0 -13 2q-5 4 -8 5.5t-5 3.5l-10 12q0 3 -1 7t-1 10v87h-19v-87q0 -7 1.5 -16.5t6.5 -14.5q2 -6 9 -11q2 -3 4.5 -5.5t7.5 -4.5q2 -2 6 -3t7 -3q4 0 7 -1t8 -1q4 0 7.5 1t10.5 1q2 2 5 3t6 3
q8 6 12 10q3 2 5 5t5 6q0 4 3 7t3 7v104zM622 592q2 5 3 8t1 8q0 10 -5 18t-11 13q-2 0 -3.5 2t-5.5 4l-4 2h-4q-4 3 -6 3.5t-3 1.5q-7 2 -8.5 3t-5.5 3q-6 3 -8 3l-3 21q8 7 11 7l14 2q10 -3 11 -6l6 -2q9 0 13 4l4 2l-6 8q-2 1 -4.5 3.5t-6.5 4.5q-2 0 -4 2t-5 4h-28
q-5 -2 -7 -4t-6 -4q-2 -5 -5.5 -7.5t-6.5 -6.5q0 -4 -2 -6.5t-2 -8.5q0 -7 4 -16l5 -7l5 -4q2 -2 6 -5t7 -3l7 -4q2 -1 7 -1q1 -2 5.5 -2t6.5 -2l5 -2q5 -4 5.5 -5l2.5 -5l2 -15q-4 -5 -4 -7.5t-2 -3.5q-1 -3 -6 -5l-3 -1q-4 0 -7.5 -1t-4.5 -1q-5 0 -11 1.5t-6 6.5l-4 1
q-4 4 -11 4h-5l-9 -4l9 -16h3q7 -7 15.5 -9t18.5 -2h8q5 0 11 2q4 2 8.5 4t6.5 5q4 2 7.5 5.5t4.5 9.5zM1497 592q7 7 7 16q0 10 -4.5 18t-11.5 13q-6 5 -6 6h-4l-36 16l-6 6q0 1 -1 3t-1 4q0 4 4 8q5 4 6.5 5.5t4.5 1.5q2 2 10 2l3 -1l7.5 -3t5.5 -2q6 -2 7 -2q7 0 8 4l5 2
q0 2 -2.5 4t-4.5 4q0 1 -3 3.5t-5 4.5q-3 0 -5 2t-6 4h-6l-4 1q-6 0 -9.5 -0.5t-7.5 -0.5l-13 -8l-11 -14q-1 -4 -3 -6.5t-2 -8.5q0 -4 2 -7.5t3 -8.5q2 -4 4.5 -6.5l4.5 -4.5q4 -2 6.5 -5t6.5 -3q8 -5 13 -5q4 -2 6.5 -2t5.5 -2q5 0 10 -3.5t5 -8.5l2 -14q-2 -7 -3.5 -9
t-3.5 -3q-11 -8 -22 -8q-2 0 -5.5 1t-5.5 1q-3 1 -8 6l-2 1q-4 4 -9 4h-6l-10 -4l8 -9v-2q7 -5 8 -5q6 -7 13.5 -9t16.5 -2h11q3 0 11 2q2 2 5.5 4t7.5 5l5 7q3 3 4 8zM1632 297h-16v130h18l77 -106v106h13v-130h-11l-77 106v4h-4v-110zM73 328q-4 4 -5 7.5t-2 8.5
q-2 6 -3 9.5t-1 9.5t4 15q1 4 2 9t5 9l9 13q2 2 6 4.5t6 4.5q5 5 9.5 6t8.5 3q3 0 8 1.5t10 1.5q15 0 26 -7q13 -4 20 -14l-4 -6h-13q-3 2 -6 5t-7 3h-34l-20 -12q-4 -3 -7 -7t-4 -10q-2 -6 -3 -11.5t-1 -7.5q0 -9 4 -13q0 -4 0.5 -8.5t0.5 -7.5l4 -4q5 -1 6 -6l7 -4
q2 -1 7 -1q2 -4 4.5 -5t6.5 -3h31q2 2 6.5 3t8.5 5v27h-13v2l-6 4h-2l-1 7h35v-48q-2 -5 -3.5 -6t-5.5 -6h-11q-8 -2 -12 -2h-32q-5 0 -18 9q-7 0 -12 9zM225 411v-41h52v-15h-52v-44h63v-14h-79v130h79v-16h-63zM1098 411v-41h56v-15h-56v-44h64v-14h-79v130h79v-16h-64z
M2226 711h-18q-5 0 -9 -4t-4 -9l-35 -44h-4l-36 44q-3 13 -15 13h-16l54 -72v-2l4 -3v-68h20v66l4 5v2zM2112 586h-64v125h-20v-145h84v20zM601 427v-79q0 -6 2 -9t5 -5q0 -6 3 -9t5 -4q0 -2 4 -4t6 -4q6 -2 8 -2h15l12 6t7 4q4 1 8 13q4 3 4 14v79h13v-79q0 -9 -3.5 -20.5
t-11.5 -16.5q-5 -12 -15 -12q-6 -1 -11.5 -1.5t-10.5 -0.5t-10.5 0.5t-12.5 1.5q-3 0 -15 12l-10 15q-1 6 -3 11t-2 11v79h13zM1191 586h-62v125h-19v-145h81v20zM1361 315q1 2 2 3.5t2 3.5q2 2 3 6t1 6q0 17 -15 21q-3 0 -12.5 4t-11.5 6q-9 0 -13 7q-2 0 -3.5 3t-3.5 6v21
q0 1 2 7q0 8 7 9l6 5q2 1 3.5 2t3.5 2q4 0 6.5 1.5t7.5 1.5l10 -3q3 0 4 -1t5 -3q6 0 6 -7q5 0 6 -3l1 -2l-2 -2q-6 -2 -9 -2h-6l-23 4q-8 0 -8 -2q-5 -7 -5 -8q-4 0 -4 -7q0 -5 4 -6q0 -4 3 -6l6 -4q4 -4 7 -4t7 -2l6 -2q3 0 7 -5h4l6 -2q5 -4 7.5 -7t4.5 -4q1 -5 1.5 -9.5
t0.5 -8.5v-10l-7.5 -12t-6.5 -6q-2 -2 -6 -4.5t-6 -2.5q-4 -2 -9 -2h-9q-9 0 -16.5 1t-12.5 8q-2 0 -3 2.5t-5 4.5v4l-2 2l4 2h6q1 0 3 -1t4 -1q4 -4 6.5 -5t4.5 -3h20q7 0 11 4zM1002 297l-55 130h5q10 0 14 -9l40 -97v-2h2l2 2q5 13 12 25.5t11 23.5q4 14 9.5 25.5
t11.5 22.5q0 5 1.5 5t1.5 2l16 2q-7 -16 -14 -32.5t-15 -31.5q-4 -8 -7 -17l-6 -18l-14 -31h-15zM499 411v-46h56v-12h-56v-56h-15v130h80v-16h-65zM1836 411v-46h51v-12h-51v-56h-15v130h77v-16h-62zM824 427v-116h59v-14h-75v130h16zM348 297v114h-44v16h99v-16h-44v-114
h-11zM735 427v-116h60v-14h-75v130h15zM253 683q2 -1 3 -4t3 -5q3 -4 3 -9v-4q0 -2 -3 -7q-2 -2 -3 -4.5t-3 -2.5q-1 -2 -3 -4l-4 -4h-43v50h33q4 0 10 -2zM1242 365q5 0 6 3q4 4 9 4l2 4q5 10 5 16q0 2 -1 3t-1 4q-3 2 -4 3t-1 5q-5 0 -9 4h-41v-46h35zM1970 368q4 4 7 4
q5 7 5 9q2 4 2 11q0 3 -2 7q0 1 -5 8q-3 0 -7 4h-41v-46h33q4 0 8 3zM486 658l-4 -7q-2 0 -3 -2t-3 -2q-2 -2 -9 -2h-31v44h31q3 0 9 -2l6 -4q1 -2 2 -3.5t2 -3.5q3 -1 3 -9q0 -6 -3 -9zM1429 427v-130h-16v130h16zM641 121l-27 69h-2l-28 -69h57zM1024 682v-4l26 -60h-55
l27 60v5zM1645 77q6 0 6 -6l2 -9q0 -7 -2 -9q0 -4 -6 -9l-22 -4q-4 4 -9 4q0 2 -5 9q-2 2 -2 9v4l7 11q7 4 9 4l14 3z" />
    <glyph glyph-name="onehalf" unicode="&#xbd;" 
d="M2323 1024v-550h-2254v550h854q0 28 5 55t19 50q11 27 24.5 49t34.5 39q36 39 86 58q25 11 51 16t53 5q31 0 58 -6t50 -15q55 -27 88.5 -60.5t58.5 -89.5q18 -49 18 -101h854zM947 1024q0 -57 17.5 -96.5t52.5 -82.5q36 -35 82 -55t97 -20q50 0 96 17.5t80 55.5
q20 18 33 38t24 41q20 51 20 102q0 43 -13.5 82t-41.5 72q-13 18 -27.5 31t-32.5 24q-17 7 -35 16.5t-37 16.5q-14 3 -30.5 6t-35.5 3q-55 0 -100 -23q-46 -16 -79 -54q-34 -34 -52 -80t-18 -94zM1070 877l295 298q58 -73 58 -151q0 -22 -3 -42t-11 -39q-13 -35 -38 -66
h-301zM1026 870q-26 34 -41 71q-8 17 -11 38t-3 45q0 18 3 37.5t11 39.5q4 18 13.5 33.5t23.5 30.5h299zM2058 194q3 -4 5.5 -10t4.5 -13q4 -7 4 -14v-29q0 -7 -4 -11q-2 -7 -4.5 -14t-5.5 -13q-4 -7 -15 -19q-6 -5 -11.5 -9.5t-12.5 -8.5q-5 -5 -11.5 -7t-12.5 -4
q-8 -2 -13 -2h-16q-19 0 -40 6q-8 6 -15.5 12t-15.5 13q-8 6 -13.5 13.5t-7.5 19.5q-6 9 -7.5 18.5t-1.5 21.5q0 8 1 13.5t1 13.5q3 7 6 13t7 10q2 8 5.5 12.5t9.5 10.5q3 4 9.5 8t11.5 9q4 2 10.5 4t12.5 6q10 0 15.5 1t11.5 1q9 0 16 -1t13 -1q6 -4 12.5 -6t11.5 -4
q13 -10 24 -17q2 -6 7.5 -10.5t7.5 -12.5zM1064 194q2 -4 4 -10t5 -13q2 -10 2 -14v-29q0 -5 -2 -11q-3 -7 -5 -14t-4 -13q-5 -4 -9.5 -9.5t-8.5 -9.5q-14 -14 -21.5 -18t-24.5 -11q-4 -1 -7 -1.5t-7 -0.5h-15q-9 0 -18.5 2t-21.5 4q-11 6 -17.5 12t-15.5 13
q-15 14 -21.5 33.5t-6.5 39.5v13q0 4 2 14q5 17 11 23q4 8 7.5 12.5t7.5 10.5q7 4 11.5 8t10.5 9l27 10q4 0 10.5 1t13.5 1q8 0 15 -1t14 -1q6 -4 12.5 -6t13.5 -4l20 -17q4 -6 8.5 -10.5t9.5 -12.5zM2281 244l1 1l41 1v-206h-35v150l-5 -9v-6q-8 -18 -14.5 -36t-14.5 -31
q-6 -18 -11.5 -33.5t-13.5 -34.5h-34l-52 131q-5 3 -5 10l-3 6v-147h-39v206h37q5 0 6.5 -1t3.5 -1q2 -2 3 -2t3 -2l7 -4q0 -2 2 -3.5t2 -3.5q4 -16 10.5 -30t14.5 -32q6 -15 11.5 -30.5t11.5 -28.5v-12l5 12l9 13l42 108l4 7l5 4q2 2 4 2t4 2zM1246 246h36v-206h-34
l-94 138l-4 3v2q-5 9 -7 11t-5 2v-156h-36v206h32q4 0 8.5 -1t4.5 -3q3 -2 5 -2t4 -2l21 -31q5 -8 9.5 -16t9.5 -17q13 -13 23 -27.5t23 -27.5q0 -2 1 -4.5t1 -6.5l2 -5v143zM630 246l88 -206h-23q-8 0 -15 4q-2 2 -4 6.5t-6 8.5l-12 25h-94l-9 -25q0 -6 -4 -6l-7 -9
q-2 0 -3.5 -1t-5.5 -1l-28 -2l90 206h33zM244 246h130v-37h-94v-46h77v-38h-77v-48h94v-37h-130v206zM69 246h149v-23l-7 -14l-99 -134h1l2 2h102v-37h-155v13q0 9 2 11q0 2 5 7v4l2 4q2 2 4 3.5t2 5.5l88 121h-96v37zM786 618q1 6 2 10t1 9q0 12 -3 21q0 5 -3.5 8.5
t-5.5 9.5q-2 3 -4.5 6t-6.5 7l-7 6q-2 3 -8 8l-8 4q-2 1 -4.5 2t-5.5 2h-38q-10 -4 -17 -8q-4 -5 -7.5 -7.5t-7.5 -6.5q-11 -8 -12 -13q-4 -6 -5 -9.5t-3 -8.5q-1 -5 -1.5 -10t-0.5 -11q0 -15 6 -27.5t16 -23.5q11 -14 24 -14q11 -6 27 -6h19q6 2 10.5 4t7.5 4q11 5 15 12
q7 7 11 15q2 4 5.5 8.5t3.5 8.5zM1843 618v40q-2 5 -3.5 9t-3.5 9q-5 6 -14 13q-1 4 -5.5 6.5t-8.5 7.5l-4 2t-5 2l-7 4h-39l-10 -4l-10 -4q-3 -5 -6 -7.5t-7 -6.5q-3 -4 -6 -6.5t-5 -6.5q-2 -6 -4.5 -9.5t-2.5 -8.5q-5 -10 -5 -21q0 -5 2.5 -13t5.5 -14q5 -15 15 -24
q8 -14 24 -14q11 -6 28 -6h20q3 2 8 4t8 4q4 3 8.5 5.5t5.5 6.5q9 5 14 15zM1724 190q-7 -7 -13 -23q-2 -4 -4 -9.5t-2 -13.5q0 -9 6 -25.5t13 -22.5q9 -9 22 -15q12 -4 26 -4q5 0 9.5 1t10.5 1q3 2 8 4.5t8 6.5q2 0 8 2h12q2 0 8 -2q2 -1 7 -6l6 -7q-3 -4 -6 -7.5t-7 -7.5
q-6 -3 -10.5 -6t-11.5 -6q-5 -3 -15.5 -6.5t-16.5 -3.5h-10q-11 0 -22 2t-20 4q-20 9 -33 25q-15 14 -21 33q-4 9 -6.5 18.5t-2.5 21.5q0 8 1 13.5t3 13.5q2 16 9 23q6 8 8.5 12.5t8.5 10.5l23 17l26 10q5 0 11.5 1t14.5 1h12q4 0 15 -3t15 -5l22 -13q4 -4 7 -8l6 -8
l-13 -15h-14q-7 0 -14 4q-3 2 -8 4.5t-8 4.5q-8 2 -11 2h-9q-15 0 -26 -6q-15 -2 -22 -13zM1594 125q5 -8 5 -19q0 -14 -7 -27l-8 -12q-3 -5 -8 -8q-6 -6 -10.5 -9.5t-12.5 -5.5q-5 -2 -13 -3t-14 -1q-11 0 -31 4q-9 4 -20 18q-4 1 -6 5l-4 8q-6 2 -6 9l6 4l8 2l2 2h9
q12 -3 13 -4q5 -4 8.5 -5.5t5.5 -3.5q2 0 6 -1t9 -1h5q8 2 12 3.5t7 3.5l4 4t3 4q2 4 4 7t2 7q0 6 -6 9q-4 6 -7 6q-2 4 -6.5 5t-6.5 2q-5 0 -13 6q-5 0 -9 1t-9 6q-9 3 -12.5 6t-7.5 7q-11 4 -11 13q-6 11 -6 23q0 18 6 25q1 4 5 10l8 9q4 2 9 4t12 6q6 0 10.5 1t12.5 1
q4 0 8 -1t10 -1l15 -6q3 -4 6 -6.5t7 -6.5q3 -2 6.5 -5t3.5 -7l-13 -8l-20 -3l-5 1q-3 1 -6 4q-2 0 -3.5 1t-3.5 1h-16q-2 0 -3 -1t-5 -3l-6 -5q-1 -3 -1 -10q3 -6 4 -9t3 -7h6q8 -2 13 -4.5t10 -4.5l8 -2q5 -4 9 -5t9 -4q6 -2 16 -12.5t10 -16.5zM1480 315q-11 8 -15 19
q-6 14 -6 29v15l10 18q2 2 4.5 5.5t6.5 7.5q6 8 12 9q3 5 8.5 6t8.5 3q4 0 8 1.5t9 1.5q4 0 10 -1.5t10 -1.5q4 -2 7.5 -3t7.5 -6l11 -9l12 -13q2 -4 4 -8.5t4 -9.5q0 -4 1 -8.5t1 -6.5q0 -6 -1 -13.5t-5 -15.5q-4 -12 -16 -19q-4 -4 -8.5 -7.5t-11.5 -8.5q-10 -2 -26 -2
h-14q-4 0 -10 2q-15 4 -22 16zM2030 119q5 12 5 25q0 15 -5 23q-3 13 -13.5 23t-23.5 13q-4 4 -11 5t-16 1q-10 0 -24 -6q-7 -1 -11.5 -4t-10.5 -9q-8 -6 -15 -23q0 -4 -1 -9.5t-1 -13.5t1 -13.5t1 -11.5q8 -16 15 -23q6 -4 10.5 -8t11.5 -7q7 -2 13.5 -3t10.5 -1q20 0 27 4
q28 10 37 38zM2141 315q-6 -4 -12 -7.5t-11 -8.5q-8 -2 -12 -2h-28q-4 0 -12 2q-11 4 -21 16q-7 7 -13 19q-2 8 -4 15.5t-2 13.5q0 2 1 6.5t1 8.5q2 4 3 9t4 9q2 3 5 6t5 7q7 5 16 9q3 5 8 6t7 3q5 0 8 1.5t10 1.5q2 0 7.5 -1.5t10.5 -1.5q4 -2 7.5 -3t5.5 -6q4 -2 8.5 -4.5
t7.5 -4.5q1 -2 2 -3.5t2 -3.5l4 -6q6 -10 7 -18q2 -4 3 -8.5t1 -6.5q0 -6 -1 -13.5t-5 -15.5q0 -6 -5 -11zM1039 144q0 14 -4 23q-4 17 -18 23q-2 6 -7.5 9t-11.5 4q-10 6 -27 6q-13 0 -24 -6q-10 -1 -22 -13q-8 -5 -13 -23q-5 -5 -5 -10v-27q0 -4 5 -11q5 -14 13 -22.5
t22 -15.5q9 -4 24 -4q18 0 27 4q14 7 19 15q13 5 17.5 20.5t4.5 27.5zM726 246h130v-37h-94v-52h77v-36h-77v-81h-36v206zM535 209h-55v-169h-40v169h-59v37h154v-37zM1302 246h155v-37h-61v-169h-37v169h-57v37zM1281 1233q16 -8 33.5 -19.5t33.5 -21.5h-304q34 28 70 41
q37 17 82 17t85 -17zM1114 810q-18 7 -35 18t-33 24h302q-16 -13 -33.5 -24t-33.5 -18q-22 -6 -43 -10.5t-42 -4.5q-23 0 -42.5 4.5t-39.5 10.5zM524 566l-44 64q4 0 11 4q7 3 8 9q8 6 8 11v24q-6 14 -12 19q-5 8 -13 8q-2 4 -6.5 5t-8.5 1h-53v-145h22v60h22l37 -52
q1 -4 7 -6zM1096 566l-63 145h-20l-62 -145h11q7 0 9 2q0 2 6 6l10 25h72l11 -25q1 -4 5 -6q2 -2 8 -2h13zM1810 676q2 -2 6.5 -7.5t5.5 -10.5q4 -7 4 -21q0 -12 -4 -21q-1 -4 -6 -9l-6 -6q-5 -4 -9 -6.5t-8 -6.5q-8 -4 -21 -4q-14 0 -21 4q-5 4 -9.5 6.5t-8.5 6.5
q-3 2 -6 6.5t-3 8.5q-4 6 -5 11t-1 10q0 11 6 21q0 5 3 10.5t6 7.5q8 8 18.5 11.5t20.5 3.5q12 0 21 -4zM751 676q6 -2 8.5 -7.5t4.5 -10.5q4 -7 4 -21q0 -10 -4 -21q-2 -4 -4.5 -8.5t-8.5 -6.5q-5 -9 -16 -13t-21 -4t-21 4q-4 4 -8.5 6.5t-8.5 6.5q-2 2 -5.5 6.5t-5.5 8.5
q-4 11 -4 21q0 20 8.5 30.5t23.5 19.5q5 2 11.5 3t9.5 1q13 0 21 -4q12 -4 16 -11zM277 647q5 12 5 18q0 9 -5 18q0 2 -4 6l-6 6q-2 3 -5 6.5t-9 3.5q-2 4 -7.5 5t-9.5 1h-49v-145h16v55h33q4 0 9.5 0.5t7.5 2.5q10 4 14 10q4 2 7 5.5t3 7.5zM2079 311h29l6 3q5 4 9 6l8 4
l3 6q3 6 6 11t3 9v32q-2 6 -6 10t-6 7q-6 2 -9.5 5t-7.5 7h-40q-6 -4 -9.5 -7t-8.5 -5q-7 -5 -11 -17q-2 -8 -2 -12v-20q0 -4 1 -8.5t4 -7.5l4 -4q3 -3 4 -6l6 -3q7 -5 10.5 -6.5t6.5 -3.5zM1993 711h-20v-112q-1 2 -2 5t-3 4l-70 97l-3 6h-23v-145h21v114l84 -114h16v145z
M1480 382q-3 -6 -4 -11.5t-1 -7.5v-8q3 -14 7 -21q0 -2 2 -4t4 -6l5 -3q2 -2 9 -2q2 -4 5.5 -5t5.5 -3h26q5 2 8 3t6 5l10 5q2 4 4.5 6t2.5 4q2 3 3 7.5t3 8.5q0 2 1 5.5t1 7.5q0 2 -1 7.5t-5 11.5q0 6 -3.5 10t-5.5 7q-3 1 -8 6l-9 6h-40q-4 -4 -9 -7t-9 -5q-2 -3 -5 -7
t-3 -10zM935 711h-17v-112l-73 106q-4 0 -6 6h-23v-145h19v117h2l2 -1v-4l81 -112h15v145zM1982 357q-4 -1 -7 -2t-5 -2l42 -56h-11q-7 2 -8.5 3.5t-1.5 5.5l-36 47h-26v-56h-15v130h54q3 0 9 -2q2 -2 5.5 -4.5t4.5 -4.5q4 -2 5 -5.5t7 -7.5v-25q-4 -4 -5 -7.5t-3 -5.5z
M1259 357q-3 -3 -11 -4l44 -56h-14q-9 3 -9 9l-36 47h-26v-56h-13v130h53q9 -2 13.5 -4.5t8.5 -6.5q0 -2 3 -5.5t3 -7.5l2 -19q-3 -16 -6 -19l-5 -4q-2 -2 -7 -4zM386 711h-91v-145h91v20h-69v44h55v17h-55v42h69v22zM1614 711h-88v-145h88v20h-66v44h55v17h-55v42h66v22z
M2306 425l17 2v-130h-11v106l-2 -2v-2q-4 -7 -6.5 -16t-7.5 -13q-4 -7 -6 -12.5t-7 -13.5q-2 -8 -3 -14t-5 -9q-3 -8 -6 -12.5t-5 -11.5h-14q-9 12 -14 24.5t-10 26.5q-4 11 -11 24.5t-11 26.5v2h-4v-104h-13v130h13l8 -4v-5l46 -99l3 -2v4q0 1 7 5l38 92q2 5 3 5t1 2z
M1387 711h-20v-97q0 -3 -2 -7q-1 -7 -9 -12q0 -2 -4 -3.5t-6 -5.5l-8 -2h-8q-7 0 -13 2q-5 4 -8 5.5t-5 3.5l-10 12q0 3 -1 7t-1 10v87h-19v-87q0 -7 1.5 -16.5t6.5 -14.5q2 -6 9 -11q2 -3 4.5 -5.5t7.5 -4.5q2 -2 6 -3t7 -3q4 0 7 -1t8 -1q4 0 7.5 1t10.5 1q2 2 5 3t6 3
q8 6 12 10q3 2 5 5t5 6q0 4 3 7t3 7v104zM622 592q2 5 3 8t1 8q0 10 -5 18t-11 13q-2 0 -3.5 2t-5.5 4l-4 2h-4q-4 3 -6 3.5t-3 1.5q-7 2 -8.5 3t-5.5 3q-6 3 -8 3l-3 21q8 7 11 7l14 2q10 -3 11 -6l6 -2q9 0 13 4l4 2l-6 8q-2 1 -4.5 3.5t-6.5 4.5q-2 0 -4 2t-5 4h-28
q-5 -2 -7 -4t-6 -4q-2 -5 -5.5 -7.5t-6.5 -6.5q0 -4 -2 -6.5t-2 -8.5q0 -7 4 -16l5 -7l5 -4q2 -2 6 -5t7 -3l7 -4q2 -1 7 -1q1 -2 5.5 -2t6.5 -2l5 -2q5 -4 5.5 -5l2.5 -5l2 -15q-4 -5 -4 -7.5t-2 -3.5q-1 -3 -6 -5l-3 -1q-4 0 -7.5 -1t-4.5 -1q-5 0 -11 1.5t-6 6.5l-4 1
q-4 4 -11 4h-5l-9 -4l9 -16h3q7 -7 15.5 -9t18.5 -2h8q5 0 11 2q4 2 8.5 4t6.5 5q4 2 7.5 5.5t4.5 9.5zM1497 592q7 7 7 16q0 10 -4.5 18t-11.5 13q-6 5 -6 6h-4l-36 16l-6 6q0 1 -1 3t-1 4q0 4 4 8q5 4 6.5 5.5t4.5 1.5q2 2 10 2l3 -1l7.5 -3t5.5 -2q6 -2 7 -2q7 0 8 4l5 2
q0 2 -2.5 4t-4.5 4q0 1 -3 3.5t-5 4.5q-3 0 -5 2t-6 4h-6l-4 1q-6 0 -9.5 -0.5t-7.5 -0.5l-13 -8l-11 -14q-1 -4 -3 -6.5t-2 -8.5q0 -4 2 -7.5t3 -8.5q2 -4 4.5 -6.5l4.5 -4.5q4 -2 6.5 -5t6.5 -3q8 -5 13 -5q4 -2 6.5 -2t5.5 -2q5 0 10 -3.5t5 -8.5l2 -14q-2 -7 -3.5 -9
t-3.5 -3q-11 -8 -22 -8q-2 0 -5.5 1t-5.5 1q-3 1 -8 6l-2 1q-4 4 -9 4h-6l-10 -4l8 -9v-2q7 -5 8 -5q6 -7 13.5 -9t16.5 -2h11q3 0 11 2q2 2 5.5 4t7.5 5l5 7q3 3 4 8zM1632 297h-16v130h18l77 -106v106h13v-130h-11l-77 106v4h-4v-110zM73 328q-4 4 -5 7.5t-2 8.5
q-2 6 -3 9.5t-1 9.5t4 15q1 4 2 9t5 9l9 13q2 2 6 4.5t6 4.5q5 5 9.5 6t8.5 3q3 0 8 1.5t10 1.5q15 0 26 -7q13 -4 20 -14l-4 -6h-13q-3 2 -6 5t-7 3h-34l-20 -12q-4 -3 -7 -7t-4 -10q-2 -6 -3 -11.5t-1 -7.5q0 -9 4 -13q0 -4 0.5 -8.5t0.5 -7.5l4 -4q5 -1 6 -6l7 -4
q2 -1 7 -1q2 -4 4.5 -5t6.5 -3h31q2 2 6.5 3t8.5 5v27h-13v2l-6 4h-2l-1 7h35v-48q-2 -5 -3.5 -6t-5.5 -6h-11q-8 -2 -12 -2h-32q-5 0 -18 9q-7 0 -12 9zM225 411v-41h52v-15h-52v-44h63v-14h-79v130h79v-16h-63zM1098 411v-41h56v-15h-56v-44h64v-14h-79v130h79v-16h-64z
M2226 711h-18q-5 0 -9 -4t-4 -9l-35 -44h-4l-36 44q-3 13 -15 13h-16l54 -72v-2l4 -3v-68h20v66l4 5v2zM2112 586h-64v125h-20v-145h84v20zM601 427v-79q0 -6 2 -9t5 -5q0 -6 3 -9t5 -4q0 -2 4 -4t6 -4q6 -2 8 -2h15l12 6t7 4q4 1 8 13q4 3 4 14v79h13v-79q0 -9 -3.5 -20.5
t-11.5 -16.5q-5 -12 -15 -12q-6 -1 -11.5 -1.5t-10.5 -0.5t-10.5 0.5t-12.5 1.5q-3 0 -15 12l-10 15q-1 6 -3 11t-2 11v79h13zM1191 586h-62v125h-19v-145h81v20zM1361 315q1 2 2 3.5t2 3.5q2 2 3 6t1 6q0 17 -15 21q-3 0 -12.5 4t-11.5 6q-9 0 -13 7q-2 0 -3.5 3t-3.5 6v21
q0 1 2 7q0 8 7 9l6 5q2 1 3.5 2t3.5 2q4 0 6.5 1.5t7.5 1.5l10 -3q3 0 4 -1t5 -3q6 0 6 -7q5 0 6 -3l1 -2l-2 -2q-6 -2 -9 -2h-6l-23 4q-8 0 -8 -2q-5 -7 -5 -8q-4 0 -4 -7q0 -5 4 -6q0 -4 3 -6l6 -4q4 -4 7 -4t7 -2l6 -2q3 0 7 -5h4l6 -2q5 -4 7.5 -7t4.5 -4q1 -5 1.5 -9.5
t0.5 -8.5v-10l-7.5 -12t-6.5 -6q-2 -2 -6 -4.5t-6 -2.5q-4 -2 -9 -2h-9q-9 0 -16.5 1t-12.5 8q-2 0 -3 2.5t-5 4.5v4l-2 2l4 2h6q1 0 3 -1t4 -1q4 -4 6.5 -5t4.5 -3h20q7 0 11 4zM1002 297l-55 130h5q10 0 14 -9l40 -97v-2h2l2 2q5 13 12 25.5t11 23.5q4 14 9.5 25.5
t11.5 22.5q0 5 1.5 5t1.5 2l16 2q-7 -16 -14 -32.5t-15 -31.5q-4 -8 -7 -17l-6 -18l-14 -31h-15zM499 411v-46h56v-12h-56v-56h-15v130h80v-16h-65zM1836 411v-46h51v-12h-51v-56h-15v130h77v-16h-62zM824 427v-116h59v-14h-75v130h16zM348 297v114h-44v16h99v-16h-44v-114
h-11zM735 427v-116h60v-14h-75v130h15zM253 683q2 -1 3 -4t3 -5q3 -4 3 -9v-4q0 -2 -3 -7q-2 -2 -3 -4.5t-3 -2.5q-1 -2 -3 -4l-4 -4h-43v50h33q4 0 10 -2zM1242 365q5 0 6 3q4 4 9 4l2 4q5 10 5 16q0 2 -1 3t-1 4q-3 2 -4 3t-1 5q-5 0 -9 4h-41v-46h35zM1970 368q4 4 7 4
q5 7 5 9q2 4 2 11q0 3 -2 7q0 1 -5 8q-3 0 -7 4h-41v-46h33q4 0 8 3zM486 658l-4 -7q-2 0 -3 -2t-3 -2q-2 -2 -9 -2h-31v44h31q3 0 9 -2l6 -4q1 -2 2 -3.5t2 -3.5q3 -1 3 -9q0 -6 -3 -9zM1429 427v-130h-16v130h16zM641 121l-27 69h-2l-28 -69h57zM1024 682v-4l26 -60h-55
l27 60v5zM1645 77q6 0 6 -6l2 -9q0 -7 -2 -9q0 -4 -6 -9l-22 -4q-4 4 -9 4q0 2 -5 9q-2 2 -2 9v4l7 11q7 4 9 4l14 3z" />
    <glyph glyph-name="threequarters" unicode="&#xbe;" 
d="M2323 1024v-550h-2254v550h854q0 28 5 55t19 50q11 27 24.5 49t34.5 39q36 39 86 58q25 11 51 16t53 5q31 0 58 -6t50 -15q55 -27 88.5 -60.5t58.5 -89.5q18 -49 18 -101h854zM947 1024q0 -57 17.5 -96.5t52.5 -82.5q36 -35 82 -55t97 -20q50 0 96 17.5t80 55.5
q20 18 33 38t24 41q20 51 20 102q0 43 -13.5 82t-41.5 72q-13 18 -27.5 31t-32.5 24q-17 7 -35 16.5t-37 16.5q-14 3 -30.5 6t-35.5 3q-55 0 -100 -23q-46 -16 -79 -54q-34 -34 -52 -80t-18 -94zM1070 877l295 298q58 -73 58 -151q0 -22 -3 -42t-11 -39q-13 -35 -38 -66
h-301zM1026 870q-26 34 -41 71q-8 17 -11 38t-3 45q0 18 3 37.5t11 39.5q4 18 13.5 33.5t23.5 30.5h299zM2058 194q3 -4 5.5 -10t4.5 -13q4 -7 4 -14v-29q0 -7 -4 -11q-2 -7 -4.5 -14t-5.5 -13q-4 -7 -15 -19q-6 -5 -11.5 -9.5t-12.5 -8.5q-5 -5 -11.5 -7t-12.5 -4
q-8 -2 -13 -2h-16q-19 0 -40 6q-8 6 -15.5 12t-15.5 13q-8 6 -13.5 13.5t-7.5 19.5q-6 9 -7.5 18.5t-1.5 21.5q0 8 1 13.5t1 13.5q3 7 6 13t7 10q2 8 5.5 12.5t9.5 10.5q3 4 9.5 8t11.5 9q4 2 10.5 4t12.5 6q10 0 15.5 1t11.5 1q9 0 16 -1t13 -1q6 -4 12.5 -6t11.5 -4
q13 -10 24 -17q2 -6 7.5 -10.5t7.5 -12.5zM1064 194q2 -4 4 -10t5 -13q2 -10 2 -14v-29q0 -5 -2 -11q-3 -7 -5 -14t-4 -13q-5 -4 -9.5 -9.5t-8.5 -9.5q-14 -14 -21.5 -18t-24.5 -11q-4 -1 -7 -1.5t-7 -0.5h-15q-9 0 -18.5 2t-21.5 4q-11 6 -17.5 12t-15.5 13
q-15 14 -21.5 33.5t-6.5 39.5v13q0 4 2 14q5 17 11 23q4 8 7.5 12.5t7.5 10.5q7 4 11.5 8t10.5 9l27 10q4 0 10.5 1t13.5 1q8 0 15 -1t14 -1q6 -4 12.5 -6t13.5 -4l20 -17q4 -6 8.5 -10.5t9.5 -12.5zM2281 244l1 1l41 1v-206h-35v150l-5 -9v-6q-8 -18 -14.5 -36t-14.5 -31
q-6 -18 -11.5 -33.5t-13.5 -34.5h-34l-52 131q-5 3 -5 10l-3 6v-147h-39v206h37q5 0 6.5 -1t3.5 -1q2 -2 3 -2t3 -2l7 -4q0 -2 2 -3.5t2 -3.5q4 -16 10.5 -30t14.5 -32q6 -15 11.5 -30.5t11.5 -28.5v-12l5 12l9 13l42 108l4 7l5 4q2 2 4 2t4 2zM1246 246h36v-206h-34
l-94 138l-4 3v2q-5 9 -7 11t-5 2v-156h-36v206h32q4 0 8.5 -1t4.5 -3q3 -2 5 -2t4 -2l21 -31q5 -8 9.5 -16t9.5 -17q13 -13 23 -27.5t23 -27.5q0 -2 1 -4.5t1 -6.5l2 -5v143zM630 246l88 -206h-23q-8 0 -15 4q-2 2 -4 6.5t-6 8.5l-12 25h-94l-9 -25q0 -6 -4 -6l-7 -9
q-2 0 -3.5 -1t-5.5 -1l-28 -2l90 206h33zM244 246h130v-37h-94v-46h77v-38h-77v-48h94v-37h-130v206zM69 246h149v-23l-7 -14l-99 -134h1l2 2h102v-37h-155v13q0 9 2 11q0 2 5 7v4l2 4q2 2 4 3.5t2 5.5l88 121h-96v37zM786 618q1 6 2 10t1 9q0 12 -3 21q0 5 -3.5 8.5
t-5.5 9.5q-2 3 -4.5 6t-6.5 7l-7 6q-2 3 -8 8l-8 4q-2 1 -4.5 2t-5.5 2h-38q-10 -4 -17 -8q-4 -5 -7.5 -7.5t-7.5 -6.5q-11 -8 -12 -13q-4 -6 -5 -9.5t-3 -8.5q-1 -5 -1.5 -10t-0.5 -11q0 -15 6 -27.5t16 -23.5q11 -14 24 -14q11 -6 27 -6h19q6 2 10.5 4t7.5 4q11 5 15 12
q7 7 11 15q2 4 5.5 8.5t3.5 8.5zM1843 618v40q-2 5 -3.5 9t-3.5 9q-5 6 -14 13q-1 4 -5.5 6.5t-8.5 7.5l-4 2t-5 2l-7 4h-39l-10 -4l-10 -4q-3 -5 -6 -7.5t-7 -6.5q-3 -4 -6 -6.5t-5 -6.5q-2 -6 -4.5 -9.5t-2.5 -8.5q-5 -10 -5 -21q0 -5 2.5 -13t5.5 -14q5 -15 15 -24
q8 -14 24 -14q11 -6 28 -6h20q3 2 8 4t8 4q4 3 8.5 5.5t5.5 6.5q9 5 14 15zM1724 190q-7 -7 -13 -23q-2 -4 -4 -9.5t-2 -13.5q0 -9 6 -25.5t13 -22.5q9 -9 22 -15q12 -4 26 -4q5 0 9.5 1t10.5 1q3 2 8 4.5t8 6.5q2 0 8 2h12q2 0 8 -2q2 -1 7 -6l6 -7q-3 -4 -6 -7.5t-7 -7.5
q-6 -3 -10.5 -6t-11.5 -6q-5 -3 -15.5 -6.5t-16.5 -3.5h-10q-11 0 -22 2t-20 4q-20 9 -33 25q-15 14 -21 33q-4 9 -6.5 18.5t-2.5 21.5q0 8 1 13.5t3 13.5q2 16 9 23q6 8 8.5 12.5t8.5 10.5l23 17l26 10q5 0 11.5 1t14.5 1h12q4 0 15 -3t15 -5l22 -13q4 -4 7 -8l6 -8
l-13 -15h-14q-7 0 -14 4q-3 2 -8 4.5t-8 4.5q-8 2 -11 2h-9q-15 0 -26 -6q-15 -2 -22 -13zM1594 125q5 -8 5 -19q0 -14 -7 -27l-8 -12q-3 -5 -8 -8q-6 -6 -10.5 -9.5t-12.5 -5.5q-5 -2 -13 -3t-14 -1q-11 0 -31 4q-9 4 -20 18q-4 1 -6 5l-4 8q-6 2 -6 9l6 4l8 2l2 2h9
q12 -3 13 -4q5 -4 8.5 -5.5t5.5 -3.5q2 0 6 -1t9 -1h5q8 2 12 3.5t7 3.5l4 4t3 4q2 4 4 7t2 7q0 6 -6 9q-4 6 -7 6q-2 4 -6.5 5t-6.5 2q-5 0 -13 6q-5 0 -9 1t-9 6q-9 3 -12.5 6t-7.5 7q-11 4 -11 13q-6 11 -6 23q0 18 6 25q1 4 5 10l8 9q4 2 9 4t12 6q6 0 10.5 1t12.5 1
q4 0 8 -1t10 -1l15 -6q3 -4 6 -6.5t7 -6.5q3 -2 6.5 -5t3.5 -7l-13 -8l-20 -3l-5 1q-3 1 -6 4q-2 0 -3.5 1t-3.5 1h-16q-2 0 -3 -1t-5 -3l-6 -5q-1 -3 -1 -10q3 -6 4 -9t3 -7h6q8 -2 13 -4.5t10 -4.5l8 -2q5 -4 9 -5t9 -4q6 -2 16 -12.5t10 -16.5zM1480 315q-11 8 -15 19
q-6 14 -6 29v15l10 18q2 2 4.5 5.5t6.5 7.5q6 8 12 9q3 5 8.5 6t8.5 3q4 0 8 1.5t9 1.5q4 0 10 -1.5t10 -1.5q4 -2 7.5 -3t7.5 -6l11 -9l12 -13q2 -4 4 -8.5t4 -9.5q0 -4 1 -8.5t1 -6.5q0 -6 -1 -13.5t-5 -15.5q-4 -12 -16 -19q-4 -4 -8.5 -7.5t-11.5 -8.5q-10 -2 -26 -2
h-14q-4 0 -10 2q-15 4 -22 16zM2030 119q5 12 5 25q0 15 -5 23q-3 13 -13.5 23t-23.5 13q-4 4 -11 5t-16 1q-10 0 -24 -6q-7 -1 -11.5 -4t-10.5 -9q-8 -6 -15 -23q0 -4 -1 -9.5t-1 -13.5t1 -13.5t1 -11.5q8 -16 15 -23q6 -4 10.5 -8t11.5 -7q7 -2 13.5 -3t10.5 -1q20 0 27 4
q28 10 37 38zM2141 315q-6 -4 -12 -7.5t-11 -8.5q-8 -2 -12 -2h-28q-4 0 -12 2q-11 4 -21 16q-7 7 -13 19q-2 8 -4 15.5t-2 13.5q0 2 1 6.5t1 8.5q2 4 3 9t4 9q2 3 5 6t5 7q7 5 16 9q3 5 8 6t7 3q5 0 8 1.5t10 1.5q2 0 7.5 -1.5t10.5 -1.5q4 -2 7.5 -3t5.5 -6q4 -2 8.5 -4.5
t7.5 -4.5q1 -2 2 -3.5t2 -3.5l4 -6q6 -10 7 -18q2 -4 3 -8.5t1 -6.5q0 -6 -1 -13.5t-5 -15.5q0 -6 -5 -11zM1039 144q0 14 -4 23q-4 17 -18 23q-2 6 -7.5 9t-11.5 4q-10 6 -27 6q-13 0 -24 -6q-10 -1 -22 -13q-8 -5 -13 -23q-5 -5 -5 -10v-27q0 -4 5 -11q5 -14 13 -22.5
t22 -15.5q9 -4 24 -4q18 0 27 4q14 7 19 15q13 5 17.5 20.5t4.5 27.5zM726 246h130v-37h-94v-52h77v-36h-77v-81h-36v206zM535 209h-55v-169h-40v169h-59v37h154v-37zM1302 246h155v-37h-61v-169h-37v169h-57v37zM1281 1233q16 -8 33.5 -19.5t33.5 -21.5h-304q34 28 70 41
q37 17 82 17t85 -17zM1114 810q-18 7 -35 18t-33 24h302q-16 -13 -33.5 -24t-33.5 -18q-22 -6 -43 -10.5t-42 -4.5q-23 0 -42.5 4.5t-39.5 10.5zM524 566l-44 64q4 0 11 4q7 3 8 9q8 6 8 11v24q-6 14 -12 19q-5 8 -13 8q-2 4 -6.5 5t-8.5 1h-53v-145h22v60h22l37 -52
q1 -4 7 -6zM1096 566l-63 145h-20l-62 -145h11q7 0 9 2q0 2 6 6l10 25h72l11 -25q1 -4 5 -6q2 -2 8 -2h13zM1810 676q2 -2 6.5 -7.5t5.5 -10.5q4 -7 4 -21q0 -12 -4 -21q-1 -4 -6 -9l-6 -6q-5 -4 -9 -6.5t-8 -6.5q-8 -4 -21 -4q-14 0 -21 4q-5 4 -9.5 6.5t-8.5 6.5
q-3 2 -6 6.5t-3 8.5q-4 6 -5 11t-1 10q0 11 6 21q0 5 3 10.5t6 7.5q8 8 18.5 11.5t20.5 3.5q12 0 21 -4zM751 676q6 -2 8.5 -7.5t4.5 -10.5q4 -7 4 -21q0 -10 -4 -21q-2 -4 -4.5 -8.5t-8.5 -6.5q-5 -9 -16 -13t-21 -4t-21 4q-4 4 -8.5 6.5t-8.5 6.5q-2 2 -5.5 6.5t-5.5 8.5
q-4 11 -4 21q0 20 8.5 30.5t23.5 19.5q5 2 11.5 3t9.5 1q13 0 21 -4q12 -4 16 -11zM277 647q5 12 5 18q0 9 -5 18q0 2 -4 6l-6 6q-2 3 -5 6.5t-9 3.5q-2 4 -7.5 5t-9.5 1h-49v-145h16v55h33q4 0 9.5 0.5t7.5 2.5q10 4 14 10q4 2 7 5.5t3 7.5zM2079 311h29l6 3q5 4 9 6l8 4
l3 6q3 6 6 11t3 9v32q-2 6 -6 10t-6 7q-6 2 -9.5 5t-7.5 7h-40q-6 -4 -9.5 -7t-8.5 -5q-7 -5 -11 -17q-2 -8 -2 -12v-20q0 -4 1 -8.5t4 -7.5l4 -4q3 -3 4 -6l6 -3q7 -5 10.5 -6.5t6.5 -3.5zM1993 711h-20v-112q-1 2 -2 5t-3 4l-70 97l-3 6h-23v-145h21v114l84 -114h16v145z
M1480 382q-3 -6 -4 -11.5t-1 -7.5v-8q3 -14 7 -21q0 -2 2 -4t4 -6l5 -3q2 -2 9 -2q2 -4 5.5 -5t5.5 -3h26q5 2 8 3t6 5l10 5q2 4 4.5 6t2.5 4q2 3 3 7.5t3 8.5q0 2 1 5.5t1 7.5q0 2 -1 7.5t-5 11.5q0 6 -3.5 10t-5.5 7q-3 1 -8 6l-9 6h-40q-4 -4 -9 -7t-9 -5q-2 -3 -5 -7
t-3 -10zM935 711h-17v-112l-73 106q-4 0 -6 6h-23v-145h19v117h2l2 -1v-4l81 -112h15v145zM1982 357q-4 -1 -7 -2t-5 -2l42 -56h-11q-7 2 -8.5 3.5t-1.5 5.5l-36 47h-26v-56h-15v130h54q3 0 9 -2q2 -2 5.5 -4.5t4.5 -4.5q4 -2 5 -5.5t7 -7.5v-25q-4 -4 -5 -7.5t-3 -5.5z
M1259 357q-3 -3 -11 -4l44 -56h-14q-9 3 -9 9l-36 47h-26v-56h-13v130h53q9 -2 13.5 -4.5t8.5 -6.5q0 -2 3 -5.5t3 -7.5l2 -19q-3 -16 -6 -19l-5 -4q-2 -2 -7 -4zM386 711h-91v-145h91v20h-69v44h55v17h-55v42h69v22zM1614 711h-88v-145h88v20h-66v44h55v17h-55v42h66v22z
M2306 425l17 2v-130h-11v106l-2 -2v-2q-4 -7 -6.5 -16t-7.5 -13q-4 -7 -6 -12.5t-7 -13.5q-2 -8 -3 -14t-5 -9q-3 -8 -6 -12.5t-5 -11.5h-14q-9 12 -14 24.5t-10 26.5q-4 11 -11 24.5t-11 26.5v2h-4v-104h-13v130h13l8 -4v-5l46 -99l3 -2v4q0 1 7 5l38 92q2 5 3 5t1 2z
M1387 711h-20v-97q0 -3 -2 -7q-1 -7 -9 -12q0 -2 -4 -3.5t-6 -5.5l-8 -2h-8q-7 0 -13 2q-5 4 -8 5.5t-5 3.5l-10 12q0 3 -1 7t-1 10v87h-19v-87q0 -7 1.5 -16.5t6.5 -14.5q2 -6 9 -11q2 -3 4.5 -5.5t7.5 -4.5q2 -2 6 -3t7 -3q4 0 7 -1t8 -1q4 0 7.5 1t10.5 1q2 2 5 3t6 3
q8 6 12 10q3 2 5 5t5 6q0 4 3 7t3 7v104zM622 592q2 5 3 8t1 8q0 10 -5 18t-11 13q-2 0 -3.5 2t-5.5 4l-4 2h-4q-4 3 -6 3.5t-3 1.5q-7 2 -8.5 3t-5.5 3q-6 3 -8 3l-3 21q8 7 11 7l14 2q10 -3 11 -6l6 -2q9 0 13 4l4 2l-6 8q-2 1 -4.5 3.5t-6.5 4.5q-2 0 -4 2t-5 4h-28
q-5 -2 -7 -4t-6 -4q-2 -5 -5.5 -7.5t-6.5 -6.5q0 -4 -2 -6.5t-2 -8.5q0 -7 4 -16l5 -7l5 -4q2 -2 6 -5t7 -3l7 -4q2 -1 7 -1q1 -2 5.5 -2t6.5 -2l5 -2q5 -4 5.5 -5l2.5 -5l2 -15q-4 -5 -4 -7.5t-2 -3.5q-1 -3 -6 -5l-3 -1q-4 0 -7.5 -1t-4.5 -1q-5 0 -11 1.5t-6 6.5l-4 1
q-4 4 -11 4h-5l-9 -4l9 -16h3q7 -7 15.5 -9t18.5 -2h8q5 0 11 2q4 2 8.5 4t6.5 5q4 2 7.5 5.5t4.5 9.5zM1497 592q7 7 7 16q0 10 -4.5 18t-11.5 13q-6 5 -6 6h-4l-36 16l-6 6q0 1 -1 3t-1 4q0 4 4 8q5 4 6.5 5.5t4.5 1.5q2 2 10 2l3 -1l7.5 -3t5.5 -2q6 -2 7 -2q7 0 8 4l5 2
q0 2 -2.5 4t-4.5 4q0 1 -3 3.5t-5 4.5q-3 0 -5 2t-6 4h-6l-4 1q-6 0 -9.5 -0.5t-7.5 -0.5l-13 -8l-11 -14q-1 -4 -3 -6.5t-2 -8.5q0 -4 2 -7.5t3 -8.5q2 -4 4.5 -6.5l4.5 -4.5q4 -2 6.5 -5t6.5 -3q8 -5 13 -5q4 -2 6.5 -2t5.5 -2q5 0 10 -3.5t5 -8.5l2 -14q-2 -7 -3.5 -9
t-3.5 -3q-11 -8 -22 -8q-2 0 -5.5 1t-5.5 1q-3 1 -8 6l-2 1q-4 4 -9 4h-6l-10 -4l8 -9v-2q7 -5 8 -5q6 -7 13.5 -9t16.5 -2h11q3 0 11 2q2 2 5.5 4t7.5 5l5 7q3 3 4 8zM1632 297h-16v130h18l77 -106v106h13v-130h-11l-77 106v4h-4v-110zM73 328q-4 4 -5 7.5t-2 8.5
q-2 6 -3 9.5t-1 9.5t4 15q1 4 2 9t5 9l9 13q2 2 6 4.5t6 4.5q5 5 9.5 6t8.5 3q3 0 8 1.5t10 1.5q15 0 26 -7q13 -4 20 -14l-4 -6h-13q-3 2 -6 5t-7 3h-34l-20 -12q-4 -3 -7 -7t-4 -10q-2 -6 -3 -11.5t-1 -7.5q0 -9 4 -13q0 -4 0.5 -8.5t0.5 -7.5l4 -4q5 -1 6 -6l7 -4
q2 -1 7 -1q2 -4 4.5 -5t6.5 -3h31q2 2 6.5 3t8.5 5v27h-13v2l-6 4h-2l-1 7h35v-48q-2 -5 -3.5 -6t-5.5 -6h-11q-8 -2 -12 -2h-32q-5 0 -18 9q-7 0 -12 9zM225 411v-41h52v-15h-52v-44h63v-14h-79v130h79v-16h-63zM1098 411v-41h56v-15h-56v-44h64v-14h-79v130h79v-16h-64z
M2226 711h-18q-5 0 -9 -4t-4 -9l-35 -44h-4l-36 44q-3 13 -15 13h-16l54 -72v-2l4 -3v-68h20v66l4 5v2zM2112 586h-64v125h-20v-145h84v20zM601 427v-79q0 -6 2 -9t5 -5q0 -6 3 -9t5 -4q0 -2 4 -4t6 -4q6 -2 8 -2h15l12 6t7 4q4 1 8 13q4 3 4 14v79h13v-79q0 -9 -3.5 -20.5
t-11.5 -16.5q-5 -12 -15 -12q-6 -1 -11.5 -1.5t-10.5 -0.5t-10.5 0.5t-12.5 1.5q-3 0 -15 12l-10 15q-1 6 -3 11t-2 11v79h13zM1191 586h-62v125h-19v-145h81v20zM1361 315q1 2 2 3.5t2 3.5q2 2 3 6t1 6q0 17 -15 21q-3 0 -12.5 4t-11.5 6q-9 0 -13 7q-2 0 -3.5 3t-3.5 6v21
q0 1 2 7q0 8 7 9l6 5q2 1 3.5 2t3.5 2q4 0 6.5 1.5t7.5 1.5l10 -3q3 0 4 -1t5 -3q6 0 6 -7q5 0 6 -3l1 -2l-2 -2q-6 -2 -9 -2h-6l-23 4q-8 0 -8 -2q-5 -7 -5 -8q-4 0 -4 -7q0 -5 4 -6q0 -4 3 -6l6 -4q4 -4 7 -4t7 -2l6 -2q3 0 7 -5h4l6 -2q5 -4 7.5 -7t4.5 -4q1 -5 1.5 -9.5
t0.5 -8.5v-10l-7.5 -12t-6.5 -6q-2 -2 -6 -4.5t-6 -2.5q-4 -2 -9 -2h-9q-9 0 -16.5 1t-12.5 8q-2 0 -3 2.5t-5 4.5v4l-2 2l4 2h6q1 0 3 -1t4 -1q4 -4 6.5 -5t4.5 -3h20q7 0 11 4zM1002 297l-55 130h5q10 0 14 -9l40 -97v-2h2l2 2q5 13 12 25.5t11 23.5q4 14 9.5 25.5
t11.5 22.5q0 5 1.5 5t1.5 2l16 2q-7 -16 -14 -32.5t-15 -31.5q-4 -8 -7 -17l-6 -18l-14 -31h-15zM499 411v-46h56v-12h-56v-56h-15v130h80v-16h-65zM1836 411v-46h51v-12h-51v-56h-15v130h77v-16h-62zM824 427v-116h59v-14h-75v130h16zM348 297v114h-44v16h99v-16h-44v-114
h-11zM735 427v-116h60v-14h-75v130h15zM253 683q2 -1 3 -4t3 -5q3 -4 3 -9v-4q0 -2 -3 -7q-2 -2 -3 -4.5t-3 -2.5q-1 -2 -3 -4l-4 -4h-43v50h33q4 0 10 -2zM1242 365q5 0 6 3q4 4 9 4l2 4q5 10 5 16q0 2 -1 3t-1 4q-3 2 -4 3t-1 5q-5 0 -9 4h-41v-46h35zM1970 368q4 4 7 4
q5 7 5 9q2 4 2 11q0 3 -2 7q0 1 -5 8q-3 0 -7 4h-41v-46h33q4 0 8 3zM486 658l-4 -7q-2 0 -3 -2t-3 -2q-2 -2 -9 -2h-31v44h31q3 0 9 -2l6 -4q1 -2 2 -3.5t2 -3.5q3 -1 3 -9q0 -6 -3 -9zM1429 427v-130h-16v130h16zM641 121l-27 69h-2l-28 -69h57zM1024 682v-4l26 -60h-55
l27 60v5zM1645 77q6 0 6 -6l2 -9q0 -7 -2 -9q0 -4 -6 -9l-22 -4q-4 4 -9 4q0 2 -5 9q-2 2 -2 9v4l7 11q7 4 9 4l14 3z" />
    <glyph glyph-name="logicalnot" unicode="&#xac;" horiz-adv-x="1054" 
d="M811 673v-312q0 -27 27 -27h6q11 0 16.5 7.5t5.5 19.5v339q0 17 -7 22.5t-21 5.5h-700q-12 0 -21 -6t-9 -17l2 -12q3 -20 28 -20h673z" />
    <glyph glyph-name="divide" unicode="&#xf7;" horiz-adv-x="983" 
d="M798 624q14 0 22 7.5t8 19.5v2q0 12 -8 19.5t-22 7.5h-618q-15 0 -21.5 -8t-6.5 -20v-1q0 -11 7 -19t21 -8h618zM444 1129q0 -13 6.5 -13t4.5 0h68q8 0 11 6t3 12v58l-1 4l-9 11q-2 0 -3.5 0.5t-3.5 0.5h-62q-8 0 -11 -6.5t-3 -11.5v-61zM444 13q0 -8 4.5 -10.5t9.5 -2.5
h65q6 0 10 4.5t4 9.5v58q0 5 -2 9.5t-4 6.5l-6 3l-64 1q-5 0 -7 -1l-4 -2l-4 -5q0 -2 -1 -5t-1 -5v-61z" />
    <glyph glyph-name="uni2070" unicode="&#x2070;" 
d="M2323 1024v-550h-2254v550h854q0 28 5 55t19 50q11 27 24.5 49t34.5 39q36 39 86 58q25 11 51 16t53 5q31 0 58 -6t50 -15q55 -27 88.5 -60.5t58.5 -89.5q18 -49 18 -101h854zM947 1024q0 -57 17.5 -96.5t52.5 -82.5q36 -35 82 -55t97 -20q50 0 96 17.5t80 55.5
q20 18 33 38t24 41q20 51 20 102q0 43 -13.5 82t-41.5 72q-13 18 -27.5 31t-32.5 24q-17 7 -35 16.5t-37 16.5q-14 3 -30.5 6t-35.5 3q-55 0 -100 -23q-46 -16 -79 -54q-34 -34 -52 -80t-18 -94zM1070 877l295 298q58 -73 58 -151q0 -22 -3 -42t-11 -39q-13 -35 -38 -66
h-301zM1026 870q-26 34 -41 71q-8 17 -11 38t-3 45q0 18 3 37.5t11 39.5q4 18 13.5 33.5t23.5 30.5h299zM2058 194q3 -4 5.5 -10t4.5 -13q4 -7 4 -14v-29q0 -7 -4 -11q-2 -7 -4.5 -14t-5.5 -13q-4 -7 -15 -19q-6 -5 -11.5 -9.5t-12.5 -8.5q-5 -5 -11.5 -7t-12.5 -4
q-8 -2 -13 -2h-16q-19 0 -40 6q-8 6 -15.5 12t-15.5 13q-8 6 -13.5 13.5t-7.5 19.5q-6 9 -7.5 18.5t-1.5 21.5q0 8 1 13.5t1 13.5q3 7 6 13t7 10q2 8 5.5 12.5t9.5 10.5q3 4 9.5 8t11.5 9q4 2 10.5 4t12.5 6q10 0 15.5 1t11.5 1q9 0 16 -1t13 -1q6 -4 12.5 -6t11.5 -4
q13 -10 24 -17q2 -6 7.5 -10.5t7.5 -12.5zM1064 194q2 -4 4 -10t5 -13q2 -10 2 -14v-29q0 -5 -2 -11q-3 -7 -5 -14t-4 -13q-5 -4 -9.5 -9.5t-8.5 -9.5q-14 -14 -21.5 -18t-24.5 -11q-4 -1 -7 -1.5t-7 -0.5h-15q-9 0 -18.5 2t-21.5 4q-11 6 -17.5 12t-15.5 13
q-15 14 -21.5 33.5t-6.5 39.5v13q0 4 2 14q5 17 11 23q4 8 7.5 12.5t7.5 10.5q7 4 11.5 8t10.5 9l27 10q4 0 10.5 1t13.5 1q8 0 15 -1t14 -1q6 -4 12.5 -6t13.5 -4l20 -17q4 -6 8.5 -10.5t9.5 -12.5zM2281 244l1 1l41 1v-206h-35v150l-5 -9v-6q-8 -18 -14.5 -36t-14.5 -31
q-6 -18 -11.5 -33.5t-13.5 -34.5h-34l-52 131q-5 3 -5 10l-3 6v-147h-39v206h37q5 0 6.5 -1t3.5 -1q2 -2 3 -2t3 -2l7 -4q0 -2 2 -3.5t2 -3.5q4 -16 10.5 -30t14.5 -32q6 -15 11.5 -30.5t11.5 -28.5v-12l5 12l9 13l42 108l4 7l5 4q2 2 4 2t4 2zM1246 246h36v-206h-34
l-94 138l-4 3v2q-5 9 -7 11t-5 2v-156h-36v206h32q4 0 8.5 -1t4.5 -3q3 -2 5 -2t4 -2l21 -31q5 -8 9.5 -16t9.5 -17q13 -13 23 -27.5t23 -27.5q0 -2 1 -4.5t1 -6.5l2 -5v143zM630 246l88 -206h-23q-8 0 -15 4q-2 2 -4 6.5t-6 8.5l-12 25h-94l-9 -25q0 -6 -4 -6l-7 -9
q-2 0 -3.5 -1t-5.5 -1l-28 -2l90 206h33zM244 246h130v-37h-94v-46h77v-38h-77v-48h94v-37h-130v206zM69 246h149v-23l-7 -14l-99 -134h1l2 2h102v-37h-155v13q0 9 2 11q0 2 5 7v4l2 4q2 2 4 3.5t2 5.5l88 121h-96v37zM786 618q1 6 2 10t1 9q0 12 -3 21q0 5 -3.5 8.5
t-5.5 9.5q-2 3 -4.5 6t-6.5 7l-7 6q-2 3 -8 8l-8 4q-2 1 -4.5 2t-5.5 2h-38q-10 -4 -17 -8q-4 -5 -7.5 -7.5t-7.5 -6.5q-11 -8 -12 -13q-4 -6 -5 -9.5t-3 -8.5q-1 -5 -1.5 -10t-0.5 -11q0 -15 6 -27.5t16 -23.5q11 -14 24 -14q11 -6 27 -6h19q6 2 10.5 4t7.5 4q11 5 15 12
q7 7 11 15q2 4 5.5 8.5t3.5 8.5zM1843 618v40q-2 5 -3.5 9t-3.5 9q-5 6 -14 13q-1 4 -5.5 6.5t-8.5 7.5l-4 2t-5 2l-7 4h-39l-10 -4l-10 -4q-3 -5 -6 -7.5t-7 -6.5q-3 -4 -6 -6.5t-5 -6.5q-2 -6 -4.5 -9.5t-2.5 -8.5q-5 -10 -5 -21q0 -5 2.5 -13t5.5 -14q5 -15 15 -24
q8 -14 24 -14q11 -6 28 -6h20q3 2 8 4t8 4q4 3 8.5 5.5t5.5 6.5q9 5 14 15zM1724 190q-7 -7 -13 -23q-2 -4 -4 -9.5t-2 -13.5q0 -9 6 -25.5t13 -22.5q9 -9 22 -15q12 -4 26 -4q5 0 9.5 1t10.5 1q3 2 8 4.5t8 6.5q2 0 8 2h12q2 0 8 -2q2 -1 7 -6l6 -7q-3 -4 -6 -7.5t-7 -7.5
q-6 -3 -10.5 -6t-11.5 -6q-5 -3 -15.5 -6.5t-16.5 -3.5h-10q-11 0 -22 2t-20 4q-20 9 -33 25q-15 14 -21 33q-4 9 -6.5 18.5t-2.5 21.5q0 8 1 13.5t3 13.5q2 16 9 23q6 8 8.5 12.5t8.5 10.5l23 17l26 10q5 0 11.5 1t14.5 1h12q4 0 15 -3t15 -5l22 -13q4 -4 7 -8l6 -8
l-13 -15h-14q-7 0 -14 4q-3 2 -8 4.5t-8 4.5q-8 2 -11 2h-9q-15 0 -26 -6q-15 -2 -22 -13zM1594 125q5 -8 5 -19q0 -14 -7 -27l-8 -12q-3 -5 -8 -8q-6 -6 -10.5 -9.5t-12.5 -5.5q-5 -2 -13 -3t-14 -1q-11 0 -31 4q-9 4 -20 18q-4 1 -6 5l-4 8q-6 2 -6 9l6 4l8 2l2 2h9
q12 -3 13 -4q5 -4 8.5 -5.5t5.5 -3.5q2 0 6 -1t9 -1h5q8 2 12 3.5t7 3.5l4 4t3 4q2 4 4 7t2 7q0 6 -6 9q-4 6 -7 6q-2 4 -6.5 5t-6.5 2q-5 0 -13 6q-5 0 -9 1t-9 6q-9 3 -12.5 6t-7.5 7q-11 4 -11 13q-6 11 -6 23q0 18 6 25q1 4 5 10l8 9q4 2 9 4t12 6q6 0 10.5 1t12.5 1
q4 0 8 -1t10 -1l15 -6q3 -4 6 -6.5t7 -6.5q3 -2 6.5 -5t3.5 -7l-13 -8l-20 -3l-5 1q-3 1 -6 4q-2 0 -3.5 1t-3.5 1h-16q-2 0 -3 -1t-5 -3l-6 -5q-1 -3 -1 -10q3 -6 4 -9t3 -7h6q8 -2 13 -4.5t10 -4.5l8 -2q5 -4 9 -5t9 -4q6 -2 16 -12.5t10 -16.5zM1480 315q-11 8 -15 19
q-6 14 -6 29v15l10 18q2 2 4.5 5.5t6.5 7.5q6 8 12 9q3 5 8.5 6t8.5 3q4 0 8 1.5t9 1.5q4 0 10 -1.5t10 -1.5q4 -2 7.5 -3t7.5 -6l11 -9l12 -13q2 -4 4 -8.5t4 -9.5q0 -4 1 -8.5t1 -6.5q0 -6 -1 -13.5t-5 -15.5q-4 -12 -16 -19q-4 -4 -8.5 -7.5t-11.5 -8.5q-10 -2 -26 -2
h-14q-4 0 -10 2q-15 4 -22 16zM2030 119q5 12 5 25q0 15 -5 23q-3 13 -13.5 23t-23.5 13q-4 4 -11 5t-16 1q-10 0 -24 -6q-7 -1 -11.5 -4t-10.5 -9q-8 -6 -15 -23q0 -4 -1 -9.5t-1 -13.5t1 -13.5t1 -11.5q8 -16 15 -23q6 -4 10.5 -8t11.5 -7q7 -2 13.5 -3t10.5 -1q20 0 27 4
q28 10 37 38zM2141 315q-6 -4 -12 -7.5t-11 -8.5q-8 -2 -12 -2h-28q-4 0 -12 2q-11 4 -21 16q-7 7 -13 19q-2 8 -4 15.5t-2 13.5q0 2 1 6.5t1 8.5q2 4 3 9t4 9q2 3 5 6t5 7q7 5 16 9q3 5 8 6t7 3q5 0 8 1.5t10 1.5q2 0 7.5 -1.5t10.5 -1.5q4 -2 7.5 -3t5.5 -6q4 -2 8.5 -4.5
t7.5 -4.5q1 -2 2 -3.5t2 -3.5l4 -6q6 -10 7 -18q2 -4 3 -8.5t1 -6.5q0 -6 -1 -13.5t-5 -15.5q0 -6 -5 -11zM1039 144q0 14 -4 23q-4 17 -18 23q-2 6 -7.5 9t-11.5 4q-10 6 -27 6q-13 0 -24 -6q-10 -1 -22 -13q-8 -5 -13 -23q-5 -5 -5 -10v-27q0 -4 5 -11q5 -14 13 -22.5
t22 -15.5q9 -4 24 -4q18 0 27 4q14 7 19 15q13 5 17.5 20.5t4.5 27.5zM726 246h130v-37h-94v-52h77v-36h-77v-81h-36v206zM535 209h-55v-169h-40v169h-59v37h154v-37zM1302 246h155v-37h-61v-169h-37v169h-57v37zM1281 1233q16 -8 33.5 -19.5t33.5 -21.5h-304q34 28 70 41
q37 17 82 17t85 -17zM1114 810q-18 7 -35 18t-33 24h302q-16 -13 -33.5 -24t-33.5 -18q-22 -6 -43 -10.5t-42 -4.5q-23 0 -42.5 4.5t-39.5 10.5zM524 566l-44 64q4 0 11 4q7 3 8 9q8 6 8 11v24q-6 14 -12 19q-5 8 -13 8q-2 4 -6.5 5t-8.5 1h-53v-145h22v60h22l37 -52
q1 -4 7 -6zM1096 566l-63 145h-20l-62 -145h11q7 0 9 2q0 2 6 6l10 25h72l11 -25q1 -4 5 -6q2 -2 8 -2h13zM1810 676q2 -2 6.5 -7.5t5.5 -10.5q4 -7 4 -21q0 -12 -4 -21q-1 -4 -6 -9l-6 -6q-5 -4 -9 -6.5t-8 -6.5q-8 -4 -21 -4q-14 0 -21 4q-5 4 -9.5 6.5t-8.5 6.5
q-3 2 -6 6.5t-3 8.5q-4 6 -5 11t-1 10q0 11 6 21q0 5 3 10.5t6 7.5q8 8 18.5 11.5t20.5 3.5q12 0 21 -4zM751 676q6 -2 8.5 -7.5t4.5 -10.5q4 -7 4 -21q0 -10 -4 -21q-2 -4 -4.5 -8.5t-8.5 -6.5q-5 -9 -16 -13t-21 -4t-21 4q-4 4 -8.5 6.5t-8.5 6.5q-2 2 -5.5 6.5t-5.5 8.5
q-4 11 -4 21q0 20 8.5 30.5t23.5 19.5q5 2 11.5 3t9.5 1q13 0 21 -4q12 -4 16 -11zM277 647q5 12 5 18q0 9 -5 18q0 2 -4 6l-6 6q-2 3 -5 6.5t-9 3.5q-2 4 -7.5 5t-9.5 1h-49v-145h16v55h33q4 0 9.5 0.5t7.5 2.5q10 4 14 10q4 2 7 5.5t3 7.5zM2079 311h29l6 3q5 4 9 6l8 4
l3 6q3 6 6 11t3 9v32q-2 6 -6 10t-6 7q-6 2 -9.5 5t-7.5 7h-40q-6 -4 -9.5 -7t-8.5 -5q-7 -5 -11 -17q-2 -8 -2 -12v-20q0 -4 1 -8.5t4 -7.5l4 -4q3 -3 4 -6l6 -3q7 -5 10.5 -6.5t6.5 -3.5zM1993 711h-20v-112q-1 2 -2 5t-3 4l-70 97l-3 6h-23v-145h21v114l84 -114h16v145z
M1480 382q-3 -6 -4 -11.5t-1 -7.5v-8q3 -14 7 -21q0 -2 2 -4t4 -6l5 -3q2 -2 9 -2q2 -4 5.5 -5t5.5 -3h26q5 2 8 3t6 5l10 5q2 4 4.5 6t2.5 4q2 3 3 7.5t3 8.5q0 2 1 5.5t1 7.5q0 2 -1 7.5t-5 11.5q0 6 -3.5 10t-5.5 7q-3 1 -8 6l-9 6h-40q-4 -4 -9 -7t-9 -5q-2 -3 -5 -7
t-3 -10zM935 711h-17v-112l-73 106q-4 0 -6 6h-23v-145h19v117h2l2 -1v-4l81 -112h15v145zM1982 357q-4 -1 -7 -2t-5 -2l42 -56h-11q-7 2 -8.5 3.5t-1.5 5.5l-36 47h-26v-56h-15v130h54q3 0 9 -2q2 -2 5.5 -4.5t4.5 -4.5q4 -2 5 -5.5t7 -7.5v-25q-4 -4 -5 -7.5t-3 -5.5z
M1259 357q-3 -3 -11 -4l44 -56h-14q-9 3 -9 9l-36 47h-26v-56h-13v130h53q9 -2 13.5 -4.5t8.5 -6.5q0 -2 3 -5.5t3 -7.5l2 -19q-3 -16 -6 -19l-5 -4q-2 -2 -7 -4zM386 711h-91v-145h91v20h-69v44h55v17h-55v42h69v22zM1614 711h-88v-145h88v20h-66v44h55v17h-55v42h66v22z
M2306 425l17 2v-130h-11v106l-2 -2v-2q-4 -7 -6.5 -16t-7.5 -13q-4 -7 -6 -12.5t-7 -13.5q-2 -8 -3 -14t-5 -9q-3 -8 -6 -12.5t-5 -11.5h-14q-9 12 -14 24.5t-10 26.5q-4 11 -11 24.5t-11 26.5v2h-4v-104h-13v130h13l8 -4v-5l46 -99l3 -2v4q0 1 7 5l38 92q2 5 3 5t1 2z
M1387 711h-20v-97q0 -3 -2 -7q-1 -7 -9 -12q0 -2 -4 -3.5t-6 -5.5l-8 -2h-8q-7 0 -13 2q-5 4 -8 5.5t-5 3.5l-10 12q0 3 -1 7t-1 10v87h-19v-87q0 -7 1.5 -16.5t6.5 -14.5q2 -6 9 -11q2 -3 4.5 -5.5t7.5 -4.5q2 -2 6 -3t7 -3q4 0 7 -1t8 -1q4 0 7.5 1t10.5 1q2 2 5 3t6 3
q8 6 12 10q3 2 5 5t5 6q0 4 3 7t3 7v104zM622 592q2 5 3 8t1 8q0 10 -5 18t-11 13q-2 0 -3.5 2t-5.5 4l-4 2h-4q-4 3 -6 3.5t-3 1.5q-7 2 -8.5 3t-5.5 3q-6 3 -8 3l-3 21q8 7 11 7l14 2q10 -3 11 -6l6 -2q9 0 13 4l4 2l-6 8q-2 1 -4.5 3.5t-6.5 4.5q-2 0 -4 2t-5 4h-28
q-5 -2 -7 -4t-6 -4q-2 -5 -5.5 -7.5t-6.5 -6.5q0 -4 -2 -6.5t-2 -8.5q0 -7 4 -16l5 -7l5 -4q2 -2 6 -5t7 -3l7 -4q2 -1 7 -1q1 -2 5.5 -2t6.5 -2l5 -2q5 -4 5.5 -5l2.5 -5l2 -15q-4 -5 -4 -7.5t-2 -3.5q-1 -3 -6 -5l-3 -1q-4 0 -7.5 -1t-4.5 -1q-5 0 -11 1.5t-6 6.5l-4 1
q-4 4 -11 4h-5l-9 -4l9 -16h3q7 -7 15.5 -9t18.5 -2h8q5 0 11 2q4 2 8.5 4t6.5 5q4 2 7.5 5.5t4.5 9.5zM1497 592q7 7 7 16q0 10 -4.5 18t-11.5 13q-6 5 -6 6h-4l-36 16l-6 6q0 1 -1 3t-1 4q0 4 4 8q5 4 6.5 5.5t4.5 1.5q2 2 10 2l3 -1l7.5 -3t5.5 -2q6 -2 7 -2q7 0 8 4l5 2
q0 2 -2.5 4t-4.5 4q0 1 -3 3.5t-5 4.5q-3 0 -5 2t-6 4h-6l-4 1q-6 0 -9.5 -0.5t-7.5 -0.5l-13 -8l-11 -14q-1 -4 -3 -6.5t-2 -8.5q0 -4 2 -7.5t3 -8.5q2 -4 4.5 -6.5l4.5 -4.5q4 -2 6.5 -5t6.5 -3q8 -5 13 -5q4 -2 6.5 -2t5.5 -2q5 0 10 -3.5t5 -8.5l2 -14q-2 -7 -3.5 -9
t-3.5 -3q-11 -8 -22 -8q-2 0 -5.5 1t-5.5 1q-3 1 -8 6l-2 1q-4 4 -9 4h-6l-10 -4l8 -9v-2q7 -5 8 -5q6 -7 13.5 -9t16.5 -2h11q3 0 11 2q2 2 5.5 4t7.5 5l5 7q3 3 4 8zM1632 297h-16v130h18l77 -106v106h13v-130h-11l-77 106v4h-4v-110zM73 328q-4 4 -5 7.5t-2 8.5
q-2 6 -3 9.5t-1 9.5t4 15q1 4 2 9t5 9l9 13q2 2 6 4.5t6 4.5q5 5 9.5 6t8.5 3q3 0 8 1.5t10 1.5q15 0 26 -7q13 -4 20 -14l-4 -6h-13q-3 2 -6 5t-7 3h-34l-20 -12q-4 -3 -7 -7t-4 -10q-2 -6 -3 -11.5t-1 -7.5q0 -9 4 -13q0 -4 0.5 -8.5t0.5 -7.5l4 -4q5 -1 6 -6l7 -4
q2 -1 7 -1q2 -4 4.5 -5t6.5 -3h31q2 2 6.5 3t8.5 5v27h-13v2l-6 4h-2l-1 7h35v-48q-2 -5 -3.5 -6t-5.5 -6h-11q-8 -2 -12 -2h-32q-5 0 -18 9q-7 0 -12 9zM225 411v-41h52v-15h-52v-44h63v-14h-79v130h79v-16h-63zM1098 411v-41h56v-15h-56v-44h64v-14h-79v130h79v-16h-64z
M2226 711h-18q-5 0 -9 -4t-4 -9l-35 -44h-4l-36 44q-3 13 -15 13h-16l54 -72v-2l4 -3v-68h20v66l4 5v2zM2112 586h-64v125h-20v-145h84v20zM601 427v-79q0 -6 2 -9t5 -5q0 -6 3 -9t5 -4q0 -2 4 -4t6 -4q6 -2 8 -2h15l12 6t7 4q4 1 8 13q4 3 4 14v79h13v-79q0 -9 -3.5 -20.5
t-11.5 -16.5q-5 -12 -15 -12q-6 -1 -11.5 -1.5t-10.5 -0.5t-10.5 0.5t-12.5 1.5q-3 0 -15 12l-10 15q-1 6 -3 11t-2 11v79h13zM1191 586h-62v125h-19v-145h81v20zM1361 315q1 2 2 3.5t2 3.5q2 2 3 6t1 6q0 17 -15 21q-3 0 -12.5 4t-11.5 6q-9 0 -13 7q-2 0 -3.5 3t-3.5 6v21
q0 1 2 7q0 8 7 9l6 5q2 1 3.5 2t3.5 2q4 0 6.5 1.5t7.5 1.5l10 -3q3 0 4 -1t5 -3q6 0 6 -7q5 0 6 -3l1 -2l-2 -2q-6 -2 -9 -2h-6l-23 4q-8 0 -8 -2q-5 -7 -5 -8q-4 0 -4 -7q0 -5 4 -6q0 -4 3 -6l6 -4q4 -4 7 -4t7 -2l6 -2q3 0 7 -5h4l6 -2q5 -4 7.5 -7t4.5 -4q1 -5 1.5 -9.5
t0.5 -8.5v-10l-7.5 -12t-6.5 -6q-2 -2 -6 -4.5t-6 -2.5q-4 -2 -9 -2h-9q-9 0 -16.5 1t-12.5 8q-2 0 -3 2.5t-5 4.5v4l-2 2l4 2h6q1 0 3 -1t4 -1q4 -4 6.5 -5t4.5 -3h20q7 0 11 4zM1002 297l-55 130h5q10 0 14 -9l40 -97v-2h2l2 2q5 13 12 25.5t11 23.5q4 14 9.5 25.5
t11.5 22.5q0 5 1.5 5t1.5 2l16 2q-7 -16 -14 -32.5t-15 -31.5q-4 -8 -7 -17l-6 -18l-14 -31h-15zM499 411v-46h56v-12h-56v-56h-15v130h80v-16h-65zM1836 411v-46h51v-12h-51v-56h-15v130h77v-16h-62zM824 427v-116h59v-14h-75v130h16zM348 297v114h-44v16h99v-16h-44v-114
h-11zM735 427v-116h60v-14h-75v130h15zM253 683q2 -1 3 -4t3 -5q3 -4 3 -9v-4q0 -2 -3 -7q-2 -2 -3 -4.5t-3 -2.5q-1 -2 -3 -4l-4 -4h-43v50h33q4 0 10 -2zM1242 365q5 0 6 3q4 4 9 4l2 4q5 10 5 16q0 2 -1 3t-1 4q-3 2 -4 3t-1 5q-5 0 -9 4h-41v-46h35zM1970 368q4 4 7 4
q5 7 5 9q2 4 2 11q0 3 -2 7q0 1 -5 8q-3 0 -7 4h-41v-46h33q4 0 8 3zM486 658l-4 -7q-2 0 -3 -2t-3 -2q-2 -2 -9 -2h-31v44h31q3 0 9 -2l6 -4q1 -2 2 -3.5t2 -3.5q3 -1 3 -9q0 -6 -3 -9zM1429 427v-130h-16v130h16zM641 121l-27 69h-2l-28 -69h57zM1024 682v-4l26 -60h-55
l27 60v5zM1645 77q6 0 6 -6l2 -9q0 -7 -2 -9q0 -4 -6 -9l-22 -4q-4 4 -9 4q0 2 -5 9q-2 2 -2 9v4l7 11q7 4 9 4l14 3z" />
    <glyph glyph-name="multiply" unicode="&#xd7;" horiz-adv-x="864" 
d="M178 420q9 -9 18 -9q11 0 24 13l217 217l220 -220q9 -9 21 -9q11 0 18 7h1q8 8 8 19t-9 22l-220 220l219 219q8 8 8 21q0 12 -6 18v1q-8 8 -19 8t-22 -9l-219 -219l-216 216q-14 12 -24 12t-18 -8l-1 -1q-9 -9 -9 -18q0 -13 13 -24l216 -216l-217 -217q-12 -12 -12 -24
q0 -11 8 -18z" />
    <glyph glyph-name="copyright" unicode="&#xa9;" horiz-adv-x="1657" 
d="M153 712q0 139 53.5 262t145 215t214.5 145.5t261 53.5t261 -53.5t215.5 -145.5t146 -215t53.5 -262q0 -138 -54 -260.5t-146 -214t-215 -145t-261 -53.5t-261 53.5t-214.5 145t-145 214t-53.5 260.5zM1116 1049q-54 44 -119 67.5t-138 23.5q-89 0 -167 -33.5t-136 -91.5
t-91.5 -135.5t-33.5 -165.5q0 -89 33.5 -167.5t91.5 -136.5t135.5 -91.5t165.5 -33.5q75 0 142 25t117 70q7 7 7 19q0 11 -4 16l-3 4q-5 7 -19 7q-12 0 -18 -6q-48 -42 -108 -61.5t-117 -19.5q-79 2 -146.5 33t-117 82.5t-77.5 118.5t-28 141q0 77 30 144.5t81.5 118
t119.5 80t144 29.5q60 0 114 -20.5t103 -55.5q14 -10 26 -10q13 0 19 8l3 4q3 3 3 12q0 14 -12 25zM98 712q0 -151 57 -283.5t156 -231t232 -155.5t284 -57q150 0 283 57t232 155.5t157 231t58 283.5q0 101 -26.5 194t-74 174t-114.5 148t-148 115t-174 74t-193 26
q-151 0 -284 -57.5t-232 -157t-156 -232.5t-57 -284z" />
    <glyph glyph-name="registered" unicode="&#xae;" horiz-adv-x="1686" 
d="M170 709q0 138 53 259.5t144 212.5t212.5 144t259.5 53q137 0 258.5 -53t212.5 -144t144 -212.5t53 -259.5q0 -137 -53 -258.5t-144 -212t-212.5 -143.5t-258.5 -53q-138 0 -259.5 53t-212.5 143.5t-144 212t-53 258.5zM879 1078q47 0 87.5 -13.5t70.5 -39.5t47 -63
t17 -84t-17 -84t-47 -63t-70.5 -39.5t-87.5 -13.5h-249v400h249zM113 709q0 -150 57 -282t155.5 -230t231 -155t282.5 -57t282.5 57t230.5 155t155 230t57 282q0 151 -57 283.5t-155 231t-230.5 155.5t-282.5 57t-282.5 -57t-231 -155.5t-155.5 -231t-57 -283.5zM1086 326
q5 -7 13 -9.5t11 -2.5h1q11 0 19 8.5t8 18.5q0 5 -3 11l-137 290q35 14 64 37.5t50 54.5t32.5 67.5t11.5 76.5q0 53 -20 99t-54.5 80.5t-80.5 54.5t-99 20h-311q-16 0 -16 -15v-785q0 -12 8 -19t19 -7h1q9 0 18 6.5t9 19.5v292h272q20 0 41 3z" />
    <glyph glyph-name="B" unicode="B" horiz-adv-x="1284" 
d="M829 711q47 0 102 -24t101.5 -68.5t77.5 -107.5t31 -141q0 -40 -16.5 -94.5t-52.5 -103.5t-93 -83t-138 -34h-631v656h619zM757 1372q65 0 122 -23.5t99.5 -64.5t67.5 -96.5t25 -120.5t-25 -120t-67.5 -95.5t-99.5 -63t-122 -22.5h-547v606h547zM156 28q0 -28 27 -28h656
q74 3 138.5 34t113 81.5t76.5 116.5t28 140q0 63 -21 124t-57.5 112t-86 89t-106.5 54q44 23 81 55t63.5 72.5t41 88t14.5 101.5q0 77 -29 142.5t-79 113.5t-116.5 75.5t-142.5 27.5h-574q-27 0 -27 -27v-1372z" />
    <glyph glyph-name="G" unicode="G" horiz-adv-x="1425" 
d="M830 39q-141 0 -264.5 52.5t-215 143.5t-144.5 213.5t-53 263.5t53 263.5t144.5 213t215 142.5t264.5 52q121 0 226.5 -41t194.5 -109q11 -8 22 -8q9 0 14.5 4t6.5 5l1 1q1 1 3 5t2 10q0 5 -3 11.5t-12 14.5q-94 77 -209 121.5t-246 44.5q-152 0 -285.5 -57t-233.5 -156
t-157.5 -232t-57.5 -285t57.5 -284.5t157.5 -231t233.5 -155.5t285.5 -57q131 0 250 45t210 119q13 12 13 32v424q0 14 -6.5 23t-20.5 9t-21 -9t-7 -23v-419q-86 -64 -193 -105t-225 -41z" />
    <glyph glyph-name="quotesinglbase" unicode="&#x201a;" horiz-adv-x="411" 
d="M129.992 15.999q0 -11.999 4 -18.499q3.99902 -6.49902 18.998 -6.49902h24.999q7.99902 0 10.999 -2.5t3 -14.499q0 -9 -5 -17.499q-4.99902 -8.5 -10.499 -16.999q-5.5 -8.5 -10.499 -16.499q-5 -8 -5 -13.999q0 -4 3 -7l16.999 -13.999q3.99902 -4 7.99902 -4
q7 0 16.999 9.5q9.99902 9.49902 18.999 25.998q8.99902 16.499 14.999 38.498q6 21.998 6 46.9971v78.9951q0 21.998 -19.999 21.998h-72.9961q-12.999 0 -17.998 -6.99902q-5 -7 -5 -14.999v-67.9961z" />
    <glyph glyph-name="quotedblbase" unicode="&#x201e;" horiz-adv-x="582" 
d="M138.991 15.999q0 -11.999 4 -18.499q4 -6.49902 18.999 -6.49902h24.998q8 0 11 -2.5q2.99902 -2.5 2.99902 -14.499q0 -9 -4.99902 -17.499q-5 -8.5 -10.5 -16.999q-5.49902 -8.5 -10.499 -16.499q-5 -8 -5 -13.999q0 -4 3 -7l16.999 -13.999q4 -4 8 -4
q6.99902 0 16.999 9.5q9.99902 9.49902 18.998 25.998q9 16.499 14.999 38.498q6 21.998 6 46.9971v78.9951q0 21.998 -19.999 21.998h-72.9951q-12.999 0 -17.999 -6.99902q-5 -7 -5 -14.999v-67.9961zM-50.9971 15.999q0 -11.999 4 -18.499q4 -6.49902 18.999 -6.49902
h24.998q8 0 11 -2.5q2.99902 -2.5 2.99902 -14.499q0 -9 -4.99902 -17.499q-5 -8.5 -10.5 -16.999q-5.49902 -8.5 -10.499 -16.499q-5 -8 -5 -13.999q0 -4 3 -7l16.999 -13.999q4 -4 8 -4q6.99902 0 16.998 9.5q10 9.49902 18.999 25.998q9 16.499 14.999 38.498
q6 21.998 6 46.9971v78.9951q0 21.998 -19.999 21.998h-72.9951q-12.999 0 -17.999 -6.99902q-5 -7 -5 -14.999v-67.9961z" />
    <glyph glyph-name="guilsinglleft" unicode="&#x2039;" horiz-adv-x="797" 
d="M85.9951 537q0 -2 1 -4.5q0.999023 -2.5 5.99902 -7.5l500.97 -495q10.999 -11 24.998 -11q9 0 13.999 5l2 2q9 9 9 20q0 12 -10 22l-474.971 469l474.971 469q10 10 10 22q0 11 -9 20l-2 2q-4.99902 5 -13.999 5q-13.999 0 -24.998 -11l-500.97 -495
q-6.99902 -7 -6.99902 -12z" />
    <glyph glyph-name="Ccaron" unicode="&#x10c;" horiz-adv-x="1402" 
d="M1246 196q-88 -69 -193 -111.5t-226 -42.5q-141 0 -265 52t-216 142.5t-145.5 213t-53.5 263.5t53.5 263.5t145.5 213t216 142.5t265 52q122 0 226.5 -41.5t193.5 -110.5q11 -8 22 -8q9 0 15 4t7 5l1 1q1 2 3 4q2 5 2 10t-3.5 12t-12.5 15q-94 77 -208.5 122t-245.5 45
q-152 0 -286.5 -56.5t-234.5 -155t-158 -231.5t-58 -286q0 -152 58 -285t158 -231.5t234.5 -155.5t286.5 -57q131 0 246 45.5t207 124.5q13 11 13 26q0 10 -6 16l-2 2q-8 7 -17 7q-11 0 -22 -9zM1059 1785q10 10 10 23q0 10 -8 18l-1 1q-7 7 -17 7q-6 0 -12 -3t-11 -8
l-194 -193l-193 193q-5 5 -11 8t-13 3q-9 0 -16 -7l-1 -1q-8 -8 -8 -18q0 -13 10 -23l213 -213q9 -9 19 -9q11 0 21 10z" />
    <glyph glyph-name="Dcaron" unicode="&#x10e;" horiz-adv-x="1482" 
d="M1301 712q0 -136 -52.5 -256t-145.5 -208.5t-219 -140t-273 -51.5h-400v1315h400q147 0 273 -51.5t219 -141t145.5 -209.5t52.5 -257zM157 28q0 -27 24 -28h434q158 1 293.5 57t235 152.5t156.5 226t57 276.5t-57 277.5t-156.5 227.5t-235 153.5t-293.5 56.5h-431
q-27 0 -27 -27v-1372zM839 1787q10 10 10 23q0 10 -8 18l-1 1q-7 7 -17 7q-6 0 -12 -3t-11 -8l-194 -193l-193 193q-5 5 -11 8t-13 3q-9 0 -16 -7l-1 -1q-8 -8 -8 -18q0 -13 10 -23l213 -213q9 -9 19 -9q11 0 21 10z" />
    <glyph glyph-name="Ecaron" unicode="&#x11a;" horiz-adv-x="1213" 
d="M156 28q0 -28 27 -28h948q14 0 23 7t9 21v1q0 14 -9 20.5t-23 6.5h-921v656h738q14 0 24 6.5t10 20.5v1q0 14 -10 20.5t-24 6.5h-738v604h901q14 0 23 7t9 21v1q0 14 -9 20.5t-23 6.5h-928q-27 0 -27 -27v-1372zM921 1788q10 10 10 23q0 10 -8 18l-1 1q-7 7 -17 7
q-6 0 -12 -3t-11 -8l-194 -193l-193 193q-5 5 -11 8t-13 3q-9 0 -16 -7l-1 -1q-8 -8 -8 -18q0 -13 10 -23l213 -213q9 -9 19 -9q11 0 21 10z" />
    <glyph glyph-name="Idotaccent" unicode="&#x130;" horiz-adv-x="430" 
d="M154 33q0 -14 6.5 -23.5t20.5 -9.5h1q14 0 20 9.5t6 23.5v1362q0 14 -6 23t-20 9h-1q-13 0 -20 -9t-7 -23v-1362zM129 1612q0 -14 5.5 -21t20.5 -7h60q10 0 17 5.5t7 22.5v54q0 28 -24 28h-61q-25 0 -25 -25v-57z" />
    <glyph glyph-name="Ncaron" unicode="&#x147;" horiz-adv-x="1493" 
d="M1262 18q11 -13 18 -15.5t11 -2.5h6q14 0 20 9t6 24v1367q0 27 -26 27h-1q-28 0 -28 -27v-1300l-1053 1308q-16 19 -30 19h-5q-14 -1 -20 -9.5t-6 -17.5v-1367q0 -14 6.5 -23.5t20.5 -9.5h1q14 0 20 9.5t6 23.5v1296zM1038 1756q10 10 10 23q0 10 -8 18l-1 1q-7 7 -17 7
q-6 0 -12 -3t-11 -8l-194 -193l-193 193q-5 5 -11 8t-13 3q-9 0 -16 -7l-1 -1q-8 -8 -8 -18q0 -13 10 -23l213 -213q9 -9 19 -9q11 0 21 10z" />
    <glyph glyph-name="Rcaron" unicode="&#x158;" horiz-adv-x="1279" 
d="M722 1372q82 0 152.5 -30.5t122.5 -83t82 -123.5t30 -153q0 -81 -30 -151.5t-82 -122.5t-122.5 -82t-152.5 -30h-516v776h516zM1073 20q5 -12 14 -16t14 -4h3q10 0 18.5 8.5t8.5 19.5q0 4 -2 10l-224 541q57 26 105 67t82.5 93t53.5 114t19 129q0 92 -35 173t-95 141.5
t-140.5 95.5t-172.5 35h-543q-27 0 -27 -27v-1372q0 -28 27 -28h1q26 0 26 28v512h516q67 0 127 18zM836 1796q10 10 10 23q0 10 -8 18l-1 1q-7 7 -17 7q-6 0 -12 -3t-11 -8l-194 -193l-193 193q-5 5 -11 8t-13 3q-9 0 -16 -7l-1 -1q-8 -8 -8 -18q0 -13 10 -23l213 -213
q9 -9 19 -9q11 0 21 10z" />
    <glyph glyph-name="Tcaron" unicode="&#x164;" horiz-adv-x="1202" 
d="M69 1399q0 -28 28 -28h486v-1343q0 -28 28 -28h1q26 0 26 28v1343h483q26 0 26 28v1q0 27 -26 27h-1024q-28 0 -28 -27v-1zM842 1797q10 10 10 23q0 10 -8 18l-1 1q-7 7 -17 7q-6 0 -12 -3t-11 -8l-194 -193l-193 193q-5 5 -11 8t-13 3q-9 0 -16 -7l-1 -1q-8 -8 -8 -18
q0 -13 10 -23l213 -213q9 -9 19 -9q11 0 21 10z" />
    <glyph glyph-name="at" unicode="@" 
d="M2323 1024v-550h-2254v550h854q0 28 5 55t19 50q11 27 24.5 49t34.5 39q36 39 86 58q25 11 51 16t53 5q31 0 58 -6t50 -15q55 -27 88.5 -60.5t58.5 -89.5q18 -49 18 -101h854zM947 1024q0 -57 17.5 -96.5t52.5 -82.5q36 -35 82 -55t97 -20q50 0 96 17.5t80 55.5
q20 18 33 38t24 41q20 51 20 102q0 43 -13.5 82t-41.5 72q-13 18 -27.5 31t-32.5 24q-17 7 -35 16.5t-37 16.5q-14 3 -30.5 6t-35.5 3q-55 0 -100 -23q-46 -16 -79 -54q-34 -34 -52 -80t-18 -94zM1070 877l295 298q58 -73 58 -151q0 -22 -3 -42t-11 -39q-13 -35 -38 -66
h-301zM1026 870q-26 34 -41 71q-8 17 -11 38t-3 45q0 18 3 37.5t11 39.5q4 18 13.5 33.5t23.5 30.5h299zM2058 194q3 -4 5.5 -10t4.5 -13q4 -7 4 -14v-29q0 -7 -4 -11q-2 -7 -4.5 -14t-5.5 -13q-4 -7 -15 -19q-6 -5 -11.5 -9.5t-12.5 -8.5q-5 -5 -11.5 -7t-12.5 -4
q-8 -2 -13 -2h-16q-19 0 -40 6q-8 6 -15.5 12t-15.5 13q-8 6 -13.5 13.5t-7.5 19.5q-6 9 -7.5 18.5t-1.5 21.5q0 8 1 13.5t1 13.5q3 7 6 13t7 10q2 8 5.5 12.5t9.5 10.5q3 4 9.5 8t11.5 9q4 2 10.5 4t12.5 6q10 0 15.5 1t11.5 1q9 0 16 -1t13 -1q6 -4 12.5 -6t11.5 -4
q13 -10 24 -17q2 -6 7.5 -10.5t7.5 -12.5zM1064 194q2 -4 4 -10t5 -13q2 -10 2 -14v-29q0 -5 -2 -11q-3 -7 -5 -14t-4 -13q-5 -4 -9.5 -9.5t-8.5 -9.5q-14 -14 -21.5 -18t-24.5 -11q-4 -1 -7 -1.5t-7 -0.5h-15q-9 0 -18.5 2t-21.5 4q-11 6 -17.5 12t-15.5 13
q-15 14 -21.5 33.5t-6.5 39.5v13q0 4 2 14q5 17 11 23q4 8 7.5 12.5t7.5 10.5q7 4 11.5 8t10.5 9l27 10q4 0 10.5 1t13.5 1q8 0 15 -1t14 -1q6 -4 12.5 -6t13.5 -4l20 -17q4 -6 8.5 -10.5t9.5 -12.5zM2281 244l1 1l41 1v-206h-35v150l-5 -9v-6q-8 -18 -14.5 -36t-14.5 -31
q-6 -18 -11.5 -33.5t-13.5 -34.5h-34l-52 131q-5 3 -5 10l-3 6v-147h-39v206h37q5 0 6.5 -1t3.5 -1q2 -2 3 -2t3 -2l7 -4q0 -2 2 -3.5t2 -3.5q4 -16 10.5 -30t14.5 -32q6 -15 11.5 -30.5t11.5 -28.5v-12l5 12l9 13l42 108l4 7l5 4q2 2 4 2t4 2zM1246 246h36v-206h-34
l-94 138l-4 3v2q-5 9 -7 11t-5 2v-156h-36v206h32q4 0 8.5 -1t4.5 -3q3 -2 5 -2t4 -2l21 -31q5 -8 9.5 -16t9.5 -17q13 -13 23 -27.5t23 -27.5q0 -2 1 -4.5t1 -6.5l2 -5v143zM630 246l88 -206h-23q-8 0 -15 4q-2 2 -4 6.5t-6 8.5l-12 25h-94l-9 -25q0 -6 -4 -6l-7 -9
q-2 0 -3.5 -1t-5.5 -1l-28 -2l90 206h33zM244 246h130v-37h-94v-46h77v-38h-77v-48h94v-37h-130v206zM69 246h149v-23l-7 -14l-99 -134h1l2 2h102v-37h-155v13q0 9 2 11q0 2 5 7v4l2 4q2 2 4 3.5t2 5.5l88 121h-96v37zM786 618q1 6 2 10t1 9q0 12 -3 21q0 5 -3.5 8.5
t-5.5 9.5q-2 3 -4.5 6t-6.5 7l-7 6q-2 3 -8 8l-8 4q-2 1 -4.5 2t-5.5 2h-38q-10 -4 -17 -8q-4 -5 -7.5 -7.5t-7.5 -6.5q-11 -8 -12 -13q-4 -6 -5 -9.5t-3 -8.5q-1 -5 -1.5 -10t-0.5 -11q0 -15 6 -27.5t16 -23.5q11 -14 24 -14q11 -6 27 -6h19q6 2 10.5 4t7.5 4q11 5 15 12
q7 7 11 15q2 4 5.5 8.5t3.5 8.5zM1843 618v40q-2 5 -3.5 9t-3.5 9q-5 6 -14 13q-1 4 -5.5 6.5t-8.5 7.5l-4 2t-5 2l-7 4h-39l-10 -4l-10 -4q-3 -5 -6 -7.5t-7 -6.5q-3 -4 -6 -6.5t-5 -6.5q-2 -6 -4.5 -9.5t-2.5 -8.5q-5 -10 -5 -21q0 -5 2.5 -13t5.5 -14q5 -15 15 -24
q8 -14 24 -14q11 -6 28 -6h20q3 2 8 4t8 4q4 3 8.5 5.5t5.5 6.5q9 5 14 15zM1724 190q-7 -7 -13 -23q-2 -4 -4 -9.5t-2 -13.5q0 -9 6 -25.5t13 -22.5q9 -9 22 -15q12 -4 26 -4q5 0 9.5 1t10.5 1q3 2 8 4.5t8 6.5q2 0 8 2h12q2 0 8 -2q2 -1 7 -6l6 -7q-3 -4 -6 -7.5t-7 -7.5
q-6 -3 -10.5 -6t-11.5 -6q-5 -3 -15.5 -6.5t-16.5 -3.5h-10q-11 0 -22 2t-20 4q-20 9 -33 25q-15 14 -21 33q-4 9 -6.5 18.5t-2.5 21.5q0 8 1 13.5t3 13.5q2 16 9 23q6 8 8.5 12.5t8.5 10.5l23 17l26 10q5 0 11.5 1t14.5 1h12q4 0 15 -3t15 -5l22 -13q4 -4 7 -8l6 -8
l-13 -15h-14q-7 0 -14 4q-3 2 -8 4.5t-8 4.5q-8 2 -11 2h-9q-15 0 -26 -6q-15 -2 -22 -13zM1594 125q5 -8 5 -19q0 -14 -7 -27l-8 -12q-3 -5 -8 -8q-6 -6 -10.5 -9.5t-12.5 -5.5q-5 -2 -13 -3t-14 -1q-11 0 -31 4q-9 4 -20 18q-4 1 -6 5l-4 8q-6 2 -6 9l6 4l8 2l2 2h9
q12 -3 13 -4q5 -4 8.5 -5.5t5.5 -3.5q2 0 6 -1t9 -1h5q8 2 12 3.5t7 3.5l4 4t3 4q2 4 4 7t2 7q0 6 -6 9q-4 6 -7 6q-2 4 -6.5 5t-6.5 2q-5 0 -13 6q-5 0 -9 1t-9 6q-9 3 -12.5 6t-7.5 7q-11 4 -11 13q-6 11 -6 23q0 18 6 25q1 4 5 10l8 9q4 2 9 4t12 6q6 0 10.5 1t12.5 1
q4 0 8 -1t10 -1l15 -6q3 -4 6 -6.5t7 -6.5q3 -2 6.5 -5t3.5 -7l-13 -8l-20 -3l-5 1q-3 1 -6 4q-2 0 -3.5 1t-3.5 1h-16q-2 0 -3 -1t-5 -3l-6 -5q-1 -3 -1 -10q3 -6 4 -9t3 -7h6q8 -2 13 -4.5t10 -4.5l8 -2q5 -4 9 -5t9 -4q6 -2 16 -12.5t10 -16.5zM1480 315q-11 8 -15 19
q-6 14 -6 29v15l10 18q2 2 4.5 5.5t6.5 7.5q6 8 12 9q3 5 8.5 6t8.5 3q4 0 8 1.5t9 1.5q4 0 10 -1.5t10 -1.5q4 -2 7.5 -3t7.5 -6l11 -9l12 -13q2 -4 4 -8.5t4 -9.5q0 -4 1 -8.5t1 -6.5q0 -6 -1 -13.5t-5 -15.5q-4 -12 -16 -19q-4 -4 -8.5 -7.5t-11.5 -8.5q-10 -2 -26 -2
h-14q-4 0 -10 2q-15 4 -22 16zM2030 119q5 12 5 25q0 15 -5 23q-3 13 -13.5 23t-23.5 13q-4 4 -11 5t-16 1q-10 0 -24 -6q-7 -1 -11.5 -4t-10.5 -9q-8 -6 -15 -23q0 -4 -1 -9.5t-1 -13.5t1 -13.5t1 -11.5q8 -16 15 -23q6 -4 10.5 -8t11.5 -7q7 -2 13.5 -3t10.5 -1q20 0 27 4
q28 10 37 38zM2141 315q-6 -4 -12 -7.5t-11 -8.5q-8 -2 -12 -2h-28q-4 0 -12 2q-11 4 -21 16q-7 7 -13 19q-2 8 -4 15.5t-2 13.5q0 2 1 6.5t1 8.5q2 4 3 9t4 9q2 3 5 6t5 7q7 5 16 9q3 5 8 6t7 3q5 0 8 1.5t10 1.5q2 0 7.5 -1.5t10.5 -1.5q4 -2 7.5 -3t5.5 -6q4 -2 8.5 -4.5
t7.5 -4.5q1 -2 2 -3.5t2 -3.5l4 -6q6 -10 7 -18q2 -4 3 -8.5t1 -6.5q0 -6 -1 -13.5t-5 -15.5q0 -6 -5 -11zM1039 144q0 14 -4 23q-4 17 -18 23q-2 6 -7.5 9t-11.5 4q-10 6 -27 6q-13 0 -24 -6q-10 -1 -22 -13q-8 -5 -13 -23q-5 -5 -5 -10v-27q0 -4 5 -11q5 -14 13 -22.5
t22 -15.5q9 -4 24 -4q18 0 27 4q14 7 19 15q13 5 17.5 20.5t4.5 27.5zM726 246h130v-37h-94v-52h77v-36h-77v-81h-36v206zM535 209h-55v-169h-40v169h-59v37h154v-37zM1302 246h155v-37h-61v-169h-37v169h-57v37zM1281 1233q16 -8 33.5 -19.5t33.5 -21.5h-304q34 28 70 41
q37 17 82 17t85 -17zM1114 810q-18 7 -35 18t-33 24h302q-16 -13 -33.5 -24t-33.5 -18q-22 -6 -43 -10.5t-42 -4.5q-23 0 -42.5 4.5t-39.5 10.5zM524 566l-44 64q4 0 11 4q7 3 8 9q8 6 8 11v24q-6 14 -12 19q-5 8 -13 8q-2 4 -6.5 5t-8.5 1h-53v-145h22v60h22l37 -52
q1 -4 7 -6zM1096 566l-63 145h-20l-62 -145h11q7 0 9 2q0 2 6 6l10 25h72l11 -25q1 -4 5 -6q2 -2 8 -2h13zM1810 676q2 -2 6.5 -7.5t5.5 -10.5q4 -7 4 -21q0 -12 -4 -21q-1 -4 -6 -9l-6 -6q-5 -4 -9 -6.5t-8 -6.5q-8 -4 -21 -4q-14 0 -21 4q-5 4 -9.5 6.5t-8.5 6.5
q-3 2 -6 6.5t-3 8.5q-4 6 -5 11t-1 10q0 11 6 21q0 5 3 10.5t6 7.5q8 8 18.5 11.5t20.5 3.5q12 0 21 -4zM751 676q6 -2 8.5 -7.5t4.5 -10.5q4 -7 4 -21q0 -10 -4 -21q-2 -4 -4.5 -8.5t-8.5 -6.5q-5 -9 -16 -13t-21 -4t-21 4q-4 4 -8.5 6.5t-8.5 6.5q-2 2 -5.5 6.5t-5.5 8.5
q-4 11 -4 21q0 20 8.5 30.5t23.5 19.5q5 2 11.5 3t9.5 1q13 0 21 -4q12 -4 16 -11zM277 647q5 12 5 18q0 9 -5 18q0 2 -4 6l-6 6q-2 3 -5 6.5t-9 3.5q-2 4 -7.5 5t-9.5 1h-49v-145h16v55h33q4 0 9.5 0.5t7.5 2.5q10 4 14 10q4 2 7 5.5t3 7.5zM2079 311h29l6 3q5 4 9 6l8 4
l3 6q3 6 6 11t3 9v32q-2 6 -6 10t-6 7q-6 2 -9.5 5t-7.5 7h-40q-6 -4 -9.5 -7t-8.5 -5q-7 -5 -11 -17q-2 -8 -2 -12v-20q0 -4 1 -8.5t4 -7.5l4 -4q3 -3 4 -6l6 -3q7 -5 10.5 -6.5t6.5 -3.5zM1993 711h-20v-112q-1 2 -2 5t-3 4l-70 97l-3 6h-23v-145h21v114l84 -114h16v145z
M1480 382q-3 -6 -4 -11.5t-1 -7.5v-8q3 -14 7 -21q0 -2 2 -4t4 -6l5 -3q2 -2 9 -2q2 -4 5.5 -5t5.5 -3h26q5 2 8 3t6 5l10 5q2 4 4.5 6t2.5 4q2 3 3 7.5t3 8.5q0 2 1 5.5t1 7.5q0 2 -1 7.5t-5 11.5q0 6 -3.5 10t-5.5 7q-3 1 -8 6l-9 6h-40q-4 -4 -9 -7t-9 -5q-2 -3 -5 -7
t-3 -10zM935 711h-17v-112l-73 106q-4 0 -6 6h-23v-145h19v117h2l2 -1v-4l81 -112h15v145zM1982 357q-4 -1 -7 -2t-5 -2l42 -56h-11q-7 2 -8.5 3.5t-1.5 5.5l-36 47h-26v-56h-15v130h54q3 0 9 -2q2 -2 5.5 -4.5t4.5 -4.5q4 -2 5 -5.5t7 -7.5v-25q-4 -4 -5 -7.5t-3 -5.5z
M1259 357q-3 -3 -11 -4l44 -56h-14q-9 3 -9 9l-36 47h-26v-56h-13v130h53q9 -2 13.5 -4.5t8.5 -6.5q0 -2 3 -5.5t3 -7.5l2 -19q-3 -16 -6 -19l-5 -4q-2 -2 -7 -4zM386 711h-91v-145h91v20h-69v44h55v17h-55v42h69v22zM1614 711h-88v-145h88v20h-66v44h55v17h-55v42h66v22z
M2306 425l17 2v-130h-11v106l-2 -2v-2q-4 -7 -6.5 -16t-7.5 -13q-4 -7 -6 -12.5t-7 -13.5q-2 -8 -3 -14t-5 -9q-3 -8 -6 -12.5t-5 -11.5h-14q-9 12 -14 24.5t-10 26.5q-4 11 -11 24.5t-11 26.5v2h-4v-104h-13v130h13l8 -4v-5l46 -99l3 -2v4q0 1 7 5l38 92q2 5 3 5t1 2z
M1387 711h-20v-97q0 -3 -2 -7q-1 -7 -9 -12q0 -2 -4 -3.5t-6 -5.5l-8 -2h-8q-7 0 -13 2q-5 4 -8 5.5t-5 3.5l-10 12q0 3 -1 7t-1 10v87h-19v-87q0 -7 1.5 -16.5t6.5 -14.5q2 -6 9 -11q2 -3 4.5 -5.5t7.5 -4.5q2 -2 6 -3t7 -3q4 0 7 -1t8 -1q4 0 7.5 1t10.5 1q2 2 5 3t6 3
q8 6 12 10q3 2 5 5t5 6q0 4 3 7t3 7v104zM622 592q2 5 3 8t1 8q0 10 -5 18t-11 13q-2 0 -3.5 2t-5.5 4l-4 2h-4q-4 3 -6 3.5t-3 1.5q-7 2 -8.5 3t-5.5 3q-6 3 -8 3l-3 21q8 7 11 7l14 2q10 -3 11 -6l6 -2q9 0 13 4l4 2l-6 8q-2 1 -4.5 3.5t-6.5 4.5q-2 0 -4 2t-5 4h-28
q-5 -2 -7 -4t-6 -4q-2 -5 -5.5 -7.5t-6.5 -6.5q0 -4 -2 -6.5t-2 -8.5q0 -7 4 -16l5 -7l5 -4q2 -2 6 -5t7 -3l7 -4q2 -1 7 -1q1 -2 5.5 -2t6.5 -2l5 -2q5 -4 5.5 -5l2.5 -5l2 -15q-4 -5 -4 -7.5t-2 -3.5q-1 -3 -6 -5l-3 -1q-4 0 -7.5 -1t-4.5 -1q-5 0 -11 1.5t-6 6.5l-4 1
q-4 4 -11 4h-5l-9 -4l9 -16h3q7 -7 15.5 -9t18.5 -2h8q5 0 11 2q4 2 8.5 4t6.5 5q4 2 7.5 5.5t4.5 9.5zM1497 592q7 7 7 16q0 10 -4.5 18t-11.5 13q-6 5 -6 6h-4l-36 16l-6 6q0 1 -1 3t-1 4q0 4 4 8q5 4 6.5 5.5t4.5 1.5q2 2 10 2l3 -1l7.5 -3t5.5 -2q6 -2 7 -2q7 0 8 4l5 2
q0 2 -2.5 4t-4.5 4q0 1 -3 3.5t-5 4.5q-3 0 -5 2t-6 4h-6l-4 1q-6 0 -9.5 -0.5t-7.5 -0.5l-13 -8l-11 -14q-1 -4 -3 -6.5t-2 -8.5q0 -4 2 -7.5t3 -8.5q2 -4 4.5 -6.5l4.5 -4.5q4 -2 6.5 -5t6.5 -3q8 -5 13 -5q4 -2 6.5 -2t5.5 -2q5 0 10 -3.5t5 -8.5l2 -14q-2 -7 -3.5 -9
t-3.5 -3q-11 -8 -22 -8q-2 0 -5.5 1t-5.5 1q-3 1 -8 6l-2 1q-4 4 -9 4h-6l-10 -4l8 -9v-2q7 -5 8 -5q6 -7 13.5 -9t16.5 -2h11q3 0 11 2q2 2 5.5 4t7.5 5l5 7q3 3 4 8zM1632 297h-16v130h18l77 -106v106h13v-130h-11l-77 106v4h-4v-110zM73 328q-4 4 -5 7.5t-2 8.5
q-2 6 -3 9.5t-1 9.5t4 15q1 4 2 9t5 9l9 13q2 2 6 4.5t6 4.5q5 5 9.5 6t8.5 3q3 0 8 1.5t10 1.5q15 0 26 -7q13 -4 20 -14l-4 -6h-13q-3 2 -6 5t-7 3h-34l-20 -12q-4 -3 -7 -7t-4 -10q-2 -6 -3 -11.5t-1 -7.5q0 -9 4 -13q0 -4 0.5 -8.5t0.5 -7.5l4 -4q5 -1 6 -6l7 -4
q2 -1 7 -1q2 -4 4.5 -5t6.5 -3h31q2 2 6.5 3t8.5 5v27h-13v2l-6 4h-2l-1 7h35v-48q-2 -5 -3.5 -6t-5.5 -6h-11q-8 -2 -12 -2h-32q-5 0 -18 9q-7 0 -12 9zM225 411v-41h52v-15h-52v-44h63v-14h-79v130h79v-16h-63zM1098 411v-41h56v-15h-56v-44h64v-14h-79v130h79v-16h-64z
M2226 711h-18q-5 0 -9 -4t-4 -9l-35 -44h-4l-36 44q-3 13 -15 13h-16l54 -72v-2l4 -3v-68h20v66l4 5v2zM2112 586h-64v125h-20v-145h84v20zM601 427v-79q0 -6 2 -9t5 -5q0 -6 3 -9t5 -4q0 -2 4 -4t6 -4q6 -2 8 -2h15l12 6t7 4q4 1 8 13q4 3 4 14v79h13v-79q0 -9 -3.5 -20.5
t-11.5 -16.5q-5 -12 -15 -12q-6 -1 -11.5 -1.5t-10.5 -0.5t-10.5 0.5t-12.5 1.5q-3 0 -15 12l-10 15q-1 6 -3 11t-2 11v79h13zM1191 586h-62v125h-19v-145h81v20zM1361 315q1 2 2 3.5t2 3.5q2 2 3 6t1 6q0 17 -15 21q-3 0 -12.5 4t-11.5 6q-9 0 -13 7q-2 0 -3.5 3t-3.5 6v21
q0 1 2 7q0 8 7 9l6 5q2 1 3.5 2t3.5 2q4 0 6.5 1.5t7.5 1.5l10 -3q3 0 4 -1t5 -3q6 0 6 -7q5 0 6 -3l1 -2l-2 -2q-6 -2 -9 -2h-6l-23 4q-8 0 -8 -2q-5 -7 -5 -8q-4 0 -4 -7q0 -5 4 -6q0 -4 3 -6l6 -4q4 -4 7 -4t7 -2l6 -2q3 0 7 -5h4l6 -2q5 -4 7.5 -7t4.5 -4q1 -5 1.5 -9.5
t0.5 -8.5v-10l-7.5 -12t-6.5 -6q-2 -2 -6 -4.5t-6 -2.5q-4 -2 -9 -2h-9q-9 0 -16.5 1t-12.5 8q-2 0 -3 2.5t-5 4.5v4l-2 2l4 2h6q1 0 3 -1t4 -1q4 -4 6.5 -5t4.5 -3h20q7 0 11 4zM1002 297l-55 130h5q10 0 14 -9l40 -97v-2h2l2 2q5 13 12 25.5t11 23.5q4 14 9.5 25.5
t11.5 22.5q0 5 1.5 5t1.5 2l16 2q-7 -16 -14 -32.5t-15 -31.5q-4 -8 -7 -17l-6 -18l-14 -31h-15zM499 411v-46h56v-12h-56v-56h-15v130h80v-16h-65zM1836 411v-46h51v-12h-51v-56h-15v130h77v-16h-62zM824 427v-116h59v-14h-75v130h16zM348 297v114h-44v16h99v-16h-44v-114
h-11zM735 427v-116h60v-14h-75v130h15zM253 683q2 -1 3 -4t3 -5q3 -4 3 -9v-4q0 -2 -3 -7q-2 -2 -3 -4.5t-3 -2.5q-1 -2 -3 -4l-4 -4h-43v50h33q4 0 10 -2zM1242 365q5 0 6 3q4 4 9 4l2 4q5 10 5 16q0 2 -1 3t-1 4q-3 2 -4 3t-1 5q-5 0 -9 4h-41v-46h35zM1970 368q4 4 7 4
q5 7 5 9q2 4 2 11q0 3 -2 7q0 1 -5 8q-3 0 -7 4h-41v-46h33q4 0 8 3zM486 658l-4 -7q-2 0 -3 -2t-3 -2q-2 -2 -9 -2h-31v44h31q3 0 9 -2l6 -4q1 -2 2 -3.5t2 -3.5q3 -1 3 -9q0 -6 -3 -9zM1429 427v-130h-16v130h16zM641 121l-27 69h-2l-28 -69h57zM1024 682v-4l26 -60h-55
l27 60v5zM1645 77q6 0 6 -6l2 -9q0 -7 -2 -9q0 -4 -6 -9l-22 -4q-4 4 -9 4q0 2 -5 9q-2 2 -2 9v4l7 11q7 4 9 4l14 3z" />
    <glyph glyph-name="O" unicode="O" horiz-adv-x="1657" 
d="M84 712q0 -152 57.5 -284.5t157.5 -231t233.5 -155t285.5 -56.5t284.5 56.5t230.5 155t154 231t56 284.5t-56 285.5t-154 232.5t-230.5 156t-284.5 57t-285.5 -57t-233.5 -156t-157.5 -232.5t-57.5 -285.5zM143 712q0 141 52.5 264t144 213.5t214.5 142.5t264 52t263 -52
t211.5 -142.5t141 -213.5t51.5 -264t-51.5 -263t-141 -212t-211.5 -142t-263 -52t-264 52t-214.5 142t-144 212t-52.5 263z" />
    <glyph glyph-name="Q" unicode="Q" horiz-adv-x="1657" 
d="M143 712q0 141 52.5 264t144 213.5t214.5 142.5t264 52t263 -52t211.5 -142.5t141 -213.5t51.5 -264t-51.5 -263t-141 -212t-211.5 -142t-263 -52t-264 52t-214.5 142t-144 212t-52.5 263zM84 712q0 -148 55.5 -278.5t151.5 -228t225 -156t276 -63.5v-199q0 -14 7 -23.5
t21 -9.5h1q14 0 20 9.5t6 23.5v199q147 5 274 63.5t221 156t147.5 228t53.5 278.5q0 152 -56 285.5t-154 232.5t-230.5 156t-284.5 57t-285.5 -57t-233.5 -156t-157.5 -232.5t-57.5 -285.5z" />
    <glyph glyph-name="a" unicode="a" horiz-adv-x="1503" 
d="M1323 603q0 -118 -46.5 -222.5t-125.5 -183t-184.5 -124t-224.5 -45.5q-112 0 -216 45.5t-183.5 124t-127 183t-47.5 222.5q0 120 47.5 225.5t127 184.5t183.5 124.5t216 45.5q110 0 214 -45.5t186 -124.5t131.5 -184.5t49.5 -225.5zM1378 1194q0 14 -6 23.5t-21 9.5h-1
q-14 0 -20.5 -9.5t-6.5 -23.5v-338q-38 84 -98 154t-135.5 120.5t-164 79t-182.5 28.5q-123 0 -236.5 -50.5t-201 -137t-140 -202t-52.5 -245.5q0 -129 52.5 -244t140 -200.5t201 -135.5t236.5 -50q95 0 183 28t163.5 78t135.5 119.5t98 152.5v-318q0 -15 6.5 -24t20.5 -9h1
q15 0 21 9t6 24v1161z" />
    <glyph glyph-name="b" unicode="b" horiz-adv-x="1515" 
d="M212 603q0 120 47 225.5t128 184.5t188 124.5t227 45.5q115 0 217.5 -45.5t180 -124.5t122.5 -184.5t45 -225.5q0 -118 -46 -222.5t-124 -183t-180.5 -124t-214.5 -45.5q-118 0 -225 45.5t-188 124t-129 183t-48 222.5zM157 32q0 -14 7 -23t21 -9h1q14 0 20 9t6 23v319
q38 -83 98.5 -152.5t137 -119.5t166.5 -78t187 -28q123 0 235.5 50t198.5 135.5t137 200.5t51 244q0 130 -49.5 245.5t-134.5 202t-198 137t-240 50.5q-96 0 -186 -28.5t-167 -79t-137.5 -121t-98.5 -154.5v695q0 14 -6 23t-20 9h-1q-14 0 -21 -9t-7 -23v-1518z" />
    <glyph glyph-name="d" unicode="d" horiz-adv-x="1503" 
d="M1323 603q0 -118 -46 -222.5t-124 -183t-180 -124t-214 -45.5q-124 0 -232 45.5t-187 124t-124.5 183t-45.5 222.5q0 120 46.5 225.5t126 184.5t185 124.5t222.5 45.5q119 0 223.5 -45.5t182 -124.5t122.5 -184.5t45 -225.5zM1378 1551q0 14 -7 23t-21 9h-1q-14 0 -20 -9
t-6 -23v-694q-36 84 -94 154t-132.5 120.5t-162 78.5t-183.5 28q-132 0 -247.5 -50.5t-202 -137t-136.5 -202t-50 -245.5q0 -129 49 -244t135.5 -200.5t204.5 -135.5t256 -50q90 0 175.5 28t159 78.5t132.5 120t96 153.5v-321q0 -14 6 -23t20 -9h1q14 0 21 9t7 23v1519z" />
    <glyph glyph-name="e" unicode="e" horiz-adv-x="1452" 
d="M715 1183q84 0 158 -22.5t137 -61t114 -90t87.5 -109t58 -118.5t25.5 -118h-1149q12 107 61 201.5t125.5 165t174.5 111.5t208 41zM1322 610q28 0 28 27v4q0 69 -21.5 140.5t-61.5 137.5t-97 124.5t-127.5 101.5t-153.5 68t-174 25q-129 0 -243 -51t-199.5 -138
t-135 -202.5t-49.5 -244.5t50 -243.5t135.5 -200t200 -135.5t243.5 -50q70 0 131.5 13t114.5 35t99 52t85 63q12 10 12 25q0 9 -6 15l-2 2q-6 6 -15 6q-13 0 -24 -9q-30 -24 -66.5 -50.5t-84 -48.5t-107.5 -36t-137 -14q-118 0 -222.5 46t-182.5 124.5t-123.5 183
t-45.5 222.5v8h1179z" />
    <glyph glyph-name="f" unicode="f" horiz-adv-x="720" 
d="M288 32q0 -14 6.5 -23t20.5 -9h1q14 0 20.5 9t6.5 23v1019h274q28 0 28 26v1q0 23 -28 23h-274v152q0 72 19 132.5t57 104t95.5 67.5t133.5 24q13 0 20 3.5t10.5 8t4.5 8.5t1 5v2l-0.5 5t-3.5 10t-9.5 9.5t-18.5 4.5q-81 0 -148 -24.5t-115 -73t-74.5 -120t-26.5 -166.5
v-152h-223q-12 0 -20 -5.5t-8 -17.5v-1q0 -14 8 -20t20 -6h223v-1019z" />
    <glyph glyph-name="g" unicode="g" horiz-adv-x="1521" 
d="M1337 559q-10 -105 -57.5 -198.5t-123.5 -163t-176.5 -110t-217.5 -40.5q-110 0 -214 37.5t-185 109.5t-130 178t-49 242q0 115 44 218.5t121 181.5t183 123.5t230 45.5q108 0 206.5 -41.5t175.5 -112t128 -164t65 -197.5v-109zM1394 1194q0 15 -6 23.5t-22 8.5
q-14 0 -21.5 -9t-7.5 -23v-331q-38 82 -98 150.5t-135 118.5t-162 78t-179 28q-128 0 -243 -50t-202 -135.5t-138 -199t-51 -239.5q0 -142 53 -256.5t141.5 -195.5t203 -125t236.5 -44q99 0 187.5 26t162.5 74t131.5 115.5t93.5 149.5l2 -118q0 -108 -28.5 -202t-76 -167.5
t-110 -124t-131.5 -70.5q-38 -11 -80.5 -16t-87.5 -5q-76 0 -150.5 14.5t-132.5 43.5q-13 6 -22 6q-11 0 -16 -5l-6 -6l-2 -3q-1 -1 -2.5 -4.5t-1.5 -8.5q0 -22 37.5 -39.5t90 -29.5t110 -18.5t96.5 -6.5q49 0 92 6q92 12 177.5 61t151.5 131t106 194t40 249v955z" />
    <glyph glyph-name="h" unicode="h" horiz-adv-x="1306" 
d="M1137 33q0 -14 6.5 -23.5t20.5 -9.5h1q14 0 20.5 9.5t6.5 23.5v702q0 90 -33 179t-94.5 159.5t-149.5 114.5t-198 44q-77 0 -150 -22t-136.5 -60t-115 -90.5t-85.5 -114.5v604q0 14 -6.5 24t-20.5 10h-1q-14 0 -20.5 -10t-6.5 -24v-1516q0 -14 6.5 -23.5t20.5 -9.5h1
q14 0 20.5 9.5t6.5 23.5v720q0 88 44 165t113 134.5t154 90.5t167 33q103 0 183 -41.5t134.5 -106t83 -143.5t28.5 -153v-699z" />
    <glyph glyph-name="i" unicode="i" horiz-adv-x="430" 
d="M169 32q0 -14 7 -23t21 -9h1q14 0 20.5 9t6.5 23v1163q0 31 -27 31h-1q-28 0 -28 -31v-1163zM151 1497q0 -11 4.5 -16.5t16.5 -5.5h48q8 0 13.5 4.5t5.5 17.5v44q0 22 -19 22h-49q-20 0 -20 -20v-46z" />
    <glyph glyph-name="j" unicode="j" horiz-adv-x="430" 
d="M196 1195v-1212q0 -61 -17.5 -120t-54.5 -105.5t-95 -75t-139 -28.5q-13 0 -20.5 -3.5t-11 -8t-4.5 -8.5t-1 -5v-2q0 -1 0.5 -5t3.5 -9t9.5 -9t19.5 -4q97 0 166 36t113 92t65 123.5t21 130.5v1213q0 14 -6 22.5t-20 8.5h-1q-14 0 -21 -8.5t-7 -22.5zM175 1497
q0 -11 4.5 -16.5t16.5 -5.5h48q8 0 13.5 4.5t5.5 17.5v44q0 22 -19 22h-49q-20 0 -20 -20v-46z" />
    <glyph glyph-name="k" unicode="k" horiz-adv-x="1223" 
d="M952 1177q9 9 9 19q0 14 -10 21.5t-18 7.5q-5 0 -11 -1.5t-17 -11.5l-692 -633v973q0 14 -6 22.5t-20 8.5h-1q-14 0 -20.5 -8.5t-6.5 -22.5v-1518q0 -14 6.5 -24t20.5 -10h1q14 0 20 10t6 24v471l274 250l566 -738q12 -14 19.5 -15.5t12.5 -1.5q9 1 17.5 8.5t8.5 18.5
q0 10 -8 19l-576 746z" />
    <glyph glyph-name="l" unicode="l" horiz-adv-x="419" 
d="M154 33q0 -14 6.5 -23.5t20.5 -9.5h1q14 0 20.5 9.5t6.5 23.5v1516q0 14 -6.5 24t-20.5 10h-1q-14 0 -20.5 -10t-6.5 -24v-1516z" />
    <glyph glyph-name="m" unicode="m" horiz-adv-x="2014" 
d="M212 792q0 73 19 129.5t50 99t71 71.5t82 47t82.5 26t72.5 8q101 0 172 -38.5t116 -96.5t65.5 -124.5t20.5 -122.5v-760q0 -31 28 -31h1q26 0 26 31v744q0 58 21.5 127t66.5 129t116 100t170 40q102 0 173.5 -40t116.5 -99.5t65 -129t20 -128.5v-742q0 -14 7.5 -23
t21.5 -9h1q14 0 19.5 9t5.5 23v742q0 72 -26 152t-79 147t-133.5 111t-190.5 44q-81 0 -146 -24t-115.5 -65t-85.5 -94.5t-55 -112.5q-18 53 -49 106t-79.5 95t-115.5 68.5t-156 26.5q-48 0 -102 -12.5t-105 -39t-96 -68t-77 -99.5l-1 185q0 14 -6 23t-20 9h-1q-14 0 -20 -9
t-6 -23v-1163q0 -31 26 -31h1q28 0 28 31v761z" />
    <glyph glyph-name="n" unicode="n" horiz-adv-x="1306" 
d="M228 739q0 110 44.5 193.5t111 140.5t145 86t146.5 29q107 0 191.5 -41t143.5 -107t90.5 -148.5t31.5 -165.5v-695q0 -31 28 -31h1q26 0 26 31v695q0 96 -34.5 189t-100 165.5t-160 117.5t-215.5 45q-60 0 -124.5 -18t-125 -53.5t-112.5 -87t-87 -119.5l-2 229
q0 14 -6 23t-20 9h-1q-14 0 -20 -9t-6 -23v-1163q0 -31 26 -31h1q28 0 28 31v708z" />
    <glyph glyph-name="o" unicode="o" horiz-adv-x="1438" 
d="M96 609q0 -130 49 -245.5t134 -202.5t199 -137.5t243 -50.5q131 0 247.5 50.5t203.5 137.5t137.5 202.5t50.5 245.5q0 131 -51 245.5t-138.5 200t-204 135t-247.5 49.5q-129 0 -242.5 -49.5t-198 -135t-133.5 -200t-49 -245.5zM151 609q0 119 44.5 224t121 183t180.5 123
t222 45q120 0 226.5 -45t186.5 -123t126.5 -183t46.5 -224q0 -118 -44.5 -223.5t-123 -185t-185.5 -126t-231 -46.5q-118 0 -222 46.5t-181.5 126t-122 185t-44.5 223.5z" />
    <glyph glyph-name="p" unicode="p" horiz-adv-x="1505" 
d="M212 614q0 118 46 221.5t124.5 181t184 122t225.5 44.5q112 0 216 -44.5t183.5 -122t127.5 -181t48 -221.5q0 -120 -45.5 -226.5t-123.5 -186.5t-182.5 -126.5t-223.5 -46.5q-127 0 -233.5 46.5t-183.5 126.5t-120 186.5t-43 226.5zM157 -372q0 -14 7 -23t21 -9h1
q14 0 20 9t6 23v726q37 -83 95 -153t133 -120.5t164 -79t187 -28.5q134 0 249.5 51.5t200 139t133 204t48.5 246.5q0 129 -52.5 242.5t-140.5 198t-201.5 133t-236.5 48.5q-95 0 -183.5 -27t-164 -76t-134.5 -117.5t-97 -150.5v329q0 14 -6 23t-20 9h-1q-14 0 -21 -9t-7 -23
v-1566z" />
    <glyph glyph-name="q" unicode="q" horiz-adv-x="1494" 
d="M1293 614q0 -120 -43 -226.5t-120 -186.5t-183.5 -126.5t-233.5 -46.5q-119 0 -223.5 46.5t-182.5 126.5t-123.5 186.5t-45.5 226.5q0 118 48 221.5t127.5 181t183.5 122t216 44.5q120 0 225.5 -44.5t184 -122t124.5 -181t46 -221.5zM1348 1194q0 14 -7 23t-21 9h-1
q-14 0 -20 -9t-6 -23v-329q-37 82 -96.5 150.5t-135 117.5t-164 76t-183.5 27q-123 0 -236.5 -48.5t-201.5 -133t-140.5 -198t-52.5 -242.5q0 -130 48.5 -246.5t133 -204t200 -139t249.5 -51.5q98 0 187 28.5t164 79t133 120.5t95 153v-720q0 -14 6 -23t20 -9h1q14 0 21 9
t7 23v1560z" />
    <glyph glyph-name="r" unicode="r" horiz-adv-x="1041" 
d="M156 32q0 -14 6.5 -23t20.5 -9h1q14 0 20.5 9t6.5 23v646q0 132 43.5 223.5t109.5 147.5t144 81t147 25q45 0 85.5 -10t75.5 -26.5t64.5 -36.5t53.5 -40q10 -9 21 -9q8 0 13.5 3.5t8.5 7.5l1 1q4 4 4 12q0 18 -31 44t-79 50t-106.5 41.5t-113.5 17.5q-58 0 -123 -15.5
t-126.5 -48.5t-112.5 -84t-80 -122v255q0 14 -6 22.5t-20 8.5h-1q-14 0 -20.5 -8.5t-6.5 -22.5v-1163z" />
    <glyph glyph-name="s" unicode="s" horiz-adv-x="1008" 
d="M479 -31q63 0 133 17.5t128.5 56.5t97 102.5t38.5 155.5q0 143 -102 231.5t-293 130.5q-46 10 -101.5 27.5t-103.5 47.5t-80 76t-32 114q0 57 23 104t63.5 80.5t97.5 52.5t124 19q57 0 112.5 -19t100 -53t74.5 -81t37 -103q2 -13 11 -18.5t18 -5.5q2 0 5 0.5t7 2.5
q10 5 10 24v8q-6 60 -38.5 114t-83.5 95.5t-116 66t-137 24.5q-90 0 -158 -25.5t-113.5 -68.5t-68.5 -99t-23 -118q0 -75 29 -128t78.5 -89.5t116.5 -61t143 -42.5q66 -16 128 -39t110.5 -58.5t77.5 -86.5t29 -122q0 -82 -35 -135.5t-86.5 -85t-111 -44t-109.5 -12.5
q-71 0 -132 17t-107 49.5t-73.5 79.5t-31.5 107q-1 17 -8.5 27t-21.5 10q-6 0 -9 -1l-3 -1q-10 -4 -13 -12.5t-3 -17.5q0 -52 24 -107.5t73.5 -101t125.5 -75t179 -29.5z" />
    <glyph glyph-name="t" unicode="t" horiz-adv-x="597" 
d="M267 1440q0 14 -7 22.5t-21 8.5h-1q-14 0 -20 -8.5t-6 -22.5v-323h-163q-12 0 -20 -5.5t-8 -19.5t8 -19.5t20 -5.5h163v-864q0 -36 10 -69.5t29.5 -60.5t48.5 -45t68 -24q18 -3 37.5 -3.5t42.5 -0.5q13 0 19.5 4t9.5 9.5t3.5 10l0.5 4.5v2q0 1 -0.5 5t-3.5 8t-10.5 7
t-22.5 3h-39q-40 0 -66.5 14.5t-42.5 37t-22.5 50t-6.5 52.5v860h233q11 0 18 8t7 16v1q0 13 -7 19t-18 6h-233v323z" />
    <glyph glyph-name="u" unicode="u" horiz-adv-x="1300" 
d="M1135 454q0 -100 -42.5 -180t-109.5 -136t-148 -86t-158 -30q-95 0 -181.5 35.5t-152 100t-104 155t-38.5 199.5v683q0 31 -28 31h-1q-26 0 -26 -31v-683q0 -105 38 -203t108 -174t168.5 -122t219.5 -46q62 0 127.5 18t126.5 52t113.5 83.5t87.5 111.5l2 -200
q0 -14 6 -23t20 -9h1q14 0 20 9t6 23v1163q0 31 -26 31h-1q-28 0 -28 -31v-741z" />
    <glyph glyph-name="v" unicode="v" horiz-adv-x="1129" 
d="M1090 1186q3 6 3 12q0 13 -10.5 19.5t-18.5 6.5q-4 0 -11.5 -2.5t-12.5 -15.5l-472 -1118l-477 1119q-5 13 -12.5 15.5t-11.5 2.5q-9 0 -19 -6.5t-10 -18.5q0 -5 3 -13l500 -1168q5 -13 13 -16.5t12 -3.5h4q3 0 11.5 3.5t13.5 16.5z" />
    <glyph glyph-name="w" unicode="w" horiz-adv-x="1826" 
d="M1761 1188q3 6 3 12q0 13 -10.5 19.5t-18.5 6.5q-4 0 -11.5 -2.5t-12.5 -15.5l-472 -1119l-305 739l153 360q3 6 3 12q0 13 -10.5 19.5t-18.5 6.5q-4 0 -11.5 -2.5t-12.5 -15.5l-472 -1120l-477 1120q-5 13 -12.5 15.5t-11.5 2.5q-9 0 -19 -6.5t-10 -18.5q0 -5 3 -13
l500 -1169q5 -12 12 -15.5t12 -4.5h5q3 0 11.5 3.5t13.5 16.5l315 744l305 -744q5 -12 12 -15.5t12 -4.5h5q3 0 11.5 3.5t13.5 16.5z" />
    <glyph glyph-name="y" unicode="y" horiz-adv-x="1129" 
d="M1073 1184q3 9 3 16q0 12 -8.5 19t-20.5 7q-6 0 -12.5 -4.5t-11.5 -17.5l-467 -1114l-467 1117q-5 13 -12 16t-12 3q-9 0 -19 -7t-10 -20q0 -6 3 -12l489 -1164l-157 -382q-4 -9 -4 -17q0 -14 9 -20t18 -6q3 0 11 3.5t14 17.5z" />
    <glyph glyph-name="z" unicode="z" horiz-adv-x="1137" 
d="M179 1226q-2 0 -7.5 -0.5t-11 -3t-10 -8t-4.5 -16.5q0 -14 9.5 -20.5t23.5 -6.5h688l-749 -1119q-10 -16 -10 -25q0 -11 8.5 -19t19.5 -8h780q2 0 7.5 0.5t11 3.5t10 9t4.5 16q0 14 -9.5 20t-23.5 6h-730l756 1125q6 9 6 18q0 12 -9.5 20t-19.5 8h-740z" />
    <glyph glyph-name="c" unicode="c" horiz-adv-x="1213" 
d="M1102 175q-35 -30 -75.5 -57t-88 -47t-103 -31.5t-121.5 -11.5q-119 0 -225 46t-185.5 124.5t-125.5 184t-46 224.5q0 125 49 230.5t130 182.5t187 120t220 43q45 0 94 -8.5t98 -26.5t96 -46t88 -66q9 -9 19 -9q14 0 20.5 8.5t6.5 19.5q0 12 -12 23q-43 39 -95 69
t-107.5 50t-111.5 30.5t-107 10.5q-121 0 -234.5 -47.5t-201.5 -131.5t-141 -199.5t-53 -252.5q0 -130 51 -245.5t138 -201.5t203 -136.5t246 -50.5q66 0 125 13t111.5 34.5t98.5 50.5t86 62q13 10 13 25q0 10 -6.5 18t-17.5 8q-12 0 -23 -9z" />
    <glyph glyph-name="Obreve" unicode="&#x14e;" horiz-adv-x="1657" 
d="M84 712q0 -152 57.5 -284.5t157.5 -231t233.5 -155t285.5 -56.5t284.5 56.5t230.5 155t154 231t56 284.5t-56 285.5t-154 232.5t-230.5 156t-284.5 57t-285.5 -57t-233.5 -156t-157.5 -232.5t-57.5 -285.5zM143 712q0 141 52.5 264t144 213.5t214.5 142.5t264 52t263 -52
t211.5 -142.5t141 -213.5t51.5 -264t-51.5 -263t-141 -212t-211.5 -142t-263 -52t-264 52t-214.5 142t-144 212t-52.5 263zM814 1571q39 0 72.5 13.5t58 36.5t39 53t14.5 62q0 11 -4.5 23t-20.5 13h-3q-14 0 -19.5 -10t-5.5 -25q0 -18 -10 -38t-27.5 -37.5t-41 -29
t-50.5 -11.5q-30 0 -54 11t-40.5 27.5t-25.5 37t-9 38.5q0 16 -5 26t-19 11h-2q-17 0 -21.5 -12t-4.5 -25q0 -32 13.5 -61.5t37 -52.5t56.5 -36.5t72 -13.5z" />
    <glyph glyph-name="Ocircumflex" unicode="&#xd4;" horiz-adv-x="1657" 
d="M84 712q0 -152 57.5 -284.5t157.5 -231t233.5 -155t285.5 -56.5t284.5 56.5t230.5 155t154 231t56 284.5t-56 285.5t-154 232.5t-230.5 156t-284.5 57t-285.5 -57t-233.5 -156t-157.5 -232.5t-57.5 -285.5zM143 712q0 141 52.5 264t144 213.5t214.5 142.5t264 52t263 -52
t211.5 -142.5t141 -213.5t51.5 -264t-51.5 -263t-141 -212t-211.5 -142t-263 -52t-264 52t-214.5 142t-144 212t-52.5 263zM585 1619q-10 -10 -10 -22q0 -11 8 -18l1 -1q7 -7 17 -7q12 0 23 11l193 192l190 -190q12 -12 24 -12q10 0 18.5 9t8.5 19q0 12 -11 23l-210 210
q-10 10 -20 10t-19 -10z" />
    <glyph glyph-name="Odieresis" unicode="&#xd6;" horiz-adv-x="1657" 
d="M84 712q0 -152 57.5 -284.5t157.5 -231t233.5 -155t285.5 -56.5t284.5 56.5t230.5 155t154 231t56 284.5t-56 285.5t-154 232.5t-230.5 156t-284.5 57t-285.5 -57t-233.5 -156t-157.5 -232.5t-57.5 -285.5zM143 712q0 141 52.5 264t144 213.5t214.5 142.5t264 52t263 -52
t211.5 -142.5t141 -213.5t51.5 -264t-51.5 -263t-141 -212t-211.5 -142t-263 -52t-264 52t-214.5 142t-144 212t-52.5 263zM592 1607q0 -14 5.5 -21t20.5 -7h60q10 0 17 5.5t7 22.5v54q0 28 -24 28h-61q-25 0 -25 -25v-57zM902 1607q0 -14 5.5 -21t20.5 -7h60q10 0 17 5.5
t7 22.5v54q0 28 -24 28h-61q-25 0 -25 -25v-57z" />
    <glyph glyph-name="Ohungarumlaut" unicode="&#x150;" horiz-adv-x="1657" 
d="M84 712q0 -152 57.5 -284.5t157.5 -231t233.5 -155t285.5 -56.5t284.5 56.5t230.5 155t154 231t56 284.5t-56 285.5t-154 232.5t-230.5 156t-284.5 57t-285.5 -57t-233.5 -156t-157.5 -232.5t-57.5 -285.5zM143 712q0 141 52.5 264t144 213.5t214.5 142.5t264 52t263 -52
t211.5 -142.5t141 -213.5t51.5 -264t-51.5 -263t-141 -212t-211.5 -142t-263 -52t-264 52t-214.5 142t-144 212t-52.5 263zM828 1820q5 8 5 17q0 11 -8.5 18.5t-18.5 8.5h-2q-5 0 -11 -3t-14 -17l-128 -229q-5 -9 -5 -18q0 -12 9 -18t18 -7h2q4 0 11 3t15 17zM1157 1820
q5 10 5 17q0 12 -8.5 19t-18.5 8h-2q-5 0 -11 -3t-14 -17l-128 -229q-5 -9 -5 -18q0 -12 9 -18t18 -7h2q4 0 11 3t15 17z" />
    <glyph glyph-name="aring" unicode="&#xe5;" horiz-adv-x="1503" 
d="M1323 603q0 -118 -46.5 -222.5t-125.5 -183t-184.5 -124t-224.5 -45.5q-112 0 -216 45.5t-183.5 124t-127 183t-47.5 222.5q0 120 47.5 225.5t127 184.5t183.5 124.5t216 45.5q110 0 214 -45.5t186 -124.5t131.5 -184.5t49.5 -225.5zM1378 1194q0 14 -6 23.5t-21 9.5h-1
q-14 0 -20.5 -9.5t-6.5 -23.5v-338q-38 84 -98 154t-135.5 120.5t-164 79t-182.5 28.5q-123 0 -236.5 -50.5t-201 -137t-140 -202t-52.5 -245.5q0 -129 52.5 -244t140 -200.5t201 -135.5t236.5 -50q95 0 183 28t163.5 78t135.5 119.5t98 152.5v-318q0 -15 6.5 -24t20.5 -9h1
q15 0 21 9t6 24v1161zM738 1680q-32 0 -60 -12t-48.5 -33t-32.5 -49t-12 -60t12 -60t32.5 -48.5t48.5 -32.5t60 -12t60.5 12t49.5 32.5t33 48.5t12 60t-12 60t-33 49t-49.5 33t-60.5 12zM738 1633q47 0 77.5 -30.5t30.5 -76.5t-30.5 -75t-77.5 -29q-45 0 -74.5 29t-29.5 75
t29.5 76.5t74.5 30.5z" />
    <glyph glyph-name="aogonek" unicode="&#x105;" horiz-adv-x="1503" 
d="M1323 603q0 -118 -46.5 -222.5t-125.5 -183t-184.5 -124t-224.5 -45.5q-112 0 -216 45.5t-183.5 124t-127 183t-47.5 222.5q0 120 47.5 225.5t127 184.5t183.5 124.5t216 45.5q110 0 214 -45.5t186 -124.5t131.5 -184.5t49.5 -225.5zM1378 1194q0 14 -6 23.5t-21 9.5h-1
q-14 0 -20.5 -9.5t-6.5 -23.5v-338q-38 84 -98 154t-135.5 120.5t-164 79t-182.5 28.5q-123 0 -236.5 -50.5t-201 -137t-140 -202t-52.5 -245.5q0 -129 52.5 -244t140 -200.5t201 -135.5t236.5 -50q95 0 183 28t163.5 78t135.5 119.5t98 152.5v-318q0 -15 6.5 -24t20.5 -9h1
q15 0 21 9t6 24v1161zM1388 -271q0 16 -7.5 24t-19.5 8q-11 0 -18.5 -8t-7.5 -27q0 -16 -6.5 -33t-19.5 -30.5t-32 -22.5t-43 -9q-27 0 -45.5 10t-30.5 25t-17 32.5t-5 32.5q0 21 9.5 39.5t24 36t31.5 33t31 29.5l135 132q11 11 11 21q0 9 -9 18l-1 1q-9 10 -18 10
q-8 0 -19 -11l-137 -135q-22 -21 -41.5 -39.5t-34.5 -38.5t-24 -43t-9 -54q0 -32 11.5 -59.5t32 -47.5t48.5 -31.5t60 -11.5q33 0 61 12t48 32.5t31 47.5t11 57z" />
    <glyph glyph-name="atilde" unicode="&#xe3;" horiz-adv-x="1503" 
d="M1323 603q0 -118 -46.5 -222.5t-125.5 -183t-184.5 -124t-224.5 -45.5q-112 0 -216 45.5t-183.5 124t-127 183t-47.5 222.5q0 120 47.5 225.5t127 184.5t183.5 124.5t216 45.5q110 0 214 -45.5t186 -124.5t131.5 -184.5t49.5 -225.5zM1378 1194q0 14 -6 23.5t-21 9.5h-1
q-14 0 -20.5 -9.5t-6.5 -23.5v-338q-38 84 -98 154t-135.5 120.5t-164 79t-182.5 28.5q-123 0 -236.5 -50.5t-201 -137t-140 -202t-52.5 -245.5q0 -129 52.5 -244t140 -200.5t201 -135.5t236.5 -50q95 0 183 28t163.5 78t135.5 119.5t98 152.5v-318q0 -15 6.5 -24t20.5 -9h1
q15 0 21 9t6 24v1161zM534 1427q23 26 44 42.5t57 16.5q26 0 50.5 -13t49 -29t50 -29t54.5 -13q43 0 78.5 21t67.5 64q5 6 8 12.5t3 13.5t-6 15.5t-18 8.5t-24 -12.5t-26.5 -27.5t-32 -27.5t-40.5 -12.5q-28 0 -54.5 13t-52.5 29t-52 29t-55 13q-44 0 -77 -21.5t-69 -62.5
q-11 -11 -11 -21q0 -8 8 -16l2 -2q10 -8 17 -8q8 0 14.5 4.5t14.5 12.5z" />
    <glyph glyph-name="yacute" unicode="&#xfd;" horiz-adv-x="1129" 
d="M1073 1184q3 9 3 16q0 12 -8.5 19t-20.5 7q-6 0 -12.5 -4.5t-11.5 -17.5l-467 -1114l-467 1117q-5 13 -12 16t-12 3q-9 0 -19 -7t-10 -20q0 -6 3 -12l489 -1164l-157 -382q-4 -9 -4 -17q0 -14 9 -20t18 -6q3 0 11 3.5t14 17.5zM778 1577q5 8 5 17q0 11 -8.5 18.5
t-18.5 8.5h-2q-5 0 -11 -3t-14 -17l-128 -229q-5 -9 -5 -18q0 -12 9 -18t18 -7h2q4 0 11 3t15 17z" />
    <glyph glyph-name="ygrave" unicode="&#x1ef3;" horiz-adv-x="1129" 
d="M1073 1184q3 9 3 16q0 12 -8.5 19t-20.5 7q-6 0 -12.5 -4.5t-11.5 -17.5l-467 -1114l-467 1117q-5 13 -12 16t-12 3q-9 0 -19 -7t-10 -20q0 -6 3 -12l489 -1164l-157 -382q-4 -9 -4 -17q0 -14 9 -20t18 -6q3 0 11 3.5t14 17.5zM543 1372q8 -14 15 -17t11 -3h2q9 1 18 7
t9 18q0 6 -5 18l-128 229q-8 14 -14 17t-11 3h-2q-10 -1 -18.5 -8t-8.5 -19q0 -9 5 -17z" />
    <glyph glyph-name="zacute" unicode="&#x17a;" horiz-adv-x="1137" 
d="M179 1226q-2 0 -7.5 -0.5t-11 -3t-10 -8t-4.5 -16.5q0 -14 9.5 -20.5t23.5 -6.5h688l-749 -1119q-10 -16 -10 -25q0 -11 8.5 -19t19.5 -8h780q2 0 7.5 0.5t11 3.5t10 9t4.5 16q0 14 -9.5 20t-23.5 6h-730l756 1125q6 9 6 18q0 12 -9.5 20t-19.5 8h-740zM762 1601
q5 8 5 17q0 11 -8.5 18.5t-18.5 8.5h-2q-5 0 -11 -3t-14 -17l-128 -229q-5 -9 -5 -18q0 -12 9 -18t18 -7h2q4 0 11 3t15 17z" />
    <glyph glyph-name="sacute" unicode="&#x15b;" horiz-adv-x="1008" 
d="M479 -31q63 0 133 17.5t128.5 56.5t97 102.5t38.5 155.5q0 143 -102 231.5t-293 130.5q-46 10 -101.5 27.5t-103.5 47.5t-80 76t-32 114q0 57 23 104t63.5 80.5t97.5 52.5t124 19q57 0 112.5 -19t100 -53t74.5 -81t37 -103q2 -13 11 -18.5t18 -5.5q2 0 5 0.5t7 2.5
q10 5 10 24v8q-6 60 -38.5 114t-83.5 95.5t-116 66t-137 24.5q-90 0 -158 -25.5t-113.5 -68.5t-68.5 -99t-23 -118q0 -75 29 -128t78.5 -89.5t116.5 -61t143 -42.5q66 -16 128 -39t110.5 -58.5t77.5 -86.5t29 -122q0 -82 -35 -135.5t-86.5 -85t-111 -44t-109.5 -12.5
q-71 0 -132 17t-107 49.5t-73.5 79.5t-31.5 107q-1 17 -8.5 27t-21.5 10q-6 0 -9 -1l-3 -1q-10 -4 -13 -12.5t-3 -17.5q0 -52 24 -107.5t73.5 -101t125.5 -75t179 -29.5zM688 1620q5 8 5 17q0 11 -8.5 18.5t-18.5 8.5h-2q-5 0 -11 -3t-14 -17l-128 -229q-5 -9 -5 -18
q0 -12 9 -18t18 -7h2q4 0 11 3t15 17z" />
    <glyph glyph-name="dcaron" unicode="&#x10f;" horiz-adv-x="1503" 
d="M1323 603q0 -118 -46 -222.5t-124 -183t-180 -124t-214 -45.5q-124 0 -232 45.5t-187 124t-124.5 183t-45.5 222.5q0 120 46.5 225.5t126 184.5t185 124.5t222.5 45.5q119 0 223.5 -45.5t182 -124.5t122.5 -184.5t45 -225.5zM1378 1551q0 14 -7 23t-21 9h-1q-14 0 -20 -9
t-6 -23v-694q-36 84 -94 154t-132.5 120.5t-162 78.5t-183.5 28q-132 0 -247.5 -50.5t-202 -137t-136.5 -202t-50 -245.5q0 -129 49 -244t135.5 -200.5t204.5 -135.5t256 -50q90 0 175.5 28t159 78.5t132.5 120t96 153.5v-321q0 -14 6 -23t20 -9h1q14 0 21 9t7 23v1519z
M1426 1511q0 -11 3.5 -16t16.5 -5h16q8 0 8 -8v-11q0 -12 -6.5 -30t-20.5 -33q-4 -4 -4 -9q0 -6 4 -9l13 -12q6 -6 12 -6q5 0 14.5 8t18.5 23t16 37t7 50v73q0 19 -17 19h-61q-11 0 -15.5 -6t-4.5 -13v-52z" />
    <glyph glyph-name="dcroat" unicode="&#x111;" horiz-adv-x="1503" 
d="M1323 603q0 -118 -46 -222.5t-124 -183t-180 -124t-214 -45.5q-124 0 -232 45.5t-187 124t-124.5 183t-45.5 222.5q0 120 46.5 225.5t126 184.5t185 124.5t222.5 45.5q119 0 223.5 -45.5t182 -124.5t122.5 -184.5t45 -225.5zM1378 1551q0 14 -7 23t-21 9h-1q-14 0 -20 -9
t-6 -23v-158h-240q-14 0 -22.5 -6.5t-8.5 -20.5v-1q0 -15 8.5 -21t22.5 -6h240v-481q-36 84 -94 154t-132.5 120.5t-162 78.5t-183.5 28q-132 0 -247.5 -50.5t-202 -137t-136.5 -202t-50 -245.5q0 -129 49 -244t135.5 -200.5t204.5 -135.5t256 -50q90 0 175.5 28t159 78.5
t132.5 120t96 153.5v-321q0 -14 6 -23t20 -9h1q14 0 21 9t7 23v1306h117q12 0 19.5 8.5t7.5 17.5v1q0 14 -8 21t-19 7h-117v158z" />
    <glyph glyph-name="hbar" unicode="&#x127;" horiz-adv-x="1306" 
d="M1137 33q0 -14 6.5 -23.5t20.5 -9.5h1q14 0 20.5 9.5t6.5 23.5v702q0 90 -33 179t-94.5 159.5t-149.5 114.5t-198 44q-77 0 -150 -22t-136.5 -60t-115 -90.5t-85.5 -114.5v430h240q11 0 18 7t7 16v1q0 12 -7.5 18t-17.5 6h-240v126q0 14 -6.5 24t-20.5 10h-1
q-14 0 -20.5 -10t-6.5 -24v-126h-104q-12 0 -20 -5.5t-8 -18.5q0 -14 8 -19t20 -5h104v-1342q0 -14 6.5 -23.5t20.5 -9.5h1q14 0 20.5 9.5t6.5 23.5v720q0 88 44 165t113 134.5t154 90.5t167 33q103 0 183 -41.5t134.5 -106t83 -143.5t28.5 -153v-699z" />
    <glyph glyph-name="hcircumflex" unicode="&#x125;" horiz-adv-x="1306" 
d="M1137 33q0 -14 6.5 -23.5t20.5 -9.5h1q14 0 20.5 9.5t6.5 23.5v702q0 90 -33 179t-94.5 159.5t-149.5 114.5t-198 44q-77 0 -150 -22t-136.5 -60t-115 -90.5t-85.5 -114.5v604q0 14 -6.5 24t-20.5 10h-1q-14 0 -20.5 -10t-6.5 -24v-1516q0 -14 6.5 -23.5t20.5 -9.5h1
q14 0 20.5 9.5t6.5 23.5v720q0 88 44 165t113 134.5t154 90.5t167 33q103 0 183 -41.5t134.5 -106t83 -143.5t28.5 -153v-699zM443 1440q-10 -10 -10 -22q0 -11 8 -18l1 -1q7 -7 17 -7q12 0 23 11l193 192l190 -190q12 -12 24 -12q10 0 18.5 9t8.5 19q0 12 -11 23l-210 210
q-10 10 -20 10t-19 -10z" />
    <glyph glyph-name="uacute" unicode="&#xfa;" horiz-adv-x="1300" 
d="M1135 454q0 -100 -42.5 -180t-109.5 -136t-148 -86t-158 -30q-95 0 -181.5 35.5t-152 100t-104 155t-38.5 199.5v683q0 31 -28 31h-1q-26 0 -26 -31v-683q0 -105 38 -203t108 -174t168.5 -122t219.5 -46q62 0 127.5 18t126.5 52t113.5 83.5t87.5 111.5l2 -200
q0 -14 6 -23t20 -9h1q14 0 20 9t6 23v1163q0 31 -26 31h-1q-28 0 -28 -31v-741zM867 1573q5 8 5 17q0 11 -8.5 18.5t-18.5 8.5h-2q-5 0 -11 -3t-14 -17l-128 -229q-5 -9 -5 -18q0 -12 9 -18t18 -7h2q4 0 11 3t15 17z" />
    <glyph glyph-name="ugrave" unicode="&#xf9;" horiz-adv-x="1300" 
d="M1135 454q0 -100 -42.5 -180t-109.5 -136t-148 -86t-158 -30q-95 0 -181.5 35.5t-152 100t-104 155t-38.5 199.5v683q0 31 -28 31h-1q-26 0 -26 -31v-683q0 -105 38 -203t108 -174t168.5 -122t219.5 -46q62 0 127.5 18t126.5 52t113.5 83.5t87.5 111.5l2 -200
q0 -14 6 -23t20 -9h1q14 0 20 9t6 23v1163q0 31 -26 31h-1q-28 0 -28 -31v-741zM671 1352q8 -14 15 -17t11 -3h2q9 1 18 7t9 18q0 6 -5 18l-128 229q-8 14 -14 17t-11 3h-2q-10 -1 -18.5 -8t-8.5 -19q0 -9 5 -17z" />
    <glyph glyph-name="uogonek" unicode="&#x173;" horiz-adv-x="1300" 
d="M1135 454q0 -100 -42.5 -180t-109.5 -136t-148 -86t-158 -30q-95 0 -181.5 35.5t-152 100t-104 155t-38.5 199.5v683q0 31 -28 31h-1q-26 0 -26 -31v-683q0 -105 38 -203t108 -174t168.5 -122t219.5 -46q62 0 127.5 18t126.5 52t113.5 83.5t87.5 111.5l2 -200
q0 -14 6 -23t20 -9h1q14 0 20 9t6 23v1163q0 31 -26 31h-1q-28 0 -28 -31v-741zM1199 -270q0 16 -7.5 24t-19.5 8q-11 0 -18.5 -8t-7.5 -27q0 -16 -6.5 -33t-19.5 -30.5t-32 -22.5t-43 -9q-27 0 -45.5 10t-30.5 25t-17 32.5t-5 32.5q0 21 9.5 39.5t24 36t31.5 33t31 29.5
l135 132q11 11 11 21q0 9 -9 18l-1 1q-9 10 -18 10q-8 0 -19 -11l-137 -135q-22 -21 -41.5 -39.5t-34.5 -38.5t-24 -43t-9 -54q0 -32 11.5 -59.5t32 -47.5t48.5 -31.5t60 -11.5q33 0 61 12t48 32.5t31 47.5t11 57z" />
    <glyph glyph-name="wacute" unicode="&#x1e83;" horiz-adv-x="1826" 
d="M1761 1188q3 6 3 12q0 13 -10.5 19.5t-18.5 6.5q-4 0 -11.5 -2.5t-12.5 -15.5l-472 -1119l-305 739l153 360q3 6 3 12q0 13 -10.5 19.5t-18.5 6.5q-4 0 -11.5 -2.5t-12.5 -15.5l-472 -1120l-477 1120q-5 13 -12.5 15.5t-11.5 2.5q-9 0 -19 -6.5t-10 -18.5q0 -5 3 -13
l500 -1169q5 -12 12 -15.5t12 -4.5h5q3 0 11.5 3.5t13.5 16.5l315 744l305 -744q5 -12 12 -15.5t12 -4.5h5q3 0 11.5 3.5t13.5 16.5zM1169 1603q5 8 5 17q0 11 -8.5 18.5t-18.5 8.5h-2q-5 0 -11 -3t-14 -17l-128 -229q-5 -9 -5 -18q0 -12 9 -18t18 -7h2q4 0 11 3t15 17z" />
    <glyph glyph-name="wgrave" unicode="&#x1e81;" horiz-adv-x="1826" 
d="M1761 1188q3 6 3 12q0 13 -10.5 19.5t-18.5 6.5q-4 0 -11.5 -2.5t-12.5 -15.5l-472 -1119l-305 739l153 360q3 6 3 12q0 13 -10.5 19.5t-18.5 6.5q-4 0 -11.5 -2.5t-12.5 -15.5l-472 -1120l-477 1120q-5 13 -12.5 15.5t-11.5 2.5q-9 0 -19 -6.5t-10 -18.5q0 -5 3 -13
l500 -1169q5 -12 12 -15.5t12 -4.5h5q3 0 11.5 3.5t13.5 16.5l315 744l305 -744q5 -12 12 -15.5t12 -4.5h5q3 0 11.5 3.5t13.5 16.5zM938 1375q8 -14 15 -17t11 -3h2q9 1 18 7t9 18q0 6 -5 18l-128 229q-8 14 -14 17t-11 3h-2q-10 -1 -18.5 -8t-8.5 -19q0 -9 5 -17z" />
    <glyph glyph-name="oacute" unicode="&#xf3;" horiz-adv-x="1438" 
d="M96 609q0 -130 49 -245.5t134 -202.5t199 -137.5t243 -50.5q131 0 247.5 50.5t203.5 137.5t137.5 202.5t50.5 245.5q0 131 -51 245.5t-138.5 200t-204 135t-247.5 49.5q-129 0 -242.5 -49.5t-198 -135t-133.5 -200t-49 -245.5zM151 609q0 119 44.5 224t121 183t180.5 123
t222 45q120 0 226.5 -45t186.5 -123t126.5 -183t46.5 -224q0 -118 -44.5 -223.5t-123 -185t-185.5 -126t-231 -46.5q-118 0 -222 46.5t-181.5 126t-122 185t-44.5 223.5zM926 1619q5 8 5 17q0 11 -8.5 18.5t-18.5 8.5h-2q-5 0 -11 -3t-14 -17l-128 -229q-5 -9 -5 -18
q0 -12 9 -18t18 -7h2q4 0 11 3t15 17z" />
    <glyph glyph-name="obreve" unicode="&#x14f;" horiz-adv-x="1438" 
d="M96 609q0 -130 49 -245.5t134 -202.5t199 -137.5t243 -50.5q131 0 247.5 50.5t203.5 137.5t137.5 202.5t50.5 245.5q0 131 -51 245.5t-138.5 200t-204 135t-247.5 49.5q-129 0 -242.5 -49.5t-198 -135t-133.5 -200t-49 -245.5zM151 609q0 119 44.5 224t121 183t180.5 123
t222 45q120 0 226.5 -45t186.5 -123t126.5 -183t46.5 -224q0 -118 -44.5 -223.5t-123 -185t-185.5 -126t-231 -46.5q-118 0 -222 46.5t-181.5 126t-122 185t-44.5 223.5zM737 1397q39 0 72.5 13.5t58 36.5t39 53t14.5 62q0 11 -4.5 23t-20.5 13h-3q-14 0 -19.5 -10t-5.5 -25
q0 -18 -10 -38t-27.5 -37.5t-41 -29t-50.5 -11.5q-30 0 -54 11t-40.5 27.5t-25.5 37t-9 38.5q0 16 -5 26t-19 11h-2q-17 0 -21.5 -12t-4.5 -25q0 -32 13.5 -61.5t37 -52.5t56.5 -36.5t72 -13.5z" />
    <glyph glyph-name="ocircumflex" unicode="&#xf4;" horiz-adv-x="1438" 
d="M96 609q0 -130 49 -245.5t134 -202.5t199 -137.5t243 -50.5q131 0 247.5 50.5t203.5 137.5t137.5 202.5t50.5 245.5q0 131 -51 245.5t-138.5 200t-204 135t-247.5 49.5q-129 0 -242.5 -49.5t-198 -135t-133.5 -200t-49 -245.5zM151 609q0 119 44.5 224t121 183t180.5 123
t222 45q120 0 226.5 -45t186.5 -123t126.5 -183t46.5 -224q0 -118 -44.5 -223.5t-123 -185t-185.5 -126t-231 -46.5q-118 0 -222 46.5t-181.5 126t-122 185t-44.5 223.5zM499 1418q-10 -10 -10 -22q0 -11 8 -18l1 -1q7 -7 17 -7q12 0 23 11l193 192l190 -190q12 -12 24 -12
q10 0 18.5 9t8.5 19q0 12 -11 23l-210 210q-10 10 -20 10t-19 -10z" />
    <glyph glyph-name="ograve" unicode="&#xf2;" horiz-adv-x="1438" 
d="M96 609q0 -130 49 -245.5t134 -202.5t199 -137.5t243 -50.5q131 0 247.5 50.5t203.5 137.5t137.5 202.5t50.5 245.5q0 131 -51 245.5t-138.5 200t-204 135t-247.5 49.5q-129 0 -242.5 -49.5t-198 -135t-133.5 -200t-49 -245.5zM151 609q0 119 44.5 224t121 183t180.5 123
t222 45q120 0 226.5 -45t186.5 -123t126.5 -183t46.5 -224q0 -118 -44.5 -223.5t-123 -185t-185.5 -126t-231 -46.5q-118 0 -222 46.5t-181.5 126t-122 185t-44.5 223.5zM688 1413q8 -14 15 -17t11 -3h2q9 1 18 7t9 18q0 6 -5 18l-128 229q-8 14 -14 17t-11 3h-2
q-10 -1 -18.5 -8t-8.5 -19q0 -9 5 -17z" />
    <glyph glyph-name="oslash" unicode="&#xf8;" horiz-adv-x="1438" 
d="M152 609q0 119 44.5 224t121 183t180.5 123t222 45q120 0 226.5 -45t186.5 -123t126.5 -183t46.5 -224q0 -118 -44.5 -223.5t-123 -185t-185.5 -126t-231 -46.5q-118 0 -222 46.5t-181.5 126t-122 185t-44.5 223.5zM97 609q0 -93 26 -179t72.5 -160.5t111 -134
t142.5 -98.5l-45 -112q-3 -8 -3 -13q0 -14 11 -19.5t19 -5.5h2q4 0 10.5 2.5t11.5 15.5l44 110q52 -20 107.5 -31t115.5 -11q131 0 247.5 50.5t203.5 137.5t137.5 202.5t50.5 245.5q0 98 -28.5 187t-80 164t-123 133t-156.5 94l44 113q2 4 2 12q0 13 -10 20t-18 7h-2
q-4 0 -10.5 -2.5t-11.5 -16.5l-46 -113q-98 32 -201 32q-129 0 -242.5 -49.5t-198 -135t-133.5 -200t-49 -245.5z" />
    <glyph glyph-name="otilde" unicode="&#xf5;" horiz-adv-x="1438" 
d="M96 609q0 -130 49 -245.5t134 -202.5t199 -137.5t243 -50.5q131 0 247.5 50.5t203.5 137.5t137.5 202.5t50.5 245.5q0 131 -51 245.5t-138.5 200t-204 135t-247.5 49.5q-129 0 -242.5 -49.5t-198 -135t-133.5 -200t-49 -245.5zM151 609q0 119 44.5 224t121 183t180.5 123
t222 45q120 0 226.5 -45t186.5 -123t126.5 -183t46.5 -224q0 -118 -44.5 -223.5t-123 -185t-185.5 -126t-231 -46.5q-118 0 -222 46.5t-181.5 126t-122 185t-44.5 223.5zM528 1414q23 26 44 42.5t57 16.5q26 0 50.5 -13t49 -29t50 -29t54.5 -13q43 0 78.5 21t67.5 64
q5 6 8 12.5t3 13.5t-6 15.5t-18 8.5t-24 -12.5t-26.5 -27.5t-32 -27.5t-40.5 -12.5q-28 0 -54.5 13t-52.5 29t-52 29t-55 13q-44 0 -77 -21.5t-69 -62.5q-11 -11 -11 -21q0 -8 8 -16l2 -2q10 -8 17 -8q8 0 14.5 4.5t14.5 12.5z" />
    <glyph glyph-name="oe" unicode="&#x153;" horiz-adv-x="2515" 
d="M1875 1183q84 0 158 -22.5t137 -61t114 -90t87.5 -109t58 -118.5t25.5 -118h-1149q12 107 61 201.5t125.5 165t174.5 111.5t208 41zM2482 610q28 0 28 27v4q0 69 -21.5 140.5t-61.5 137.5t-97 124.5t-127.5 101.5t-153.5 68t-174 25q-129 0 -243 -51t-199.5 -138
t-135 -202.5t-49.5 -244.5t50 -243.5t135.5 -200t200 -135.5t243.5 -50q70 0 131.5 13t114.5 35t99 52t85 63q12 10 12 25q0 9 -6 15l-2 2q-6 6 -15 6q-13 0 -24 -9q-30 -24 -66.5 -50.5t-84 -48.5t-107.5 -36t-137 -14q-118 0 -222.5 46t-182.5 124.5t-123.5 183
t-45.5 222.5v8h1179zM40 609q0 -130 49 -245.5t134 -202.5t199 -137.5t243 -50.5q131 0 247.5 50.5t203.5 137.5t137.5 202.5t50.5 245.5q0 131 -51 245.5t-138.5 200t-204 135t-247.5 49.5q-129 0 -242.5 -49.5t-198 -135t-133.5 -200t-49 -245.5zM95 609q0 119 44.5 224
t121 183t180.5 123t222 45q120 0 226.5 -45t186.5 -123t126.5 -183t46.5 -224q0 -118 -44.5 -223.5t-123 -185t-185.5 -126t-231 -46.5q-118 0 -222 46.5t-181.5 126t-122 185t-44.5 223.5z" />
    <glyph glyph-name="nacute" unicode="&#x144;" horiz-adv-x="1306" 
d="M228 739q0 110 44.5 193.5t111 140.5t145 86t146.5 29q107 0 191.5 -41t143.5 -107t90.5 -148.5t31.5 -165.5v-695q0 -31 28 -31h1q26 0 26 31v695q0 96 -34.5 189t-100 165.5t-160 117.5t-215.5 45q-60 0 -124.5 -18t-125 -53.5t-112.5 -87t-87 -119.5l-2 229
q0 14 -6 23t-20 9h-1q-14 0 -20 -9t-6 -23v-1163q0 -31 26 -31h1q28 0 28 31v708zM897 1619q5 8 5 17q0 11 -8.5 18.5t-18.5 8.5h-2q-5 0 -11 -3t-14 -17l-128 -229q-5 -9 -5 -18q0 -12 9 -18t18 -7h2q4 0 11 3t15 17z" />
    <glyph glyph-name="ntilde" unicode="&#xf1;" horiz-adv-x="1306" 
d="M228 739q0 110 44.5 193.5t111 140.5t145 86t146.5 29q107 0 191.5 -41t143.5 -107t90.5 -148.5t31.5 -165.5v-695q0 -31 28 -31h1q26 0 26 31v695q0 96 -34.5 189t-100 165.5t-160 117.5t-215.5 45q-60 0 -124.5 -18t-125 -53.5t-112.5 -87t-87 -119.5l-2 229
q0 14 -6 23t-20 9h-1q-14 0 -20 -9t-6 -23v-1163q0 -31 26 -31h1q28 0 28 31v708zM446 1421q23 26 44 42.5t57 16.5q26 0 50.5 -13t49 -29t50 -29t54.5 -13q43 0 78.5 21t67.5 64q5 6 8 12.5t3 13.5t-6 15.5t-18 8.5t-24 -12.5t-26.5 -27.5t-32 -27.5t-40.5 -12.5
q-28 0 -54.5 13t-52.5 29t-52 29t-55 13q-44 0 -77 -21.5t-69 -62.5q-11 -11 -11 -21q0 -8 8 -16l2 -2q10 -8 17 -8q8 0 14.5 4.5t14.5 12.5z" />
    <glyph glyph-name="gbreve" unicode="&#x11f;" horiz-adv-x="1521" 
d="M1337 559q-10 -105 -57.5 -198.5t-123.5 -163t-176.5 -110t-217.5 -40.5q-110 0 -214 37.5t-185 109.5t-130 178t-49 242q0 115 44 218.5t121 181.5t183 123.5t230 45.5q108 0 206.5 -41.5t175.5 -112t128 -164t65 -197.5v-109zM1394 1194q0 15 -6 23.5t-22 8.5
q-14 0 -21.5 -9t-7.5 -23v-331q-38 82 -98 150.5t-135 118.5t-162 78t-179 28q-128 0 -243 -50t-202 -135.5t-138 -199t-51 -239.5q0 -142 53 -256.5t141.5 -195.5t203 -125t236.5 -44q99 0 187.5 26t162.5 74t131.5 115.5t93.5 149.5l2 -118q0 -108 -28.5 -202t-76 -167.5
t-110 -124t-131.5 -70.5q-38 -11 -80.5 -16t-87.5 -5q-76 0 -150.5 14.5t-132.5 43.5q-13 6 -22 6q-11 0 -16 -5l-6 -6l-2 -3q-1 -1 -2.5 -4.5t-1.5 -8.5q0 -22 37.5 -39.5t90 -29.5t110 -18.5t96.5 -6.5q49 0 92 6q92 12 177.5 61t151.5 131t106 194t40 249v955zM787 1377
q39 0 72.5 13.5t58 36.5t39 53t14.5 62q0 11 -4.5 23t-20.5 13h-3q-14 0 -19.5 -10t-5.5 -25q0 -18 -10 -38t-27.5 -37.5t-41 -29t-50.5 -11.5q-30 0 -54 11t-40.5 27.5t-25.5 37t-9 38.5q0 16 -5 26t-19 11h-2q-17 0 -21.5 -12t-4.5 -25q0 -32 13.5 -61.5t37 -52.5
t56.5 -36.5t72 -13.5z" />
    <glyph glyph-name="gcircumflex" unicode="&#x11d;" horiz-adv-x="1521" 
d="M1337 559q-10 -105 -57.5 -198.5t-123.5 -163t-176.5 -110t-217.5 -40.5q-110 0 -214 37.5t-185 109.5t-130 178t-49 242q0 115 44 218.5t121 181.5t183 123.5t230 45.5q108 0 206.5 -41.5t175.5 -112t128 -164t65 -197.5v-109zM1394 1194q0 15 -6 23.5t-22 8.5
q-14 0 -21.5 -9t-7.5 -23v-331q-38 82 -98 150.5t-135 118.5t-162 78t-179 28q-128 0 -243 -50t-202 -135.5t-138 -199t-51 -239.5q0 -142 53 -256.5t141.5 -195.5t203 -125t236.5 -44q99 0 187.5 26t162.5 74t131.5 115.5t93.5 149.5l2 -118q0 -108 -28.5 -202t-76 -167.5
t-110 -124t-131.5 -70.5q-38 -11 -80.5 -16t-87.5 -5q-76 0 -150.5 14.5t-132.5 43.5q-13 6 -22 6q-11 0 -16 -5l-6 -6l-2 -3q-1 -1 -2.5 -4.5t-1.5 -8.5q0 -22 37.5 -39.5t90 -29.5t110 -18.5t96.5 -6.5q49 0 92 6q92 12 177.5 61t151.5 131t106 194t40 249v955zM567 1433
q-10 -10 -10 -22q0 -11 8 -18l1 -1q7 -7 17 -7q12 0 23 11l193 192l190 -190q12 -12 24 -12q10 0 18.5 9t8.5 19q0 12 -11 23l-210 210q-10 10 -20 10t-19 -10z" />
    <glyph glyph-name="uni0123" unicode="&#x123;" horiz-adv-x="1521" 
d="M1337 559q-10 -105 -57.5 -198.5t-123.5 -163t-176.5 -110t-217.5 -40.5q-110 0 -214 37.5t-185 109.5t-130 178t-49 242q0 115 44 218.5t121 181.5t183 123.5t230 45.5q108 0 206.5 -41.5t175.5 -112t128 -164t65 -197.5v-109zM1394 1194q0 15 -6 23.5t-22 8.5
q-14 0 -21.5 -9t-7.5 -23v-331q-38 82 -98 150.5t-135 118.5t-162 78t-179 28q-128 0 -243 -50t-202 -135.5t-138 -199t-51 -239.5q0 -142 53 -256.5t141.5 -195.5t203 -125t236.5 -44q99 0 187.5 26t162.5 74t131.5 115.5t93.5 149.5l2 -118q0 -108 -28.5 -202t-76 -167.5
t-110 -124t-131.5 -70.5q-38 -11 -80.5 -16t-87.5 -5q-76 0 -150.5 14.5t-132.5 43.5q-13 6 -22 6q-11 0 -16 -5l-6 -6l-2 -3q-1 -1 -2.5 -4.5t-1.5 -8.5q0 -22 37.5 -39.5t90 -29.5t110 -18.5t96.5 -6.5q49 0 92 6q92 12 177.5 61t151.5 131t106 194t40 249v955z
M826.949 1442.91q0 10.999 -3.49902 15.999q-3.5 4.99902 -16.499 4.99902h-15.999q-8 0 -8 8v10.999q0 12 6.5 29.998q6.49902 17.999 20.498 32.998q4 4 4 9q0 5.99902 -4 8.99902l-12.999 12q-5.99902 5.99902 -11.999 5.99902q-5 0 -14.499 -7.99902
q-9.5 -8 -18.499 -22.999t-15.999 -36.998q-7 -21.998 -7 -49.9971v-72.9951q0 -18.999 16.999 -18.999h60.9971q10.999 0 15.499 6q4.49902 6 4.49902 12.999v51.9971z" />
    <glyph glyph-name="ccedilla" unicode="&#xe7;" horiz-adv-x="1213" 
d="M1102 175q-35 -30 -75.5 -57t-88 -47t-103 -31.5t-121.5 -11.5q-119 0 -225 46t-185.5 124.5t-125.5 184t-46 224.5q0 125 49 230.5t130 182.5t187 120t220 43q45 0 94 -8.5t98 -26.5t96 -46t88 -66q9 -9 19 -9q14 0 20.5 8.5t6.5 19.5q0 12 -12 23q-43 39 -95 69
t-107.5 50t-111.5 30.5t-107 10.5q-121 0 -234.5 -47.5t-201.5 -131.5t-141 -199.5t-53 -252.5q0 -130 51 -245.5t138 -201.5t203 -136.5t246 -50.5q66 0 125 13t111.5 34.5t98.5 50.5t86 62q13 10 13 25q0 10 -6.5 18t-17.5 8q-12 0 -23 -9zM685 -202q0 -12 15 -16.5
t27 -7.5q42 -11 69.5 -39.5t27.5 -72.5q0 -24 -8.5 -45t-24 -36.5t-36.5 -25t-46 -9.5q-11 0 -19 -7.5t-8 -18.5t7.5 -19.5t20.5 -8.5q35 0 65.5 13.5t53.5 36.5t36 54t13 66q0 30 -11 58.5t-30 51t-45.5 38t-56.5 20.5v152q0 14 -5.5 20.5t-19.5 6.5h-1q-13 0 -18.5 -7.5
t-5.5 -19.5v-184z" />
    <glyph glyph-name="ccircumflex" unicode="&#x109;" horiz-adv-x="1213" 
d="M1102 175q-35 -30 -75.5 -57t-88 -47t-103 -31.5t-121.5 -11.5q-119 0 -225 46t-185.5 124.5t-125.5 184t-46 224.5q0 125 49 230.5t130 182.5t187 120t220 43q45 0 94 -8.5t98 -26.5t96 -46t88 -66q9 -9 19 -9q14 0 20.5 8.5t6.5 19.5q0 12 -12 23q-43 39 -95 69
t-107.5 50t-111.5 30.5t-107 10.5q-121 0 -234.5 -47.5t-201.5 -131.5t-141 -199.5t-53 -252.5q0 -130 51 -245.5t138 -201.5t203 -136.5t246 -50.5q66 0 125 13t111.5 34.5t98.5 50.5t86 62q13 10 13 25q0 10 -6.5 18t-17.5 8q-12 0 -23 -9zM500 1412q-10 -10 -10 -22
q0 -11 8 -18l1 -1q7 -7 17 -7q12 0 23 11l193 192l190 -190q12 -12 24 -12q10 0 18.5 9t8.5 19q0 12 -11 23l-210 210q-10 10 -20 10t-19 -10z" />
    <glyph glyph-name="cdotaccent" unicode="&#x10b;" horiz-adv-x="1213" 
d="M1102 175q-35 -30 -75.5 -57t-88 -47t-103 -31.5t-121.5 -11.5q-119 0 -225 46t-185.5 124.5t-125.5 184t-46 224.5q0 125 49 230.5t130 182.5t187 120t220 43q45 0 94 -8.5t98 -26.5t96 -46t88 -66q9 -9 19 -9q14 0 20.5 8.5t6.5 19.5q0 12 -12 23q-43 39 -95 69
t-107.5 50t-111.5 30.5t-107 10.5q-121 0 -234.5 -47.5t-201.5 -131.5t-141 -199.5t-53 -252.5q0 -130 51 -245.5t138 -201.5t203 -136.5t246 -50.5q66 0 125 13t111.5 34.5t98.5 50.5t86 62q13 10 13 25q0 10 -6.5 18t-17.5 8q-12 0 -23 -9zM655 1410q0 -14 5.5 -21
t20.5 -7h60q10 0 17 5.5t7 22.5v54q0 28 -24 28h-61q-25 0 -25 -25v-57z" />
    <glyph glyph-name="ibreve" unicode="&#x12d;" horiz-adv-x="430" 
d="M169 32q0 -14 7 -23t21 -9h1q14 0 20.5 9t6.5 23v1163q0 31 -27 31h-1q-28 0 -28 -31v-1163zM188 1385q39 0 72.5 13.5t58 36.5t39 53t14.5 62q0 11 -4.5 23t-20.5 13h-3q-14 0 -19.5 -10t-5.5 -25q0 -18 -10 -38t-27.5 -37.5t-41 -29t-50.5 -11.5q-30 0 -54 11
t-40.5 27.5t-25.5 37t-9 38.5q0 16 -5 26t-19 11h-2q-17 0 -21.5 -12t-4.5 -25q0 -32 13.5 -61.5t37 -52.5t56.5 -36.5t72 -13.5z" />
    <glyph glyph-name="lslash" unicode="&#x142;" horiz-adv-x="419" 
d="M154 33q0 -14 6.5 -23.5t20.5 -9.5h1q14 0 20.5 9.5t6.5 23.5v690l196 75q18 6 18 25q0 7 -1 10l-1 3q-5 15 -23 15q-5 0 -13 -2l-176 -68v768q0 14 -6.5 24t-20.5 10h-1q-14 0 -20.5 -10t-6.5 -24v-789l-173 -66q-21 -8 -21 -26q0 -7 2 -11v-1q3 -9 9 -13t13 -4
q10 0 18 4l152 58v-668z" />
    <glyph glyph-name="uni0137" unicode="&#x137;" horiz-adv-x="1223" 
d="M952 1177q9 9 9 19q0 14 -10 21.5t-18 7.5q-5 0 -11 -1.5t-17 -11.5l-692 -633v973q0 14 -6 22.5t-20 8.5h-1q-14 0 -20.5 -8.5t-6.5 -22.5v-1518q0 -14 6.5 -24t20.5 -10h1q14 0 20 10t6 24v471l274 250l566 -738q12 -14 19.5 -15.5t12.5 -1.5q9 1 17.5 8.5t8.5 18.5
q0 10 -8 19l-576 746zM501 -190q0 -11 3.5 -16t16.5 -5h16q8 0 8 -8v-11q0 -12 -6.5 -30t-20.5 -33q-4 -4 -4 -9q0 -6 4 -9l13 -12q6 -6 12 -6q5 0 14.5 8t18.5 23t16 37t7 50v73q0 19 -17 19h-61q-11 0 -15.5 -6t-4.5 -13v-52z" />
    <glyph glyph-name="kgreenlandic" unicode="&#x138;" horiz-adv-x="1223" 
d="M932 1161q9 9 9 19q0 14 -10 21.5t-18 7.5q-5 0 -11 -1.5t-17 -11.5l-672 -622v621q0 14 -6 22.5t-20 8.5h-1q-14 0 -20.5 -8.5t-6.5 -22.5v-1161q0 -14 6.5 -24t20.5 -10h1q14 0 20 10t6 24v471l274 250l546 -738q12 -14 19.5 -15.5t12.5 -1.5q9 1 17.5 8.5t8.5 18.5
q0 10 -8 19l-556 746z" />
    <glyph glyph-name="jcircumflex" unicode="&#x135;" horiz-adv-x="430" 
d="M196 -22q-1 -60 -19 -118.5t-55 -104t-94.5 -73.5t-137.5 -28q-13 0 -20.5 -3.5t-11 -8t-4.5 -8.5t-1 -5v-2q0 -1 0.5 -5t3.5 -9t9.5 -9t19.5 -4q96 0 164.5 35.5t112.5 90.5t65.5 121.5t22.5 129.5v1218q0 14 -6 22.5t-20 8.5h-1q-14 0 -21 -8.5t-7 -22.5v-1217z
M-20 1431q-10 -10 -10 -22q0 -11 8 -18l1 -1q7 -7 17 -7q12 0 23 11l193 192l190 -190q12 -12 24 -12q10 0 18.5 9t8.5 19q0 12 -11 23l-210 210q-10 10 -20 10t-19 -10z" />
    <glyph glyph-name="itilde" unicode="&#x129;" horiz-adv-x="430" 
d="M169 32q0 -14 7 -23t21 -9h1q14 0 20.5 9t6.5 23v1163q0 31 -27 31h-1q-28 0 -28 -31v-1163zM-9 1392q23 26 44 42.5t57 16.5q26 0 50.5 -13t49 -29t50 -29t54.5 -13q43 0 78.5 21t67.5 64q5 6 8 12.5t3 13.5t-6 15.5t-18 8.5t-24 -12.5t-26.5 -27.5t-32 -27.5
t-40.5 -12.5q-28 0 -54.5 13t-52.5 29t-52 29t-55 13q-44 0 -77 -21.5t-69 -62.5q-11 -11 -11 -21q0 -8 8 -16l2 -2q10 -8 17 -8q8 0 14.5 4.5t14.5 12.5z" />
    <glyph glyph-name="iogonek" unicode="&#x12f;" horiz-adv-x="430" 
d="M169 32q0 -14 7 -23t21 -9h1q14 0 20.5 9t6.5 23v1163q0 31 -27 31h-1q-28 0 -28 -31v-1163zM151 1497q0 -11 4.5 -16.5t16.5 -5.5h48q8 0 13.5 4.5t5.5 17.5v44q0 22 -19 22h-49q-20 0 -20 -20v-46zM235 -269q0 16 -7.5 24t-19.5 8q-11 0 -18.5 -8t-7.5 -27
q0 -16 -6.5 -33t-19.5 -30.5t-32 -22.5t-43 -9q-27 0 -45.5 10t-30.5 25t-17 32.5t-5 32.5q0 21 9.5 39.5t24 36t31.5 33t31 29.5l135 132q11 11 11 21q0 9 -9 18l-1 1q-9 10 -18 10q-8 0 -19 -11l-137 -135q-22 -21 -41.5 -39.5t-34.5 -38.5t-24 -43t-9 -54
q0 -32 11.5 -59.5t32 -47.5t48.5 -31.5t60 -11.5q33 0 61 12t48 32.5t31 47.5t11 57z" />
    <glyph glyph-name="ae" unicode="&#xe6;" horiz-adv-x="2663" 
d="M1323 603q0 -118 -46.5 -222.5t-125.5 -183t-184.5 -124t-224.5 -45.5q-112 0 -216 45.5t-183.5 124t-127 183t-47.5 222.5q0 120 47.5 225.5t127 184.5t183.5 124.5t216 45.5q110 0 214 -45.5t186 -124.5t131.5 -184.5t49.5 -225.5zM1951 1183q84 0 158 -22.5t137 -61
t114 -90t87.5 -109t58 -118.5t25.5 -118h-1149q12 107 61 201.5t125.5 165t174.5 111.5t208 41zM1378 1175q0 14 -6 23.5t-21 9.5h-1q-14 0 -20.5 -9.5t-6.5 -23.5v-319q-38 84 -98 154t-135.5 120.5t-164 79t-182.5 28.5q-123 0 -236.5 -50.5t-201 -137t-140 -202
t-52.5 -245.5q0 -129 52.5 -244t140 -200.5t201 -135.5t236.5 -50q95 0 183 28t163.5 78t135.5 119.5t98 152.5v-318q0 -15 6.5 -24t20.5 -9h1q15 0 21 9t6 24v316q37 -83 95.5 -152t133 -119t162.5 -77.5t184 -27.5q70 0 131.5 13t114.5 35t99 52t85 63q12 10 12 25
q0 9 -6 15l-2 2q-6 6 -15 6q-13 0 -24 -9q-30 -24 -66.5 -50.5t-84 -48.5t-107.5 -36t-137 -14q-118 0 -222.5 46t-182.5 124.5t-123.5 183t-45.5 222.5v8h1179q28 0 28 27v4q0 69 -21.5 140.5t-61.5 137.5t-97 124.5t-127.5 101.5t-153.5 68t-174 25q-95 0 -183 -28.5
t-162 -79t-132.5 -120.5t-95.5 -153v318z" />
    <glyph glyph-name="Gbreve" unicode="&#x11e;" horiz-adv-x="1425" 
d="M830 39q-141 0 -264.5 52.5t-215 143.5t-144.5 213.5t-53 263.5t53 263.5t144.5 213t215 142.5t264.5 52q121 0 226.5 -41t194.5 -109q11 -8 22 -8q9 0 14.5 4t6.5 5l1 1q1 1 3 5t2 10q0 5 -3 11.5t-12 14.5q-94 77 -209 121.5t-246 44.5q-152 0 -285.5 -57t-233.5 -156
t-157.5 -232t-57.5 -285t57.5 -284.5t157.5 -231t233.5 -155.5t285.5 -57q131 0 250 45t210 119q13 12 13 32v424q0 14 -6.5 23t-20.5 9t-21 -9t-7 -23v-419q-86 -64 -193 -105t-225 -41zM808 1579q39 0 72.5 13.5t58 36.5t39 53t14.5 62q0 11 -4.5 23t-20.5 13h-3
q-14 0 -19.5 -10t-5.5 -25q0 -18 -10 -38t-27.5 -37.5t-41 -29t-50.5 -11.5q-30 0 -54 11t-40.5 27.5t-25.5 37t-9 38.5q0 16 -5 26t-19 11h-2q-17 0 -21.5 -12t-4.5 -25q0 -32 13.5 -61.5t37 -52.5t56.5 -36.5t72 -13.5z" />
    <glyph glyph-name="Gcircumflex" unicode="&#x11c;" horiz-adv-x="1425" 
d="M830 39q-141 0 -264.5 52.5t-215 143.5t-144.5 213.5t-53 263.5t53 263.5t144.5 213t215 142.5t264.5 52q121 0 226.5 -41t194.5 -109q11 -8 22 -8q9 0 14.5 4t6.5 5l1 1q1 1 3 5t2 10q0 5 -3 11.5t-12 14.5q-94 77 -209 121.5t-246 44.5q-152 0 -285.5 -57t-233.5 -156
t-157.5 -232t-57.5 -285t57.5 -284.5t157.5 -231t233.5 -155.5t285.5 -57q131 0 250 45t210 119q13 12 13 32v424q0 14 -6.5 23t-20.5 9t-21 -9t-7 -23v-419q-86 -64 -193 -105t-225 -41zM574 1617q-10 -10 -10 -22q0 -11 8 -18l1 -1q7 -7 17 -7q12 0 23 11l193 192
l190 -190q12 -12 24 -12q10 0 18.5 9t8.5 19q0 12 -11 23l-210 210q-10 10 -20 10t-19 -10z" />
    <glyph glyph-name="Gdotaccent" unicode="&#x120;" horiz-adv-x="1425" 
d="M830 39q-141 0 -264.5 52.5t-215 143.5t-144.5 213.5t-53 263.5t53 263.5t144.5 213t215 142.5t264.5 52q121 0 226.5 -41t194.5 -109q11 -8 22 -8q9 0 14.5 4t6.5 5l1 1q1 1 3 5t2 10q0 5 -3 11.5t-12 14.5q-94 77 -209 121.5t-246 44.5q-152 0 -285.5 -57t-233.5 -156
t-157.5 -232t-57.5 -285t57.5 -284.5t157.5 -231t233.5 -155.5t285.5 -57q131 0 250 45t210 119q13 12 13 32v424q0 14 -6.5 23t-20.5 9t-21 -9t-7 -23v-419q-86 -64 -193 -105t-225 -41zM791 1609q0 -14 5.5 -21t20.5 -7h60q10 0 17 5.5t7 22.5v54q0 28 -24 28h-61
q-25 0 -25 -25v-57z" />
    <glyph glyph-name="Otilde" unicode="&#xd5;" horiz-adv-x="1657" 
d="M84 712q0 -152 57.5 -284.5t157.5 -231t233.5 -155t285.5 -56.5t284.5 56.5t230.5 155t154 231t56 284.5t-56 285.5t-154 232.5t-230.5 156t-284.5 57t-285.5 -57t-233.5 -156t-157.5 -232.5t-57.5 -285.5zM143 712q0 141 52.5 264t144 213.5t214.5 142.5t264 52t263 -52
t211.5 -142.5t141 -213.5t51.5 -264t-51.5 -263t-141 -212t-211.5 -142t-263 -52t-264 52t-214.5 142t-144 212t-52.5 263zM625 1599q23 26 44 42.5t57 16.5q26 0 50.5 -13t49 -29t50 -29t54.5 -13q43 0 78.5 21t67.5 64q5 6 8 12.5t3 13.5t-6 15.5t-18 8.5t-24 -12.5
t-26.5 -27.5t-32 -27.5t-40.5 -12.5q-28 0 -54.5 13t-52.5 29t-52 29t-55 13q-44 0 -77 -21.5t-69 -62.5q-11 -11 -11 -21q0 -8 8 -16l2 -2q10 -8 17 -8q8 0 14.5 4.5t14.5 12.5z" />
    <glyph glyph-name="OE" unicode="&#x152;" horiz-adv-x="2512" 
d="M116 712q0 141 53 265t145.5 216.5t216 145.5t264.5 53t264.5 -53t216 -145.5t145.5 -216.5t53 -265t-53 -264.5t-145.5 -215.5t-216 -145t-264.5 -53t-264.5 53t-216 145t-145.5 215.5t-53 264.5zM61 712q0 -152 57.5 -285.5t157 -233t233.5 -157t286 -57.5
q116 0 221.5 34t194 94.5t156.5 145t109 185.5v-410q0 -28 28 -28h930q14 0 22 7t8 21v1q0 14 -8 20.5t-22 6.5h-903v656h722q14 0 22.5 7.5t8.5 21.5v1q0 14 -8.5 19.5t-22.5 5.5h-722v603h884q14 0 22 7t8 21v1q0 14 -8 20.5t-22 6.5h-914q-25 -1 -25 -27v-413
q-41 101 -109 186t-156.5 146t-194 95t-221.5 34q-152 0 -286 -57.5t-233.5 -157.5t-157 -234t-57.5 -286z" />
    <glyph glyph-name="Oslashacute" unicode="&#x1fe;" horiz-adv-x="1657" 
d="M143 712q0 141 52.5 264t144 213.5t214.5 142.5t264 52t263 -52t211.5 -142.5t141 -213.5t51.5 -264t-51.5 -263t-141 -212t-211.5 -142t-263 -52t-264 52t-214.5 142t-144 212t-52.5 263zM84 712q0 -112 32 -213.5t89 -187.5t136.5 -153.5t175.5 -109.5l-56 -136
q-3 -8 -3 -13q0 -14 11 -19.5t19 -5.5h2q4 0 10.5 2.5t11.5 15.5l53 137q120 -44 253 -44q152 0 284.5 56.5t230.5 155t154 231t56 284.5q0 113 -31.5 215.5t-88 189t-135.5 154.5t-175 110q11 26 22 53l22 54q3 6 3 12q0 13 -10.5 20t-18.5 7h-2q-4 0 -10.5 -2.5
t-11.5 -16.5l-43 -108q-57 21 -118.5 32t-127.5 11q-152 0 -285.5 -57t-233.5 -156t-157.5 -232.5t-57.5 -285.5zM1036 1827q5 8 5 17q0 11 -8.5 18.5t-18.5 8.5h-2q-5 0 -11 -3t-14 -17l-128 -229q-5 -9 -5 -18q0 -12 9 -18t18 -7h2q4 0 11 3t15 17z" />
    <glyph glyph-name="uni0145" unicode="&#x145;" horiz-adv-x="1493" 
d="M1262 18q11 -13 18 -15.5t11 -2.5h6q14 0 20 9t6 24v1367q0 27 -26 27h-1q-28 0 -28 -27v-1300l-1053 1308q-16 19 -30 19h-5q-14 -1 -20 -9.5t-6 -17.5v-1367q0 -14 6.5 -23.5t20.5 -9.5h1q14 0 20 9.5t6 23.5v1296zM639 -218q0 -11 3.5 -16t16.5 -5h16q8 0 8 -8v-11
q0 -12 -6.5 -30t-20.5 -33q-4 -4 -4 -9q0 -6 4 -9l13 -12q6 -6 12 -6q5 0 14.5 8t18.5 23t16 37t7 50v73q0 19 -17 19h-61q-11 0 -15.5 -6t-4.5 -13v-52z" />
    <glyph glyph-name="Hbar" unicode="&#x126;" horiz-adv-x="1465" 
d="M1241 1011v-274h-1033v274h1033zM1241 32q0 -14 6.5 -23t20.5 -9h1q14 0 20 9t6 23v1359q0 14 -6 23t-20 9h-1q-14 0 -20.5 -9t-6.5 -23v-325h-1033v325q0 14 -6 23t-20 9h-1q-14 0 -20.5 -9t-6.5 -23v-1359q0 -14 6.5 -23t20.5 -9h1q14 0 20 9t6 23v651h1033v-651z" />
    <glyph glyph-name="AE" unicode="&#xc6;" horiz-adv-x="2075" 
d="M1096 1329v-869h-675zM33 48q-13 -17 -7.5 -31t21.5 -17h1q9 0 14 3t11 10l306 392h717v-377q0 -28 27 -28h898q14 0 23 7t9 21v1q0 14 -9 20.5t-23 6.5h-871v656h688q14 0 24 6.5t10 20.5v1q0 14 -10 20.5t-24 6.5h-688v604h851q14 0 23 7t9 21v1q0 14 -9 20.5t-23 6.5
h-881q-14 0 -24 -13z" />
    <glyph glyph-name="Iogonek" unicode="&#x12e;" horiz-adv-x="430" 
d="M154 33q0 -14 6.5 -23.5t20.5 -9.5h1q14 0 20 9.5t6 23.5v1362q0 14 -6 23t-20 9h-1q-13 0 -20 -9t-7 -23v-1362zM216 -272q0 16 -7.5 24t-19.5 8q-11 0 -18.5 -8t-7.5 -27q0 -16 -6.5 -33t-19.5 -30.5t-32 -22.5t-43 -9q-27 0 -45.5 10t-30.5 25t-17 32.5t-5 32.5
q0 21 9.5 39.5t24 36t31.5 33t31 29.5l135 132q11 11 11 21q0 9 -9 18l-1 1q-9 10 -18 10q-8 0 -19 -11l-137 -135q-22 -21 -41.5 -39.5t-34.5 -38.5t-24 -43t-9 -54q0 -32 11.5 -59.5t32 -47.5t48.5 -31.5t60 -11.5q33 0 61 12t48 32.5t31 47.5t11 57z" />
    <glyph glyph-name="Eth" unicode="&#xd0;" horiz-adv-x="1482" 
d="M207 671h220q12 0 19.5 8.5t7.5 17.5v1q0 14 -8 21t-19 7h-220v647h425q137 0 258 -52t211.5 -142t143 -210.5t52.5 -257.5q0 -136 -52.5 -255.5t-143 -208.5t-211.5 -140.5t-258 -51.5h-425v616zM19 698q0 -15 8.5 -21t22.5 -6h102v-652q0 -19 28 -19h452q149 0 280 55
t229.5 151t155.5 226t57 279t-56 278t-152.5 225.5t-225.5 153.5t-276 60h-473q-10 -2 -14.5 -9t-4.5 -18v-675h-102q-14 0 -22.5 -6.5t-8.5 -20.5v-1z" />
    </font>
</defs>
</svg>
