<?xml version="1.0" standalone="no"?>
<!DOCTYPE svg PUBLIC "-//W3C//DTD SVG 1.1//EN" "http://www.w3.org/Graphics/SVG/1.1/DTD/svg11.dtd" >
<svg xmlns="http://www.w3.org/2000/svg" xmlns:xlink="http://www.w3.org/1999/xlink" version="1.1">
<metadata>
Created by FontForge 20201107 at Tue May 22 17:40:38 2018
 By Unknown
Copyright (c) 2016 by Zetafonts. All rights reserved.
</metadata>
<defs>
<font id="CocogoosePro-Light" horiz-adv-x="2373" >
  <font-face 
    font-family="Cocogoose Pro"
    font-weight="250"
    font-stretch="normal"
    units-per-em="1920"
    panose-1="2 0 5 3 2 0 0 2 0 4"
    ascent="1536"
    descent="-384"
    x-height="1227"
    cap-height="1427"
    bbox="-334.562 -1459.91 2403 2024"
    underline-thickness="96"
    underline-position="-192"
    unicode-range="U+000D-FB04"
  />
<missing-glyph horiz-adv-x="602" 
d="M987 541q0 -93 -35.5 -175t-96 -143t-142 -96t-173.5 -35q-94 0 -175.5 36.5t-141.5 98t-94.5 143t-34.5 171.5t33.5 171t93 142.5t141 98t178.5 36.5q92 0 173 -35.5t142 -96.5t96.5 -142.5t35.5 -173.5zM271 240q55 -46 123 -74t146 -28t146.5 28t123.5 74h-539z
M228 797q-43 -54 -66.5 -118t-23.5 -138q0 -78 26 -146.5t74 -123.5l524 526h-534zM1025 541q0 96 -36.5 184.5t-101 156t-153.5 107.5t-194 40q-98 0 -186.5 -37.5t-155 -103t-105.5 -154.5t-39 -193q0 -98 37 -186t102 -154.5t154 -105.5t193 -39q100 0 188 38t154 103.5
t104.5 154t38.5 189.5zM941 541q0 145 -102 271l-524 -528h536q43 54 66.5 119t23.5 138zM806 841q-52 48 -120 76t-146 28t-147 -27.5t-124 -76.5h537z" />
    <glyph glyph-name="f_f" unicode="ff" horiz-adv-x="1246" 
d="M200 962h-108q-14 0 -23 8t-9 23v106q0 15 9 22t23 7h108v196q0 73 18 136t56.5 109.5t98.5 73.5t144 27q30 0 37 -13t7 -28v-104q0 -14 -9 -25t-36 -11q-58 0 -86 -28.5t-38.5 -67.5t-9.5 -79t1 -63v-123h440v196q0 73 18 136t56.5 109.5t98.5 73.5t144 27q30 0 37 -13
t7 -28v-104q0 -14 -9 -25t-36 -11q-58 0 -86 -28.5t-38.5 -67.5t-9.5 -79t1 -63v-123h144q32 0 32 -29v-106q0 -31 -32 -31h-144v-926q0 -36 -33 -36h-117q-33 0 -33 36v926h-440v-926q0 -36 -33 -36h-117q-33 0 -33 36v926z" />
    <glyph glyph-name="f_f_i" unicode="ffi" horiz-adv-x="1720" 
d="M200 962h-108q-14 0 -23 8t-9 23v106q0 15 9 22t23 7h108v196q0 73 18 136t56.5 109.5t98.5 73.5t144 27q30 0 37 -13t7 -28v-104q0 -14 -9 -25t-36 -11q-45 0 -72 -18.5t-40.5 -46t-17.5 -60t-4 -61.5q0 -16 0.5 -29t0.5 -23v-123h420v135q0 91 12 165t45.5 126.5
t93.5 81t156 28.5q30 0 37 -13t7 -28v-93q0 -14 -9 -25t-36 -11q-42 0 -66 -16.5t-37 -49t-16.5 -79t-3.5 -106.5v-115h531q32 0 32 -29v-1063q0 -36 -33 -36h-119q-34 0 -34 36v926h-377v-926q0 -36 -33 -36h-117q-33 0 -33 36v926h-420v-926q0 -36 -33 -36h-117
q-33 0 -33 36v926zM1348 1566q0 25 12.5 45.5t38.5 22.5l101 2q37 0 52.5 -20t15.5 -49v-70q0 -32 -16.5 -51t-45.5 -19l-107 2q-21 2 -36 19.5t-15 38.5v79z" />
    <glyph glyph-name="fi" unicode="fi" horiz-adv-x="1098" 
d="M200 962h-108q-14 0 -23 8t-9 23v106q0 15 9 22t23 7h108v196q0 73 18 136t56.5 109.5t98.5 73.5t144 27q30 0 37 -13t7 -28v-104q0 -14 -9 -25t-36 -11q-45 0 -72 -18.5t-40.5 -46t-17.5 -60t-4 -61.5q0 -16 0.5 -29t0.5 -23v-123h557q32 0 32 -29v-1063q0 -36 -34 -36
h-118q-34 0 -34 36v926h-403v-926q0 -36 -33 -36h-117q-33 0 -33 36v926zM786 1541q0 17 9 29t31 12h109q37 0 37 -43v-106q0 -23 -10 -30.5t-27 -7.5h-108q-20 0 -30.5 8.5t-10.5 28.5v109z" />
    <glyph glyph-name="f_f_j" unicode="ffj" horiz-adv-x="1720" 
d="M200 962h-108q-14 0 -23 8t-9 23v106q0 15 9 22t23 7h108v196q0 73 18 136t56.5 109.5t98.5 73.5t144 27q30 0 37 -13t7 -28v-104q0 -14 -9 -25t-36 -11q-45 0 -72 -18.5t-40.5 -46t-17.5 -60t-4 -61.5q0 -16 0.5 -29t0.5 -23v-123h420v135q0 91 12 165t45.5 126.5
t93.5 81t156 28.5q30 0 37 -13t7 -28v-93q0 -14 -9 -25t-36 -11q-42 0 -66 -16.5t-37 -49t-16.5 -79t-3.5 -106.5v-115h534q33 0 33 -39v-1086q0 -75 -16.5 -144t-55 -122t-102 -84.5t-157.5 -31.5q-28 0 -38 12.5t-10 20.5v93q0 3 1 9t5 12t13 10.5t25 4.5q41 0 68 17
t43 47.5t22.5 73.5t6.5 95v946h-372v-926q0 -36 -33 -36h-117q-33 0 -33 36v926h-420v-926q0 -36 -33 -36h-117q-33 0 -33 36v926zM1348 1566q0 25 12.5 45.5t38.5 22.5l107 2q32 1 47 -19.5t15 -49.5v-70q0 -30 -15 -50t-47 -20l-107 2q-21 2 -36 19.5t-15 38.5v79z" />
    <glyph glyph-name="f_j" unicode="fj" horiz-adv-x="1098" 
d="M200 962h-108q-14 0 -23 8t-9 23v106q0 15 9 22t23 7h108v196q0 73 18 136t56.5 109.5t98.5 73.5t144 27q30 0 37 -13t7 -28v-104q0 -14 -9 -25t-36 -11q-45 0 -72 -18.5t-40.5 -46t-17.5 -60t-4 -61.5q0 -16 0.5 -29t0.5 -23v-123h564q33 0 33 -39v-1086
q0 -75 -16.5 -144t-55 -122t-102 -84.5t-157.5 -31.5q-28 0 -38 12.5t-10 20.5v93q0 3 1 9t5 12t13 10.5t25 4.5q41 0 68 17t43 47.5t22.5 73.5t6.5 95v946h-402v-926q0 -36 -33 -36h-117q-33 0 -33 36v926zM786 1541q0 17 9 29t31 12h109q37 0 37 -43v-106q0 -23 -10 -30.5
t-27 -7.5h-108q-20 0 -30.5 8.5t-10.5 28.5v109z" />
    <glyph glyph-name=".notdef" horiz-adv-x="602" 
d="M987 541q0 -93 -35.5 -175t-96 -143t-142 -96t-173.5 -35q-94 0 -175.5 36.5t-141.5 98t-94.5 143t-34.5 171.5t33.5 171t93 142.5t141 98t178.5 36.5q92 0 173 -35.5t142 -96.5t96.5 -142.5t35.5 -173.5zM271 240q55 -46 123 -74t146 -28t146.5 28t123.5 74h-539z
M228 797q-43 -54 -66.5 -118t-23.5 -138q0 -78 26 -146.5t74 -123.5l524 526h-534zM1025 541q0 96 -36.5 184.5t-101 156t-153.5 107.5t-194 40q-98 0 -186.5 -37.5t-155 -103t-105.5 -154.5t-39 -193q0 -98 37 -186t102 -154.5t154 -105.5t193 -39q100 0 188 38t154 103.5
t104.5 154t38.5 189.5zM941 541q0 145 -102 271l-524 -528h536q43 54 66.5 119t23.5 138zM806 841q-52 48 -120 76t-146 28t-147 -27.5t-124 -76.5h537z" />
    <glyph glyph-name="uni0000" horiz-adv-x="0" 
 />
    <glyph glyph-name="uni0000" horiz-adv-x="0" 
 />
    <glyph glyph-name="uni000D" unicode="&#xd;" horiz-adv-x="601" 
 />
    <glyph glyph-name="space" unicode=" " horiz-adv-x="601" 
 />
    <glyph glyph-name="F" unicode="F" horiz-adv-x="1204" 
d="M156 34q0 -34 33 -34h120q32 0 32 34v552h609q32 0 32 34v117q0 33 -32 33h-609v473h774q32 0 32 34v117q0 33 -32 33h-926q-33 0 -33 -33v-1360z" />
    <glyph glyph-name="H" unicode="H" horiz-adv-x="1484" 
d="M1144 36q0 -36 33 -36h118q34 0 34 36v1356q0 19 -9 27t-23 8h-120q-17 0 -25 -10.5t-8 -25.5v-545h-804v546q0 19 -9.5 27t-22.5 8h-120q-17 0 -25.5 -10.5t-8.5 -25.5v-1355q0 -36 34 -36h117q35 0 35 36v622h804v-622z" />
    <glyph glyph-name="I" unicode="I" horiz-adv-x="495" 
d="M154 37q0 -37 33 -37h120q33 0 33 37v1354q0 17 -8 26.5t-25 9.5h-120q-16 0 -24.5 -9.5t-8.5 -26.5v-1354z" />
    <glyph glyph-name="J" unicode="J" horiz-adv-x="501" 
d="M163 15q0 -37 -15.5 -72.5t-43 -63t-65.5 -44.5t-83 -17q-59 0 -95.5 18.5t-59.5 41.5q-7 6 -15 12.5t-18 6.5q-12 0 -24 -11l-70 -65q-8 -8 -8.5 -17t3 -18t9 -17t9.5 -12q25 -29 57.5 -51t69 -36t75 -21t76.5 -7q75 0 141 26.5t117 72t83 106t39 128.5q3 66 3 136v1276
q0 20 -8 30t-28 10h-116q-12 0 -22.5 -8t-10.5 -28v-1376z" />
    <glyph glyph-name="K" unicode="K" horiz-adv-x="1409" 
d="M1228 1381q13 14 8 30t-25 16h-164q-11 0 -22 -4.5t-25 -20.5l-659 -717v705q0 17 -11 27t-23 10h-119q-16 0 -24 -10t-8 -27v-1354q0 -36 32 -36h120q33 0 33 36v390l237 252l538 -650q17 -28 42 -28h162q17 0 24 14t-6 29l-634 769z" />
    <glyph glyph-name="L" unicode="L" horiz-adv-x="1102" 
d="M156 34q0 -34 33 -34h854q17 0 27.5 8.5t10.5 25.5v107q0 17 -10.5 25t-27.5 8h-702v1215q0 37 -32 37h-120q-15 0 -24 -10t-9 -27v-1355z" />
    <glyph glyph-name="M" unicode="M" horiz-adv-x="1778" 
d="M808 85q7 -16 15 -20.5t18 -4.5h100q10 0 17.5 4.5t14.5 20.5l427 1033l112 -1085q2 -17 9.5 -25t24.5 -8h124q34 0 31 35l-159 1360q-3 32 -35 32h-163q-20 0 -31 -28l-421 -1032l-426 1034q-10 26 -28 26h-162q-17 0 -25.5 -9t-10.5 -23l-152 -1358q-3 -37 32 -37h114
q31 0 34 34l118 1083z" />
    <glyph glyph-name="P" unicode="P" horiz-adv-x="1227" 
d="M674 1245q62 0 110.5 -22.5t82 -60t51 -85.5t17.5 -99t-17.5 -97t-51 -81.5t-82 -56t-110.5 -20.5h-333v522h333zM156 36q0 -36 33 -36h119q33 0 33 36v505h369q95 0 171 38t129 99.5t82 138.5t29 155t-29.5 159t-83.5 146.5t-131 107.5t-172 42h-516q-15 0 -24 -8
t-9 -25v-1358z" />
    <glyph glyph-name="R" unicode="R" horiz-adv-x="1319" 
d="M731 1244q63 0 116 -20t91 -56t59 -86.5t21 -111.5t-21 -110.5t-59 -84.5t-91 -54t-116 -19h-390v542h390zM1007 28q8 -17 17 -22.5t20 -5.5h136q15 0 23 13t1 27l-253 522q59 29 106.5 72t81 96t51.5 113.5t18 123.5q0 92 -32.5 175t-90.5 146.5t-138.5 101t-176.5 37.5
h-582q-17 0 -24.5 -9.5t-7.5 -23.5v-1360q0 -34 32 -34h120q33 0 33 34v483l436 2z" />
    <glyph glyph-name="S" unicode="S" horiz-adv-x="1277" 
d="M128 221q49 -56 109.5 -100.5t126 -75.5t134 -47.5t134.5 -16.5q114 0 214 28t174.5 83t117.5 136t43 186q0 101 -46.5 169t-120 115t-165 78t-181.5 58q-61 18 -118.5 37t-102 45t-71.5 62.5t-27 89.5q0 59 28.5 97.5t72 61t95.5 32t98 9.5q51 0 97.5 -13.5t88 -34.5
t77.5 -47t65 -51q11 -10 21 -16.5t21 -6.5q10 0 22 9l73 72q14 15 13 30t-14 29q-43 47 -96 84.5t-112.5 64t-124 41t-130.5 14.5q-116 0 -206.5 -29t-153 -80t-95 -119.5t-32.5 -148.5q0 -79 26.5 -138.5t81 -105.5t139 -82.5t201.5 -69.5q34 -9 75.5 -20.5t84.5 -26
t84 -33.5t73 -44.5t51.5 -58t19.5 -74.5q0 -68 -33 -116t-83.5 -78.5t-110 -44.5t-112.5 -14q-60 0 -116 15.5t-106 41t-93 59t-76 70.5q-20 20 -36 20q-12 0 -21 -8l-85 -75q-17 -17 -11 -32.5t18 -29.5z" />
    <glyph glyph-name="T" unicode="T" horiz-adv-x="1190" 
d="M52 1275q0 -34 34 -34h412v-1207q0 -34 34 -34h120q33 0 33 34v1207h413q32 0 32 34v118q0 34 -32 34h-1012q-34 0 -34 -34v-118z" />
    <glyph glyph-name="A" unicode="A" horiz-adv-x="1411" 
d="M979 486h-526l266 656zM71 41q-8 -20 0.5 -30.5t25.5 -10.5h140q11 0 20.5 6t16.5 23l108 273h670l109 -273q6 -17 15.5 -23t20.5 -6h130q16 0 25 10.5t1 30.5l-552 1355q-7 17 -17.5 23.5t-21.5 6.5h-90q-11 0 -21.5 -6.5t-17.5 -23.5z" />
    <glyph glyph-name="U" unicode="U" horiz-adv-x="1444" 
d="M320 1392q0 15 -6.5 25t-25.5 10h-122q-15 0 -23.5 -10t-8.5 -25v-826q0 -140 48 -249.5t130 -185t190.5 -115t229.5 -39.5t226 39t183 113.5t123 183t45 248.5v830q0 14 -9 25t-26 11h-117q-17 0 -25.5 -10.5t-8.5 -25.5v-817q0 -91 -29.5 -167.5t-81.5 -132t-124 -86.5
t-156 -31t-158.5 30t-131 85t-89.5 131.5t-33 170.5v818z" />
    <glyph glyph-name="V" unicode="V" horiz-adv-x="1382" 
d="M1347 1383q9 22 -0.5 32.5t-24.5 10.5h-134q-11 0 -20.5 -6.5t-16.5 -23.5l-441 -1102l-448 1102q-6 17 -16 24t-21 7h-134q-15 0 -24.5 -11t-0.5 -32l569 -1356q7 -17 16.5 -23t21.5 -6h78q12 0 21.5 6t16.5 23z" />
    <glyph glyph-name="W" unicode="W" horiz-adv-x="2045" 
d="M1279 29q6 -16 17 -22.5t22 -6.5h76q11 0 21.5 6.5t17.5 22.5l569 1358q8 18 -2 29t-25 11h-132q-11 0 -20 -6t-16 -23l-446 -1117l-235 571l221 535q8 18 -1.5 29t-24.5 11h-133q-11 0 -20.5 -6t-16.5 -23l-445 -1117l-456 1117q-7 17 -15.5 23t-19.5 6h-123
q-15 0 -24.5 -10.5t-1.5 -29.5l562 -1358q7 -16 17.5 -22.5t21.5 -6.5h75q11 0 21 6.5t17 22.5l251 598z" />
    <glyph glyph-name="X" unicode="X" horiz-adv-x="1288" 
d="M1199 1385q12 17 2 30.5t-25 13.5h-146q-11 0 -20.5 -5.5t-19.5 -20.5l-361 -527l-357 525q-10 15 -19 20.5t-20 5.5h-149q-15 0 -22.5 -12.5t4.5 -31.5l455 -669l-456 -671q-13 -20 -3 -31.5t25 -11.5h144q11 0 19.5 4.5t20.5 21.5l359 530l360 -531q17 -25 39 -25h148
q14 0 24 11.5t-3 31.5l-458 670z" />
    <glyph glyph-name="Y" unicode="Y" horiz-adv-x="1200" 
d="M498 37q0 -17 8 -27t25 -10h120q33 0 33 37v566l465 779q11 18 2 30.5t-24 12.5h-150q-11 0 -19.5 -5.5t-17.5 -21.5l-352 -609l-354 611q-9 16 -17.5 21.5t-19.5 5.5h-148q-15 0 -24 -11.5t2 -30.5l471 -785v-563z" />
    <glyph glyph-name="Z" unicode="Z" horiz-adv-x="1309" 
d="M116 1427q-17 0 -26.5 -7.5t-9.5 -23.5v-124q0 -16 9.5 -23.5t26.5 -7.5l874 1l-919 -1064q-8 -9 -8 -24v-123q0 -31 32 -31h1111q33 0 33 31v126q0 31 -33 31h-882l907 1058q9 13 9 25v126q0 32 -32 32z" />
    <glyph glyph-name="bar" unicode="|" horiz-adv-x="482" 
d="M148 -255q0 -34 33 -34h119q32 0 32 34v1798q0 34 -32 34h-119q-33 0 -33 -34v-1798z" />
    <glyph glyph-name="brokenbar" unicode="&#xa6;" horiz-adv-x="574" 
d="M196 820q0 -33 33 -33h119q32 0 32 33v730q0 34 -32 34h-119q-33 0 -33 -34v-730zM196 -244q0 -34 33 -34h119q32 0 32 34v730q0 33 -32 33h-119q-33 0 -33 -33v-730z" />
    <glyph glyph-name="bracketleft" unicode="[" horiz-adv-x="520" 
d="M154 -175q0 -34 31 -34h304q12 0 21 8t9 20v128q0 14 -8.5 21.5t-20.5 7.5h-142v1483h141q12 0 21 8t9 20v138q0 14 -8.5 21.5t-20.5 7.5h-303q-15 0 -24 -8t-9 -25v-1796z" />
    <glyph glyph-name="bracketright" unicode="]" horiz-adv-x="520" 
d="M378.977 -175q0 -34 -30.998 -34h-303.981q-11.999 0 -20.998 8q-9 8 -9 20v128q0 14 8.5 21.5q8.49902 7.5 20.498 7.5h141.991v1483h-140.991q-11.999 0 -20.998 8q-9 8 -9 20v138q0 14 8.5 21.5q8.49902 7.5 20.498 7.5h302.981q14.999 0 23.999 -8
q8.99902 -8 8.99902 -25v-1796z" />
    <glyph glyph-name="braceleft" unicode="{" horiz-adv-x="756" 
d="M137 648q0 -15 8 -21.5t19 -7.5h7q23 0 47 -3t43.5 -17t32.5 -44t13 -83v-303q0 -91 23.5 -154.5t60.5 -105t81.5 -64.5t86.5 -34t76.5 -13.5t49.5 -2.5q12 0 20.5 7.5t8.5 21.5v131q0 14 -11 20.5t-23 6.5q-15 0 -46.5 3.5t-64 21t-57 54.5t-24.5 104v349
q0 67 -24 113.5t-59 78.5q35 32 59 79t24 114v349q0 96 53.5 139.5t142.5 43.5q12 0 21 8t9 20v130q0 14 -8.5 21.5t-20.5 7.5q-15 0 -49.5 -2.5t-76.5 -13.5t-86.5 -34t-81.5 -64.5t-60.5 -105t-23.5 -154.5v-303q0 -53 -13 -82.5t-32.5 -44t-43.5 -17.5t-47 -3h-4
q-11 0 -20.5 -6.5t-9.5 -21.5v-118z" />
    <glyph glyph-name="underscore" unicode="_" horiz-adv-x="1254" 
d="M157 -132q0 -16 10 -22.5t21 -6.5h912q13 0 21.5 8.5t8.5 19.5v105q0 14 -8 21t-21 7h-912q-14 0 -23 -7.5t-9 -21.5v-103z" />
    <glyph glyph-name="endash" unicode="&#x2013;" horiz-adv-x="1288" 
d="M161 526q0 -16 9.5 -23t22.5 -7h906q14 0 22.5 8.5t8.5 20.5v122q0 16 -8 23.5t-22 7.5h-907q-13 0 -22.5 -7.5t-9.5 -23.5v-121z" />
    <glyph glyph-name="bullet" unicode="&#x2022;" horiz-adv-x="434" 
d="M111 518q0 -24 9.5 -46t25.5 -38t37.5 -25.5t46.5 -9.5t46.5 9.5t37.5 25.5t25.5 38t9.5 46q0 25 -9.5 46.5t-25.5 37.5t-37.5 25.5t-46.5 9.5t-46.5 -9.5t-37.5 -25.5t-25.5 -37.5t-9.5 -46.5z" />
    <glyph glyph-name="asciicircum" unicode="^" horiz-adv-x="937" 
d="M106 1147q-14 -14 -16 -31.5t15 -34.5l50 -50q14 -13 30 -13q18 0 36 15l226 227l224 -225q16 -16 36 -16q18 0 32 14l52 51q30 34 -3 68l-307 306q-16 18 -32 18t-33 -18z" />
    <glyph glyph-name="backslash" unicode="\" horiz-adv-x="893" 
d="M626 28q7 -17 17 -22.5t21 -5.5h131q14 0 24 10t2 30l-567 1357q-7 17 -16.5 23t-20.5 6h-141q-15 0 -24 -10.5t-1 -30.5z" />
    <glyph glyph-name="asciitilde" unicode="~" horiz-adv-x="1265" 
d="M205 467q10 12 19.5 23t20 19.5t24 13.5t31.5 5q26 0 51 -14t52 -30.5t56 -30.5t62 -14q55 0 100.5 27.5t82.5 80.5q7 9 9 20t-10 23l-36 37q-10 9 -23 9q-17 0 -33 -20q-17 -20 -36.5 -38t-48.5 -18q-24 0 -50.5 14t-55 30.5t-59 30.5t-62.5 14q-51 0 -93.5 -26
t-80.5 -74q-14 -19 -16.5 -28t14.5 -25l27 -26q7 -6 15.5 -10.5t16.5 -4.5q14 0 23 12z" />
    <glyph glyph-name="braceright" unicode="}" horiz-adv-x="726" 
d="M600.963 648q0 -15 -7.99902 -21.5q-8 -6.5 -18.999 -7.5h-6.99902q-22.999 0 -46.9971 -3q-23.999 -3 -43.498 -17t-32.498 -44t-12.999 -83v-303q0 -91 -23.498 -154.5q-23.499 -63.5 -60.4971 -105q-36.9971 -41.5 -81.4951 -64.5q-44.4971 -23 -86.4941 -34
q-41.998 -11 -76.4951 -13.5q-34.498 -2.5 -49.4971 -2.5q-12 0 -20.499 7.5q-8.5 7.5 -8.5 21.5v131q0 14 11 20.5q10.999 6.5 22.998 6.5q14.999 0 46.4971 3.5q31.499 3.5 63.9961 21q32.498 17.5 56.9971 54.5q24.498 37 24.498 104v349q0 67 23.999 113.5
q23.998 46.5 58.9961 78.5q-34.998 32 -58.9961 79q-23.999 47 -23.999 114v349q0 96 -53.4961 139.5q-53.4971 43.5 -142.491 43.5q-12 0 -20.999 8q-9 8 -9 20v130q0 14 8.5 21.5q8.49902 7.5 20.499 7.5q14.999 0 49.4971 -2.5q34.4971 -2.5 76.4951 -13.5
q41.9971 -11 86.4941 -34q44.498 -23 81.4951 -64.5q36.998 -41.5 60.4971 -105q23.498 -63.5 23.498 -154.5v-303q0 -53 12.999 -82.5t32.498 -44t43.498 -17.5q23.998 -3 46.9971 -3h3.99902q11 0 20.499 -6.5t9.49902 -21.5v-118z" />
    <glyph glyph-name="Euro" unicode="&#x20ac;" horiz-adv-x="1480" 
d="M120 938q-45 0 -45 -42v-100q0 -44 45 -44h30q-1 -11 -1 -20.5v-20.5q0 -19 1 -37.5t3 -36.5h-33q-45 0 -45 -42v-99q0 -44 45 -44h75q39 -104 106.5 -191t157 -149.5t196.5 -97.5t225 -35q125 0 234 37t199 102q23 14 23 37q0 10 -6 23l-55 90q-16 24 -32 24
q-11 0 -30 -11q-99 -63 -178.5 -88.5t-159.5 -25.5q-76 0 -147 20t-133.5 57t-113.5 90t-86 118h348q19 0 30.5 13.5t11.5 30.5v99q0 21 -12.5 31.5t-29.5 10.5h-406q-2 17 -3 35t-1 36v22t2 22h408q19 0 30.5 13.5t11.5 30.5v100q0 20 -12.5 31t-29.5 11h-358
q33 69 85 127.5t119 101t147 66.5t169 24q85 -5 161 -31t145 -75q11 -8 19 -11t15 -3q18 0 34 23l51 84q7 11 7 23q0 21 -24 39q-95 68 -203 103.5t-228 35.5q-122 0 -233 -38t-202.5 -105.5t-159 -160.5t-103.5 -203h-64z" />
    <glyph glyph-name="E" unicode="E" horiz-adv-x="1233" 
d="M156 34q0 -34 33 -34h939q17 0 26.5 8.5t9.5 25.5v122q0 17 -9.5 25t-26.5 8h-786v470h609q17 0 28 8t11 25v118q0 17 -11 25.5t-28 8.5h-609v396h787q17 0 26.5 8.5t9.5 25.5v120q0 17 -9.5 25t-26.5 8h-940q-33 0 -33 -33v-1360z" />
    <glyph glyph-name="ellipsis" unicode="&#x2026;" horiz-adv-x="1225" 
d="M896 26q0 -14 9 -20t15 -6h135q8 0 16.5 6.5t8.5 20.5v127q0 8 -5 18.5t-22 10.5h-130q-12 0 -19.5 -7t-7.5 -21v-129zM536 26q0 -14 9 -20t15 -6h135q8 0 16.5 6.5t8.5 20.5v127q0 8 -5 18.5t-22 10.5h-130q-12 0 -19.5 -7t-7.5 -21v-129zM173 26q0 -14 9 -20t15 -6h135
q8 0 16.5 6.5t8.5 20.5v127q0 8 -5 18.5t-22 10.5h-130q-12 0 -19.5 -7t-7.5 -21v-129z" />
    <glyph glyph-name="quoteleft" unicode="&#x2018;" horiz-adv-x="457" 
d="M341 1193q0 33 -29 33h-32q-13 0 -13 17q0 7 1.5 21t8 32.5t18.5 39.5t33 42q6 6 9.5 15t-7.5 18l-34 32q-7 7 -16 7q-10 0 -20 -10q-49 -49 -74.5 -107.5t-25.5 -146.5v-108q0 -33 30 -33h120q31 0 31 34v114z" />
    <glyph glyph-name="quoteright" unicode="&#x2019;" horiz-adv-x="451" 
d="M170.989 -1202.93q0 -32.998 28.999 -32.998h31.998q12.999 0 12.999 -16.999q0 -6.99902 -1.5 -20.998q-1.5 -14 -8 -32.498q-6.49902 -18.499 -18.499 -39.498q-11.999 -20.999 -32.998 -41.9971q-5.99902 -6 -9.49902 -14.999q-3.5 -9 7.5 -17.999l33.9971 -31.998
q7 -7 16 -7q9.99902 0 19.998 10q48.9971 48.9971 74.4961 107.493q25.498 58.4961 25.498 146.491v107.993q0 32.998 -29.998 32.998h-119.993q-30.998 0 -30.998 -33.998v-113.993z" />
    <glyph glyph-name="quotedblleft" unicode="&#x201c;" horiz-adv-x="753" 
d="M341 1214q0 33 -29 33h-32q-13 0 -13 17q0 7 1.5 21t8 32.5t18.5 39.5t33 42q6 6 9.5 15t-7.5 18l-34 32q-7 7 -16 7q-10 0 -20 -10q-49 -49 -74.5 -107.5t-25.5 -146.5v-108q0 -33 30 -33h120q31 0 31 34v114zM56 1213q0 33 -29 33h-32q-13 0 -13 17q0 7 1.5 21t8 32.5
t18.5 39.5t33 42q6 6 9.5 15t-7.5 18l-34 32q-7 7 -16 7q-10 0 -20 -10q-49 -49 -74.5 -107.5t-25.5 -146.5v-108q0 -33 30 -33h120q31 0 31 34v114z" />
    <glyph glyph-name="quotedblright" unicode="&#x201d;" horiz-adv-x="741" 
d="M143.991 -1201.93q0 -32.998 28.998 -32.998h31.998q12.999 0 12.999 -16.999q0 -6.99902 -1.5 -20.998q-1.49902 -14 -7.99902 -32.498q-6.5 -18.499 -18.499 -39.498t-32.998 -41.9971q-5.99902 -6 -9.49902 -14.999q-3.5 -9 7.49902 -17.999l33.998 -31.998
q7 -7 15.999 -7q10 0 19.999 10q48.9971 48.9971 74.4951 107.493q25.499 58.4961 25.499 146.491v107.993q0 32.998 -29.998 32.998h-119.993q-30.998 0 -30.998 -33.998v-113.993zM-140.991 -1201.93q0 -32.998 28.998 -32.998h31.998q12.999 0 12.999 -16.999
q0 -6.99902 -1.5 -20.998q-1.5 -14 -7.99902 -32.498q-6.5 -18.499 -18.499 -39.498t-32.998 -41.9971q-6 -6 -9.49902 -14.999q-3.5 -9 7.49902 -17.999l33.998 -31.998q7 -7 15.999 -7q9.99902 0 19.999 10q48.9971 48.9971 74.4951 107.493
q25.499 58.4961 25.499 146.491v107.993q0 32.998 -29.999 32.998h-119.992q-30.998 0 -30.998 -33.998v-113.993z" />
    <glyph glyph-name="sterling" unicode="&#xa3;" horiz-adv-x="1231" 
d="M346 957q0 89 35 150t88.5 98t117 53t120.5 16q34 0 69.5 -7t69.5 -19t63.5 -28t50.5 -35q14 -12 28 -12q17 0 30 20l50 84q5 10 3 19t-7.5 16.5t-13 14t-12.5 10.5q-63 50 -151.5 82t-193.5 32q-95 0 -190 -33t-171 -95.5t-123.5 -152.5t-47.5 -203v-217h-44
q-14 0 -22.5 -7.5t-8.5 -21.5v-125q0 -15 10 -21.5t21 -6.5h44v-534q0 -34 33 -34h841q17 0 27 8.5t10 25.5v117q0 17 -10 25t-27 8h-689v384h241q13 0 21.5 8t8.5 19v126q0 14 -8 21.5t-21 7.5h-242v207z" />
    <glyph glyph-name="cent" unicode="&#xa2;" horiz-adv-x="1219" 
d="M760 -205q15 0 21.5 10t6.5 21v160q87 12 165.5 47.5t137.5 86.5q28 22 7 50l-57 83q-7 10 -21 10q-13 0 -24 -8q-57 -47 -133.5 -77t-164.5 -30q-94 0 -176 35t-143 97t-96 146t-35 182q0 95 36 179.5t98.5 147.5t146 100t178.5 37q76 0 149 -27t145 -80q10 -7 21 -7
q17 0 22 11l57 88q4 6 5.5 17t-13.5 24q-71 55 -145 89t-160 45v165q0 12 -8 20.5t-19 8.5h-130q-14 0 -21.5 -8t-7.5 -21v-167q-109 -18 -205.5 -72.5t-169 -136t-114.5 -187t-42 -225.5q0 -121 40.5 -226.5t112 -188t168.5 -136.5t210 -71v-160q0 -14 7.5 -23t21.5 -9h129
z" />
    <glyph glyph-name="dagger" unicode="&#x2020;" horiz-adv-x="820" 
d="M54 490q0 -15 9.5 -21.5t20.5 -6.5h250v-826q0 -14 7.5 -24t24.5 -10h106q33 0 33 34v826h221q12 0 21 8t9 20v124q0 14 -8.5 21.5t-20.5 7.5h-222v778q0 17 -9 26t-23 9h-106q-33 0 -33 -35v-778h-249q-14 0 -22.5 -7.5t-8.5 -21.5v-124z" />
    <glyph glyph-name="daggerdbl" unicode="&#x2021;" horiz-adv-x="849" 
d="M515 830v587q0 20 -14 31t-31 11h-99q-20 0 -31.5 -12.5t-11.5 -29.5v-587h-217q-42 0 -42 -42v-98q0 -46 42 -46h217v-230h-217q-42 0 -42 -42v-97q0 -47 42 -47h217v-587q0 -42 43 -42h99q45 0 45 42v587h219q19 0 31 15t12 32v97q0 20 -13 31t-30 11h-219v230h219
q19 0 31 14.5t12 31.5v98q0 20 -13 31t-30 11h-219z" />
    <glyph glyph-name="florin" unicode="&#x192;" horiz-adv-x="735" 
d="M151 -366q77 12 135 47.5t96.5 89.5t58 124t19.5 151v758h162q42 0 42 48v86q0 42 -42 42h-162v116q0 33 12.5 63t34.5 53t51.5 37t63.5 14q17 0 29.5 13.5t12.5 32.5v97q0 43 -42 43l-40 -6q-64 -11 -120 -41t-98 -75.5t-66 -104t-24 -126.5v-116h-123q-43 0 -43 -42
v-86q0 -48 43 -48h123v-823q0 -33 -13 -63t-35.5 -53t-52 -37t-62.5 -14q-18 0 -30 -12t-12 -32v-99q0 -40 42 -43z" />
    <glyph glyph-name="trademark" unicode="&#x2122;" horiz-adv-x="1313" 
d="M120 1427q-14 0 -19 -7t-5 -17v-41q0 -12 5 -18.5t19 -6.5h151v-473q0 -25 25 -25h44q11 0 18 5.5t7 20.5v472h149q11 0 18.5 6t7.5 17v44q0 23 -26 23h-394zM1143 1397q-1 14 -9 21t-16 7h-50q-19 0 -26.5 -5.5t-10.5 -13.5l-158 -364l-147 367q-5 14 -24 14h-59
q-10 0 -17 -6.5t-8 -20.5l-36 -532q-1 -10 6 -16.5t18 -6.5h42q9 0 16 4t8 17l29 371l138 -350q7 -19 23 -19h26q8 0 13 5.5t9 13.5l149 356l30 -374q2 -12 9 -17t17 -5h42q11 0 17 6.5t4 18.5z" />
    <glyph glyph-name="yen" unicode="&#xa5;" horiz-adv-x="1236" 
d="M505 458h-225q-13 0 -22.5 -7.5t-9.5 -23.5v-90q0 -16 9.5 -23t22.5 -7h225v-270q0 -37 33 -37h120q33 0 33 37v270h253q14 0 22.5 8.5t8.5 20.5v92q0 16 -8 23t-21 7h-255v102h253q14 0 22.5 8.5t8.5 20.5v92q0 16 -8 23t-21 7h-212l427 673q10 19 1 29.5t-23 12.5
l-140 1q-15 0 -23 -7.5t-14 -20.5l-364 -617l-352 617q-6 12 -14 20t-23 8l-140 -1q-14 -2 -23.5 -12.5t1.5 -29.5l416 -673h-183q-13 0 -22.5 -7.5t-9.5 -23.5v-90q0 -16 9.5 -23t22.5 -7h225v-102z" />
    <glyph glyph-name="emdash" unicode="&#x2014;" horiz-adv-x="1605" 
d="M152 511q0 -17 11.5 -25.5t25.5 -8.5h1210q16 0 26 10t10 24v119q0 17 -9 26t-24 9h-1213q-14 0 -25.5 -9t-11.5 -28v-117z" />
    <glyph glyph-name="guilsinglright" unicode="&#x203a;" horiz-adv-x="831" 
d="M768 532q0 -5 -2 -8.5t-8 -9.5l-512 -509q-12 -12 -27 -12q-10 0 -17 7l-62 61q-10 10 -10.5 24t10.5 25l428 422l-428 426q-11 11 -10.5 25t10.5 24l62 60q7 7 17 7q16 0 27 -11l512 -512q6 -6 8 -9.5t2 -9.5z" />
    <glyph glyph-name="N" unicode="N" horiz-adv-x="1516" 
d="M1160 28q12 -17 23.5 -22.5t22.5 -5.5h120q35 0 35 37v1355q0 16 -10.5 25t-24.5 9h-111q-17 0 -26 -9.5t-9 -24.5v-1078l-815 1083q-11 16 -23 22.5t-23 6.5h-131q-17 0 -25.5 -10.5t-8.5 -23.5v-1355q0 -37 34 -37h111q35 0 35 37v1113z" />
    <glyph glyph-name="Zcaron" unicode="&#x17d;" horiz-adv-x="1309" 
d="M116 1427q-17 0 -26.5 -7.5t-9.5 -23.5v-124q0 -16 9.5 -23.5t26.5 -7.5l874 1l-919 -1064q-8 -9 -8 -24v-123q0 -31 32 -31h1111q33 0 33 31v126q0 31 -33 31h-882l907 1058q9 13 9 25v126q0 32 -32 32zM932 1797q11 11 14.5 22t-9.5 24l-46 44q-8 8 -18 8
q-11 0 -25 -14l-167 -167l-169 170q-10 12 -21 12q-10 0 -20 -10l-46 -45q-13 -13 -11 -21t13 -19l230 -232q10 -10 16.5 -11t8.5 -1q8 0 14 4t10 8z" />
    <glyph glyph-name="exclamdown" unicode="&#xa1;" horiz-adv-x="472" 
d="M155 799q0 16 8.5 25.5t25.5 9.5h118q32 0 32 -36v-1123q0 -36 -33 -36h-117q-16 0 -25 9.5t-9 26.5v1124zM154 1197q0 15 9 20.5t17 5.5h134q8 0 17 -5t9 -21v-132q0 -8 -4.5 -17.5t-21.5 -9.5h-134q-11 0 -18.5 7t-7.5 21v131z" />
    <glyph glyph-name="Ecircumflex" unicode="&#xca;" horiz-adv-x="1233" 
d="M156 34q0 -34 33 -34h939q17 0 26.5 8.5t9.5 25.5v122q0 17 -9.5 25t-26.5 8h-786v470h609q17 0 28 8t11 25v118q0 17 -11 25.5t-28 8.5h-609v396h787q17 0 26.5 8.5t9.5 25.5v120q0 17 -9.5 25t-26.5 8h-940q-33 0 -33 -33v-1360zM255.828 1376.61
q-10.2627 -10.252 -11.7285 -23.0664q-1.46582 -12.8135 10.9961 -25.2617l36.6514 -36.6123q10.2627 -9.51855 21.9912 -9.51855q13.1943 0 26.3887 10.9834l165.665 166.218l164.199 -164.754q11.7285 -11.7148 26.3896 -11.7148q13.1943 0 23.457 10.251l38.1172 37.3438
q21.9912 24.8965 -2.19922 49.793l-225.041 224.064q-11.7285 13.1807 -23.457 13.1807t-24.1895 -13.1807z" />
    <glyph glyph-name="Edieresis" unicode="&#xcb;" horiz-adv-x="1233" 
d="M156 34q0 -34 33 -34h939q17 0 26.5 8.5t9.5 25.5v122q0 17 -9.5 25t-26.5 8h-786v470h609q17 0 28 8t11 25v118q0 17 -11 25.5t-28 8.5h-609v396h787q17 0 26.5 8.5t9.5 25.5v120q0 17 -9.5 25t-26.5 8h-940q-33 0 -33 -33v-1360zM396 1620q0 -38 40 -38h105q17 0 27 8
t10 31v102q0 20 -8.5 31t-28.5 11h-106q-22 0 -30.5 -11.5t-8.5 -28.5v-105zM776 1620q0 -38 40 -38h105q17 0 27 8t10 31v102q0 20 -8.5 31t-28.5 11h-106q-22 0 -30.5 -11.5t-8.5 -28.5v-105z" />
    <glyph glyph-name="Igrave" unicode="&#xcc;" horiz-adv-x="495" 
d="M154 37q0 -37 33 -37h120q33 0 33 37v1354q0 17 -8 26.5t-25 9.5h-120q-16 0 -24.5 -9.5t-8.5 -26.5v-1354zM151 1585q10 -20 19 -25t21 -5h91q13 1 24.5 11.5t1.5 33.5l-105 223q-8 18 -17 23.5t-22 5.5h-102q-15 0 -24.5 -14t0.5 -33z" />
    <glyph glyph-name="Iacute" unicode="&#xcd;" horiz-adv-x="495" 
d="M154 37q0 -37 33 -37h120q33 0 33 37v1354q0 17 -8 26.5t-25 9.5h-120q-16 0 -24.5 -9.5t-8.5 -26.5v-1354zM455 1810q9 19 -0.5 33t-24.5 15h-101q-13 0 -22 -6t-17 -24l-105 -222q-11 -23 0.5 -34t24.5 -11h102q11 0 20 4.5t19 24.5z" />
    <glyph glyph-name="Icircumflex" unicode="&#xce;" horiz-adv-x="495" 
d="M154 37q0 -37 33 -37h120q33 0 33 37v1354q0 17 -8 26.5t-25 9.5h-120q-16 0 -24.5 -9.5t-8.5 -26.5v-1354zM36.6514 1373.68q-10.2627 -10.251 -11.7285 -23.0654t10.9961 -25.2617l36.6514 -36.6123q10.2627 -9.51953 21.9912 -9.51953q13.1943 0 26.3887 10.9844
l165.665 166.218l164.199 -164.754q11.7285 -11.7158 26.3896 -11.7158q13.1943 0 23.457 10.252l38.1172 37.3438q21.9912 24.8965 -2.19824 49.792l-225.041 224.065q-11.7285 13.1807 -23.457 13.1807t-24.1904 -13.1807z" />
    <glyph glyph-name="Idieresis" unicode="&#xcf;" horiz-adv-x="495" 
d="M154 37q0 -37 33 -37h120q33 0 33 37v1354q0 17 -8 26.5t-25 9.5h-120q-16 0 -24.5 -9.5t-8.5 -26.5v-1354zM-27 1617q0 -38 40 -38h105q17 0 27 8t10 31v102q0 20 -8.5 31t-28.5 11h-106q-22 0 -30.5 -11.5t-8.5 -28.5v-105zM353 1617q0 -38 40 -38h105q17 0 27 8t10 31
v102q0 20 -8.5 31t-28.5 11h-106q-22 0 -30.5 -11.5t-8.5 -28.5v-105z" />
    <glyph glyph-name="Ntilde" unicode="&#xd1;" horiz-adv-x="1516" 
d="M1160 28q12 -17 23.5 -22.5t22.5 -5.5h120q35 0 35 37v1355q0 16 -10.5 25t-24.5 9h-111q-17 0 -26 -9.5t-9 -24.5v-1078l-815 1083q-11 16 -23 22.5t-23 6.5h-131q-17 0 -25.5 -10.5t-8.5 -23.5v-1355q0 -37 34 -37h111q35 0 35 37v1113zM586 1583q10 12 19.5 23
t20 19.5t24 13.5t31.5 5q26 0 51 -14t52 -30.5t56 -30.5t62 -14q55 0 100.5 27.5t82.5 80.5q7 9 9 20t-10 23l-36 37q-10 9 -23 9q-17 0 -33 -20q-17 -20 -36.5 -38t-48.5 -18q-24 0 -50.5 14t-55 30.5t-59 30.5t-62.5 14q-51 0 -93.5 -26t-80.5 -74q-14 -19 -16.5 -28
t14.5 -25l27 -26q7 -6 15.5 -10.5t16.5 -4.5q14 0 23 12z" />
    <glyph glyph-name="Ucircumflex" unicode="&#xdb;" horiz-adv-x="1444" 
d="M320 1392q0 15 -6.5 25t-25.5 10h-122q-15 0 -23.5 -10t-8.5 -25v-826q0 -140 48 -249.5t130 -185t190.5 -115t229.5 -39.5t226 39t183 113.5t123 183t45 248.5v830q0 14 -9 25t-26 11h-117q-17 0 -25.5 -10.5t-8.5 -25.5v-817q0 -91 -29.5 -167.5t-81.5 -132t-124 -86.5
t-156 -31t-158.5 30t-131 85t-89.5 131.5t-33 170.5v818zM302.742 1374.41q-10.2627 -10.251 -11.7285 -23.0654t10.9961 -25.2627l36.6514 -36.6113q10.2627 -9.51953 21.9912 -9.51953q13.1943 0 26.3887 10.9834l165.665 166.219l164.199 -164.754
q11.7285 -11.7158 26.3896 -11.7158q13.1943 0 23.457 10.251l38.1172 37.3447q21.9912 24.8965 -2.19922 49.792l-225.041 224.065q-11.7285 13.1797 -23.457 13.1797t-24.1895 -13.1797z" />
    <glyph glyph-name="Udieresis" unicode="&#xdc;" horiz-adv-x="1444" 
d="M320 1392q0 15 -6.5 25t-25.5 10h-122q-15 0 -23.5 -10t-8.5 -25v-826q0 -140 48 -249.5t130 -185t190.5 -115t229.5 -39.5t226 39t183 113.5t123 183t45 248.5v830q0 14 -9 25t-26 11h-117q-17 0 -25.5 -10.5t-8.5 -25.5v-817q0 -91 -29.5 -167.5t-81.5 -132t-124 -86.5
t-156 -31t-158.5 30t-131 85t-89.5 131.5t-33 170.5v818zM454 1608q0 -38 40 -38h105q17 0 27 8t10 31v102q0 20 -8.5 31t-28.5 11h-106q-22 0 -30.5 -11.5t-8.5 -28.5v-105zM834 1608q0 -38 40 -38h105q17 0 27 8t10 31v102q0 20 -8.5 31t-28.5 11h-106q-22 0 -30.5 -11.5
t-8.5 -28.5v-105z" />
    <glyph glyph-name="icircumflex" unicode="&#xee;" horiz-adv-x="495" 
d="M154 36q0 -36 34 -36h118q34 0 34 36v1155q0 16 -9 25.5t-25 9.5h-118q-15 0 -24.5 -9t-9.5 -26v-1155zM40.3164 1267.5q-10.2617 -10.251 -11.7285 -23.0654q-1.46582 -12.8135 10.9961 -25.2617l36.6514 -36.6123q10.2627 -9.51855 21.9912 -9.51855
q13.1943 0 26.3887 10.9834l165.666 166.218l164.199 -164.754q11.7285 -11.7158 26.3887 -11.7158q13.1943 0 23.457 10.252l38.1172 37.3438q21.9912 24.8965 -2.19824 49.792l-225.041 224.065q-11.7285 13.1807 -23.457 13.1807t-24.1904 -13.1807z" />
    <glyph glyph-name="idieresis" unicode="&#xef;" horiz-adv-x="495" 
d="M154 36q0 -36 34 -36h118q34 0 34 36v1155q0 16 -9 25.5t-25 9.5h-118q-15 0 -24.5 -9t-9.5 -26v-1155zM-26 1429q0 -38 40 -38h105q17 0 27 8t10 31v102q0 20 -8.5 31t-28.5 11h-106q-22 0 -30.5 -11.5t-8.5 -28.5v-105zM354 1429q0 -38 40 -38h105q17 0 27 8t10 31v102
q0 20 -8.5 31t-28.5 11h-106q-22 0 -30.5 -11.5t-8.5 -28.5v-105z" />
    <glyph glyph-name="mu" unicode="&#xb5;" horiz-adv-x="1260" 
d="M156 -327q0 -43 43 -43h99q17 0 30.5 11.5t13.5 28.5v469q43 -65 118 -103t171 -38q108 0 196.5 39.5t152 108t98.5 160t35 195.5v678q0 42 -43 42h-99q-45 0 -45 -40v-731q0 -55 -26.5 -103.5t-68.5 -84.5t-94.5 -57t-105.5 -21q-52 0 -102.5 20t-91.5 54.5t-67 81
t-28 100.5v691q0 17 -1 33t-5.5 28.5t-13 20.5t-24.5 8h-99q-43 0 -43 -42v-1506z" />
    <glyph glyph-name="periodcentered" unicode="&#xb7;" horiz-adv-x="436" 
d="M125 588q0 -16 9.5 -22t16.5 -6h145q9 0 18 7.5t9 21.5v138q0 8 -5.5 19t-23.5 11h-140q-13 0 -21 -8t-8 -22v-139z" />
    <glyph glyph-name="Ccedilla" unicode="&#xc7;" horiz-adv-x="1365" 
d="M1164 281q-67 -51 -149.5 -84.5t-179.5 -33.5q-115 0 -216 43t-175.5 117t-117.5 175t-43 216q0 116 43 216.5t117.5 174.5t175.5 116.5t216 42.5q97 0 178 -31.5t153 -87.5q13 -10 26 -10q8 0 14.5 3.5t9.5 7.5l70 100q3 5 4 18t-16 27q-88 69 -198 111t-241 42
q-152 0 -286.5 -57t-234.5 -155.5t-158 -231.5t-58 -286q0 -152 58 -285.5t158 -232.5t234.5 -156.5t286.5 -57.5q131 0 241 42t196 111q14 11 17 24t-8 27l-66 97q-10 11 -22 11q-13 0 -29 -13zM729 2q-14 -12 -17 -23.5t-3 -22.5q0 -28 14.5 -49t36 -38.5t46.5 -32
t46.5 -29.5t36 -31.5t14.5 -37.5q0 -30 -38 -54t-123 -46q-8 -2 -11 -10.5t1 -17.5l31 -78q5 -13 19 -13q4 0 10 2q137 40 199 94.5t62 122.5q0 35 -14.5 62t-36.5 47.5t-48 36t-48 29.5t-36.5 27t-14.5 28q0 19 21 34q19 19 5 28t-42 9q-27 0 -59 -9t-51 -28z" />
    <glyph glyph-name="degree" unicode="&#xb0;" horiz-adv-x="624" 
d="M102 1003q0 -45 17 -84t46.5 -68t68.5 -46t83 -17q45 0 84 17t68 46t46 68t17 84q0 44 -17 83.5t-46 68.5t-68 46t-84 17q-44 0 -83 -17t-68.5 -46t-46.5 -68.5t-17 -83.5zM200 1001q0 24 9 45.5t25 37.5t36.5 25t44.5 9q25 0 46.5 -9t37 -24.5t24.5 -37t9 -46.5
q0 -24 -9 -45.5t-25 -37t-37.5 -25t-45.5 -9.5t-44.5 9.5t-36.5 25t-25 37t-9 45.5z" />
    <glyph glyph-name="Ydieresis" unicode="&#x178;" horiz-adv-x="1200" 
d="M498 37q0 -17 8 -27t25 -10h120q33 0 33 37v566l465 779q11 18 2 30.5t-24 12.5h-150q-11 0 -19.5 -5.5t-17.5 -21.5l-352 -609l-354 611q-9 16 -17.5 21.5t-19.5 5.5h-148q-15 0 -24 -11.5t2 -30.5l471 -785v-563zM309 1596q0 -38 40 -38h105q17 0 27 8t10 31v102
q0 20 -8.5 31t-28.5 11h-106q-22 0 -30.5 -11.5t-8.5 -28.5v-105zM689 1596q0 -38 40 -38h105q17 0 27 8t10 31v102q0 20 -8.5 31t-28.5 11h-106q-22 0 -30.5 -11.5t-8.5 -28.5v-105z" />
    <glyph glyph-name="Ccircumflex" unicode="&#x108;" horiz-adv-x="1365" 
d="M1164 281q-67 -51 -149.5 -84.5t-179.5 -33.5q-115 0 -216 43t-175.5 117t-117.5 175t-43 216q0 116 43 216.5t117.5 174.5t175.5 116.5t216 42.5q97 0 178 -31.5t153 -87.5q13 -10 26 -10q8 0 14.5 3.5t9.5 7.5l70 100q3 5 4 18t-16 27q-88 69 -198 111t-241 42
q-152 0 -286.5 -57t-234.5 -155.5t-158 -231.5t-58 -286q0 -152 58 -285.5t158 -232.5t234.5 -156.5t286.5 -57.5q131 0 241 42t196 111q14 11 17 24t-8 27l-66 97q-10 11 -22 11q-13 0 -29 -13zM328.398 1365.62q-10.2627 -10.251 -11.7285 -23.0654
q-1.46582 -12.8135 10.9951 -25.2617l36.6523 -36.6123q10.2617 -9.51953 21.9902 -9.51953q13.1953 0 26.3896 10.9844l165.665 166.218l164.199 -164.754q11.7285 -11.7158 26.3896 -11.7158q13.1943 0 23.457 10.252l38.1172 37.3438q21.9912 24.8965 -2.19922 49.792
l-225.041 224.065q-11.7285 13.1807 -23.457 13.1807t-24.1895 -13.1807z" />
    <glyph glyph-name="Cdotaccent" unicode="&#x10a;" horiz-adv-x="1365" 
d="M1164 281q-67 -51 -149.5 -84.5t-179.5 -33.5q-115 0 -216 43t-175.5 117t-117.5 175t-43 216q0 116 43 216.5t117.5 174.5t175.5 116.5t216 42.5q97 0 178 -31.5t153 -87.5q13 -10 26 -10q8 0 14.5 3.5t9.5 7.5l70 100q3 5 4 18t-16 27q-88 69 -198 111t-241 42
q-152 0 -286.5 -57t-234.5 -155.5t-158 -231.5t-58 -286q0 -152 58 -285.5t158 -232.5t234.5 -156.5t286.5 -57.5q131 0 241 42t196 111q14 11 17 24t-8 27l-66 97q-10 11 -22 11q-13 0 -29 -13zM557 1598q0 -21 10 -29.5t30 -8.5h105q17 0 27 8t10 31v102q0 41 -37 41h-106
q-22 0 -30.5 -11.5t-8.5 -28.5v-104z" />
    <glyph glyph-name="Edotaccent" unicode="&#x116;" horiz-adv-x="1233" 
d="M156 34q0 -34 33 -34h939q17 0 26.5 8.5t9.5 25.5v122q0 17 -9.5 25t-26.5 8h-786v470h609q17 0 28 8t11 25v118q0 17 -11 25.5t-28 8.5h-609v396h787q17 0 26.5 8.5t9.5 25.5v120q0 17 -9.5 25t-26.5 8h-940q-33 0 -33 -33v-1360zM599 1626q0 -21 10 -29.5t30 -8.5h105
q17 0 27 8t10 31v102q0 41 -37 41h-106q-22 0 -30.5 -11.5t-8.5 -28.5v-104z" />
    <glyph glyph-name="Eogonek" unicode="&#x118;" horiz-adv-x="1233" 
d="M156 34q0 -34 33 -34h939q17 0 26.5 8.5t9.5 25.5v122q0 17 -9.5 25t-26.5 8h-786v470h609q17 0 28 8t11 25v118q0 17 -11 25.5t-28 8.5h-609v396h787q17 0 26.5 8.5t9.5 25.5v120q0 17 -9.5 25t-26.5 8h-940q-33 0 -33 -33v-1360zM1210 -252q0 16 -9 24t-20 8h-49
q-11 0 -20 -8.5t-9 -27.5q1 -34 -24 -59.5t-64 -24.5q-25 0 -42 10t-27.5 24.5t-14.5 32t-2 32.5q6 26 24.5 48t38.5 40l157 156q21 23 2 42l-35 35q-9 10 -20 10t-21 -11l-160 -159q-19 -20 -36 -39t-29.5 -39.5t-20 -44t-7.5 -51.5q0 -41 15.5 -76t41.5 -61t62 -41t76 -15
q43 0 78.5 16t61 42.5t39.5 62t14 74.5z" />
    <glyph glyph-name="Hcircumflex" unicode="&#x124;" horiz-adv-x="1516" 
d="M1144 36q0 -36 33 -36h118q34 0 34 36v1356q0 19 -9 27t-23 8h-120q-17 0 -25 -10.5t-8 -25.5v-545h-804v546q0 19 -9.5 27t-22.5 8h-120q-17 0 -25.5 -10.5t-8.5 -25.5v-1355q0 -36 34 -36h117q35 0 35 36v622h804v-622zM310.072 1372.95
q-10.2617 -10.251 -11.7285 -23.0654q-1.46582 -12.8135 10.9961 -25.2617l36.6514 -36.6123q10.2627 -9.51855 21.9912 -9.51855q13.1943 0 26.3887 10.9834l165.666 166.218l164.199 -164.754q11.7285 -11.7158 26.3887 -11.7158q13.1943 0 23.457 10.252l38.1172 37.3438
q21.9912 24.8965 -2.19824 49.793l-225.041 224.064q-11.7285 13.1807 -23.457 13.1807t-24.1904 -13.1807z" />
    <glyph glyph-name="Ibreve" unicode="&#x12c;" horiz-adv-x="495" 
d="M154 37q0 -37 33 -37h120q33 0 33 37v1354q0 17 -8 26.5t-25 9.5h-120q-16 0 -24.5 -9.5t-8.5 -26.5v-1354zM248 1547q57 1 106 21t85 53.5t57 77t21 89.5q0 17 -11 26.5t-26 9.5h-79q-17 0 -25.5 -10.5t-8.5 -25.5q0 -18 -7.5 -36.5t-22.5 -34.5t-36 -26t-48 -10
q-30 0 -52.5 10t-37 25.5t-21.5 34.5t-7 37q0 15 -10 25.5t-27 10.5h-77q-15 0 -26 -9.5t-11 -26.5q0 -46 20 -88.5t55.5 -76t84 -54t104.5 -22.5z" />
    <glyph glyph-name="Itilde" unicode="&#x128;" horiz-adv-x="495" 
d="M154 37q0 -37 33 -37h120q33 0 33 37v1354q0 17 -8 26.5t-25 9.5h-120q-16 0 -24.5 -9.5t-8.5 -26.5v-1354zM27 1592q10 12 19.5 23t20 19.5t24 13.5t31.5 5q26 0 51 -14t52 -30.5t56 -30.5t62 -14q55 0 100.5 27.5t82.5 80.5q7 9 9 20t-10 23l-36 37q-10 9 -23 9
q-17 0 -33 -20q-17 -20 -36.5 -38t-48.5 -18q-24 0 -50.5 14t-55 30.5t-59 30.5t-62.5 14q-51 0 -93.5 -26t-80.5 -74q-14 -19 -16.5 -28t14.5 -25l27 -26q7 -6 15.5 -10.5t16.5 -4.5q14 0 23 12z" />
    <glyph glyph-name="IJ" unicode="&#x132;" horiz-adv-x="989" 
d="M167 37q0 -37 33 -37h120q33 0 33 37v1354q0 17 -8 26.5t-25 9.5h-120q-16 0 -24.5 -9.5t-8.5 -26.5v-1354zM645 15q0 -37 -15.5 -72.5t-43 -63t-65.5 -44.5t-83 -17q-59 0 -95.5 18.5t-59.5 41.5q-7 6 -15 12.5t-18 6.5q-12 0 -24 -11l-70 -65q-8 -8 -8.5 -17t3 -18
t9 -17t9.5 -12q25 -29 57.5 -51t69 -36t75 -21t76.5 -7q75 0 141 26.5t117 72t83 106t39 128.5q3 66 3 136v1276q0 20 -8 30t-28 10h-116q-12 0 -22.5 -8t-10.5 -28v-1376z" />
    <glyph glyph-name="Jcircumflex" unicode="&#x134;" horiz-adv-x="501" 
d="M163 15q0 -37 -15.5 -72.5t-43 -63t-65.5 -44.5t-83 -17q-59 0 -95.5 18.5t-59.5 41.5q-7 6 -15 12.5t-18 6.5q-12 0 -24 -11l-70 -65q-8 -8 -8.5 -17t3 -18t9 -17t9.5 -12q25 -29 57.5 -51t69 -36t75 -21t76.5 -7q75 0 141 26.5t117 72t83 106t39 128.5q3 66 3 136v1276
q0 20 -8 30t-28 10h-116q-12 0 -22.5 -8t-10.5 -28v-1376zM41.0498 1370.75q-10.2627 -10.251 -11.7285 -23.0654t10.9951 -25.2627l36.6523 -36.6113q10.2617 -9.51953 21.9902 -9.51953q13.1953 0 26.3896 10.9834l165.665 166.219l164.199 -164.754
q11.7285 -11.7158 26.3896 -11.7158q13.1943 0 23.457 10.251l38.1172 37.3447q21.9912 24.8955 -2.19922 49.792l-225.041 224.065q-11.7285 13.1797 -23.457 13.1797t-24.1895 -13.1797z" />
    <glyph glyph-name="Scedilla" unicode="&#x15e;" horiz-adv-x="1277" 
d="M128 221q49 -56 109.5 -100.5t126 -75.5t134 -47.5t134.5 -16.5q114 0 214 28t174.5 83t117.5 136t43 186q0 101 -46.5 169t-120 115t-165 78t-181.5 58q-61 18 -118.5 37t-102 45t-71.5 62.5t-27 89.5q0 59 28.5 97.5t72 61t95.5 32t98 9.5q51 0 97.5 -13.5t88 -34.5
t77.5 -47t65 -51q11 -10 21 -16.5t21 -6.5q10 0 22 9l73 72q14 15 13 30t-14 29q-43 47 -96 84.5t-112.5 64t-124 41t-130.5 14.5q-116 0 -206.5 -29t-153 -80t-95 -119.5t-32.5 -148.5q0 -79 26.5 -138.5t81 -105.5t139 -82.5t201.5 -69.5q34 -9 75.5 -20.5t84.5 -26
t84 -33.5t73 -44.5t51.5 -58t19.5 -74.5q0 -68 -33 -116t-83.5 -78.5t-110 -44.5t-112.5 -14q-60 0 -116 15.5t-106 41t-93 59t-76 70.5q-20 20 -36 20q-12 0 -21 -8l-85 -75q-17 -17 -11 -32.5t18 -29.5zM562 5q-14 -12 -17 -23.5t-3 -22.5q0 -28 14.5 -49t36 -38.5
t46.5 -32t46.5 -29.5t36 -31.5t14.5 -37.5q0 -30 -38 -54t-123 -46q-8 -2 -11 -10.5t1 -17.5l31 -78q5 -13 19 -13q4 0 10 2q137 40 199 94.5t62 122.5q0 35 -14.5 62t-36.5 47.5t-48 36t-48 29.5t-36.5 27t-14.5 28q0 19 21 34q19 19 5 28t-42 9q-27 0 -59 -9t-51 -28z" />
    <glyph glyph-name="Scircumflex" unicode="&#x15c;" horiz-adv-x="1277" 
d="M128 221q49 -56 109.5 -100.5t126 -75.5t134 -47.5t134.5 -16.5q114 0 214 28t174.5 83t117.5 136t43 186q0 101 -46.5 169t-120 115t-165 78t-181.5 58q-61 18 -118.5 37t-102 45t-71.5 62.5t-27 89.5q0 59 28.5 97.5t72 61t95.5 32t98 9.5q51 0 97.5 -13.5t88 -34.5
t77.5 -47t65 -51q11 -10 21 -16.5t21 -6.5q10 0 22 9l73 72q14 15 13 30t-14 29q-43 47 -96 84.5t-112.5 64t-124 41t-130.5 14.5q-116 0 -206.5 -29t-153 -80t-95 -119.5t-32.5 -148.5q0 -79 26.5 -138.5t81 -105.5t139 -82.5t201.5 -69.5q34 -9 75.5 -20.5t84.5 -26
t84 -33.5t73 -44.5t51.5 -58t19.5 -74.5q0 -68 -33 -116t-83.5 -78.5t-110 -44.5t-112.5 -14q-60 0 -116 15.5t-106 41t-93 59t-76 70.5q-20 20 -36 20q-12 0 -21 -8l-85 -75q-17 -17 -11 -32.5t18 -29.5zM278.553 1370.02q-10.2627 -10.251 -11.7285 -23.0654
q-1.4668 -12.8145 10.9951 -25.2617l36.6514 -36.6123q10.2627 -9.51953 21.9912 -9.51953q13.1943 0 26.3887 10.9844l165.666 166.218l164.199 -164.754q11.7285 -11.7158 26.3887 -11.7158q13.1943 0 23.457 10.252l38.1182 37.3438q21.9902 24.8965 -2.19922 49.792
l-225.041 224.065q-11.7285 13.1807 -23.457 13.1807t-24.1904 -13.1807z" />
    <glyph glyph-name="Wcircumflex" unicode="&#x174;" horiz-adv-x="2045" 
d="M1279 29q6 -16 17 -22.5t22 -6.5h76q11 0 21.5 6.5t17.5 22.5l569 1358q8 18 -2 29t-25 11h-132q-11 0 -20 -6t-16 -23l-446 -1117l-235 571l221 535q8 18 -1.5 29t-24.5 11h-133q-11 0 -20.5 -6t-16.5 -23l-445 -1117l-456 1117q-7 17 -15.5 23t-19.5 6h-123
q-15 0 -24.5 -10.5t-1.5 -29.5l562 -1358q7 -16 17.5 -22.5t21.5 -6.5h75q11 0 21 6.5t17 22.5l251 598zM472.806 1375.88q-10.2627 -10.252 -11.7285 -23.0654q-1.46582 -12.8145 10.9951 -25.2627l36.6523 -36.6123q10.2617 -9.51855 21.9902 -9.51855
q13.1953 0 26.3896 10.9834l165.665 166.218l164.199 -164.753q11.7285 -11.7158 26.3896 -11.7158q13.1943 0 23.457 10.251l38.1172 37.3447q21.9912 24.8955 -2.19922 49.792l-225.04 224.064q-11.7285 13.1807 -23.457 13.1807t-24.1904 -13.1807z" />
    <glyph glyph-name="Wdieresis" unicode="&#x1e84;" horiz-adv-x="2045" 
d="M1279 29q6 -16 17 -22.5t22 -6.5h76q11 0 21.5 6.5t17.5 22.5l569 1358q8 18 -2 29t-25 11h-132q-11 0 -20 -6t-16 -23l-446 -1117l-235 571l221 535q8 18 -1.5 29t-24.5 11h-133q-11 0 -20.5 -6t-16.5 -23l-445 -1117l-456 1117q-7 17 -15.5 23t-19.5 6h-123
q-15 0 -24.5 -10.5t-1.5 -29.5l562 -1358q7 -16 17.5 -22.5t21.5 -6.5h75q11 0 21 6.5t17 22.5l251 598zM754 1620q0 -38 40 -38h105q17 0 27 8t10 31v102q0 20 -8.5 31t-28.5 11h-106q-22 0 -30.5 -11.5t-8.5 -28.5v-105zM1134 1620q0 -38 40 -38h105q17 0 27 8t10 31v102
q0 20 -8.5 31t-28.5 11h-106q-22 0 -30.5 -11.5t-8.5 -28.5v-105z" />
    <glyph glyph-name="Wgrave" unicode="&#x1e80;" horiz-adv-x="2045" 
d="M1279 29q6 -16 17 -22.5t22 -6.5h76q11 0 21.5 6.5t17.5 22.5l569 1358q8 18 -2 29t-25 11h-132q-11 0 -20 -6t-16 -23l-446 -1117l-235 571l221 535q8 18 -1.5 29t-24.5 11h-133q-11 0 -20.5 -6t-16.5 -23l-445 -1117l-456 1117q-7 17 -15.5 23t-19.5 6h-123
q-15 0 -24.5 -10.5t-1.5 -29.5l562 -1358q7 -16 17.5 -22.5t21.5 -6.5h75q11 0 21 6.5t17 22.5l251 598zM1176 1590q10 -20 19 -25t21 -5h91q13 1 24.5 11.5t1.5 33.5l-105 223q-8 18 -17 23.5t-22 5.5h-102q-15 0 -24.5 -14t0.5 -33z" />
    <glyph glyph-name="Ycircumflex" unicode="&#x176;" horiz-adv-x="1200" 
d="M498 37q0 -17 8 -27t25 -10h120q33 0 33 37v566l465 779q11 18 2 30.5t-24 12.5h-150q-11 0 -19.5 -5.5t-17.5 -21.5l-352 -609l-354 611q-9 16 -17.5 21.5t-19.5 5.5h-148q-15 0 -24 -11.5t2 -30.5l471 -785v-563zM228.706 1369.29q-10.2627 -10.251 -11.7285 -23.0654
q-1.46582 -12.8135 10.9951 -25.2617l36.6523 -36.6123q10.2617 -9.51855 21.9902 -9.51855q13.1953 0 26.3896 10.9834l165.665 166.218l164.199 -164.754q11.7285 -11.7158 26.3896 -11.7158q13.1943 0 23.457 10.252l38.1172 37.3438q21.9912 24.8965 -2.19922 49.792
l-225.041 224.065q-11.7285 13.1807 -23.457 13.1807t-24.1895 -13.1807z" />
    <glyph glyph-name="Zdotaccent" unicode="&#x17b;" horiz-adv-x="1309" 
d="M116 1427q-17 0 -26.5 -7.5t-9.5 -23.5v-124q0 -16 9.5 -23.5t26.5 -7.5l874 1l-919 -1064q-8 -9 -8 -24v-123q0 -31 32 -31h1111q33 0 33 31v126q0 31 -33 31h-882l907 1058q9 13 9 25v126q0 32 -32 32zM581 1623q0 -21 10 -29.5t30 -8.5h105q17 0 27 8t10 31v102
q0 41 -37 41h-106q-22 0 -30.5 -11.5t-8.5 -28.5v-104z" />
    <glyph glyph-name="Ubreve" unicode="&#x16c;" horiz-adv-x="1444" 
d="M320 1392q0 15 -6.5 25t-25.5 10h-122q-15 0 -23.5 -10t-8.5 -25v-826q0 -140 48 -249.5t130 -185t190.5 -115t229.5 -39.5t226 39t183 113.5t123 183t45 248.5v830q0 14 -9 25t-26 11h-117q-17 0 -25.5 -10.5t-8.5 -25.5v-817q0 -91 -29.5 -167.5t-81.5 -132t-124 -86.5
t-156 -31t-158.5 30t-131 85t-89.5 131.5t-33 170.5v818zM737 1556q57 1 106 21t85 53.5t57 77t21 89.5q0 17 -11 26.5t-26 9.5h-79q-17 0 -25.5 -10.5t-8.5 -25.5q0 -18 -7.5 -36.5t-22.5 -34.5t-36 -26t-48 -10q-30 0 -52.5 10t-37 25.5t-21.5 34.5t-7 37q0 15 -10 25.5
t-27 10.5h-77q-15 0 -26 -9.5t-11 -26.5q0 -46 20 -88.5t55.5 -76t84 -54t104.5 -22.5z" />
    <glyph glyph-name="Uogonek" unicode="&#x172;" horiz-adv-x="1444" 
d="M320 1392q0 15 -6.5 25t-25.5 10h-122q-15 0 -23.5 -10t-8.5 -25v-826q0 -140 48 -249.5t130 -185t190.5 -115t229.5 -39.5t226 39t183 113.5t123 183t45 248.5v830q0 14 -9 25t-26 11h-117q-17 0 -25.5 -10.5t-8.5 -25.5v-817q0 -91 -29.5 -167.5t-81.5 -132t-124 -86.5
t-156 -31t-158.5 30t-131 85t-89.5 131.5t-33 170.5v818zM1169 -152q0 16 -9 24t-20 8h-49q-11 0 -20 -8.5t-9 -27.5q1 -34 -24 -59.5t-64 -24.5q-25 0 -42 10t-27.5 24.5t-14.5 32t-2 32.5q6 26 24.5 48t38.5 40l157 156q21 23 2 42l-35 35q-9 10 -20 10t-21 -11l-160 -159
q-19 -20 -36 -39t-29.5 -39.5t-20 -44t-7.5 -51.5q0 -41 15.5 -76t41.5 -61t62 -41t76 -15q43 0 78.5 16t61 42.5t39.5 62t14 74.5z" />
    <glyph glyph-name="Uring" unicode="&#x16e;" horiz-adv-x="1444" 
d="M320 1392q0 15 -6.5 25t-25.5 10h-122q-15 0 -23.5 -10t-8.5 -25v-826q0 -140 48 -249.5t130 -185t190.5 -115t229.5 -39.5t226 39t183 113.5t123 183t45 248.5v830q0 14 -9 25t-26 11h-117q-17 0 -25.5 -10.5t-8.5 -25.5v-817q0 -91 -29.5 -167.5t-81.5 -132t-124 -86.5
t-156 -31t-158.5 30t-131 85t-89.5 131.5t-33 170.5v818zM742 1941q-41 0 -77.5 -16t-63.5 -43t-42.5 -63.5t-15.5 -77.5q0 -42 15.5 -78.5t42.5 -63.5t63.5 -42.5t77.5 -15.5q42 0 78.5 15.5t64 42.5t43.5 63.5t16 78.5q0 41 -16 77.5t-43.5 63.5t-64 43t-78.5 16z
M742 1840q44 0 73 -28.5t29 -70.5q0 -43 -27 -71t-73 -28q-45 0 -71.5 28t-26.5 71q0 42 27 70.5t69 28.5z" />
    <glyph glyph-name="Utilde" unicode="&#x168;" horiz-adv-x="1444" 
d="M320 1392q0 15 -6.5 25t-25.5 10h-122q-15 0 -23.5 -10t-8.5 -25v-826q0 -140 48 -249.5t130 -185t190.5 -115t229.5 -39.5t226 39t183 113.5t123 183t45 248.5v830q0 14 -9 25t-26 11h-117q-17 0 -25.5 -10.5t-8.5 -25.5v-817q0 -91 -29.5 -167.5t-81.5 -132t-124 -86.5
t-156 -31t-158.5 30t-131 85t-89.5 131.5t-33 170.5v818zM523 1588q10 12 19.5 23t20 19.5t24 13.5t31.5 5q26 0 51 -14t52 -30.5t56 -30.5t62 -14q55 0 100.5 27.5t82.5 80.5q7 9 9 20t-10 23l-36 37q-10 9 -23 9q-17 0 -33 -20q-17 -20 -36.5 -38t-48.5 -18
q-24 0 -50.5 14t-55 30.5t-59 30.5t-62.5 14q-51 0 -93.5 -26t-80.5 -74q-14 -19 -16.5 -28t14.5 -25l27 -26q7 -6 15.5 -10.5t16.5 -4.5q14 0 23 12z" />
    <glyph glyph-name="Lacute" unicode="&#x139;" horiz-adv-x="1102" 
d="M156 34q0 -34 33 -34h854q17 0 27.5 8.5t10.5 25.5v107q0 17 -10.5 25t-27.5 8h-702v1215q0 37 -32 37h-120q-15 0 -24 -10t-9 -27v-1355zM449 1810q9 19 -0.5 33t-24.5 15h-101q-13 0 -22 -6t-17 -24l-105 -222q-11 -23 0.5 -34t24.5 -11h102q11 0 20 4.5t19 24.5z" />
    <glyph glyph-name="Lslash" unicode="&#x141;" horiz-adv-x="1102" 
d="M156 35q0 -34 33 -34h854q17 0 27.5 8.5t10.5 25.5v107q0 17 -10.5 25t-27.5 8h-702v496l242 88q11 5 13.5 14t2.5 23v83q0 9 -7 13.5t-16 4.5q-8 0 -14 -3l-221 -81v577q0 37 -32 37h-120q-15 0 -24 -10t-9 -27v-644l-173 -63q-13 -5 -16 -13t-3 -22v-85q0 -11 5.5 -15
t13.5 -4q5 0 10.5 1t10.5 3l152 55v-568z" />
    <glyph glyph-name="lacute" unicode="&#x13a;" horiz-adv-x="495" 
d="M157 38q0 -38 35 -38h116q17 0 25.5 10.5t8.5 27.5v1506q0 17 -8.5 27.5t-25.5 10.5h-116q-17 0 -26 -10.5t-9 -27.5v-1506zM448 1976q9 19 -0.5 33t-24.5 15h-101q-13 0 -22 -6t-17 -24l-105 -222q-11 -23 0.5 -34t24.5 -11h102q11 0 20 4.5t19 24.5z" />
    <glyph glyph-name="racute" unicode="&#x155;" horiz-adv-x="993" 
d="M150 37q0 -37 34 -37h117q34 0 34 37v731q0 83 21.5 139t57 90t82 48.5t96.5 14.5q42 0 76.5 -7.5t63 -19.5t53.5 -27.5t49 -30.5q14 -10 27 -10q15 0 24 14l54 87q7 11 6.5 23.5t-20.5 29.5q-18 16 -48.5 37t-71 39.5t-89.5 31.5t-103 13q-46 0 -85 -7.5t-72.5 -24.5
t-62.5 -44.5t-56 -68.5v93q0 24 -9 31.5t-26 7.5h-118q-34 0 -34 -36v-1154zM805 1608q9 19 -0.5 33t-24.5 15h-101q-13 0 -22 -6t-17 -24l-105 -222q-11 -23 0.5 -34t24.5 -11h102q11 0 20 4.5t19 24.5z" />
    <glyph glyph-name="tbar" unicode="&#x167;" horiz-adv-x="622" 
d="M388 1439q0 16 -6.5 27t-20.5 11q-5 0 -8 -1l-115 -18q-19 -5 -26.5 -13.5t-7.5 -25.5v-193h-122q-14 0 -25 -9t-11 -28v-98q0 -18 11 -26t25 -8h122v-257h-117q-13 0 -23 -8t-10 -24v-79q0 -16 10.5 -23t22.5 -7h117v-372q0 -69 21.5 -124.5t63.5 -94.5t104.5 -60.5
t145.5 -21.5q32 0 38.5 8.5t6.5 19.5v110q0 5 -0.5 10.5t-4.5 10t-13 7.5t-26 3l-34 1q-36 1 -58.5 16t-36 38t-18.5 51.5t-5 55.5v342h116q13 0 22 8.5t9 20.5v80q0 16 -8 24t-22 8h-117v257h137q16 0 26.5 9.5t10.5 24.5v100q0 17 -9.5 26t-25.5 9h-139v213z" />
    <glyph glyph-name="tcaron" unicode="&#x165;" horiz-adv-x="622" 
d="M388 1439q0 16 -6.5 27t-20.5 11q-5 0 -8 -1l-115 -18q-19 -5 -26.5 -13.5t-7.5 -25.5v-193h-122q-14 0 -25 -9t-11 -28v-98q0 -18 11 -26t25 -8h122v-770q0 -69 21.5 -124.5t63.5 -94.5t104.5 -60.5t145.5 -21.5q32 0 38.5 8.5t6.5 19.5v110q0 5 -0.5 10.5t-4.5 10
t-13 7.5t-26 3l-34 1q-36 1 -58.5 16t-36 38t-18.5 51.5t-5 55.5v740h137q16 0 26.5 9.5t10.5 24.5v100q0 17 -9.5 26t-25.5 9h-139v213zM580 1379q0 -34 31 -34h39q12 0 12 -10v-12q0 -14 -10.5 -38t-30.5 -44q-6 -6 -9 -15.5t8 -20.5l28 -24q11 -9 19 -9t21 9
q12 9 25.5 24.5t25.5 39.5t20 58t8 79v106q0 34 -32 34h-122q-15 0 -24 -8.5t-9 -26.5v-108z" />
    <glyph glyph-name="Tbar" unicode="&#x166;" horiz-adv-x="1190" 
d="M52 1275q0 -34 34 -34h412v-428h-151q-16 0 -28 -9t-12 -29v-87q0 -20 12.5 -28.5t27.5 -8.5h151v-617q0 -34 34 -34h120q33 0 33 34v617h146q17 0 26.5 10t9.5 24v95q0 33 -33 33h-149v428h413q32 0 32 34v118q0 34 -32 34h-1012q-34 0 -34 -34v-118z" />
    <glyph glyph-name="plusminus" unicode="&#xb1;" horiz-adv-x="954" 
d="M546 320q14 0 20 9t6 20v208h199q11 0 19 7.5t8 18.5v120q0 13 -7.5 20t-18.5 7h-200v224q0 11 -7 19t-18 8h-120q-13 0 -19.5 -7.5t-6.5 -19.5v-224h-220q-13 0 -21 -7t-8 -20v-120q0 -14 8.5 -20t19.5 -6h221v-207q0 -13 7 -21.5t19 -8.5h119zM771 2q15 0 23.5 9.5
t8.5 21.5v110q0 14 -9 22t-23 8h-576q-11 0 -21 -6.5t-10 -26.5v-108q0 -30 31 -30h576z" />
    <glyph glyph-name="fraction" unicode="&#x2044;" horiz-adv-x="948" 
d="M31 40q-8 -11 -3.5 -24.5t21.5 -15.5h100q9 0 17 3t16 16l746 1362q3 6 4.5 13.5t-0.5 14t-8.5 11t-19.5 4.5h-101q-14 0 -21.5 -5.5t-11.5 -13.5z" />
    <glyph glyph-name="dotlessi" unicode="&#x131;" horiz-adv-x="495" 
d="M154 36q0 -36 34 -36h118q34 0 34 36v1155q0 16 -9 25.5t-25 9.5h-118q-15 0 -24.5 -9t-9.5 -26v-1155z" />
    <glyph glyph-name="guillemotright" unicode="&#xbb;" horiz-adv-x="1327" 
d="M774 539q0 -5 -2 -8.5t-8 -9.5l-513 -509q-12 -12 -27 -12q-10 0 -17 7l-62 61q-10 10 -10.5 24t10.5 25l428 422l-419 416q-11 11 -10.5 25t10.5 24l62 60q7 7 18 7q15 0 26 -11l504 -502q6 -6 8 -9.5t2 -9.5zM1156 539q0 -5 -2 -8.5t-8 -9.5l-513 -509q-12 -12 -27 -12
q-10 0 -17 7l-62 61q-10 10 -10.5 24t10.5 25l428 422l-419 416q-11 11 -10.5 25t10.5 24l62 60q7 7 18 7q15 0 26 -11l504 -502q6 -6 8 -9.5t2 -9.5z" />
    <glyph glyph-name="guillemotleft" unicode="&#xab;" horiz-adv-x="1323" 
d="M546.967 539q0 -5 2 -8.5t7.99902 -9.5l512.969 -509q11.999 -12 26.998 -12q10 0 16.999 7l61.9961 61q10 10 10.5 24t-10.5 25l-427.974 422l418.975 416q10.999 11 10.499 25t-10.499 24l-61.9961 60q-7 7 -17.999 7q-14.999 0 -25.998 -11l-503.97 -502
q-5.99902 -6 -7.99902 -9.5t-2 -9.5zM164.99 539q0 -5 2 -8.5q1.99902 -3.5 7.99902 -9.5l512.969 -509q11.999 -12 26.998 -12q10 0 16.999 7l61.9961 61q10 10 10.5 24t-10.5 25l-427.974 422l418.975 416q10.999 11 10.499 25t-10.499 24l-61.9961 60q-7 7 -17.999 7
q-14.999 0 -25.998 -11l-503.97 -502q-6 -6 -7.99902 -9.5q-2 -3.5 -2 -9.5z" />
    <glyph glyph-name="minus" unicode="&#x2212;" horiz-adv-x="1056" 
d="M833 448q17 0 26 10.5t9 24.5v99q0 16 -9.5 25t-25.5 9h-627q-12 0 -22.5 -8t-10.5 -29v-98q0 -15 8.5 -24t24.5 -9h627z" />
    <glyph glyph-name="figuredash" unicode="&#x2012;" horiz-adv-x="1056" 
d="M173 504q0 -19 12.5 -27.5t26.5 -8.5h642q17 0 28 10t11 25v108q0 20 -9.5 29t-26.5 9h-645q-15 0 -27 -9.5t-12 -29.5v-106z" />
    <glyph glyph-name="uni00AD" unicode="&#xad;" horiz-adv-x="1056" 
d="M173 604q0 -19 12.5 -27.5t26.5 -8.5h642q17 0 28 10t11 25v108q0 20 -9.5 29t-26.5 9h-645q-15 0 -27 -9.5t-12 -29.5v-106z" />
    <glyph glyph-name="onedotenleader" unicode="&#x2024;" horiz-adv-x="570" 
d="M188 93q0 -22 8.5 -41.5t22.5 -33.5t33.5 -22.5t41.5 -8.5t41.5 8.5t33.5 22.5t22.5 33.5t8.5 41.5t-8.5 41t-22.5 33.5t-33.5 23t-41.5 8.5t-41.5 -8.5t-33.5 -23t-22.5 -33.5t-8.5 -41z" />
    <glyph glyph-name="twodotenleader" unicode="&#x2025;" horiz-adv-x="877" 
d="M150 93q0 -22 8.5 -41.5t23 -33.5t33.5 -22.5t41 -8.5t41.5 8.5t33.5 22.5t22.5 33.5t8.5 41.5t-8.5 41t-22.5 33.5t-33.5 23t-41.5 8.5t-41 -8.5t-33.5 -23t-23 -33.5t-8.5 -41zM592 93q0 -22 8.5 -41.5t23 -33.5t33.5 -22.5t41 -8.5q45 0 75.5 30.5t30.5 75.5
q0 22 -8 41t-22.5 33.5t-33.5 23t-42 8.5q-22 0 -41 -8.5t-33.5 -23t-23 -33.5t-8.5 -41z" />
    <glyph glyph-name="exclamdbl" unicode="&#x203c;" horiz-adv-x="874" 
d="M564 424.974q0 -15.999 8.5 -25.498t25.5 -9.49902h118q32 0 32 35.9971v1122.93q0 35.998 -33 35.998h-117q-16 0 -25 -9.49902q-9 -9.5 -9 -26.499v-1123.93zM563 26.998q0 -14.999 9 -20.498q9 -5.5 17 -5.5h134q8 0 17 5q9 4.99902 9 20.998v131.992q0 8 -4.5 17.499
t-21.5 9.49902h-134q-11 0 -18.5 -6.99902q-7.5 -7 -7.5 -20.999v-130.992zM179 424.974q0 -15.999 8.5 -25.498t25.5 -9.49902h118q32 0 32 35.9971v1122.93q0 35.998 -33 35.998h-117q-16 0 -25 -9.49902q-9 -9.5 -9 -26.499v-1123.93zM178 26.998q0 -14.999 9 -20.498
q9 -5.5 17 -5.5h134q8 0 17 5q9 4.99902 9 20.998v131.992q0 8 -4.5 17.499t-21.5 9.49902h-134q-11 0 -18.5 -6.99902q-7.5 -7 -7.5 -20.999v-130.992z" />
    <glyph glyph-name="Dcroat" unicode="&#x110;" horiz-adv-x="1482" 
d="M1190 712q0 -112 -42.5 -210t-117.5 -171t-177.5 -115t-221.5 -42h-289v442h107q17 0 27 10.5t10 23.5v99q0 18 -11.5 27t-22.5 9h-110v467h289q119 0 221.5 -42.5t177.5 -115.5t117.5 -171.5t42.5 -210.5zM156 34q0 -34 33 -34h464q153 0 285 56.5t229.5 154t153.5 227
t56 274.5t-56.5 274.5t-155.5 227t-232.5 155t-286.5 57.5h-457q-33 0 -33 -33v-608h-95q-15 0 -26 -9t-11 -28v-98q0 -18 11.5 -26t25.5 -8h95v-582z" />
    <glyph glyph-name="twosuperior" unicode="&#xb2;" 
d="M2323 1024v-550h-2254v550h854q0 28 5 55t19 50q11 27 24.5 49t34.5 39q36 39 86 58q25 11 51 16t53 5q31 0 58 -6t50 -15q55 -27 88.5 -60.5t58.5 -89.5q18 -49 18 -101h854zM947 1024q0 -57 17.5 -96.5t52.5 -82.5q36 -35 82 -55t97 -20q50 0 96 17.5t80 55.5
q20 18 33 38t24 41q20 51 20 102q0 43 -13.5 82t-41.5 72q-13 18 -27.5 31t-32.5 24q-17 7 -35 16.5t-37 16.5q-14 3 -30.5 6t-35.5 3q-55 0 -100 -23q-46 -16 -79 -54q-34 -34 -52 -80t-18 -94zM1070 877l295 298q58 -73 58 -151q0 -22 -3 -42t-11 -39q-13 -35 -38 -66
h-301zM1026 870q-26 34 -41 71q-8 17 -11 38t-3 45q0 18 3 37.5t11 39.5q4 18 13.5 33.5t23.5 30.5h299zM2058 194q3 -4 5.5 -10t4.5 -13q4 -7 4 -14v-29q0 -7 -4 -11q-2 -7 -4.5 -14t-5.5 -13q-4 -7 -15 -19q-6 -5 -11.5 -9.5t-12.5 -8.5q-5 -5 -11.5 -7t-12.5 -4
q-8 -2 -13 -2h-16q-19 0 -40 6q-8 6 -15.5 12t-15.5 13q-8 6 -13.5 13.5t-7.5 19.5q-6 9 -7.5 18.5t-1.5 21.5q0 8 1 13.5t1 13.5q3 7 6 13t7 10q2 8 5.5 12.5t9.5 10.5q3 4 9.5 8t11.5 9q4 2 10.5 4t12.5 6q10 0 15.5 1t11.5 1q9 0 16 -1t13 -1q6 -4 12.5 -6t11.5 -4
q13 -10 24 -17q2 -6 7.5 -10.5t7.5 -12.5zM1064 194q2 -4 4 -10t5 -13q2 -10 2 -14v-29q0 -5 -2 -11q-3 -7 -5 -14t-4 -13q-5 -4 -9.5 -9.5t-8.5 -9.5q-14 -14 -21.5 -18t-24.5 -11q-4 -1 -7 -1.5t-7 -0.5h-15q-9 0 -18.5 2t-21.5 4q-11 6 -17.5 12t-15.5 13
q-15 14 -21.5 33.5t-6.5 39.5v13q0 4 2 14q5 17 11 23q4 8 7.5 12.5t7.5 10.5q7 4 11.5 8t10.5 9l27 10q4 0 10.5 1t13.5 1q8 0 15 -1t14 -1q6 -4 12.5 -6t13.5 -4l20 -17q4 -6 8.5 -10.5t9.5 -12.5zM2281 244l1 1l41 1v-206h-35v150l-5 -9v-6q-8 -18 -14.5 -36t-14.5 -31
q-6 -18 -11.5 -33.5t-13.5 -34.5h-34l-52 131q-5 3 -5 10l-3 6v-147h-39v206h37q5 0 6.5 -1t3.5 -1q2 -2 3 -2t3 -2l7 -4q0 -2 2 -3.5t2 -3.5q4 -16 10.5 -30t14.5 -32q6 -15 11.5 -30.5t11.5 -28.5v-12l5 12l9 13l42 108l4 7l5 4q2 2 4 2t4 2zM1246 246h36v-206h-34
l-94 138l-4 3v2q-5 9 -7 11t-5 2v-156h-36v206h32q4 0 8.5 -1t4.5 -3q3 -2 5 -2t4 -2l21 -31q5 -8 9.5 -16t9.5 -17q13 -13 23 -27.5t23 -27.5q0 -2 1 -4.5t1 -6.5l2 -5v143zM630 246l88 -206h-23q-8 0 -15 4q-2 2 -4 6.5t-6 8.5l-12 25h-94l-9 -25q0 -6 -4 -6l-7 -9
q-2 0 -3.5 -1t-5.5 -1l-28 -2l90 206h33zM244 246h130v-37h-94v-46h77v-38h-77v-48h94v-37h-130v206zM69 246h149v-23l-7 -14l-99 -134h1l2 2h102v-37h-155v13q0 9 2 11q0 2 5 7v4l2 4q2 2 4 3.5t2 5.5l88 121h-96v37zM786 618q1 6 2 10t1 9q0 12 -3 21q0 5 -3.5 8.5
t-5.5 9.5q-2 3 -4.5 6t-6.5 7l-7 6q-2 3 -8 8l-8 4q-2 1 -4.5 2t-5.5 2h-38q-10 -4 -17 -8q-4 -5 -7.5 -7.5t-7.5 -6.5q-11 -8 -12 -13q-4 -6 -5 -9.5t-3 -8.5q-1 -5 -1.5 -10t-0.5 -11q0 -15 6 -27.5t16 -23.5q11 -14 24 -14q11 -6 27 -6h19q6 2 10.5 4t7.5 4q11 5 15 12
q7 7 11 15q2 4 5.5 8.5t3.5 8.5zM1843 618v40q-2 5 -3.5 9t-3.5 9q-5 6 -14 13q-1 4 -5.5 6.5t-8.5 7.5l-4 2t-5 2l-7 4h-39l-10 -4l-10 -4q-3 -5 -6 -7.5t-7 -6.5q-3 -4 -6 -6.5t-5 -6.5q-2 -6 -4.5 -9.5t-2.5 -8.5q-5 -10 -5 -21q0 -5 2.5 -13t5.5 -14q5 -15 15 -24
q8 -14 24 -14q11 -6 28 -6h20q3 2 8 4t8 4q4 3 8.5 5.5t5.5 6.5q9 5 14 15zM1724 190q-7 -7 -13 -23q-2 -4 -4 -9.5t-2 -13.5q0 -9 6 -25.5t13 -22.5q9 -9 22 -15q12 -4 26 -4q5 0 9.5 1t10.5 1q3 2 8 4.5t8 6.5q2 0 8 2h12q2 0 8 -2q2 -1 7 -6l6 -7q-3 -4 -6 -7.5t-7 -7.5
q-6 -3 -10.5 -6t-11.5 -6q-5 -3 -15.5 -6.5t-16.5 -3.5h-10q-11 0 -22 2t-20 4q-20 9 -33 25q-15 14 -21 33q-4 9 -6.5 18.5t-2.5 21.5q0 8 1 13.5t3 13.5q2 16 9 23q6 8 8.5 12.5t8.5 10.5l23 17l26 10q5 0 11.5 1t14.5 1h12q4 0 15 -3t15 -5l22 -13q4 -4 7 -8l6 -8
l-13 -15h-14q-7 0 -14 4q-3 2 -8 4.5t-8 4.5q-8 2 -11 2h-9q-15 0 -26 -6q-15 -2 -22 -13zM1594 125q5 -8 5 -19q0 -14 -7 -27l-8 -12q-3 -5 -8 -8q-6 -6 -10.5 -9.5t-12.5 -5.5q-5 -2 -13 -3t-14 -1q-11 0 -31 4q-9 4 -20 18q-4 1 -6 5l-4 8q-6 2 -6 9l6 4l8 2l2 2h9
q12 -3 13 -4q5 -4 8.5 -5.5t5.5 -3.5q2 0 6 -1t9 -1h5q8 2 12 3.5t7 3.5l4 4t3 4q2 4 4 7t2 7q0 6 -6 9q-4 6 -7 6q-2 4 -6.5 5t-6.5 2q-5 0 -13 6q-5 0 -9 1t-9 6q-9 3 -12.5 6t-7.5 7q-11 4 -11 13q-6 11 -6 23q0 18 6 25q1 4 5 10l8 9q4 2 9 4t12 6q6 0 10.5 1t12.5 1
q4 0 8 -1t10 -1l15 -6q3 -4 6 -6.5t7 -6.5q3 -2 6.5 -5t3.5 -7l-13 -8l-20 -3l-5 1q-3 1 -6 4q-2 0 -3.5 1t-3.5 1h-16q-2 0 -3 -1t-5 -3l-6 -5q-1 -3 -1 -10q3 -6 4 -9t3 -7h6q8 -2 13 -4.5t10 -4.5l8 -2q5 -4 9 -5t9 -4q6 -2 16 -12.5t10 -16.5zM1480 315q-11 8 -15 19
q-6 14 -6 29v15l10 18q2 2 4.5 5.5t6.5 7.5q6 8 12 9q3 5 8.5 6t8.5 3q4 0 8 1.5t9 1.5q4 0 10 -1.5t10 -1.5q4 -2 7.5 -3t7.5 -6l11 -9l12 -13q2 -4 4 -8.5t4 -9.5q0 -4 1 -8.5t1 -6.5q0 -6 -1 -13.5t-5 -15.5q-4 -12 -16 -19q-4 -4 -8.5 -7.5t-11.5 -8.5q-10 -2 -26 -2
h-14q-4 0 -10 2q-15 4 -22 16zM2030 119q5 12 5 25q0 15 -5 23q-3 13 -13.5 23t-23.5 13q-4 4 -11 5t-16 1q-10 0 -24 -6q-7 -1 -11.5 -4t-10.5 -9q-8 -6 -15 -23q0 -4 -1 -9.5t-1 -13.5t1 -13.5t1 -11.5q8 -16 15 -23q6 -4 10.5 -8t11.5 -7q7 -2 13.5 -3t10.5 -1q20 0 27 4
q28 10 37 38zM2141 315q-6 -4 -12 -7.5t-11 -8.5q-8 -2 -12 -2h-28q-4 0 -12 2q-11 4 -21 16q-7 7 -13 19q-2 8 -4 15.5t-2 13.5q0 2 1 6.5t1 8.5q2 4 3 9t4 9q2 3 5 6t5 7q7 5 16 9q3 5 8 6t7 3q5 0 8 1.5t10 1.5q2 0 7.5 -1.5t10.5 -1.5q4 -2 7.5 -3t5.5 -6q4 -2 8.5 -4.5
t7.5 -4.5q1 -2 2 -3.5t2 -3.5l4 -6q6 -10 7 -18q2 -4 3 -8.5t1 -6.5q0 -6 -1 -13.5t-5 -15.5q0 -6 -5 -11zM1039 144q0 14 -4 23q-4 17 -18 23q-2 6 -7.5 9t-11.5 4q-10 6 -27 6q-13 0 -24 -6q-10 -1 -22 -13q-8 -5 -13 -23q-5 -5 -5 -10v-27q0 -4 5 -11q5 -14 13 -22.5
t22 -15.5q9 -4 24 -4q18 0 27 4q14 7 19 15q13 5 17.5 20.5t4.5 27.5zM726 246h130v-37h-94v-52h77v-36h-77v-81h-36v206zM535 209h-55v-169h-40v169h-59v37h154v-37zM1302 246h155v-37h-61v-169h-37v169h-57v37zM1281 1233q16 -8 33.5 -19.5t33.5 -21.5h-304q34 28 70 41
q37 17 82 17t85 -17zM1114 810q-18 7 -35 18t-33 24h302q-16 -13 -33.5 -24t-33.5 -18q-22 -6 -43 -10.5t-42 -4.5q-23 0 -42.5 4.5t-39.5 10.5zM524 566l-44 64q4 0 11 4q7 3 8 9q8 6 8 11v24q-6 14 -12 19q-5 8 -13 8q-2 4 -6.5 5t-8.5 1h-53v-145h22v60h22l37 -52
q1 -4 7 -6zM1096 566l-63 145h-20l-62 -145h11q7 0 9 2q0 2 6 6l10 25h72l11 -25q1 -4 5 -6q2 -2 8 -2h13zM1810 676q2 -2 6.5 -7.5t5.5 -10.5q4 -7 4 -21q0 -12 -4 -21q-1 -4 -6 -9l-6 -6q-5 -4 -9 -6.5t-8 -6.5q-8 -4 -21 -4q-14 0 -21 4q-5 4 -9.5 6.5t-8.5 6.5
q-3 2 -6 6.5t-3 8.5q-4 6 -5 11t-1 10q0 11 6 21q0 5 3 10.5t6 7.5q8 8 18.5 11.5t20.5 3.5q12 0 21 -4zM751 676q6 -2 8.5 -7.5t4.5 -10.5q4 -7 4 -21q0 -10 -4 -21q-2 -4 -4.5 -8.5t-8.5 -6.5q-5 -9 -16 -13t-21 -4t-21 4q-4 4 -8.5 6.5t-8.5 6.5q-2 2 -5.5 6.5t-5.5 8.5
q-4 11 -4 21q0 20 8.5 30.5t23.5 19.5q5 2 11.5 3t9.5 1q13 0 21 -4q12 -4 16 -11zM277 647q5 12 5 18q0 9 -5 18q0 2 -4 6l-6 6q-2 3 -5 6.5t-9 3.5q-2 4 -7.5 5t-9.5 1h-49v-145h16v55h33q4 0 9.5 0.5t7.5 2.5q10 4 14 10q4 2 7 5.5t3 7.5zM2079 311h29l6 3q5 4 9 6l8 4
l3 6q3 6 6 11t3 9v32q-2 6 -6 10t-6 7q-6 2 -9.5 5t-7.5 7h-40q-6 -4 -9.5 -7t-8.5 -5q-7 -5 -11 -17q-2 -8 -2 -12v-20q0 -4 1 -8.5t4 -7.5l4 -4q3 -3 4 -6l6 -3q7 -5 10.5 -6.5t6.5 -3.5zM1993 711h-20v-112q-1 2 -2 5t-3 4l-70 97l-3 6h-23v-145h21v114l84 -114h16v145z
M1480 382q-3 -6 -4 -11.5t-1 -7.5v-8q3 -14 7 -21q0 -2 2 -4t4 -6l5 -3q2 -2 9 -2q2 -4 5.5 -5t5.5 -3h26q5 2 8 3t6 5l10 5q2 4 4.5 6t2.5 4q2 3 3 7.5t3 8.5q0 2 1 5.5t1 7.5q0 2 -1 7.5t-5 11.5q0 6 -3.5 10t-5.5 7q-3 1 -8 6l-9 6h-40q-4 -4 -9 -7t-9 -5q-2 -3 -5 -7
t-3 -10zM935 711h-17v-112l-73 106q-4 0 -6 6h-23v-145h19v117h2l2 -1v-4l81 -112h15v145zM1982 357q-4 -1 -7 -2t-5 -2l42 -56h-11q-7 2 -8.5 3.5t-1.5 5.5l-36 47h-26v-56h-15v130h54q3 0 9 -2q2 -2 5.5 -4.5t4.5 -4.5q4 -2 5 -5.5t7 -7.5v-25q-4 -4 -5 -7.5t-3 -5.5z
M1259 357q-3 -3 -11 -4l44 -56h-14q-9 3 -9 9l-36 47h-26v-56h-13v130h53q9 -2 13.5 -4.5t8.5 -6.5q0 -2 3 -5.5t3 -7.5l2 -19q-3 -16 -6 -19l-5 -4q-2 -2 -7 -4zM386 711h-91v-145h91v20h-69v44h55v17h-55v42h69v22zM1614 711h-88v-145h88v20h-66v44h55v17h-55v42h66v22z
M2306 425l17 2v-130h-11v106l-2 -2v-2q-4 -7 -6.5 -16t-7.5 -13q-4 -7 -6 -12.5t-7 -13.5q-2 -8 -3 -14t-5 -9q-3 -8 -6 -12.5t-5 -11.5h-14q-9 12 -14 24.5t-10 26.5q-4 11 -11 24.5t-11 26.5v2h-4v-104h-13v130h13l8 -4v-5l46 -99l3 -2v4q0 1 7 5l38 92q2 5 3 5t1 2z
M1387 711h-20v-97q0 -3 -2 -7q-1 -7 -9 -12q0 -2 -4 -3.5t-6 -5.5l-8 -2h-8q-7 0 -13 2q-5 4 -8 5.5t-5 3.5l-10 12q0 3 -1 7t-1 10v87h-19v-87q0 -7 1.5 -16.5t6.5 -14.5q2 -6 9 -11q2 -3 4.5 -5.5t7.5 -4.5q2 -2 6 -3t7 -3q4 0 7 -1t8 -1q4 0 7.5 1t10.5 1q2 2 5 3t6 3
q8 6 12 10q3 2 5 5t5 6q0 4 3 7t3 7v104zM622 592q2 5 3 8t1 8q0 10 -5 18t-11 13q-2 0 -3.5 2t-5.5 4l-4 2h-4q-4 3 -6 3.5t-3 1.5q-7 2 -8.5 3t-5.5 3q-6 3 -8 3l-3 21q8 7 11 7l14 2q10 -3 11 -6l6 -2q9 0 13 4l4 2l-6 8q-2 1 -4.5 3.5t-6.5 4.5q-2 0 -4 2t-5 4h-28
q-5 -2 -7 -4t-6 -4q-2 -5 -5.5 -7.5t-6.5 -6.5q0 -4 -2 -6.5t-2 -8.5q0 -7 4 -16l5 -7l5 -4q2 -2 6 -5t7 -3l7 -4q2 -1 7 -1q1 -2 5.5 -2t6.5 -2l5 -2q5 -4 5.5 -5l2.5 -5l2 -15q-4 -5 -4 -7.5t-2 -3.5q-1 -3 -6 -5l-3 -1q-4 0 -7.5 -1t-4.5 -1q-5 0 -11 1.5t-6 6.5l-4 1
q-4 4 -11 4h-5l-9 -4l9 -16h3q7 -7 15.5 -9t18.5 -2h8q5 0 11 2q4 2 8.5 4t6.5 5q4 2 7.5 5.5t4.5 9.5zM1497 592q7 7 7 16q0 10 -4.5 18t-11.5 13q-6 5 -6 6h-4l-36 16l-6 6q0 1 -1 3t-1 4q0 4 4 8q5 4 6.5 5.5t4.5 1.5q2 2 10 2l3 -1l7.5 -3t5.5 -2q6 -2 7 -2q7 0 8 4l5 2
q0 2 -2.5 4t-4.5 4q0 1 -3 3.5t-5 4.5q-3 0 -5 2t-6 4h-6l-4 1q-6 0 -9.5 -0.5t-7.5 -0.5l-13 -8l-11 -14q-1 -4 -3 -6.5t-2 -8.5q0 -4 2 -7.5t3 -8.5q2 -4 4.5 -6.5l4.5 -4.5q4 -2 6.5 -5t6.5 -3q8 -5 13 -5q4 -2 6.5 -2t5.5 -2q5 0 10 -3.5t5 -8.5l2 -14q-2 -7 -3.5 -9
t-3.5 -3q-11 -8 -22 -8q-2 0 -5.5 1t-5.5 1q-3 1 -8 6l-2 1q-4 4 -9 4h-6l-10 -4l8 -9v-2q7 -5 8 -5q6 -7 13.5 -9t16.5 -2h11q3 0 11 2q2 2 5.5 4t7.5 5l5 7q3 3 4 8zM1632 297h-16v130h18l77 -106v106h13v-130h-11l-77 106v4h-4v-110zM73 328q-4 4 -5 7.5t-2 8.5
q-2 6 -3 9.5t-1 9.5t4 15q1 4 2 9t5 9l9 13q2 2 6 4.5t6 4.5q5 5 9.5 6t8.5 3q3 0 8 1.5t10 1.5q15 0 26 -7q13 -4 20 -14l-4 -6h-13q-3 2 -6 5t-7 3h-34l-20 -12q-4 -3 -7 -7t-4 -10q-2 -6 -3 -11.5t-1 -7.5q0 -9 4 -13q0 -4 0.5 -8.5t0.5 -7.5l4 -4q5 -1 6 -6l7 -4
q2 -1 7 -1q2 -4 4.5 -5t6.5 -3h31q2 2 6.5 3t8.5 5v27h-13v2l-6 4h-2l-1 7h35v-48q-2 -5 -3.5 -6t-5.5 -6h-11q-8 -2 -12 -2h-32q-5 0 -18 9q-7 0 -12 9zM225 411v-41h52v-15h-52v-44h63v-14h-79v130h79v-16h-63zM1098 411v-41h56v-15h-56v-44h64v-14h-79v130h79v-16h-64z
M2226 711h-18q-5 0 -9 -4t-4 -9l-35 -44h-4l-36 44q-3 13 -15 13h-16l54 -72v-2l4 -3v-68h20v66l4 5v2zM2112 586h-64v125h-20v-145h84v20zM601 427v-79q0 -6 2 -9t5 -5q0 -6 3 -9t5 -4q0 -2 4 -4t6 -4q6 -2 8 -2h15l12 6t7 4q4 1 8 13q4 3 4 14v79h13v-79q0 -9 -3.5 -20.5
t-11.5 -16.5q-5 -12 -15 -12q-6 -1 -11.5 -1.5t-10.5 -0.5t-10.5 0.5t-12.5 1.5q-3 0 -15 12l-10 15q-1 6 -3 11t-2 11v79h13zM1191 586h-62v125h-19v-145h81v20zM1361 315q1 2 2 3.5t2 3.5q2 2 3 6t1 6q0 17 -15 21q-3 0 -12.5 4t-11.5 6q-9 0 -13 7q-2 0 -3.5 3t-3.5 6v21
q0 1 2 7q0 8 7 9l6 5q2 1 3.5 2t3.5 2q4 0 6.5 1.5t7.5 1.5l10 -3q3 0 4 -1t5 -3q6 0 6 -7q5 0 6 -3l1 -2l-2 -2q-6 -2 -9 -2h-6l-23 4q-8 0 -8 -2q-5 -7 -5 -8q-4 0 -4 -7q0 -5 4 -6q0 -4 3 -6l6 -4q4 -4 7 -4t7 -2l6 -2q3 0 7 -5h4l6 -2q5 -4 7.5 -7t4.5 -4q1 -5 1.5 -9.5
t0.5 -8.5v-10l-7.5 -12t-6.5 -6q-2 -2 -6 -4.5t-6 -2.5q-4 -2 -9 -2h-9q-9 0 -16.5 1t-12.5 8q-2 0 -3 2.5t-5 4.5v4l-2 2l4 2h6q1 0 3 -1t4 -1q4 -4 6.5 -5t4.5 -3h20q7 0 11 4zM1002 297l-55 130h5q10 0 14 -9l40 -97v-2h2l2 2q5 13 12 25.5t11 23.5q4 14 9.5 25.5
t11.5 22.5q0 5 1.5 5t1.5 2l16 2q-7 -16 -14 -32.5t-15 -31.5q-4 -8 -7 -17l-6 -18l-14 -31h-15zM499 411v-46h56v-12h-56v-56h-15v130h80v-16h-65zM1836 411v-46h51v-12h-51v-56h-15v130h77v-16h-62zM824 427v-116h59v-14h-75v130h16zM348 297v114h-44v16h99v-16h-44v-114
h-11zM735 427v-116h60v-14h-75v130h15zM253 683q2 -1 3 -4t3 -5q3 -4 3 -9v-4q0 -2 -3 -7q-2 -2 -3 -4.5t-3 -2.5q-1 -2 -3 -4l-4 -4h-43v50h33q4 0 10 -2zM1242 365q5 0 6 3q4 4 9 4l2 4q5 10 5 16q0 2 -1 3t-1 4q-3 2 -4 3t-1 5q-5 0 -9 4h-41v-46h35zM1970 368q4 4 7 4
q5 7 5 9q2 4 2 11q0 3 -2 7q0 1 -5 8q-3 0 -7 4h-41v-46h33q4 0 8 3zM486 658l-4 -7q-2 0 -3 -2t-3 -2q-2 -2 -9 -2h-31v44h31q3 0 9 -2l6 -4q1 -2 2 -3.5t2 -3.5q3 -1 3 -9q0 -6 -3 -9zM1429 427v-130h-16v130h16zM641 121l-27 69h-2l-28 -69h57zM1024 682v-4l26 -60h-55
l27 60v5zM1645 77q6 0 6 -6l2 -9q0 -7 -2 -9q0 -4 -6 -9l-22 -4q-4 4 -9 4q0 2 -5 9q-2 2 -2 9v4l7 11q7 4 9 4l14 3z" />
    <glyph glyph-name="threesuperior" unicode="&#xb3;" 
d="M2323 1024v-550h-2254v550h854q0 28 5 55t19 50q11 27 24.5 49t34.5 39q36 39 86 58q25 11 51 16t53 5q31 0 58 -6t50 -15q55 -27 88.5 -60.5t58.5 -89.5q18 -49 18 -101h854zM947 1024q0 -57 17.5 -96.5t52.5 -82.5q36 -35 82 -55t97 -20q50 0 96 17.5t80 55.5
q20 18 33 38t24 41q20 51 20 102q0 43 -13.5 82t-41.5 72q-13 18 -27.5 31t-32.5 24q-17 7 -35 16.5t-37 16.5q-14 3 -30.5 6t-35.5 3q-55 0 -100 -23q-46 -16 -79 -54q-34 -34 -52 -80t-18 -94zM1070 877l295 298q58 -73 58 -151q0 -22 -3 -42t-11 -39q-13 -35 -38 -66
h-301zM1026 870q-26 34 -41 71q-8 17 -11 38t-3 45q0 18 3 37.5t11 39.5q4 18 13.5 33.5t23.5 30.5h299zM2058 194q3 -4 5.5 -10t4.5 -13q4 -7 4 -14v-29q0 -7 -4 -11q-2 -7 -4.5 -14t-5.5 -13q-4 -7 -15 -19q-6 -5 -11.5 -9.5t-12.5 -8.5q-5 -5 -11.5 -7t-12.5 -4
q-8 -2 -13 -2h-16q-19 0 -40 6q-8 6 -15.5 12t-15.5 13q-8 6 -13.5 13.5t-7.5 19.5q-6 9 -7.5 18.5t-1.5 21.5q0 8 1 13.5t1 13.5q3 7 6 13t7 10q2 8 5.5 12.5t9.5 10.5q3 4 9.5 8t11.5 9q4 2 10.5 4t12.5 6q10 0 15.5 1t11.5 1q9 0 16 -1t13 -1q6 -4 12.5 -6t11.5 -4
q13 -10 24 -17q2 -6 7.5 -10.5t7.5 -12.5zM1064 194q2 -4 4 -10t5 -13q2 -10 2 -14v-29q0 -5 -2 -11q-3 -7 -5 -14t-4 -13q-5 -4 -9.5 -9.5t-8.5 -9.5q-14 -14 -21.5 -18t-24.5 -11q-4 -1 -7 -1.5t-7 -0.5h-15q-9 0 -18.5 2t-21.5 4q-11 6 -17.5 12t-15.5 13
q-15 14 -21.5 33.5t-6.5 39.5v13q0 4 2 14q5 17 11 23q4 8 7.5 12.5t7.5 10.5q7 4 11.5 8t10.5 9l27 10q4 0 10.5 1t13.5 1q8 0 15 -1t14 -1q6 -4 12.5 -6t13.5 -4l20 -17q4 -6 8.5 -10.5t9.5 -12.5zM2281 244l1 1l41 1v-206h-35v150l-5 -9v-6q-8 -18 -14.5 -36t-14.5 -31
q-6 -18 -11.5 -33.5t-13.5 -34.5h-34l-52 131q-5 3 -5 10l-3 6v-147h-39v206h37q5 0 6.5 -1t3.5 -1q2 -2 3 -2t3 -2l7 -4q0 -2 2 -3.5t2 -3.5q4 -16 10.5 -30t14.5 -32q6 -15 11.5 -30.5t11.5 -28.5v-12l5 12l9 13l42 108l4 7l5 4q2 2 4 2t4 2zM1246 246h36v-206h-34
l-94 138l-4 3v2q-5 9 -7 11t-5 2v-156h-36v206h32q4 0 8.5 -1t4.5 -3q3 -2 5 -2t4 -2l21 -31q5 -8 9.5 -16t9.5 -17q13 -13 23 -27.5t23 -27.5q0 -2 1 -4.5t1 -6.5l2 -5v143zM630 246l88 -206h-23q-8 0 -15 4q-2 2 -4 6.5t-6 8.5l-12 25h-94l-9 -25q0 -6 -4 -6l-7 -9
q-2 0 -3.5 -1t-5.5 -1l-28 -2l90 206h33zM244 246h130v-37h-94v-46h77v-38h-77v-48h94v-37h-130v206zM69 246h149v-23l-7 -14l-99 -134h1l2 2h102v-37h-155v13q0 9 2 11q0 2 5 7v4l2 4q2 2 4 3.5t2 5.5l88 121h-96v37zM786 618q1 6 2 10t1 9q0 12 -3 21q0 5 -3.5 8.5
t-5.5 9.5q-2 3 -4.5 6t-6.5 7l-7 6q-2 3 -8 8l-8 4q-2 1 -4.5 2t-5.5 2h-38q-10 -4 -17 -8q-4 -5 -7.5 -7.5t-7.5 -6.5q-11 -8 -12 -13q-4 -6 -5 -9.5t-3 -8.5q-1 -5 -1.5 -10t-0.5 -11q0 -15 6 -27.5t16 -23.5q11 -14 24 -14q11 -6 27 -6h19q6 2 10.5 4t7.5 4q11 5 15 12
q7 7 11 15q2 4 5.5 8.5t3.5 8.5zM1843 618v40q-2 5 -3.5 9t-3.5 9q-5 6 -14 13q-1 4 -5.5 6.5t-8.5 7.5l-4 2t-5 2l-7 4h-39l-10 -4l-10 -4q-3 -5 -6 -7.5t-7 -6.5q-3 -4 -6 -6.5t-5 -6.5q-2 -6 -4.5 -9.5t-2.5 -8.5q-5 -10 -5 -21q0 -5 2.5 -13t5.5 -14q5 -15 15 -24
q8 -14 24 -14q11 -6 28 -6h20q3 2 8 4t8 4q4 3 8.5 5.5t5.5 6.5q9 5 14 15zM1724 190q-7 -7 -13 -23q-2 -4 -4 -9.5t-2 -13.5q0 -9 6 -25.5t13 -22.5q9 -9 22 -15q12 -4 26 -4q5 0 9.5 1t10.5 1q3 2 8 4.5t8 6.5q2 0 8 2h12q2 0 8 -2q2 -1 7 -6l6 -7q-3 -4 -6 -7.5t-7 -7.5
q-6 -3 -10.5 -6t-11.5 -6q-5 -3 -15.5 -6.5t-16.5 -3.5h-10q-11 0 -22 2t-20 4q-20 9 -33 25q-15 14 -21 33q-4 9 -6.5 18.5t-2.5 21.5q0 8 1 13.5t3 13.5q2 16 9 23q6 8 8.5 12.5t8.5 10.5l23 17l26 10q5 0 11.5 1t14.5 1h12q4 0 15 -3t15 -5l22 -13q4 -4 7 -8l6 -8
l-13 -15h-14q-7 0 -14 4q-3 2 -8 4.5t-8 4.5q-8 2 -11 2h-9q-15 0 -26 -6q-15 -2 -22 -13zM1594 125q5 -8 5 -19q0 -14 -7 -27l-8 -12q-3 -5 -8 -8q-6 -6 -10.5 -9.5t-12.5 -5.5q-5 -2 -13 -3t-14 -1q-11 0 -31 4q-9 4 -20 18q-4 1 -6 5l-4 8q-6 2 -6 9l6 4l8 2l2 2h9
q12 -3 13 -4q5 -4 8.5 -5.5t5.5 -3.5q2 0 6 -1t9 -1h5q8 2 12 3.5t7 3.5l4 4t3 4q2 4 4 7t2 7q0 6 -6 9q-4 6 -7 6q-2 4 -6.5 5t-6.5 2q-5 0 -13 6q-5 0 -9 1t-9 6q-9 3 -12.5 6t-7.5 7q-11 4 -11 13q-6 11 -6 23q0 18 6 25q1 4 5 10l8 9q4 2 9 4t12 6q6 0 10.5 1t12.5 1
q4 0 8 -1t10 -1l15 -6q3 -4 6 -6.5t7 -6.5q3 -2 6.5 -5t3.5 -7l-13 -8l-20 -3l-5 1q-3 1 -6 4q-2 0 -3.5 1t-3.5 1h-16q-2 0 -3 -1t-5 -3l-6 -5q-1 -3 -1 -10q3 -6 4 -9t3 -7h6q8 -2 13 -4.5t10 -4.5l8 -2q5 -4 9 -5t9 -4q6 -2 16 -12.5t10 -16.5zM1480 315q-11 8 -15 19
q-6 14 -6 29v15l10 18q2 2 4.5 5.5t6.5 7.5q6 8 12 9q3 5 8.5 6t8.5 3q4 0 8 1.5t9 1.5q4 0 10 -1.5t10 -1.5q4 -2 7.5 -3t7.5 -6l11 -9l12 -13q2 -4 4 -8.5t4 -9.5q0 -4 1 -8.5t1 -6.5q0 -6 -1 -13.5t-5 -15.5q-4 -12 -16 -19q-4 -4 -8.5 -7.5t-11.5 -8.5q-10 -2 -26 -2
h-14q-4 0 -10 2q-15 4 -22 16zM2030 119q5 12 5 25q0 15 -5 23q-3 13 -13.5 23t-23.5 13q-4 4 -11 5t-16 1q-10 0 -24 -6q-7 -1 -11.5 -4t-10.5 -9q-8 -6 -15 -23q0 -4 -1 -9.5t-1 -13.5t1 -13.5t1 -11.5q8 -16 15 -23q6 -4 10.5 -8t11.5 -7q7 -2 13.5 -3t10.5 -1q20 0 27 4
q28 10 37 38zM2141 315q-6 -4 -12 -7.5t-11 -8.5q-8 -2 -12 -2h-28q-4 0 -12 2q-11 4 -21 16q-7 7 -13 19q-2 8 -4 15.5t-2 13.5q0 2 1 6.5t1 8.5q2 4 3 9t4 9q2 3 5 6t5 7q7 5 16 9q3 5 8 6t7 3q5 0 8 1.5t10 1.5q2 0 7.5 -1.5t10.5 -1.5q4 -2 7.5 -3t5.5 -6q4 -2 8.5 -4.5
t7.5 -4.5q1 -2 2 -3.5t2 -3.5l4 -6q6 -10 7 -18q2 -4 3 -8.5t1 -6.5q0 -6 -1 -13.5t-5 -15.5q0 -6 -5 -11zM1039 144q0 14 -4 23q-4 17 -18 23q-2 6 -7.5 9t-11.5 4q-10 6 -27 6q-13 0 -24 -6q-10 -1 -22 -13q-8 -5 -13 -23q-5 -5 -5 -10v-27q0 -4 5 -11q5 -14 13 -22.5
t22 -15.5q9 -4 24 -4q18 0 27 4q14 7 19 15q13 5 17.5 20.5t4.5 27.5zM726 246h130v-37h-94v-52h77v-36h-77v-81h-36v206zM535 209h-55v-169h-40v169h-59v37h154v-37zM1302 246h155v-37h-61v-169h-37v169h-57v37zM1281 1233q16 -8 33.5 -19.5t33.5 -21.5h-304q34 28 70 41
q37 17 82 17t85 -17zM1114 810q-18 7 -35 18t-33 24h302q-16 -13 -33.5 -24t-33.5 -18q-22 -6 -43 -10.5t-42 -4.5q-23 0 -42.5 4.5t-39.5 10.5zM524 566l-44 64q4 0 11 4q7 3 8 9q8 6 8 11v24q-6 14 -12 19q-5 8 -13 8q-2 4 -6.5 5t-8.5 1h-53v-145h22v60h22l37 -52
q1 -4 7 -6zM1096 566l-63 145h-20l-62 -145h11q7 0 9 2q0 2 6 6l10 25h72l11 -25q1 -4 5 -6q2 -2 8 -2h13zM1810 676q2 -2 6.5 -7.5t5.5 -10.5q4 -7 4 -21q0 -12 -4 -21q-1 -4 -6 -9l-6 -6q-5 -4 -9 -6.5t-8 -6.5q-8 -4 -21 -4q-14 0 -21 4q-5 4 -9.5 6.5t-8.5 6.5
q-3 2 -6 6.5t-3 8.5q-4 6 -5 11t-1 10q0 11 6 21q0 5 3 10.5t6 7.5q8 8 18.5 11.5t20.5 3.5q12 0 21 -4zM751 676q6 -2 8.5 -7.5t4.5 -10.5q4 -7 4 -21q0 -10 -4 -21q-2 -4 -4.5 -8.5t-8.5 -6.5q-5 -9 -16 -13t-21 -4t-21 4q-4 4 -8.5 6.5t-8.5 6.5q-2 2 -5.5 6.5t-5.5 8.5
q-4 11 -4 21q0 20 8.5 30.5t23.5 19.5q5 2 11.5 3t9.5 1q13 0 21 -4q12 -4 16 -11zM277 647q5 12 5 18q0 9 -5 18q0 2 -4 6l-6 6q-2 3 -5 6.5t-9 3.5q-2 4 -7.5 5t-9.5 1h-49v-145h16v55h33q4 0 9.5 0.5t7.5 2.5q10 4 14 10q4 2 7 5.5t3 7.5zM2079 311h29l6 3q5 4 9 6l8 4
l3 6q3 6 6 11t3 9v32q-2 6 -6 10t-6 7q-6 2 -9.5 5t-7.5 7h-40q-6 -4 -9.5 -7t-8.5 -5q-7 -5 -11 -17q-2 -8 -2 -12v-20q0 -4 1 -8.5t4 -7.5l4 -4q3 -3 4 -6l6 -3q7 -5 10.5 -6.5t6.5 -3.5zM1993 711h-20v-112q-1 2 -2 5t-3 4l-70 97l-3 6h-23v-145h21v114l84 -114h16v145z
M1480 382q-3 -6 -4 -11.5t-1 -7.5v-8q3 -14 7 -21q0 -2 2 -4t4 -6l5 -3q2 -2 9 -2q2 -4 5.5 -5t5.5 -3h26q5 2 8 3t6 5l10 5q2 4 4.5 6t2.5 4q2 3 3 7.5t3 8.5q0 2 1 5.5t1 7.5q0 2 -1 7.5t-5 11.5q0 6 -3.5 10t-5.5 7q-3 1 -8 6l-9 6h-40q-4 -4 -9 -7t-9 -5q-2 -3 -5 -7
t-3 -10zM935 711h-17v-112l-73 106q-4 0 -6 6h-23v-145h19v117h2l2 -1v-4l81 -112h15v145zM1982 357q-4 -1 -7 -2t-5 -2l42 -56h-11q-7 2 -8.5 3.5t-1.5 5.5l-36 47h-26v-56h-15v130h54q3 0 9 -2q2 -2 5.5 -4.5t4.5 -4.5q4 -2 5 -5.5t7 -7.5v-25q-4 -4 -5 -7.5t-3 -5.5z
M1259 357q-3 -3 -11 -4l44 -56h-14q-9 3 -9 9l-36 47h-26v-56h-13v130h53q9 -2 13.5 -4.5t8.5 -6.5q0 -2 3 -5.5t3 -7.5l2 -19q-3 -16 -6 -19l-5 -4q-2 -2 -7 -4zM386 711h-91v-145h91v20h-69v44h55v17h-55v42h69v22zM1614 711h-88v-145h88v20h-66v44h55v17h-55v42h66v22z
M2306 425l17 2v-130h-11v106l-2 -2v-2q-4 -7 -6.5 -16t-7.5 -13q-4 -7 -6 -12.5t-7 -13.5q-2 -8 -3 -14t-5 -9q-3 -8 -6 -12.5t-5 -11.5h-14q-9 12 -14 24.5t-10 26.5q-4 11 -11 24.5t-11 26.5v2h-4v-104h-13v130h13l8 -4v-5l46 -99l3 -2v4q0 1 7 5l38 92q2 5 3 5t1 2z
M1387 711h-20v-97q0 -3 -2 -7q-1 -7 -9 -12q0 -2 -4 -3.5t-6 -5.5l-8 -2h-8q-7 0 -13 2q-5 4 -8 5.5t-5 3.5l-10 12q0 3 -1 7t-1 10v87h-19v-87q0 -7 1.5 -16.5t6.5 -14.5q2 -6 9 -11q2 -3 4.5 -5.5t7.5 -4.5q2 -2 6 -3t7 -3q4 0 7 -1t8 -1q4 0 7.5 1t10.5 1q2 2 5 3t6 3
q8 6 12 10q3 2 5 5t5 6q0 4 3 7t3 7v104zM622 592q2 5 3 8t1 8q0 10 -5 18t-11 13q-2 0 -3.5 2t-5.5 4l-4 2h-4q-4 3 -6 3.5t-3 1.5q-7 2 -8.5 3t-5.5 3q-6 3 -8 3l-3 21q8 7 11 7l14 2q10 -3 11 -6l6 -2q9 0 13 4l4 2l-6 8q-2 1 -4.5 3.5t-6.5 4.5q-2 0 -4 2t-5 4h-28
q-5 -2 -7 -4t-6 -4q-2 -5 -5.5 -7.5t-6.5 -6.5q0 -4 -2 -6.5t-2 -8.5q0 -7 4 -16l5 -7l5 -4q2 -2 6 -5t7 -3l7 -4q2 -1 7 -1q1 -2 5.5 -2t6.5 -2l5 -2q5 -4 5.5 -5l2.5 -5l2 -15q-4 -5 -4 -7.5t-2 -3.5q-1 -3 -6 -5l-3 -1q-4 0 -7.5 -1t-4.5 -1q-5 0 -11 1.5t-6 6.5l-4 1
q-4 4 -11 4h-5l-9 -4l9 -16h3q7 -7 15.5 -9t18.5 -2h8q5 0 11 2q4 2 8.5 4t6.5 5q4 2 7.5 5.5t4.5 9.5zM1497 592q7 7 7 16q0 10 -4.5 18t-11.5 13q-6 5 -6 6h-4l-36 16l-6 6q0 1 -1 3t-1 4q0 4 4 8q5 4 6.5 5.5t4.5 1.5q2 2 10 2l3 -1l7.5 -3t5.5 -2q6 -2 7 -2q7 0 8 4l5 2
q0 2 -2.5 4t-4.5 4q0 1 -3 3.5t-5 4.5q-3 0 -5 2t-6 4h-6l-4 1q-6 0 -9.5 -0.5t-7.5 -0.5l-13 -8l-11 -14q-1 -4 -3 -6.5t-2 -8.5q0 -4 2 -7.5t3 -8.5q2 -4 4.5 -6.5l4.5 -4.5q4 -2 6.5 -5t6.5 -3q8 -5 13 -5q4 -2 6.5 -2t5.5 -2q5 0 10 -3.5t5 -8.5l2 -14q-2 -7 -3.5 -9
t-3.5 -3q-11 -8 -22 -8q-2 0 -5.5 1t-5.5 1q-3 1 -8 6l-2 1q-4 4 -9 4h-6l-10 -4l8 -9v-2q7 -5 8 -5q6 -7 13.5 -9t16.5 -2h11q3 0 11 2q2 2 5.5 4t7.5 5l5 7q3 3 4 8zM1632 297h-16v130h18l77 -106v106h13v-130h-11l-77 106v4h-4v-110zM73 328q-4 4 -5 7.5t-2 8.5
q-2 6 -3 9.5t-1 9.5t4 15q1 4 2 9t5 9l9 13q2 2 6 4.5t6 4.5q5 5 9.5 6t8.5 3q3 0 8 1.5t10 1.5q15 0 26 -7q13 -4 20 -14l-4 -6h-13q-3 2 -6 5t-7 3h-34l-20 -12q-4 -3 -7 -7t-4 -10q-2 -6 -3 -11.5t-1 -7.5q0 -9 4 -13q0 -4 0.5 -8.5t0.5 -7.5l4 -4q5 -1 6 -6l7 -4
q2 -1 7 -1q2 -4 4.5 -5t6.5 -3h31q2 2 6.5 3t8.5 5v27h-13v2l-6 4h-2l-1 7h35v-48q-2 -5 -3.5 -6t-5.5 -6h-11q-8 -2 -12 -2h-32q-5 0 -18 9q-7 0 -12 9zM225 411v-41h52v-15h-52v-44h63v-14h-79v130h79v-16h-63zM1098 411v-41h56v-15h-56v-44h64v-14h-79v130h79v-16h-64z
M2226 711h-18q-5 0 -9 -4t-4 -9l-35 -44h-4l-36 44q-3 13 -15 13h-16l54 -72v-2l4 -3v-68h20v66l4 5v2zM2112 586h-64v125h-20v-145h84v20zM601 427v-79q0 -6 2 -9t5 -5q0 -6 3 -9t5 -4q0 -2 4 -4t6 -4q6 -2 8 -2h15l12 6t7 4q4 1 8 13q4 3 4 14v79h13v-79q0 -9 -3.5 -20.5
t-11.5 -16.5q-5 -12 -15 -12q-6 -1 -11.5 -1.5t-10.5 -0.5t-10.5 0.5t-12.5 1.5q-3 0 -15 12l-10 15q-1 6 -3 11t-2 11v79h13zM1191 586h-62v125h-19v-145h81v20zM1361 315q1 2 2 3.5t2 3.5q2 2 3 6t1 6q0 17 -15 21q-3 0 -12.5 4t-11.5 6q-9 0 -13 7q-2 0 -3.5 3t-3.5 6v21
q0 1 2 7q0 8 7 9l6 5q2 1 3.5 2t3.5 2q4 0 6.5 1.5t7.5 1.5l10 -3q3 0 4 -1t5 -3q6 0 6 -7q5 0 6 -3l1 -2l-2 -2q-6 -2 -9 -2h-6l-23 4q-8 0 -8 -2q-5 -7 -5 -8q-4 0 -4 -7q0 -5 4 -6q0 -4 3 -6l6 -4q4 -4 7 -4t7 -2l6 -2q3 0 7 -5h4l6 -2q5 -4 7.5 -7t4.5 -4q1 -5 1.5 -9.5
t0.5 -8.5v-10l-7.5 -12t-6.5 -6q-2 -2 -6 -4.5t-6 -2.5q-4 -2 -9 -2h-9q-9 0 -16.5 1t-12.5 8q-2 0 -3 2.5t-5 4.5v4l-2 2l4 2h6q1 0 3 -1t4 -1q4 -4 6.5 -5t4.5 -3h20q7 0 11 4zM1002 297l-55 130h5q10 0 14 -9l40 -97v-2h2l2 2q5 13 12 25.5t11 23.5q4 14 9.5 25.5
t11.5 22.5q0 5 1.5 5t1.5 2l16 2q-7 -16 -14 -32.5t-15 -31.5q-4 -8 -7 -17l-6 -18l-14 -31h-15zM499 411v-46h56v-12h-56v-56h-15v130h80v-16h-65zM1836 411v-46h51v-12h-51v-56h-15v130h77v-16h-62zM824 427v-116h59v-14h-75v130h16zM348 297v114h-44v16h99v-16h-44v-114
h-11zM735 427v-116h60v-14h-75v130h15zM253 683q2 -1 3 -4t3 -5q3 -4 3 -9v-4q0 -2 -3 -7q-2 -2 -3 -4.5t-3 -2.5q-1 -2 -3 -4l-4 -4h-43v50h33q4 0 10 -2zM1242 365q5 0 6 3q4 4 9 4l2 4q5 10 5 16q0 2 -1 3t-1 4q-3 2 -4 3t-1 5q-5 0 -9 4h-41v-46h35zM1970 368q4 4 7 4
q5 7 5 9q2 4 2 11q0 3 -2 7q0 1 -5 8q-3 0 -7 4h-41v-46h33q4 0 8 3zM486 658l-4 -7q-2 0 -3 -2t-3 -2q-2 -2 -9 -2h-31v44h31q3 0 9 -2l6 -4q1 -2 2 -3.5t2 -3.5q3 -1 3 -9q0 -6 -3 -9zM1429 427v-130h-16v130h16zM641 121l-27 69h-2l-28 -69h57zM1024 682v-4l26 -60h-55
l27 60v5zM1645 77q6 0 6 -6l2 -9q0 -7 -2 -9q0 -4 -6 -9l-22 -4q-4 4 -9 4q0 2 -5 9q-2 2 -2 9v4l7 11q7 4 9 4l14 3z" />
    <glyph glyph-name="onesuperior" unicode="&#xb9;" 
d="M2323 1024v-550h-2254v550h854q0 28 5 55t19 50q11 27 24.5 49t34.5 39q36 39 86 58q25 11 51 16t53 5q31 0 58 -6t50 -15q55 -27 88.5 -60.5t58.5 -89.5q18 -49 18 -101h854zM947 1024q0 -57 17.5 -96.5t52.5 -82.5q36 -35 82 -55t97 -20q50 0 96 17.5t80 55.5
q20 18 33 38t24 41q20 51 20 102q0 43 -13.5 82t-41.5 72q-13 18 -27.5 31t-32.5 24q-17 7 -35 16.5t-37 16.5q-14 3 -30.5 6t-35.5 3q-55 0 -100 -23q-46 -16 -79 -54q-34 -34 -52 -80t-18 -94zM1070 877l295 298q58 -73 58 -151q0 -22 -3 -42t-11 -39q-13 -35 -38 -66
h-301zM1026 870q-26 34 -41 71q-8 17 -11 38t-3 45q0 18 3 37.5t11 39.5q4 18 13.5 33.5t23.5 30.5h299zM2058 194q3 -4 5.5 -10t4.5 -13q4 -7 4 -14v-29q0 -7 -4 -11q-2 -7 -4.5 -14t-5.5 -13q-4 -7 -15 -19q-6 -5 -11.5 -9.5t-12.5 -8.5q-5 -5 -11.5 -7t-12.5 -4
q-8 -2 -13 -2h-16q-19 0 -40 6q-8 6 -15.5 12t-15.5 13q-8 6 -13.5 13.5t-7.5 19.5q-6 9 -7.5 18.5t-1.5 21.5q0 8 1 13.5t1 13.5q3 7 6 13t7 10q2 8 5.5 12.5t9.5 10.5q3 4 9.5 8t11.5 9q4 2 10.5 4t12.5 6q10 0 15.5 1t11.5 1q9 0 16 -1t13 -1q6 -4 12.5 -6t11.5 -4
q13 -10 24 -17q2 -6 7.5 -10.5t7.5 -12.5zM1064 194q2 -4 4 -10t5 -13q2 -10 2 -14v-29q0 -5 -2 -11q-3 -7 -5 -14t-4 -13q-5 -4 -9.5 -9.5t-8.5 -9.5q-14 -14 -21.5 -18t-24.5 -11q-4 -1 -7 -1.5t-7 -0.5h-15q-9 0 -18.5 2t-21.5 4q-11 6 -17.5 12t-15.5 13
q-15 14 -21.5 33.5t-6.5 39.5v13q0 4 2 14q5 17 11 23q4 8 7.5 12.5t7.5 10.5q7 4 11.5 8t10.5 9l27 10q4 0 10.5 1t13.5 1q8 0 15 -1t14 -1q6 -4 12.5 -6t13.5 -4l20 -17q4 -6 8.5 -10.5t9.5 -12.5zM2281 244l1 1l41 1v-206h-35v150l-5 -9v-6q-8 -18 -14.5 -36t-14.5 -31
q-6 -18 -11.5 -33.5t-13.5 -34.5h-34l-52 131q-5 3 -5 10l-3 6v-147h-39v206h37q5 0 6.5 -1t3.5 -1q2 -2 3 -2t3 -2l7 -4q0 -2 2 -3.5t2 -3.5q4 -16 10.5 -30t14.5 -32q6 -15 11.5 -30.5t11.5 -28.5v-12l5 12l9 13l42 108l4 7l5 4q2 2 4 2t4 2zM1246 246h36v-206h-34
l-94 138l-4 3v2q-5 9 -7 11t-5 2v-156h-36v206h32q4 0 8.5 -1t4.5 -3q3 -2 5 -2t4 -2l21 -31q5 -8 9.5 -16t9.5 -17q13 -13 23 -27.5t23 -27.5q0 -2 1 -4.5t1 -6.5l2 -5v143zM630 246l88 -206h-23q-8 0 -15 4q-2 2 -4 6.5t-6 8.5l-12 25h-94l-9 -25q0 -6 -4 -6l-7 -9
q-2 0 -3.5 -1t-5.5 -1l-28 -2l90 206h33zM244 246h130v-37h-94v-46h77v-38h-77v-48h94v-37h-130v206zM69 246h149v-23l-7 -14l-99 -134h1l2 2h102v-37h-155v13q0 9 2 11q0 2 5 7v4l2 4q2 2 4 3.5t2 5.5l88 121h-96v37zM786 618q1 6 2 10t1 9q0 12 -3 21q0 5 -3.5 8.5
t-5.5 9.5q-2 3 -4.5 6t-6.5 7l-7 6q-2 3 -8 8l-8 4q-2 1 -4.5 2t-5.5 2h-38q-10 -4 -17 -8q-4 -5 -7.5 -7.5t-7.5 -6.5q-11 -8 -12 -13q-4 -6 -5 -9.5t-3 -8.5q-1 -5 -1.5 -10t-0.5 -11q0 -15 6 -27.5t16 -23.5q11 -14 24 -14q11 -6 27 -6h19q6 2 10.5 4t7.5 4q11 5 15 12
q7 7 11 15q2 4 5.5 8.5t3.5 8.5zM1843 618v40q-2 5 -3.5 9t-3.5 9q-5 6 -14 13q-1 4 -5.5 6.5t-8.5 7.5l-4 2t-5 2l-7 4h-39l-10 -4l-10 -4q-3 -5 -6 -7.5t-7 -6.5q-3 -4 -6 -6.5t-5 -6.5q-2 -6 -4.5 -9.5t-2.5 -8.5q-5 -10 -5 -21q0 -5 2.5 -13t5.5 -14q5 -15 15 -24
q8 -14 24 -14q11 -6 28 -6h20q3 2 8 4t8 4q4 3 8.5 5.5t5.5 6.5q9 5 14 15zM1724 190q-7 -7 -13 -23q-2 -4 -4 -9.5t-2 -13.5q0 -9 6 -25.5t13 -22.5q9 -9 22 -15q12 -4 26 -4q5 0 9.5 1t10.5 1q3 2 8 4.5t8 6.5q2 0 8 2h12q2 0 8 -2q2 -1 7 -6l6 -7q-3 -4 -6 -7.5t-7 -7.5
q-6 -3 -10.5 -6t-11.5 -6q-5 -3 -15.5 -6.5t-16.5 -3.5h-10q-11 0 -22 2t-20 4q-20 9 -33 25q-15 14 -21 33q-4 9 -6.5 18.5t-2.5 21.5q0 8 1 13.5t3 13.5q2 16 9 23q6 8 8.5 12.5t8.5 10.5l23 17l26 10q5 0 11.5 1t14.5 1h12q4 0 15 -3t15 -5l22 -13q4 -4 7 -8l6 -8
l-13 -15h-14q-7 0 -14 4q-3 2 -8 4.5t-8 4.5q-8 2 -11 2h-9q-15 0 -26 -6q-15 -2 -22 -13zM1594 125q5 -8 5 -19q0 -14 -7 -27l-8 -12q-3 -5 -8 -8q-6 -6 -10.5 -9.5t-12.5 -5.5q-5 -2 -13 -3t-14 -1q-11 0 -31 4q-9 4 -20 18q-4 1 -6 5l-4 8q-6 2 -6 9l6 4l8 2l2 2h9
q12 -3 13 -4q5 -4 8.5 -5.5t5.5 -3.5q2 0 6 -1t9 -1h5q8 2 12 3.5t7 3.5l4 4t3 4q2 4 4 7t2 7q0 6 -6 9q-4 6 -7 6q-2 4 -6.5 5t-6.5 2q-5 0 -13 6q-5 0 -9 1t-9 6q-9 3 -12.5 6t-7.5 7q-11 4 -11 13q-6 11 -6 23q0 18 6 25q1 4 5 10l8 9q4 2 9 4t12 6q6 0 10.5 1t12.5 1
q4 0 8 -1t10 -1l15 -6q3 -4 6 -6.5t7 -6.5q3 -2 6.5 -5t3.5 -7l-13 -8l-20 -3l-5 1q-3 1 -6 4q-2 0 -3.5 1t-3.5 1h-16q-2 0 -3 -1t-5 -3l-6 -5q-1 -3 -1 -10q3 -6 4 -9t3 -7h6q8 -2 13 -4.5t10 -4.5l8 -2q5 -4 9 -5t9 -4q6 -2 16 -12.5t10 -16.5zM1480 315q-11 8 -15 19
q-6 14 -6 29v15l10 18q2 2 4.5 5.5t6.5 7.5q6 8 12 9q3 5 8.5 6t8.5 3q4 0 8 1.5t9 1.5q4 0 10 -1.5t10 -1.5q4 -2 7.5 -3t7.5 -6l11 -9l12 -13q2 -4 4 -8.5t4 -9.5q0 -4 1 -8.5t1 -6.5q0 -6 -1 -13.5t-5 -15.5q-4 -12 -16 -19q-4 -4 -8.5 -7.5t-11.5 -8.5q-10 -2 -26 -2
h-14q-4 0 -10 2q-15 4 -22 16zM2030 119q5 12 5 25q0 15 -5 23q-3 13 -13.5 23t-23.5 13q-4 4 -11 5t-16 1q-10 0 -24 -6q-7 -1 -11.5 -4t-10.5 -9q-8 -6 -15 -23q0 -4 -1 -9.5t-1 -13.5t1 -13.5t1 -11.5q8 -16 15 -23q6 -4 10.5 -8t11.5 -7q7 -2 13.5 -3t10.5 -1q20 0 27 4
q28 10 37 38zM2141 315q-6 -4 -12 -7.5t-11 -8.5q-8 -2 -12 -2h-28q-4 0 -12 2q-11 4 -21 16q-7 7 -13 19q-2 8 -4 15.5t-2 13.5q0 2 1 6.5t1 8.5q2 4 3 9t4 9q2 3 5 6t5 7q7 5 16 9q3 5 8 6t7 3q5 0 8 1.5t10 1.5q2 0 7.5 -1.5t10.5 -1.5q4 -2 7.5 -3t5.5 -6q4 -2 8.5 -4.5
t7.5 -4.5q1 -2 2 -3.5t2 -3.5l4 -6q6 -10 7 -18q2 -4 3 -8.5t1 -6.5q0 -6 -1 -13.5t-5 -15.5q0 -6 -5 -11zM1039 144q0 14 -4 23q-4 17 -18 23q-2 6 -7.5 9t-11.5 4q-10 6 -27 6q-13 0 -24 -6q-10 -1 -22 -13q-8 -5 -13 -23q-5 -5 -5 -10v-27q0 -4 5 -11q5 -14 13 -22.5
t22 -15.5q9 -4 24 -4q18 0 27 4q14 7 19 15q13 5 17.5 20.5t4.5 27.5zM726 246h130v-37h-94v-52h77v-36h-77v-81h-36v206zM535 209h-55v-169h-40v169h-59v37h154v-37zM1302 246h155v-37h-61v-169h-37v169h-57v37zM1281 1233q16 -8 33.5 -19.5t33.5 -21.5h-304q34 28 70 41
q37 17 82 17t85 -17zM1114 810q-18 7 -35 18t-33 24h302q-16 -13 -33.5 -24t-33.5 -18q-22 -6 -43 -10.5t-42 -4.5q-23 0 -42.5 4.5t-39.5 10.5zM524 566l-44 64q4 0 11 4q7 3 8 9q8 6 8 11v24q-6 14 -12 19q-5 8 -13 8q-2 4 -6.5 5t-8.5 1h-53v-145h22v60h22l37 -52
q1 -4 7 -6zM1096 566l-63 145h-20l-62 -145h11q7 0 9 2q0 2 6 6l10 25h72l11 -25q1 -4 5 -6q2 -2 8 -2h13zM1810 676q2 -2 6.5 -7.5t5.5 -10.5q4 -7 4 -21q0 -12 -4 -21q-1 -4 -6 -9l-6 -6q-5 -4 -9 -6.5t-8 -6.5q-8 -4 -21 -4q-14 0 -21 4q-5 4 -9.5 6.5t-8.5 6.5
q-3 2 -6 6.5t-3 8.5q-4 6 -5 11t-1 10q0 11 6 21q0 5 3 10.5t6 7.5q8 8 18.5 11.5t20.5 3.5q12 0 21 -4zM751 676q6 -2 8.5 -7.5t4.5 -10.5q4 -7 4 -21q0 -10 -4 -21q-2 -4 -4.5 -8.5t-8.5 -6.5q-5 -9 -16 -13t-21 -4t-21 4q-4 4 -8.5 6.5t-8.5 6.5q-2 2 -5.5 6.5t-5.5 8.5
q-4 11 -4 21q0 20 8.5 30.5t23.5 19.5q5 2 11.5 3t9.5 1q13 0 21 -4q12 -4 16 -11zM277 647q5 12 5 18q0 9 -5 18q0 2 -4 6l-6 6q-2 3 -5 6.5t-9 3.5q-2 4 -7.5 5t-9.5 1h-49v-145h16v55h33q4 0 9.5 0.5t7.5 2.5q10 4 14 10q4 2 7 5.5t3 7.5zM2079 311h29l6 3q5 4 9 6l8 4
l3 6q3 6 6 11t3 9v32q-2 6 -6 10t-6 7q-6 2 -9.5 5t-7.5 7h-40q-6 -4 -9.5 -7t-8.5 -5q-7 -5 -11 -17q-2 -8 -2 -12v-20q0 -4 1 -8.5t4 -7.5l4 -4q3 -3 4 -6l6 -3q7 -5 10.5 -6.5t6.5 -3.5zM1993 711h-20v-112q-1 2 -2 5t-3 4l-70 97l-3 6h-23v-145h21v114l84 -114h16v145z
M1480 382q-3 -6 -4 -11.5t-1 -7.5v-8q3 -14 7 -21q0 -2 2 -4t4 -6l5 -3q2 -2 9 -2q2 -4 5.5 -5t5.5 -3h26q5 2 8 3t6 5l10 5q2 4 4.5 6t2.5 4q2 3 3 7.5t3 8.5q0 2 1 5.5t1 7.5q0 2 -1 7.5t-5 11.5q0 6 -3.5 10t-5.5 7q-3 1 -8 6l-9 6h-40q-4 -4 -9 -7t-9 -5q-2 -3 -5 -7
t-3 -10zM935 711h-17v-112l-73 106q-4 0 -6 6h-23v-145h19v117h2l2 -1v-4l81 -112h15v145zM1982 357q-4 -1 -7 -2t-5 -2l42 -56h-11q-7 2 -8.5 3.5t-1.5 5.5l-36 47h-26v-56h-15v130h54q3 0 9 -2q2 -2 5.5 -4.5t4.5 -4.5q4 -2 5 -5.5t7 -7.5v-25q-4 -4 -5 -7.5t-3 -5.5z
M1259 357q-3 -3 -11 -4l44 -56h-14q-9 3 -9 9l-36 47h-26v-56h-13v130h53q9 -2 13.5 -4.5t8.5 -6.5q0 -2 3 -5.5t3 -7.5l2 -19q-3 -16 -6 -19l-5 -4q-2 -2 -7 -4zM386 711h-91v-145h91v20h-69v44h55v17h-55v42h69v22zM1614 711h-88v-145h88v20h-66v44h55v17h-55v42h66v22z
M2306 425l17 2v-130h-11v106l-2 -2v-2q-4 -7 -6.5 -16t-7.5 -13q-4 -7 -6 -12.5t-7 -13.5q-2 -8 -3 -14t-5 -9q-3 -8 -6 -12.5t-5 -11.5h-14q-9 12 -14 24.5t-10 26.5q-4 11 -11 24.5t-11 26.5v2h-4v-104h-13v130h13l8 -4v-5l46 -99l3 -2v4q0 1 7 5l38 92q2 5 3 5t1 2z
M1387 711h-20v-97q0 -3 -2 -7q-1 -7 -9 -12q0 -2 -4 -3.5t-6 -5.5l-8 -2h-8q-7 0 -13 2q-5 4 -8 5.5t-5 3.5l-10 12q0 3 -1 7t-1 10v87h-19v-87q0 -7 1.5 -16.5t6.5 -14.5q2 -6 9 -11q2 -3 4.5 -5.5t7.5 -4.5q2 -2 6 -3t7 -3q4 0 7 -1t8 -1q4 0 7.5 1t10.5 1q2 2 5 3t6 3
q8 6 12 10q3 2 5 5t5 6q0 4 3 7t3 7v104zM622 592q2 5 3 8t1 8q0 10 -5 18t-11 13q-2 0 -3.5 2t-5.5 4l-4 2h-4q-4 3 -6 3.5t-3 1.5q-7 2 -8.5 3t-5.5 3q-6 3 -8 3l-3 21q8 7 11 7l14 2q10 -3 11 -6l6 -2q9 0 13 4l4 2l-6 8q-2 1 -4.5 3.5t-6.5 4.5q-2 0 -4 2t-5 4h-28
q-5 -2 -7 -4t-6 -4q-2 -5 -5.5 -7.5t-6.5 -6.5q0 -4 -2 -6.5t-2 -8.5q0 -7 4 -16l5 -7l5 -4q2 -2 6 -5t7 -3l7 -4q2 -1 7 -1q1 -2 5.5 -2t6.5 -2l5 -2q5 -4 5.5 -5l2.5 -5l2 -15q-4 -5 -4 -7.5t-2 -3.5q-1 -3 -6 -5l-3 -1q-4 0 -7.5 -1t-4.5 -1q-5 0 -11 1.5t-6 6.5l-4 1
q-4 4 -11 4h-5l-9 -4l9 -16h3q7 -7 15.5 -9t18.5 -2h8q5 0 11 2q4 2 8.5 4t6.5 5q4 2 7.5 5.5t4.5 9.5zM1497 592q7 7 7 16q0 10 -4.5 18t-11.5 13q-6 5 -6 6h-4l-36 16l-6 6q0 1 -1 3t-1 4q0 4 4 8q5 4 6.5 5.5t4.5 1.5q2 2 10 2l3 -1l7.5 -3t5.5 -2q6 -2 7 -2q7 0 8 4l5 2
q0 2 -2.5 4t-4.5 4q0 1 -3 3.5t-5 4.5q-3 0 -5 2t-6 4h-6l-4 1q-6 0 -9.5 -0.5t-7.5 -0.5l-13 -8l-11 -14q-1 -4 -3 -6.5t-2 -8.5q0 -4 2 -7.5t3 -8.5q2 -4 4.5 -6.5l4.5 -4.5q4 -2 6.5 -5t6.5 -3q8 -5 13 -5q4 -2 6.5 -2t5.5 -2q5 0 10 -3.5t5 -8.5l2 -14q-2 -7 -3.5 -9
t-3.5 -3q-11 -8 -22 -8q-2 0 -5.5 1t-5.5 1q-3 1 -8 6l-2 1q-4 4 -9 4h-6l-10 -4l8 -9v-2q7 -5 8 -5q6 -7 13.5 -9t16.5 -2h11q3 0 11 2q2 2 5.5 4t7.5 5l5 7q3 3 4 8zM1632 297h-16v130h18l77 -106v106h13v-130h-11l-77 106v4h-4v-110zM73 328q-4 4 -5 7.5t-2 8.5
q-2 6 -3 9.5t-1 9.5t4 15q1 4 2 9t5 9l9 13q2 2 6 4.5t6 4.5q5 5 9.5 6t8.5 3q3 0 8 1.5t10 1.5q15 0 26 -7q13 -4 20 -14l-4 -6h-13q-3 2 -6 5t-7 3h-34l-20 -12q-4 -3 -7 -7t-4 -10q-2 -6 -3 -11.5t-1 -7.5q0 -9 4 -13q0 -4 0.5 -8.5t0.5 -7.5l4 -4q5 -1 6 -6l7 -4
q2 -1 7 -1q2 -4 4.5 -5t6.5 -3h31q2 2 6.5 3t8.5 5v27h-13v2l-6 4h-2l-1 7h35v-48q-2 -5 -3.5 -6t-5.5 -6h-11q-8 -2 -12 -2h-32q-5 0 -18 9q-7 0 -12 9zM225 411v-41h52v-15h-52v-44h63v-14h-79v130h79v-16h-63zM1098 411v-41h56v-15h-56v-44h64v-14h-79v130h79v-16h-64z
M2226 711h-18q-5 0 -9 -4t-4 -9l-35 -44h-4l-36 44q-3 13 -15 13h-16l54 -72v-2l4 -3v-68h20v66l4 5v2zM2112 586h-64v125h-20v-145h84v20zM601 427v-79q0 -6 2 -9t5 -5q0 -6 3 -9t5 -4q0 -2 4 -4t6 -4q6 -2 8 -2h15l12 6t7 4q4 1 8 13q4 3 4 14v79h13v-79q0 -9 -3.5 -20.5
t-11.5 -16.5q-5 -12 -15 -12q-6 -1 -11.5 -1.5t-10.5 -0.5t-10.5 0.5t-12.5 1.5q-3 0 -15 12l-10 15q-1 6 -3 11t-2 11v79h13zM1191 586h-62v125h-19v-145h81v20zM1361 315q1 2 2 3.5t2 3.5q2 2 3 6t1 6q0 17 -15 21q-3 0 -12.5 4t-11.5 6q-9 0 -13 7q-2 0 -3.5 3t-3.5 6v21
q0 1 2 7q0 8 7 9l6 5q2 1 3.5 2t3.5 2q4 0 6.5 1.5t7.5 1.5l10 -3q3 0 4 -1t5 -3q6 0 6 -7q5 0 6 -3l1 -2l-2 -2q-6 -2 -9 -2h-6l-23 4q-8 0 -8 -2q-5 -7 -5 -8q-4 0 -4 -7q0 -5 4 -6q0 -4 3 -6l6 -4q4 -4 7 -4t7 -2l6 -2q3 0 7 -5h4l6 -2q5 -4 7.5 -7t4.5 -4q1 -5 1.5 -9.5
t0.5 -8.5v-10l-7.5 -12t-6.5 -6q-2 -2 -6 -4.5t-6 -2.5q-4 -2 -9 -2h-9q-9 0 -16.5 1t-12.5 8q-2 0 -3 2.5t-5 4.5v4l-2 2l4 2h6q1 0 3 -1t4 -1q4 -4 6.5 -5t4.5 -3h20q7 0 11 4zM1002 297l-55 130h5q10 0 14 -9l40 -97v-2h2l2 2q5 13 12 25.5t11 23.5q4 14 9.5 25.5
t11.5 22.5q0 5 1.5 5t1.5 2l16 2q-7 -16 -14 -32.5t-15 -31.5q-4 -8 -7 -17l-6 -18l-14 -31h-15zM499 411v-46h56v-12h-56v-56h-15v130h80v-16h-65zM1836 411v-46h51v-12h-51v-56h-15v130h77v-16h-62zM824 427v-116h59v-14h-75v130h16zM348 297v114h-44v16h99v-16h-44v-114
h-11zM735 427v-116h60v-14h-75v130h15zM253 683q2 -1 3 -4t3 -5q3 -4 3 -9v-4q0 -2 -3 -7q-2 -2 -3 -4.5t-3 -2.5q-1 -2 -3 -4l-4 -4h-43v50h33q4 0 10 -2zM1242 365q5 0 6 3q4 4 9 4l2 4q5 10 5 16q0 2 -1 3t-1 4q-3 2 -4 3t-1 5q-5 0 -9 4h-41v-46h35zM1970 368q4 4 7 4
q5 7 5 9q2 4 2 11q0 3 -2 7q0 1 -5 8q-3 0 -7 4h-41v-46h33q4 0 8 3zM486 658l-4 -7q-2 0 -3 -2t-3 -2q-2 -2 -9 -2h-31v44h31q3 0 9 -2l6 -4q1 -2 2 -3.5t2 -3.5q3 -1 3 -9q0 -6 -3 -9zM1429 427v-130h-16v130h16zM641 121l-27 69h-2l-28 -69h57zM1024 682v-4l26 -60h-55
l27 60v5zM1645 77q6 0 6 -6l2 -9q0 -7 -2 -9q0 -4 -6 -9l-22 -4q-4 4 -9 4q0 2 -5 9q-2 2 -2 9v4l7 11q7 4 9 4l14 3z" />
    <glyph glyph-name="ordmasculine" unicode="&#xba;" horiz-adv-x="981" 
d="M109 1080q0 -76 29 -143t79 -116.5t116.5 -78t142.5 -28.5q73 0 139.5 26.5t117 75t80.5 116t30 148.5q0 76 -29 143t-78.5 117t-116.5 79t-143 29t-142.5 -29t-116.5 -79t-79 -117t-29 -143zM242 1079q0 48 18.5 90.5t50 74t74 50t90.5 18.5q49 0 91.5 -18.5t74 -50
t50 -74t18.5 -90.5q0 -49 -18.5 -91t-50 -73.5t-74 -49.5t-91.5 -18q-48 0 -90.5 18t-74 49.5t-50 73.5t-18.5 91z" />
    <glyph glyph-name="ordfeminine" unicode="&#xaa;" horiz-adv-x="981" 
d="M232 1088q0 48 18.5 90.5t50 74t74 50t91.5 18.5q48 0 90.5 -18.5t74 -50.5t49.5 -74t18 -90q0 -49 -18 -91.5t-49.5 -74t-74 -49.5t-90.5 -18q-49 0 -91.5 18t-74 49.5t-50 74t-18.5 91.5zM723 771q0 -10 6.5 -20.5t23.5 -10.5h67q14 0 21 9.5t7 18.5l-5 632
q0 15 -8.5 22t-19.5 7h-51q-27 0 -30 -29l-6 -97q-45 66 -110 103.5t-156 38.5q-72 0 -136.5 -27.5t-112.5 -76.5t-76 -114t-28 -140q0 -74 28 -139t76.5 -113t114 -76t139.5 -28q59 0 100 11.5t70 30.5t49.5 43t36.5 49v-94z" />
    <glyph glyph-name="onequarter" unicode="&#xbc;" 
d="M2323 1024v-550h-2254v550h854q0 28 5 55t19 50q11 27 24.5 49t34.5 39q36 39 86 58q25 11 51 16t53 5q31 0 58 -6t50 -15q55 -27 88.5 -60.5t58.5 -89.5q18 -49 18 -101h854zM947 1024q0 -57 17.5 -96.5t52.5 -82.5q36 -35 82 -55t97 -20q50 0 96 17.5t80 55.5
q20 18 33 38t24 41q20 51 20 102q0 43 -13.5 82t-41.5 72q-13 18 -27.5 31t-32.5 24q-17 7 -35 16.5t-37 16.5q-14 3 -30.5 6t-35.5 3q-55 0 -100 -23q-46 -16 -79 -54q-34 -34 -52 -80t-18 -94zM1070 877l295 298q58 -73 58 -151q0 -22 -3 -42t-11 -39q-13 -35 -38 -66
h-301zM1026 870q-26 34 -41 71q-8 17 -11 38t-3 45q0 18 3 37.5t11 39.5q4 18 13.5 33.5t23.5 30.5h299zM2058 194q3 -4 5.5 -10t4.5 -13q4 -7 4 -14v-29q0 -7 -4 -11q-2 -7 -4.5 -14t-5.5 -13q-4 -7 -15 -19q-6 -5 -11.5 -9.5t-12.5 -8.5q-5 -5 -11.5 -7t-12.5 -4
q-8 -2 -13 -2h-16q-19 0 -40 6q-8 6 -15.5 12t-15.5 13q-8 6 -13.5 13.5t-7.5 19.5q-6 9 -7.5 18.5t-1.5 21.5q0 8 1 13.5t1 13.5q3 7 6 13t7 10q2 8 5.5 12.5t9.5 10.5q3 4 9.5 8t11.5 9q4 2 10.5 4t12.5 6q10 0 15.5 1t11.5 1q9 0 16 -1t13 -1q6 -4 12.5 -6t11.5 -4
q13 -10 24 -17q2 -6 7.5 -10.5t7.5 -12.5zM1064 194q2 -4 4 -10t5 -13q2 -10 2 -14v-29q0 -5 -2 -11q-3 -7 -5 -14t-4 -13q-5 -4 -9.5 -9.5t-8.5 -9.5q-14 -14 -21.5 -18t-24.5 -11q-4 -1 -7 -1.5t-7 -0.5h-15q-9 0 -18.5 2t-21.5 4q-11 6 -17.5 12t-15.5 13
q-15 14 -21.5 33.5t-6.5 39.5v13q0 4 2 14q5 17 11 23q4 8 7.5 12.5t7.5 10.5q7 4 11.5 8t10.5 9l27 10q4 0 10.5 1t13.5 1q8 0 15 -1t14 -1q6 -4 12.5 -6t13.5 -4l20 -17q4 -6 8.5 -10.5t9.5 -12.5zM2281 244l1 1l41 1v-206h-35v150l-5 -9v-6q-8 -18 -14.5 -36t-14.5 -31
q-6 -18 -11.5 -33.5t-13.5 -34.5h-34l-52 131q-5 3 -5 10l-3 6v-147h-39v206h37q5 0 6.5 -1t3.5 -1q2 -2 3 -2t3 -2l7 -4q0 -2 2 -3.5t2 -3.5q4 -16 10.5 -30t14.5 -32q6 -15 11.5 -30.5t11.5 -28.5v-12l5 12l9 13l42 108l4 7l5 4q2 2 4 2t4 2zM1246 246h36v-206h-34
l-94 138l-4 3v2q-5 9 -7 11t-5 2v-156h-36v206h32q4 0 8.5 -1t4.5 -3q3 -2 5 -2t4 -2l21 -31q5 -8 9.5 -16t9.5 -17q13 -13 23 -27.5t23 -27.5q0 -2 1 -4.5t1 -6.5l2 -5v143zM630 246l88 -206h-23q-8 0 -15 4q-2 2 -4 6.5t-6 8.5l-12 25h-94l-9 -25q0 -6 -4 -6l-7 -9
q-2 0 -3.5 -1t-5.5 -1l-28 -2l90 206h33zM244 246h130v-37h-94v-46h77v-38h-77v-48h94v-37h-130v206zM69 246h149v-23l-7 -14l-99 -134h1l2 2h102v-37h-155v13q0 9 2 11q0 2 5 7v4l2 4q2 2 4 3.5t2 5.5l88 121h-96v37zM786 618q1 6 2 10t1 9q0 12 -3 21q0 5 -3.5 8.5
t-5.5 9.5q-2 3 -4.5 6t-6.5 7l-7 6q-2 3 -8 8l-8 4q-2 1 -4.5 2t-5.5 2h-38q-10 -4 -17 -8q-4 -5 -7.5 -7.5t-7.5 -6.5q-11 -8 -12 -13q-4 -6 -5 -9.5t-3 -8.5q-1 -5 -1.5 -10t-0.5 -11q0 -15 6 -27.5t16 -23.5q11 -14 24 -14q11 -6 27 -6h19q6 2 10.5 4t7.5 4q11 5 15 12
q7 7 11 15q2 4 5.5 8.5t3.5 8.5zM1843 618v40q-2 5 -3.5 9t-3.5 9q-5 6 -14 13q-1 4 -5.5 6.5t-8.5 7.5l-4 2t-5 2l-7 4h-39l-10 -4l-10 -4q-3 -5 -6 -7.5t-7 -6.5q-3 -4 -6 -6.5t-5 -6.5q-2 -6 -4.5 -9.5t-2.5 -8.5q-5 -10 -5 -21q0 -5 2.5 -13t5.5 -14q5 -15 15 -24
q8 -14 24 -14q11 -6 28 -6h20q3 2 8 4t8 4q4 3 8.5 5.5t5.5 6.5q9 5 14 15zM1724 190q-7 -7 -13 -23q-2 -4 -4 -9.5t-2 -13.5q0 -9 6 -25.5t13 -22.5q9 -9 22 -15q12 -4 26 -4q5 0 9.5 1t10.5 1q3 2 8 4.5t8 6.5q2 0 8 2h12q2 0 8 -2q2 -1 7 -6l6 -7q-3 -4 -6 -7.5t-7 -7.5
q-6 -3 -10.5 -6t-11.5 -6q-5 -3 -15.5 -6.5t-16.5 -3.5h-10q-11 0 -22 2t-20 4q-20 9 -33 25q-15 14 -21 33q-4 9 -6.5 18.5t-2.5 21.5q0 8 1 13.5t3 13.5q2 16 9 23q6 8 8.5 12.5t8.5 10.5l23 17l26 10q5 0 11.5 1t14.5 1h12q4 0 15 -3t15 -5l22 -13q4 -4 7 -8l6 -8
l-13 -15h-14q-7 0 -14 4q-3 2 -8 4.5t-8 4.5q-8 2 -11 2h-9q-15 0 -26 -6q-15 -2 -22 -13zM1594 125q5 -8 5 -19q0 -14 -7 -27l-8 -12q-3 -5 -8 -8q-6 -6 -10.5 -9.5t-12.5 -5.5q-5 -2 -13 -3t-14 -1q-11 0 -31 4q-9 4 -20 18q-4 1 -6 5l-4 8q-6 2 -6 9l6 4l8 2l2 2h9
q12 -3 13 -4q5 -4 8.5 -5.5t5.5 -3.5q2 0 6 -1t9 -1h5q8 2 12 3.5t7 3.5l4 4t3 4q2 4 4 7t2 7q0 6 -6 9q-4 6 -7 6q-2 4 -6.5 5t-6.5 2q-5 0 -13 6q-5 0 -9 1t-9 6q-9 3 -12.5 6t-7.5 7q-11 4 -11 13q-6 11 -6 23q0 18 6 25q1 4 5 10l8 9q4 2 9 4t12 6q6 0 10.5 1t12.5 1
q4 0 8 -1t10 -1l15 -6q3 -4 6 -6.5t7 -6.5q3 -2 6.5 -5t3.5 -7l-13 -8l-20 -3l-5 1q-3 1 -6 4q-2 0 -3.5 1t-3.5 1h-16q-2 0 -3 -1t-5 -3l-6 -5q-1 -3 -1 -10q3 -6 4 -9t3 -7h6q8 -2 13 -4.5t10 -4.5l8 -2q5 -4 9 -5t9 -4q6 -2 16 -12.5t10 -16.5zM1480 315q-11 8 -15 19
q-6 14 -6 29v15l10 18q2 2 4.5 5.5t6.5 7.5q6 8 12 9q3 5 8.5 6t8.5 3q4 0 8 1.5t9 1.5q4 0 10 -1.5t10 -1.5q4 -2 7.5 -3t7.5 -6l11 -9l12 -13q2 -4 4 -8.5t4 -9.5q0 -4 1 -8.5t1 -6.5q0 -6 -1 -13.5t-5 -15.5q-4 -12 -16 -19q-4 -4 -8.5 -7.5t-11.5 -8.5q-10 -2 -26 -2
h-14q-4 0 -10 2q-15 4 -22 16zM2030 119q5 12 5 25q0 15 -5 23q-3 13 -13.5 23t-23.5 13q-4 4 -11 5t-16 1q-10 0 -24 -6q-7 -1 -11.5 -4t-10.5 -9q-8 -6 -15 -23q0 -4 -1 -9.5t-1 -13.5t1 -13.5t1 -11.5q8 -16 15 -23q6 -4 10.5 -8t11.5 -7q7 -2 13.5 -3t10.5 -1q20 0 27 4
q28 10 37 38zM2141 315q-6 -4 -12 -7.5t-11 -8.5q-8 -2 -12 -2h-28q-4 0 -12 2q-11 4 -21 16q-7 7 -13 19q-2 8 -4 15.5t-2 13.5q0 2 1 6.5t1 8.5q2 4 3 9t4 9q2 3 5 6t5 7q7 5 16 9q3 5 8 6t7 3q5 0 8 1.5t10 1.5q2 0 7.5 -1.5t10.5 -1.5q4 -2 7.5 -3t5.5 -6q4 -2 8.5 -4.5
t7.5 -4.5q1 -2 2 -3.5t2 -3.5l4 -6q6 -10 7 -18q2 -4 3 -8.5t1 -6.5q0 -6 -1 -13.5t-5 -15.5q0 -6 -5 -11zM1039 144q0 14 -4 23q-4 17 -18 23q-2 6 -7.5 9t-11.5 4q-10 6 -27 6q-13 0 -24 -6q-10 -1 -22 -13q-8 -5 -13 -23q-5 -5 -5 -10v-27q0 -4 5 -11q5 -14 13 -22.5
t22 -15.5q9 -4 24 -4q18 0 27 4q14 7 19 15q13 5 17.5 20.5t4.5 27.5zM726 246h130v-37h-94v-52h77v-36h-77v-81h-36v206zM535 209h-55v-169h-40v169h-59v37h154v-37zM1302 246h155v-37h-61v-169h-37v169h-57v37zM1281 1233q16 -8 33.5 -19.5t33.5 -21.5h-304q34 28 70 41
q37 17 82 17t85 -17zM1114 810q-18 7 -35 18t-33 24h302q-16 -13 -33.5 -24t-33.5 -18q-22 -6 -43 -10.5t-42 -4.5q-23 0 -42.5 4.5t-39.5 10.5zM524 566l-44 64q4 0 11 4q7 3 8 9q8 6 8 11v24q-6 14 -12 19q-5 8 -13 8q-2 4 -6.5 5t-8.5 1h-53v-145h22v60h22l37 -52
q1 -4 7 -6zM1096 566l-63 145h-20l-62 -145h11q7 0 9 2q0 2 6 6l10 25h72l11 -25q1 -4 5 -6q2 -2 8 -2h13zM1810 676q2 -2 6.5 -7.5t5.5 -10.5q4 -7 4 -21q0 -12 -4 -21q-1 -4 -6 -9l-6 -6q-5 -4 -9 -6.5t-8 -6.5q-8 -4 -21 -4q-14 0 -21 4q-5 4 -9.5 6.5t-8.5 6.5
q-3 2 -6 6.5t-3 8.5q-4 6 -5 11t-1 10q0 11 6 21q0 5 3 10.5t6 7.5q8 8 18.5 11.5t20.5 3.5q12 0 21 -4zM751 676q6 -2 8.5 -7.5t4.5 -10.5q4 -7 4 -21q0 -10 -4 -21q-2 -4 -4.5 -8.5t-8.5 -6.5q-5 -9 -16 -13t-21 -4t-21 4q-4 4 -8.5 6.5t-8.5 6.5q-2 2 -5.5 6.5t-5.5 8.5
q-4 11 -4 21q0 20 8.5 30.5t23.5 19.5q5 2 11.5 3t9.5 1q13 0 21 -4q12 -4 16 -11zM277 647q5 12 5 18q0 9 -5 18q0 2 -4 6l-6 6q-2 3 -5 6.5t-9 3.5q-2 4 -7.5 5t-9.5 1h-49v-145h16v55h33q4 0 9.5 0.5t7.5 2.5q10 4 14 10q4 2 7 5.5t3 7.5zM2079 311h29l6 3q5 4 9 6l8 4
l3 6q3 6 6 11t3 9v32q-2 6 -6 10t-6 7q-6 2 -9.5 5t-7.5 7h-40q-6 -4 -9.5 -7t-8.5 -5q-7 -5 -11 -17q-2 -8 -2 -12v-20q0 -4 1 -8.5t4 -7.5l4 -4q3 -3 4 -6l6 -3q7 -5 10.5 -6.5t6.5 -3.5zM1993 711h-20v-112q-1 2 -2 5t-3 4l-70 97l-3 6h-23v-145h21v114l84 -114h16v145z
M1480 382q-3 -6 -4 -11.5t-1 -7.5v-8q3 -14 7 -21q0 -2 2 -4t4 -6l5 -3q2 -2 9 -2q2 -4 5.5 -5t5.5 -3h26q5 2 8 3t6 5l10 5q2 4 4.5 6t2.5 4q2 3 3 7.5t3 8.5q0 2 1 5.5t1 7.5q0 2 -1 7.5t-5 11.5q0 6 -3.5 10t-5.5 7q-3 1 -8 6l-9 6h-40q-4 -4 -9 -7t-9 -5q-2 -3 -5 -7
t-3 -10zM935 711h-17v-112l-73 106q-4 0 -6 6h-23v-145h19v117h2l2 -1v-4l81 -112h15v145zM1982 357q-4 -1 -7 -2t-5 -2l42 -56h-11q-7 2 -8.5 3.5t-1.5 5.5l-36 47h-26v-56h-15v130h54q3 0 9 -2q2 -2 5.5 -4.5t4.5 -4.5q4 -2 5 -5.5t7 -7.5v-25q-4 -4 -5 -7.5t-3 -5.5z
M1259 357q-3 -3 -11 -4l44 -56h-14q-9 3 -9 9l-36 47h-26v-56h-13v130h53q9 -2 13.5 -4.5t8.5 -6.5q0 -2 3 -5.5t3 -7.5l2 -19q-3 -16 -6 -19l-5 -4q-2 -2 -7 -4zM386 711h-91v-145h91v20h-69v44h55v17h-55v42h69v22zM1614 711h-88v-145h88v20h-66v44h55v17h-55v42h66v22z
M2306 425l17 2v-130h-11v106l-2 -2v-2q-4 -7 -6.5 -16t-7.5 -13q-4 -7 -6 -12.5t-7 -13.5q-2 -8 -3 -14t-5 -9q-3 -8 -6 -12.5t-5 -11.5h-14q-9 12 -14 24.5t-10 26.5q-4 11 -11 24.5t-11 26.5v2h-4v-104h-13v130h13l8 -4v-5l46 -99l3 -2v4q0 1 7 5l38 92q2 5 3 5t1 2z
M1387 711h-20v-97q0 -3 -2 -7q-1 -7 -9 -12q0 -2 -4 -3.5t-6 -5.5l-8 -2h-8q-7 0 -13 2q-5 4 -8 5.5t-5 3.5l-10 12q0 3 -1 7t-1 10v87h-19v-87q0 -7 1.5 -16.5t6.5 -14.5q2 -6 9 -11q2 -3 4.5 -5.5t7.5 -4.5q2 -2 6 -3t7 -3q4 0 7 -1t8 -1q4 0 7.5 1t10.5 1q2 2 5 3t6 3
q8 6 12 10q3 2 5 5t5 6q0 4 3 7t3 7v104zM622 592q2 5 3 8t1 8q0 10 -5 18t-11 13q-2 0 -3.5 2t-5.5 4l-4 2h-4q-4 3 -6 3.5t-3 1.5q-7 2 -8.5 3t-5.5 3q-6 3 -8 3l-3 21q8 7 11 7l14 2q10 -3 11 -6l6 -2q9 0 13 4l4 2l-6 8q-2 1 -4.5 3.5t-6.5 4.5q-2 0 -4 2t-5 4h-28
q-5 -2 -7 -4t-6 -4q-2 -5 -5.5 -7.5t-6.5 -6.5q0 -4 -2 -6.5t-2 -8.5q0 -7 4 -16l5 -7l5 -4q2 -2 6 -5t7 -3l7 -4q2 -1 7 -1q1 -2 5.5 -2t6.5 -2l5 -2q5 -4 5.5 -5l2.5 -5l2 -15q-4 -5 -4 -7.5t-2 -3.5q-1 -3 -6 -5l-3 -1q-4 0 -7.5 -1t-4.5 -1q-5 0 -11 1.5t-6 6.5l-4 1
q-4 4 -11 4h-5l-9 -4l9 -16h3q7 -7 15.5 -9t18.5 -2h8q5 0 11 2q4 2 8.5 4t6.5 5q4 2 7.5 5.5t4.5 9.5zM1497 592q7 7 7 16q0 10 -4.5 18t-11.5 13q-6 5 -6 6h-4l-36 16l-6 6q0 1 -1 3t-1 4q0 4 4 8q5 4 6.5 5.5t4.5 1.5q2 2 10 2l3 -1l7.5 -3t5.5 -2q6 -2 7 -2q7 0 8 4l5 2
q0 2 -2.5 4t-4.5 4q0 1 -3 3.5t-5 4.5q-3 0 -5 2t-6 4h-6l-4 1q-6 0 -9.5 -0.5t-7.5 -0.5l-13 -8l-11 -14q-1 -4 -3 -6.5t-2 -8.5q0 -4 2 -7.5t3 -8.5q2 -4 4.5 -6.5l4.5 -4.5q4 -2 6.5 -5t6.5 -3q8 -5 13 -5q4 -2 6.5 -2t5.5 -2q5 0 10 -3.5t5 -8.5l2 -14q-2 -7 -3.5 -9
t-3.5 -3q-11 -8 -22 -8q-2 0 -5.5 1t-5.5 1q-3 1 -8 6l-2 1q-4 4 -9 4h-6l-10 -4l8 -9v-2q7 -5 8 -5q6 -7 13.5 -9t16.5 -2h11q3 0 11 2q2 2 5.5 4t7.5 5l5 7q3 3 4 8zM1632 297h-16v130h18l77 -106v106h13v-130h-11l-77 106v4h-4v-110zM73 328q-4 4 -5 7.5t-2 8.5
q-2 6 -3 9.5t-1 9.5t4 15q1 4 2 9t5 9l9 13q2 2 6 4.5t6 4.5q5 5 9.5 6t8.5 3q3 0 8 1.5t10 1.5q15 0 26 -7q13 -4 20 -14l-4 -6h-13q-3 2 -6 5t-7 3h-34l-20 -12q-4 -3 -7 -7t-4 -10q-2 -6 -3 -11.5t-1 -7.5q0 -9 4 -13q0 -4 0.5 -8.5t0.5 -7.5l4 -4q5 -1 6 -6l7 -4
q2 -1 7 -1q2 -4 4.5 -5t6.5 -3h31q2 2 6.5 3t8.5 5v27h-13v2l-6 4h-2l-1 7h35v-48q-2 -5 -3.5 -6t-5.5 -6h-11q-8 -2 -12 -2h-32q-5 0 -18 9q-7 0 -12 9zM225 411v-41h52v-15h-52v-44h63v-14h-79v130h79v-16h-63zM1098 411v-41h56v-15h-56v-44h64v-14h-79v130h79v-16h-64z
M2226 711h-18q-5 0 -9 -4t-4 -9l-35 -44h-4l-36 44q-3 13 -15 13h-16l54 -72v-2l4 -3v-68h20v66l4 5v2zM2112 586h-64v125h-20v-145h84v20zM601 427v-79q0 -6 2 -9t5 -5q0 -6 3 -9t5 -4q0 -2 4 -4t6 -4q6 -2 8 -2h15l12 6t7 4q4 1 8 13q4 3 4 14v79h13v-79q0 -9 -3.5 -20.5
t-11.5 -16.5q-5 -12 -15 -12q-6 -1 -11.5 -1.5t-10.5 -0.5t-10.5 0.5t-12.5 1.5q-3 0 -15 12l-10 15q-1 6 -3 11t-2 11v79h13zM1191 586h-62v125h-19v-145h81v20zM1361 315q1 2 2 3.5t2 3.5q2 2 3 6t1 6q0 17 -15 21q-3 0 -12.5 4t-11.5 6q-9 0 -13 7q-2 0 -3.5 3t-3.5 6v21
q0 1 2 7q0 8 7 9l6 5q2 1 3.5 2t3.5 2q4 0 6.5 1.5t7.5 1.5l10 -3q3 0 4 -1t5 -3q6 0 6 -7q5 0 6 -3l1 -2l-2 -2q-6 -2 -9 -2h-6l-23 4q-8 0 -8 -2q-5 -7 -5 -8q-4 0 -4 -7q0 -5 4 -6q0 -4 3 -6l6 -4q4 -4 7 -4t7 -2l6 -2q3 0 7 -5h4l6 -2q5 -4 7.5 -7t4.5 -4q1 -5 1.5 -9.5
t0.5 -8.5v-10l-7.5 -12t-6.5 -6q-2 -2 -6 -4.5t-6 -2.5q-4 -2 -9 -2h-9q-9 0 -16.5 1t-12.5 8q-2 0 -3 2.5t-5 4.5v4l-2 2l4 2h6q1 0 3 -1t4 -1q4 -4 6.5 -5t4.5 -3h20q7 0 11 4zM1002 297l-55 130h5q10 0 14 -9l40 -97v-2h2l2 2q5 13 12 25.5t11 23.5q4 14 9.5 25.5
t11.5 22.5q0 5 1.5 5t1.5 2l16 2q-7 -16 -14 -32.5t-15 -31.5q-4 -8 -7 -17l-6 -18l-14 -31h-15zM499 411v-46h56v-12h-56v-56h-15v130h80v-16h-65zM1836 411v-46h51v-12h-51v-56h-15v130h77v-16h-62zM824 427v-116h59v-14h-75v130h16zM348 297v114h-44v16h99v-16h-44v-114
h-11zM735 427v-116h60v-14h-75v130h15zM253 683q2 -1 3 -4t3 -5q3 -4 3 -9v-4q0 -2 -3 -7q-2 -2 -3 -4.5t-3 -2.5q-1 -2 -3 -4l-4 -4h-43v50h33q4 0 10 -2zM1242 365q5 0 6 3q4 4 9 4l2 4q5 10 5 16q0 2 -1 3t-1 4q-3 2 -4 3t-1 5q-5 0 -9 4h-41v-46h35zM1970 368q4 4 7 4
q5 7 5 9q2 4 2 11q0 3 -2 7q0 1 -5 8q-3 0 -7 4h-41v-46h33q4 0 8 3zM486 658l-4 -7q-2 0 -3 -2t-3 -2q-2 -2 -9 -2h-31v44h31q3 0 9 -2l6 -4q1 -2 2 -3.5t2 -3.5q3 -1 3 -9q0 -6 -3 -9zM1429 427v-130h-16v130h16zM641 121l-27 69h-2l-28 -69h57zM1024 682v-4l26 -60h-55
l27 60v5zM1645 77q6 0 6 -6l2 -9q0 -7 -2 -9q0 -4 -6 -9l-22 -4q-4 4 -9 4q0 2 -5 9q-2 2 -2 9v4l7 11q7 4 9 4l14 3z" />
    <glyph glyph-name="onehalf" unicode="&#xbd;" 
d="M2323 1024v-550h-2254v550h854q0 28 5 55t19 50q11 27 24.5 49t34.5 39q36 39 86 58q25 11 51 16t53 5q31 0 58 -6t50 -15q55 -27 88.5 -60.5t58.5 -89.5q18 -49 18 -101h854zM947 1024q0 -57 17.5 -96.5t52.5 -82.5q36 -35 82 -55t97 -20q50 0 96 17.5t80 55.5
q20 18 33 38t24 41q20 51 20 102q0 43 -13.5 82t-41.5 72q-13 18 -27.5 31t-32.5 24q-17 7 -35 16.5t-37 16.5q-14 3 -30.5 6t-35.5 3q-55 0 -100 -23q-46 -16 -79 -54q-34 -34 -52 -80t-18 -94zM1070 877l295 298q58 -73 58 -151q0 -22 -3 -42t-11 -39q-13 -35 -38 -66
h-301zM1026 870q-26 34 -41 71q-8 17 -11 38t-3 45q0 18 3 37.5t11 39.5q4 18 13.5 33.5t23.5 30.5h299zM2058 194q3 -4 5.5 -10t4.5 -13q4 -7 4 -14v-29q0 -7 -4 -11q-2 -7 -4.5 -14t-5.5 -13q-4 -7 -15 -19q-6 -5 -11.5 -9.5t-12.5 -8.5q-5 -5 -11.5 -7t-12.5 -4
q-8 -2 -13 -2h-16q-19 0 -40 6q-8 6 -15.5 12t-15.5 13q-8 6 -13.5 13.5t-7.5 19.5q-6 9 -7.5 18.5t-1.5 21.5q0 8 1 13.5t1 13.5q3 7 6 13t7 10q2 8 5.5 12.5t9.5 10.5q3 4 9.5 8t11.5 9q4 2 10.5 4t12.5 6q10 0 15.5 1t11.5 1q9 0 16 -1t13 -1q6 -4 12.5 -6t11.5 -4
q13 -10 24 -17q2 -6 7.5 -10.5t7.5 -12.5zM1064 194q2 -4 4 -10t5 -13q2 -10 2 -14v-29q0 -5 -2 -11q-3 -7 -5 -14t-4 -13q-5 -4 -9.5 -9.5t-8.5 -9.5q-14 -14 -21.5 -18t-24.5 -11q-4 -1 -7 -1.5t-7 -0.5h-15q-9 0 -18.5 2t-21.5 4q-11 6 -17.5 12t-15.5 13
q-15 14 -21.5 33.5t-6.5 39.5v13q0 4 2 14q5 17 11 23q4 8 7.5 12.5t7.5 10.5q7 4 11.5 8t10.5 9l27 10q4 0 10.5 1t13.5 1q8 0 15 -1t14 -1q6 -4 12.5 -6t13.5 -4l20 -17q4 -6 8.5 -10.5t9.5 -12.5zM2281 244l1 1l41 1v-206h-35v150l-5 -9v-6q-8 -18 -14.5 -36t-14.5 -31
q-6 -18 -11.5 -33.5t-13.5 -34.5h-34l-52 131q-5 3 -5 10l-3 6v-147h-39v206h37q5 0 6.5 -1t3.5 -1q2 -2 3 -2t3 -2l7 -4q0 -2 2 -3.5t2 -3.5q4 -16 10.5 -30t14.5 -32q6 -15 11.5 -30.5t11.5 -28.5v-12l5 12l9 13l42 108l4 7l5 4q2 2 4 2t4 2zM1246 246h36v-206h-34
l-94 138l-4 3v2q-5 9 -7 11t-5 2v-156h-36v206h32q4 0 8.5 -1t4.5 -3q3 -2 5 -2t4 -2l21 -31q5 -8 9.5 -16t9.5 -17q13 -13 23 -27.5t23 -27.5q0 -2 1 -4.5t1 -6.5l2 -5v143zM630 246l88 -206h-23q-8 0 -15 4q-2 2 -4 6.5t-6 8.5l-12 25h-94l-9 -25q0 -6 -4 -6l-7 -9
q-2 0 -3.5 -1t-5.5 -1l-28 -2l90 206h33zM244 246h130v-37h-94v-46h77v-38h-77v-48h94v-37h-130v206zM69 246h149v-23l-7 -14l-99 -134h1l2 2h102v-37h-155v13q0 9 2 11q0 2 5 7v4l2 4q2 2 4 3.5t2 5.5l88 121h-96v37zM786 618q1 6 2 10t1 9q0 12 -3 21q0 5 -3.5 8.5
t-5.5 9.5q-2 3 -4.5 6t-6.5 7l-7 6q-2 3 -8 8l-8 4q-2 1 -4.5 2t-5.5 2h-38q-10 -4 -17 -8q-4 -5 -7.5 -7.5t-7.5 -6.5q-11 -8 -12 -13q-4 -6 -5 -9.5t-3 -8.5q-1 -5 -1.5 -10t-0.5 -11q0 -15 6 -27.5t16 -23.5q11 -14 24 -14q11 -6 27 -6h19q6 2 10.5 4t7.5 4q11 5 15 12
q7 7 11 15q2 4 5.5 8.5t3.5 8.5zM1843 618v40q-2 5 -3.5 9t-3.5 9q-5 6 -14 13q-1 4 -5.5 6.5t-8.5 7.5l-4 2t-5 2l-7 4h-39l-10 -4l-10 -4q-3 -5 -6 -7.5t-7 -6.5q-3 -4 -6 -6.5t-5 -6.5q-2 -6 -4.5 -9.5t-2.5 -8.5q-5 -10 -5 -21q0 -5 2.5 -13t5.5 -14q5 -15 15 -24
q8 -14 24 -14q11 -6 28 -6h20q3 2 8 4t8 4q4 3 8.5 5.5t5.5 6.5q9 5 14 15zM1724 190q-7 -7 -13 -23q-2 -4 -4 -9.5t-2 -13.5q0 -9 6 -25.5t13 -22.5q9 -9 22 -15q12 -4 26 -4q5 0 9.5 1t10.5 1q3 2 8 4.5t8 6.5q2 0 8 2h12q2 0 8 -2q2 -1 7 -6l6 -7q-3 -4 -6 -7.5t-7 -7.5
q-6 -3 -10.5 -6t-11.5 -6q-5 -3 -15.5 -6.5t-16.5 -3.5h-10q-11 0 -22 2t-20 4q-20 9 -33 25q-15 14 -21 33q-4 9 -6.5 18.5t-2.5 21.5q0 8 1 13.5t3 13.5q2 16 9 23q6 8 8.5 12.5t8.5 10.5l23 17l26 10q5 0 11.5 1t14.5 1h12q4 0 15 -3t15 -5l22 -13q4 -4 7 -8l6 -8
l-13 -15h-14q-7 0 -14 4q-3 2 -8 4.5t-8 4.5q-8 2 -11 2h-9q-15 0 -26 -6q-15 -2 -22 -13zM1594 125q5 -8 5 -19q0 -14 -7 -27l-8 -12q-3 -5 -8 -8q-6 -6 -10.5 -9.5t-12.5 -5.5q-5 -2 -13 -3t-14 -1q-11 0 -31 4q-9 4 -20 18q-4 1 -6 5l-4 8q-6 2 -6 9l6 4l8 2l2 2h9
q12 -3 13 -4q5 -4 8.5 -5.5t5.5 -3.5q2 0 6 -1t9 -1h5q8 2 12 3.5t7 3.5l4 4t3 4q2 4 4 7t2 7q0 6 -6 9q-4 6 -7 6q-2 4 -6.5 5t-6.5 2q-5 0 -13 6q-5 0 -9 1t-9 6q-9 3 -12.5 6t-7.5 7q-11 4 -11 13q-6 11 -6 23q0 18 6 25q1 4 5 10l8 9q4 2 9 4t12 6q6 0 10.5 1t12.5 1
q4 0 8 -1t10 -1l15 -6q3 -4 6 -6.5t7 -6.5q3 -2 6.5 -5t3.5 -7l-13 -8l-20 -3l-5 1q-3 1 -6 4q-2 0 -3.5 1t-3.5 1h-16q-2 0 -3 -1t-5 -3l-6 -5q-1 -3 -1 -10q3 -6 4 -9t3 -7h6q8 -2 13 -4.5t10 -4.5l8 -2q5 -4 9 -5t9 -4q6 -2 16 -12.5t10 -16.5zM1480 315q-11 8 -15 19
q-6 14 -6 29v15l10 18q2 2 4.5 5.5t6.5 7.5q6 8 12 9q3 5 8.5 6t8.5 3q4 0 8 1.5t9 1.5q4 0 10 -1.5t10 -1.5q4 -2 7.5 -3t7.5 -6l11 -9l12 -13q2 -4 4 -8.5t4 -9.5q0 -4 1 -8.5t1 -6.5q0 -6 -1 -13.5t-5 -15.5q-4 -12 -16 -19q-4 -4 -8.5 -7.5t-11.5 -8.5q-10 -2 -26 -2
h-14q-4 0 -10 2q-15 4 -22 16zM2030 119q5 12 5 25q0 15 -5 23q-3 13 -13.5 23t-23.5 13q-4 4 -11 5t-16 1q-10 0 -24 -6q-7 -1 -11.5 -4t-10.5 -9q-8 -6 -15 -23q0 -4 -1 -9.5t-1 -13.5t1 -13.5t1 -11.5q8 -16 15 -23q6 -4 10.5 -8t11.5 -7q7 -2 13.5 -3t10.5 -1q20 0 27 4
q28 10 37 38zM2141 315q-6 -4 -12 -7.5t-11 -8.5q-8 -2 -12 -2h-28q-4 0 -12 2q-11 4 -21 16q-7 7 -13 19q-2 8 -4 15.5t-2 13.5q0 2 1 6.5t1 8.5q2 4 3 9t4 9q2 3 5 6t5 7q7 5 16 9q3 5 8 6t7 3q5 0 8 1.5t10 1.5q2 0 7.5 -1.5t10.5 -1.5q4 -2 7.5 -3t5.5 -6q4 -2 8.5 -4.5
t7.5 -4.5q1 -2 2 -3.5t2 -3.5l4 -6q6 -10 7 -18q2 -4 3 -8.5t1 -6.5q0 -6 -1 -13.5t-5 -15.5q0 -6 -5 -11zM1039 144q0 14 -4 23q-4 17 -18 23q-2 6 -7.5 9t-11.5 4q-10 6 -27 6q-13 0 -24 -6q-10 -1 -22 -13q-8 -5 -13 -23q-5 -5 -5 -10v-27q0 -4 5 -11q5 -14 13 -22.5
t22 -15.5q9 -4 24 -4q18 0 27 4q14 7 19 15q13 5 17.5 20.5t4.5 27.5zM726 246h130v-37h-94v-52h77v-36h-77v-81h-36v206zM535 209h-55v-169h-40v169h-59v37h154v-37zM1302 246h155v-37h-61v-169h-37v169h-57v37zM1281 1233q16 -8 33.5 -19.5t33.5 -21.5h-304q34 28 70 41
q37 17 82 17t85 -17zM1114 810q-18 7 -35 18t-33 24h302q-16 -13 -33.5 -24t-33.5 -18q-22 -6 -43 -10.5t-42 -4.5q-23 0 -42.5 4.5t-39.5 10.5zM524 566l-44 64q4 0 11 4q7 3 8 9q8 6 8 11v24q-6 14 -12 19q-5 8 -13 8q-2 4 -6.5 5t-8.5 1h-53v-145h22v60h22l37 -52
q1 -4 7 -6zM1096 566l-63 145h-20l-62 -145h11q7 0 9 2q0 2 6 6l10 25h72l11 -25q1 -4 5 -6q2 -2 8 -2h13zM1810 676q2 -2 6.5 -7.5t5.5 -10.5q4 -7 4 -21q0 -12 -4 -21q-1 -4 -6 -9l-6 -6q-5 -4 -9 -6.5t-8 -6.5q-8 -4 -21 -4q-14 0 -21 4q-5 4 -9.5 6.5t-8.5 6.5
q-3 2 -6 6.5t-3 8.5q-4 6 -5 11t-1 10q0 11 6 21q0 5 3 10.5t6 7.5q8 8 18.5 11.5t20.5 3.5q12 0 21 -4zM751 676q6 -2 8.5 -7.5t4.5 -10.5q4 -7 4 -21q0 -10 -4 -21q-2 -4 -4.5 -8.5t-8.5 -6.5q-5 -9 -16 -13t-21 -4t-21 4q-4 4 -8.5 6.5t-8.5 6.5q-2 2 -5.5 6.5t-5.5 8.5
q-4 11 -4 21q0 20 8.5 30.5t23.5 19.5q5 2 11.5 3t9.5 1q13 0 21 -4q12 -4 16 -11zM277 647q5 12 5 18q0 9 -5 18q0 2 -4 6l-6 6q-2 3 -5 6.5t-9 3.5q-2 4 -7.5 5t-9.5 1h-49v-145h16v55h33q4 0 9.5 0.5t7.5 2.5q10 4 14 10q4 2 7 5.5t3 7.5zM2079 311h29l6 3q5 4 9 6l8 4
l3 6q3 6 6 11t3 9v32q-2 6 -6 10t-6 7q-6 2 -9.5 5t-7.5 7h-40q-6 -4 -9.5 -7t-8.5 -5q-7 -5 -11 -17q-2 -8 -2 -12v-20q0 -4 1 -8.5t4 -7.5l4 -4q3 -3 4 -6l6 -3q7 -5 10.5 -6.5t6.5 -3.5zM1993 711h-20v-112q-1 2 -2 5t-3 4l-70 97l-3 6h-23v-145h21v114l84 -114h16v145z
M1480 382q-3 -6 -4 -11.5t-1 -7.5v-8q3 -14 7 -21q0 -2 2 -4t4 -6l5 -3q2 -2 9 -2q2 -4 5.5 -5t5.5 -3h26q5 2 8 3t6 5l10 5q2 4 4.5 6t2.5 4q2 3 3 7.5t3 8.5q0 2 1 5.5t1 7.5q0 2 -1 7.5t-5 11.5q0 6 -3.5 10t-5.5 7q-3 1 -8 6l-9 6h-40q-4 -4 -9 -7t-9 -5q-2 -3 -5 -7
t-3 -10zM935 711h-17v-112l-73 106q-4 0 -6 6h-23v-145h19v117h2l2 -1v-4l81 -112h15v145zM1982 357q-4 -1 -7 -2t-5 -2l42 -56h-11q-7 2 -8.5 3.5t-1.5 5.5l-36 47h-26v-56h-15v130h54q3 0 9 -2q2 -2 5.5 -4.5t4.5 -4.5q4 -2 5 -5.5t7 -7.5v-25q-4 -4 -5 -7.5t-3 -5.5z
M1259 357q-3 -3 -11 -4l44 -56h-14q-9 3 -9 9l-36 47h-26v-56h-13v130h53q9 -2 13.5 -4.5t8.5 -6.5q0 -2 3 -5.5t3 -7.5l2 -19q-3 -16 -6 -19l-5 -4q-2 -2 -7 -4zM386 711h-91v-145h91v20h-69v44h55v17h-55v42h69v22zM1614 711h-88v-145h88v20h-66v44h55v17h-55v42h66v22z
M2306 425l17 2v-130h-11v106l-2 -2v-2q-4 -7 -6.5 -16t-7.5 -13q-4 -7 -6 -12.5t-7 -13.5q-2 -8 -3 -14t-5 -9q-3 -8 -6 -12.5t-5 -11.5h-14q-9 12 -14 24.5t-10 26.5q-4 11 -11 24.5t-11 26.5v2h-4v-104h-13v130h13l8 -4v-5l46 -99l3 -2v4q0 1 7 5l38 92q2 5 3 5t1 2z
M1387 711h-20v-97q0 -3 -2 -7q-1 -7 -9 -12q0 -2 -4 -3.5t-6 -5.5l-8 -2h-8q-7 0 -13 2q-5 4 -8 5.5t-5 3.5l-10 12q0 3 -1 7t-1 10v87h-19v-87q0 -7 1.5 -16.5t6.5 -14.5q2 -6 9 -11q2 -3 4.5 -5.5t7.5 -4.5q2 -2 6 -3t7 -3q4 0 7 -1t8 -1q4 0 7.5 1t10.5 1q2 2 5 3t6 3
q8 6 12 10q3 2 5 5t5 6q0 4 3 7t3 7v104zM622 592q2 5 3 8t1 8q0 10 -5 18t-11 13q-2 0 -3.5 2t-5.5 4l-4 2h-4q-4 3 -6 3.5t-3 1.5q-7 2 -8.5 3t-5.5 3q-6 3 -8 3l-3 21q8 7 11 7l14 2q10 -3 11 -6l6 -2q9 0 13 4l4 2l-6 8q-2 1 -4.5 3.5t-6.5 4.5q-2 0 -4 2t-5 4h-28
q-5 -2 -7 -4t-6 -4q-2 -5 -5.5 -7.5t-6.5 -6.5q0 -4 -2 -6.5t-2 -8.5q0 -7 4 -16l5 -7l5 -4q2 -2 6 -5t7 -3l7 -4q2 -1 7 -1q1 -2 5.5 -2t6.5 -2l5 -2q5 -4 5.5 -5l2.5 -5l2 -15q-4 -5 -4 -7.5t-2 -3.5q-1 -3 -6 -5l-3 -1q-4 0 -7.5 -1t-4.5 -1q-5 0 -11 1.5t-6 6.5l-4 1
q-4 4 -11 4h-5l-9 -4l9 -16h3q7 -7 15.5 -9t18.5 -2h8q5 0 11 2q4 2 8.5 4t6.5 5q4 2 7.5 5.5t4.5 9.5zM1497 592q7 7 7 16q0 10 -4.5 18t-11.5 13q-6 5 -6 6h-4l-36 16l-6 6q0 1 -1 3t-1 4q0 4 4 8q5 4 6.5 5.5t4.5 1.5q2 2 10 2l3 -1l7.5 -3t5.5 -2q6 -2 7 -2q7 0 8 4l5 2
q0 2 -2.5 4t-4.5 4q0 1 -3 3.5t-5 4.5q-3 0 -5 2t-6 4h-6l-4 1q-6 0 -9.5 -0.5t-7.5 -0.5l-13 -8l-11 -14q-1 -4 -3 -6.5t-2 -8.5q0 -4 2 -7.5t3 -8.5q2 -4 4.5 -6.5l4.5 -4.5q4 -2 6.5 -5t6.5 -3q8 -5 13 -5q4 -2 6.5 -2t5.5 -2q5 0 10 -3.5t5 -8.5l2 -14q-2 -7 -3.5 -9
t-3.5 -3q-11 -8 -22 -8q-2 0 -5.5 1t-5.5 1q-3 1 -8 6l-2 1q-4 4 -9 4h-6l-10 -4l8 -9v-2q7 -5 8 -5q6 -7 13.5 -9t16.5 -2h11q3 0 11 2q2 2 5.5 4t7.5 5l5 7q3 3 4 8zM1632 297h-16v130h18l77 -106v106h13v-130h-11l-77 106v4h-4v-110zM73 328q-4 4 -5 7.5t-2 8.5
q-2 6 -3 9.5t-1 9.5t4 15q1 4 2 9t5 9l9 13q2 2 6 4.5t6 4.5q5 5 9.5 6t8.5 3q3 0 8 1.5t10 1.5q15 0 26 -7q13 -4 20 -14l-4 -6h-13q-3 2 -6 5t-7 3h-34l-20 -12q-4 -3 -7 -7t-4 -10q-2 -6 -3 -11.5t-1 -7.5q0 -9 4 -13q0 -4 0.5 -8.5t0.5 -7.5l4 -4q5 -1 6 -6l7 -4
q2 -1 7 -1q2 -4 4.5 -5t6.5 -3h31q2 2 6.5 3t8.5 5v27h-13v2l-6 4h-2l-1 7h35v-48q-2 -5 -3.5 -6t-5.5 -6h-11q-8 -2 -12 -2h-32q-5 0 -18 9q-7 0 -12 9zM225 411v-41h52v-15h-52v-44h63v-14h-79v130h79v-16h-63zM1098 411v-41h56v-15h-56v-44h64v-14h-79v130h79v-16h-64z
M2226 711h-18q-5 0 -9 -4t-4 -9l-35 -44h-4l-36 44q-3 13 -15 13h-16l54 -72v-2l4 -3v-68h20v66l4 5v2zM2112 586h-64v125h-20v-145h84v20zM601 427v-79q0 -6 2 -9t5 -5q0 -6 3 -9t5 -4q0 -2 4 -4t6 -4q6 -2 8 -2h15l12 6t7 4q4 1 8 13q4 3 4 14v79h13v-79q0 -9 -3.5 -20.5
t-11.5 -16.5q-5 -12 -15 -12q-6 -1 -11.5 -1.5t-10.5 -0.5t-10.5 0.5t-12.5 1.5q-3 0 -15 12l-10 15q-1 6 -3 11t-2 11v79h13zM1191 586h-62v125h-19v-145h81v20zM1361 315q1 2 2 3.5t2 3.5q2 2 3 6t1 6q0 17 -15 21q-3 0 -12.5 4t-11.5 6q-9 0 -13 7q-2 0 -3.5 3t-3.5 6v21
q0 1 2 7q0 8 7 9l6 5q2 1 3.5 2t3.5 2q4 0 6.5 1.5t7.5 1.5l10 -3q3 0 4 -1t5 -3q6 0 6 -7q5 0 6 -3l1 -2l-2 -2q-6 -2 -9 -2h-6l-23 4q-8 0 -8 -2q-5 -7 -5 -8q-4 0 -4 -7q0 -5 4 -6q0 -4 3 -6l6 -4q4 -4 7 -4t7 -2l6 -2q3 0 7 -5h4l6 -2q5 -4 7.5 -7t4.5 -4q1 -5 1.5 -9.5
t0.5 -8.5v-10l-7.5 -12t-6.5 -6q-2 -2 -6 -4.5t-6 -2.5q-4 -2 -9 -2h-9q-9 0 -16.5 1t-12.5 8q-2 0 -3 2.5t-5 4.5v4l-2 2l4 2h6q1 0 3 -1t4 -1q4 -4 6.5 -5t4.5 -3h20q7 0 11 4zM1002 297l-55 130h5q10 0 14 -9l40 -97v-2h2l2 2q5 13 12 25.5t11 23.5q4 14 9.5 25.5
t11.5 22.5q0 5 1.5 5t1.5 2l16 2q-7 -16 -14 -32.5t-15 -31.5q-4 -8 -7 -17l-6 -18l-14 -31h-15zM499 411v-46h56v-12h-56v-56h-15v130h80v-16h-65zM1836 411v-46h51v-12h-51v-56h-15v130h77v-16h-62zM824 427v-116h59v-14h-75v130h16zM348 297v114h-44v16h99v-16h-44v-114
h-11zM735 427v-116h60v-14h-75v130h15zM253 683q2 -1 3 -4t3 -5q3 -4 3 -9v-4q0 -2 -3 -7q-2 -2 -3 -4.5t-3 -2.5q-1 -2 -3 -4l-4 -4h-43v50h33q4 0 10 -2zM1242 365q5 0 6 3q4 4 9 4l2 4q5 10 5 16q0 2 -1 3t-1 4q-3 2 -4 3t-1 5q-5 0 -9 4h-41v-46h35zM1970 368q4 4 7 4
q5 7 5 9q2 4 2 11q0 3 -2 7q0 1 -5 8q-3 0 -7 4h-41v-46h33q4 0 8 3zM486 658l-4 -7q-2 0 -3 -2t-3 -2q-2 -2 -9 -2h-31v44h31q3 0 9 -2l6 -4q1 -2 2 -3.5t2 -3.5q3 -1 3 -9q0 -6 -3 -9zM1429 427v-130h-16v130h16zM641 121l-27 69h-2l-28 -69h57zM1024 682v-4l26 -60h-55
l27 60v5zM1645 77q6 0 6 -6l2 -9q0 -7 -2 -9q0 -4 -6 -9l-22 -4q-4 4 -9 4q0 2 -5 9q-2 2 -2 9v4l7 11q7 4 9 4l14 3z" />
    <glyph glyph-name="threequarters" unicode="&#xbe;" 
d="M2323 1024v-550h-2254v550h854q0 28 5 55t19 50q11 27 24.5 49t34.5 39q36 39 86 58q25 11 51 16t53 5q31 0 58 -6t50 -15q55 -27 88.5 -60.5t58.5 -89.5q18 -49 18 -101h854zM947 1024q0 -57 17.5 -96.5t52.5 -82.5q36 -35 82 -55t97 -20q50 0 96 17.5t80 55.5
q20 18 33 38t24 41q20 51 20 102q0 43 -13.5 82t-41.5 72q-13 18 -27.5 31t-32.5 24q-17 7 -35 16.5t-37 16.5q-14 3 -30.5 6t-35.5 3q-55 0 -100 -23q-46 -16 -79 -54q-34 -34 -52 -80t-18 -94zM1070 877l295 298q58 -73 58 -151q0 -22 -3 -42t-11 -39q-13 -35 -38 -66
h-301zM1026 870q-26 34 -41 71q-8 17 -11 38t-3 45q0 18 3 37.5t11 39.5q4 18 13.5 33.5t23.5 30.5h299zM2058 194q3 -4 5.5 -10t4.5 -13q4 -7 4 -14v-29q0 -7 -4 -11q-2 -7 -4.5 -14t-5.5 -13q-4 -7 -15 -19q-6 -5 -11.5 -9.5t-12.5 -8.5q-5 -5 -11.5 -7t-12.5 -4
q-8 -2 -13 -2h-16q-19 0 -40 6q-8 6 -15.5 12t-15.5 13q-8 6 -13.5 13.5t-7.5 19.5q-6 9 -7.5 18.5t-1.5 21.5q0 8 1 13.5t1 13.5q3 7 6 13t7 10q2 8 5.5 12.5t9.5 10.5q3 4 9.5 8t11.5 9q4 2 10.5 4t12.5 6q10 0 15.5 1t11.5 1q9 0 16 -1t13 -1q6 -4 12.5 -6t11.5 -4
q13 -10 24 -17q2 -6 7.5 -10.5t7.5 -12.5zM1064 194q2 -4 4 -10t5 -13q2 -10 2 -14v-29q0 -5 -2 -11q-3 -7 -5 -14t-4 -13q-5 -4 -9.5 -9.5t-8.5 -9.5q-14 -14 -21.5 -18t-24.5 -11q-4 -1 -7 -1.5t-7 -0.5h-15q-9 0 -18.5 2t-21.5 4q-11 6 -17.5 12t-15.5 13
q-15 14 -21.5 33.5t-6.5 39.5v13q0 4 2 14q5 17 11 23q4 8 7.5 12.5t7.5 10.5q7 4 11.5 8t10.5 9l27 10q4 0 10.5 1t13.5 1q8 0 15 -1t14 -1q6 -4 12.5 -6t13.5 -4l20 -17q4 -6 8.5 -10.5t9.5 -12.5zM2281 244l1 1l41 1v-206h-35v150l-5 -9v-6q-8 -18 -14.5 -36t-14.5 -31
q-6 -18 -11.5 -33.5t-13.5 -34.5h-34l-52 131q-5 3 -5 10l-3 6v-147h-39v206h37q5 0 6.5 -1t3.5 -1q2 -2 3 -2t3 -2l7 -4q0 -2 2 -3.5t2 -3.5q4 -16 10.5 -30t14.5 -32q6 -15 11.5 -30.5t11.5 -28.5v-12l5 12l9 13l42 108l4 7l5 4q2 2 4 2t4 2zM1246 246h36v-206h-34
l-94 138l-4 3v2q-5 9 -7 11t-5 2v-156h-36v206h32q4 0 8.5 -1t4.5 -3q3 -2 5 -2t4 -2l21 -31q5 -8 9.5 -16t9.5 -17q13 -13 23 -27.5t23 -27.5q0 -2 1 -4.5t1 -6.5l2 -5v143zM630 246l88 -206h-23q-8 0 -15 4q-2 2 -4 6.5t-6 8.5l-12 25h-94l-9 -25q0 -6 -4 -6l-7 -9
q-2 0 -3.5 -1t-5.5 -1l-28 -2l90 206h33zM244 246h130v-37h-94v-46h77v-38h-77v-48h94v-37h-130v206zM69 246h149v-23l-7 -14l-99 -134h1l2 2h102v-37h-155v13q0 9 2 11q0 2 5 7v4l2 4q2 2 4 3.5t2 5.5l88 121h-96v37zM786 618q1 6 2 10t1 9q0 12 -3 21q0 5 -3.5 8.5
t-5.5 9.5q-2 3 -4.5 6t-6.5 7l-7 6q-2 3 -8 8l-8 4q-2 1 -4.5 2t-5.5 2h-38q-10 -4 -17 -8q-4 -5 -7.5 -7.5t-7.5 -6.5q-11 -8 -12 -13q-4 -6 -5 -9.5t-3 -8.5q-1 -5 -1.5 -10t-0.5 -11q0 -15 6 -27.5t16 -23.5q11 -14 24 -14q11 -6 27 -6h19q6 2 10.5 4t7.5 4q11 5 15 12
q7 7 11 15q2 4 5.5 8.5t3.5 8.5zM1843 618v40q-2 5 -3.5 9t-3.5 9q-5 6 -14 13q-1 4 -5.5 6.5t-8.5 7.5l-4 2t-5 2l-7 4h-39l-10 -4l-10 -4q-3 -5 -6 -7.5t-7 -6.5q-3 -4 -6 -6.5t-5 -6.5q-2 -6 -4.5 -9.5t-2.5 -8.5q-5 -10 -5 -21q0 -5 2.5 -13t5.5 -14q5 -15 15 -24
q8 -14 24 -14q11 -6 28 -6h20q3 2 8 4t8 4q4 3 8.5 5.5t5.5 6.5q9 5 14 15zM1724 190q-7 -7 -13 -23q-2 -4 -4 -9.5t-2 -13.5q0 -9 6 -25.5t13 -22.5q9 -9 22 -15q12 -4 26 -4q5 0 9.5 1t10.5 1q3 2 8 4.5t8 6.5q2 0 8 2h12q2 0 8 -2q2 -1 7 -6l6 -7q-3 -4 -6 -7.5t-7 -7.5
q-6 -3 -10.5 -6t-11.5 -6q-5 -3 -15.5 -6.5t-16.5 -3.5h-10q-11 0 -22 2t-20 4q-20 9 -33 25q-15 14 -21 33q-4 9 -6.5 18.5t-2.5 21.5q0 8 1 13.5t3 13.5q2 16 9 23q6 8 8.5 12.5t8.5 10.5l23 17l26 10q5 0 11.5 1t14.5 1h12q4 0 15 -3t15 -5l22 -13q4 -4 7 -8l6 -8
l-13 -15h-14q-7 0 -14 4q-3 2 -8 4.5t-8 4.5q-8 2 -11 2h-9q-15 0 -26 -6q-15 -2 -22 -13zM1594 125q5 -8 5 -19q0 -14 -7 -27l-8 -12q-3 -5 -8 -8q-6 -6 -10.5 -9.5t-12.5 -5.5q-5 -2 -13 -3t-14 -1q-11 0 -31 4q-9 4 -20 18q-4 1 -6 5l-4 8q-6 2 -6 9l6 4l8 2l2 2h9
q12 -3 13 -4q5 -4 8.5 -5.5t5.5 -3.5q2 0 6 -1t9 -1h5q8 2 12 3.5t7 3.5l4 4t3 4q2 4 4 7t2 7q0 6 -6 9q-4 6 -7 6q-2 4 -6.5 5t-6.5 2q-5 0 -13 6q-5 0 -9 1t-9 6q-9 3 -12.5 6t-7.5 7q-11 4 -11 13q-6 11 -6 23q0 18 6 25q1 4 5 10l8 9q4 2 9 4t12 6q6 0 10.5 1t12.5 1
q4 0 8 -1t10 -1l15 -6q3 -4 6 -6.5t7 -6.5q3 -2 6.5 -5t3.5 -7l-13 -8l-20 -3l-5 1q-3 1 -6 4q-2 0 -3.5 1t-3.5 1h-16q-2 0 -3 -1t-5 -3l-6 -5q-1 -3 -1 -10q3 -6 4 -9t3 -7h6q8 -2 13 -4.5t10 -4.5l8 -2q5 -4 9 -5t9 -4q6 -2 16 -12.5t10 -16.5zM1480 315q-11 8 -15 19
q-6 14 -6 29v15l10 18q2 2 4.5 5.5t6.5 7.5q6 8 12 9q3 5 8.5 6t8.5 3q4 0 8 1.5t9 1.5q4 0 10 -1.5t10 -1.5q4 -2 7.5 -3t7.5 -6l11 -9l12 -13q2 -4 4 -8.5t4 -9.5q0 -4 1 -8.5t1 -6.5q0 -6 -1 -13.5t-5 -15.5q-4 -12 -16 -19q-4 -4 -8.5 -7.5t-11.5 -8.5q-10 -2 -26 -2
h-14q-4 0 -10 2q-15 4 -22 16zM2030 119q5 12 5 25q0 15 -5 23q-3 13 -13.5 23t-23.5 13q-4 4 -11 5t-16 1q-10 0 -24 -6q-7 -1 -11.5 -4t-10.5 -9q-8 -6 -15 -23q0 -4 -1 -9.5t-1 -13.5t1 -13.5t1 -11.5q8 -16 15 -23q6 -4 10.5 -8t11.5 -7q7 -2 13.5 -3t10.5 -1q20 0 27 4
q28 10 37 38zM2141 315q-6 -4 -12 -7.5t-11 -8.5q-8 -2 -12 -2h-28q-4 0 -12 2q-11 4 -21 16q-7 7 -13 19q-2 8 -4 15.5t-2 13.5q0 2 1 6.5t1 8.5q2 4 3 9t4 9q2 3 5 6t5 7q7 5 16 9q3 5 8 6t7 3q5 0 8 1.5t10 1.5q2 0 7.5 -1.5t10.5 -1.5q4 -2 7.5 -3t5.5 -6q4 -2 8.5 -4.5
t7.5 -4.5q1 -2 2 -3.5t2 -3.5l4 -6q6 -10 7 -18q2 -4 3 -8.5t1 -6.5q0 -6 -1 -13.5t-5 -15.5q0 -6 -5 -11zM1039 144q0 14 -4 23q-4 17 -18 23q-2 6 -7.5 9t-11.5 4q-10 6 -27 6q-13 0 -24 -6q-10 -1 -22 -13q-8 -5 -13 -23q-5 -5 -5 -10v-27q0 -4 5 -11q5 -14 13 -22.5
t22 -15.5q9 -4 24 -4q18 0 27 4q14 7 19 15q13 5 17.5 20.5t4.5 27.5zM726 246h130v-37h-94v-52h77v-36h-77v-81h-36v206zM535 209h-55v-169h-40v169h-59v37h154v-37zM1302 246h155v-37h-61v-169h-37v169h-57v37zM1281 1233q16 -8 33.5 -19.5t33.5 -21.5h-304q34 28 70 41
q37 17 82 17t85 -17zM1114 810q-18 7 -35 18t-33 24h302q-16 -13 -33.5 -24t-33.5 -18q-22 -6 -43 -10.5t-42 -4.5q-23 0 -42.5 4.5t-39.5 10.5zM524 566l-44 64q4 0 11 4q7 3 8 9q8 6 8 11v24q-6 14 -12 19q-5 8 -13 8q-2 4 -6.5 5t-8.5 1h-53v-145h22v60h22l37 -52
q1 -4 7 -6zM1096 566l-63 145h-20l-62 -145h11q7 0 9 2q0 2 6 6l10 25h72l11 -25q1 -4 5 -6q2 -2 8 -2h13zM1810 676q2 -2 6.5 -7.5t5.5 -10.5q4 -7 4 -21q0 -12 -4 -21q-1 -4 -6 -9l-6 -6q-5 -4 -9 -6.5t-8 -6.5q-8 -4 -21 -4q-14 0 -21 4q-5 4 -9.5 6.5t-8.5 6.5
q-3 2 -6 6.5t-3 8.5q-4 6 -5 11t-1 10q0 11 6 21q0 5 3 10.5t6 7.5q8 8 18.5 11.5t20.5 3.5q12 0 21 -4zM751 676q6 -2 8.5 -7.5t4.5 -10.5q4 -7 4 -21q0 -10 -4 -21q-2 -4 -4.5 -8.5t-8.5 -6.5q-5 -9 -16 -13t-21 -4t-21 4q-4 4 -8.5 6.5t-8.5 6.5q-2 2 -5.5 6.5t-5.5 8.5
q-4 11 -4 21q0 20 8.5 30.5t23.5 19.5q5 2 11.5 3t9.5 1q13 0 21 -4q12 -4 16 -11zM277 647q5 12 5 18q0 9 -5 18q0 2 -4 6l-6 6q-2 3 -5 6.5t-9 3.5q-2 4 -7.5 5t-9.5 1h-49v-145h16v55h33q4 0 9.5 0.5t7.5 2.5q10 4 14 10q4 2 7 5.5t3 7.5zM2079 311h29l6 3q5 4 9 6l8 4
l3 6q3 6 6 11t3 9v32q-2 6 -6 10t-6 7q-6 2 -9.5 5t-7.5 7h-40q-6 -4 -9.5 -7t-8.5 -5q-7 -5 -11 -17q-2 -8 -2 -12v-20q0 -4 1 -8.5t4 -7.5l4 -4q3 -3 4 -6l6 -3q7 -5 10.5 -6.5t6.5 -3.5zM1993 711h-20v-112q-1 2 -2 5t-3 4l-70 97l-3 6h-23v-145h21v114l84 -114h16v145z
M1480 382q-3 -6 -4 -11.5t-1 -7.5v-8q3 -14 7 -21q0 -2 2 -4t4 -6l5 -3q2 -2 9 -2q2 -4 5.5 -5t5.5 -3h26q5 2 8 3t6 5l10 5q2 4 4.5 6t2.5 4q2 3 3 7.5t3 8.5q0 2 1 5.5t1 7.5q0 2 -1 7.5t-5 11.5q0 6 -3.5 10t-5.5 7q-3 1 -8 6l-9 6h-40q-4 -4 -9 -7t-9 -5q-2 -3 -5 -7
t-3 -10zM935 711h-17v-112l-73 106q-4 0 -6 6h-23v-145h19v117h2l2 -1v-4l81 -112h15v145zM1982 357q-4 -1 -7 -2t-5 -2l42 -56h-11q-7 2 -8.5 3.5t-1.5 5.5l-36 47h-26v-56h-15v130h54q3 0 9 -2q2 -2 5.5 -4.5t4.5 -4.5q4 -2 5 -5.5t7 -7.5v-25q-4 -4 -5 -7.5t-3 -5.5z
M1259 357q-3 -3 -11 -4l44 -56h-14q-9 3 -9 9l-36 47h-26v-56h-13v130h53q9 -2 13.5 -4.5t8.5 -6.5q0 -2 3 -5.5t3 -7.5l2 -19q-3 -16 -6 -19l-5 -4q-2 -2 -7 -4zM386 711h-91v-145h91v20h-69v44h55v17h-55v42h69v22zM1614 711h-88v-145h88v20h-66v44h55v17h-55v42h66v22z
M2306 425l17 2v-130h-11v106l-2 -2v-2q-4 -7 -6.5 -16t-7.5 -13q-4 -7 -6 -12.5t-7 -13.5q-2 -8 -3 -14t-5 -9q-3 -8 -6 -12.5t-5 -11.5h-14q-9 12 -14 24.5t-10 26.5q-4 11 -11 24.5t-11 26.5v2h-4v-104h-13v130h13l8 -4v-5l46 -99l3 -2v4q0 1 7 5l38 92q2 5 3 5t1 2z
M1387 711h-20v-97q0 -3 -2 -7q-1 -7 -9 -12q0 -2 -4 -3.5t-6 -5.5l-8 -2h-8q-7 0 -13 2q-5 4 -8 5.5t-5 3.5l-10 12q0 3 -1 7t-1 10v87h-19v-87q0 -7 1.5 -16.5t6.5 -14.5q2 -6 9 -11q2 -3 4.5 -5.5t7.5 -4.5q2 -2 6 -3t7 -3q4 0 7 -1t8 -1q4 0 7.5 1t10.5 1q2 2 5 3t6 3
q8 6 12 10q3 2 5 5t5 6q0 4 3 7t3 7v104zM622 592q2 5 3 8t1 8q0 10 -5 18t-11 13q-2 0 -3.5 2t-5.5 4l-4 2h-4q-4 3 -6 3.5t-3 1.5q-7 2 -8.5 3t-5.5 3q-6 3 -8 3l-3 21q8 7 11 7l14 2q10 -3 11 -6l6 -2q9 0 13 4l4 2l-6 8q-2 1 -4.5 3.5t-6.5 4.5q-2 0 -4 2t-5 4h-28
q-5 -2 -7 -4t-6 -4q-2 -5 -5.5 -7.5t-6.5 -6.5q0 -4 -2 -6.5t-2 -8.5q0 -7 4 -16l5 -7l5 -4q2 -2 6 -5t7 -3l7 -4q2 -1 7 -1q1 -2 5.5 -2t6.5 -2l5 -2q5 -4 5.5 -5l2.5 -5l2 -15q-4 -5 -4 -7.5t-2 -3.5q-1 -3 -6 -5l-3 -1q-4 0 -7.5 -1t-4.5 -1q-5 0 -11 1.5t-6 6.5l-4 1
q-4 4 -11 4h-5l-9 -4l9 -16h3q7 -7 15.5 -9t18.5 -2h8q5 0 11 2q4 2 8.5 4t6.5 5q4 2 7.5 5.5t4.5 9.5zM1497 592q7 7 7 16q0 10 -4.5 18t-11.5 13q-6 5 -6 6h-4l-36 16l-6 6q0 1 -1 3t-1 4q0 4 4 8q5 4 6.5 5.5t4.5 1.5q2 2 10 2l3 -1l7.5 -3t5.5 -2q6 -2 7 -2q7 0 8 4l5 2
q0 2 -2.5 4t-4.5 4q0 1 -3 3.5t-5 4.5q-3 0 -5 2t-6 4h-6l-4 1q-6 0 -9.5 -0.5t-7.5 -0.5l-13 -8l-11 -14q-1 -4 -3 -6.5t-2 -8.5q0 -4 2 -7.5t3 -8.5q2 -4 4.5 -6.5l4.5 -4.5q4 -2 6.5 -5t6.5 -3q8 -5 13 -5q4 -2 6.5 -2t5.5 -2q5 0 10 -3.5t5 -8.5l2 -14q-2 -7 -3.5 -9
t-3.5 -3q-11 -8 -22 -8q-2 0 -5.5 1t-5.5 1q-3 1 -8 6l-2 1q-4 4 -9 4h-6l-10 -4l8 -9v-2q7 -5 8 -5q6 -7 13.5 -9t16.5 -2h11q3 0 11 2q2 2 5.5 4t7.5 5l5 7q3 3 4 8zM1632 297h-16v130h18l77 -106v106h13v-130h-11l-77 106v4h-4v-110zM73 328q-4 4 -5 7.5t-2 8.5
q-2 6 -3 9.5t-1 9.5t4 15q1 4 2 9t5 9l9 13q2 2 6 4.5t6 4.5q5 5 9.5 6t8.5 3q3 0 8 1.5t10 1.5q15 0 26 -7q13 -4 20 -14l-4 -6h-13q-3 2 -6 5t-7 3h-34l-20 -12q-4 -3 -7 -7t-4 -10q-2 -6 -3 -11.5t-1 -7.5q0 -9 4 -13q0 -4 0.5 -8.5t0.5 -7.5l4 -4q5 -1 6 -6l7 -4
q2 -1 7 -1q2 -4 4.5 -5t6.5 -3h31q2 2 6.5 3t8.5 5v27h-13v2l-6 4h-2l-1 7h35v-48q-2 -5 -3.5 -6t-5.5 -6h-11q-8 -2 -12 -2h-32q-5 0 -18 9q-7 0 -12 9zM225 411v-41h52v-15h-52v-44h63v-14h-79v130h79v-16h-63zM1098 411v-41h56v-15h-56v-44h64v-14h-79v130h79v-16h-64z
M2226 711h-18q-5 0 -9 -4t-4 -9l-35 -44h-4l-36 44q-3 13 -15 13h-16l54 -72v-2l4 -3v-68h20v66l4 5v2zM2112 586h-64v125h-20v-145h84v20zM601 427v-79q0 -6 2 -9t5 -5q0 -6 3 -9t5 -4q0 -2 4 -4t6 -4q6 -2 8 -2h15l12 6t7 4q4 1 8 13q4 3 4 14v79h13v-79q0 -9 -3.5 -20.5
t-11.5 -16.5q-5 -12 -15 -12q-6 -1 -11.5 -1.5t-10.5 -0.5t-10.5 0.5t-12.5 1.5q-3 0 -15 12l-10 15q-1 6 -3 11t-2 11v79h13zM1191 586h-62v125h-19v-145h81v20zM1361 315q1 2 2 3.5t2 3.5q2 2 3 6t1 6q0 17 -15 21q-3 0 -12.5 4t-11.5 6q-9 0 -13 7q-2 0 -3.5 3t-3.5 6v21
q0 1 2 7q0 8 7 9l6 5q2 1 3.5 2t3.5 2q4 0 6.5 1.5t7.5 1.5l10 -3q3 0 4 -1t5 -3q6 0 6 -7q5 0 6 -3l1 -2l-2 -2q-6 -2 -9 -2h-6l-23 4q-8 0 -8 -2q-5 -7 -5 -8q-4 0 -4 -7q0 -5 4 -6q0 -4 3 -6l6 -4q4 -4 7 -4t7 -2l6 -2q3 0 7 -5h4l6 -2q5 -4 7.5 -7t4.5 -4q1 -5 1.5 -9.5
t0.5 -8.5v-10l-7.5 -12t-6.5 -6q-2 -2 -6 -4.5t-6 -2.5q-4 -2 -9 -2h-9q-9 0 -16.5 1t-12.5 8q-2 0 -3 2.5t-5 4.5v4l-2 2l4 2h6q1 0 3 -1t4 -1q4 -4 6.5 -5t4.5 -3h20q7 0 11 4zM1002 297l-55 130h5q10 0 14 -9l40 -97v-2h2l2 2q5 13 12 25.5t11 23.5q4 14 9.5 25.5
t11.5 22.5q0 5 1.5 5t1.5 2l16 2q-7 -16 -14 -32.5t-15 -31.5q-4 -8 -7 -17l-6 -18l-14 -31h-15zM499 411v-46h56v-12h-56v-56h-15v130h80v-16h-65zM1836 411v-46h51v-12h-51v-56h-15v130h77v-16h-62zM824 427v-116h59v-14h-75v130h16zM348 297v114h-44v16h99v-16h-44v-114
h-11zM735 427v-116h60v-14h-75v130h15zM253 683q2 -1 3 -4t3 -5q3 -4 3 -9v-4q0 -2 -3 -7q-2 -2 -3 -4.5t-3 -2.5q-1 -2 -3 -4l-4 -4h-43v50h33q4 0 10 -2zM1242 365q5 0 6 3q4 4 9 4l2 4q5 10 5 16q0 2 -1 3t-1 4q-3 2 -4 3t-1 5q-5 0 -9 4h-41v-46h35zM1970 368q4 4 7 4
q5 7 5 9q2 4 2 11q0 3 -2 7q0 1 -5 8q-3 0 -7 4h-41v-46h33q4 0 8 3zM486 658l-4 -7q-2 0 -3 -2t-3 -2q-2 -2 -9 -2h-31v44h31q3 0 9 -2l6 -4q1 -2 2 -3.5t2 -3.5q3 -1 3 -9q0 -6 -3 -9zM1429 427v-130h-16v130h16zM641 121l-27 69h-2l-28 -69h57zM1024 682v-4l26 -60h-55
l27 60v5zM1645 77q6 0 6 -6l2 -9q0 -7 -2 -9q0 -4 -6 -9l-22 -4q-4 4 -9 4q0 2 -5 9q-2 2 -2 9v4l7 11q7 4 9 4l14 3z" />
    <glyph glyph-name="logicalnot" unicode="&#xac;" horiz-adv-x="1116" 
d="M822 611v-294q0 -15 10.5 -24t27.5 -9h66q14 0 20.5 9.5t6.5 23.5v390q0 19 -8.5 26.5t-25.5 7.5h-759q-20 0 -28.5 -11.5t-6.5 -27.5l1 -65q1 -13 10.5 -19.5t23.5 -6.5h662z" />
    <glyph glyph-name="divide" unicode="&#xf7;" horiz-adv-x="910" 
d="M392 1063q0 -14 9 -19.5t15 -5.5h132q8 0 16 6.5t8 19.5v120q0 8 -4.5 17.5t-21.5 9.5h-128q-11 0 -18.5 -7t-7.5 -19v-122zM392 24q0 -14 9 -19.5t15 -5.5h132q8 0 16 6.5t8 19.5v120q0 8 -4.5 17.5t-21.5 9.5h-128q-11 0 -18.5 -7t-7.5 -20v-121zM140 683
q-44 0 -44 -43v-98q0 -46 44 -46h623q20 0 31 14.5t11 31.5v98q0 20 -12 31.5t-30 11.5h-623z" />
    <glyph glyph-name="uni2070" unicode="&#x2070;" 
d="M2323 1024v-550h-2254v550h854q0 28 5 55t19 50q11 27 24.5 49t34.5 39q36 39 86 58q25 11 51 16t53 5q31 0 58 -6t50 -15q55 -27 88.5 -60.5t58.5 -89.5q18 -49 18 -101h854zM947 1024q0 -57 17.5 -96.5t52.5 -82.5q36 -35 82 -55t97 -20q50 0 96 17.5t80 55.5
q20 18 33 38t24 41q20 51 20 102q0 43 -13.5 82t-41.5 72q-13 18 -27.5 31t-32.5 24q-17 7 -35 16.5t-37 16.5q-14 3 -30.5 6t-35.5 3q-55 0 -100 -23q-46 -16 -79 -54q-34 -34 -52 -80t-18 -94zM1070 877l295 298q58 -73 58 -151q0 -22 -3 -42t-11 -39q-13 -35 -38 -66
h-301zM1026 870q-26 34 -41 71q-8 17 -11 38t-3 45q0 18 3 37.5t11 39.5q4 18 13.5 33.5t23.5 30.5h299zM2058 194q3 -4 5.5 -10t4.5 -13q4 -7 4 -14v-29q0 -7 -4 -11q-2 -7 -4.5 -14t-5.5 -13q-4 -7 -15 -19q-6 -5 -11.5 -9.5t-12.5 -8.5q-5 -5 -11.5 -7t-12.5 -4
q-8 -2 -13 -2h-16q-19 0 -40 6q-8 6 -15.5 12t-15.5 13q-8 6 -13.5 13.5t-7.5 19.5q-6 9 -7.5 18.5t-1.5 21.5q0 8 1 13.5t1 13.5q3 7 6 13t7 10q2 8 5.5 12.5t9.5 10.5q3 4 9.5 8t11.5 9q4 2 10.5 4t12.5 6q10 0 15.5 1t11.5 1q9 0 16 -1t13 -1q6 -4 12.5 -6t11.5 -4
q13 -10 24 -17q2 -6 7.5 -10.5t7.5 -12.5zM1064 194q2 -4 4 -10t5 -13q2 -10 2 -14v-29q0 -5 -2 -11q-3 -7 -5 -14t-4 -13q-5 -4 -9.5 -9.5t-8.5 -9.5q-14 -14 -21.5 -18t-24.5 -11q-4 -1 -7 -1.5t-7 -0.5h-15q-9 0 -18.5 2t-21.5 4q-11 6 -17.5 12t-15.5 13
q-15 14 -21.5 33.5t-6.5 39.5v13q0 4 2 14q5 17 11 23q4 8 7.5 12.5t7.5 10.5q7 4 11.5 8t10.5 9l27 10q4 0 10.5 1t13.5 1q8 0 15 -1t14 -1q6 -4 12.5 -6t13.5 -4l20 -17q4 -6 8.5 -10.5t9.5 -12.5zM2281 244l1 1l41 1v-206h-35v150l-5 -9v-6q-8 -18 -14.5 -36t-14.5 -31
q-6 -18 -11.5 -33.5t-13.5 -34.5h-34l-52 131q-5 3 -5 10l-3 6v-147h-39v206h37q5 0 6.5 -1t3.5 -1q2 -2 3 -2t3 -2l7 -4q0 -2 2 -3.5t2 -3.5q4 -16 10.5 -30t14.5 -32q6 -15 11.5 -30.5t11.5 -28.5v-12l5 12l9 13l42 108l4 7l5 4q2 2 4 2t4 2zM1246 246h36v-206h-34
l-94 138l-4 3v2q-5 9 -7 11t-5 2v-156h-36v206h32q4 0 8.5 -1t4.5 -3q3 -2 5 -2t4 -2l21 -31q5 -8 9.5 -16t9.5 -17q13 -13 23 -27.5t23 -27.5q0 -2 1 -4.5t1 -6.5l2 -5v143zM630 246l88 -206h-23q-8 0 -15 4q-2 2 -4 6.5t-6 8.5l-12 25h-94l-9 -25q0 -6 -4 -6l-7 -9
q-2 0 -3.5 -1t-5.5 -1l-28 -2l90 206h33zM244 246h130v-37h-94v-46h77v-38h-77v-48h94v-37h-130v206zM69 246h149v-23l-7 -14l-99 -134h1l2 2h102v-37h-155v13q0 9 2 11q0 2 5 7v4l2 4q2 2 4 3.5t2 5.5l88 121h-96v37zM786 618q1 6 2 10t1 9q0 12 -3 21q0 5 -3.5 8.5
t-5.5 9.5q-2 3 -4.5 6t-6.5 7l-7 6q-2 3 -8 8l-8 4q-2 1 -4.5 2t-5.5 2h-38q-10 -4 -17 -8q-4 -5 -7.5 -7.5t-7.5 -6.5q-11 -8 -12 -13q-4 -6 -5 -9.5t-3 -8.5q-1 -5 -1.5 -10t-0.5 -11q0 -15 6 -27.5t16 -23.5q11 -14 24 -14q11 -6 27 -6h19q6 2 10.5 4t7.5 4q11 5 15 12
q7 7 11 15q2 4 5.5 8.5t3.5 8.5zM1843 618v40q-2 5 -3.5 9t-3.5 9q-5 6 -14 13q-1 4 -5.5 6.5t-8.5 7.5l-4 2t-5 2l-7 4h-39l-10 -4l-10 -4q-3 -5 -6 -7.5t-7 -6.5q-3 -4 -6 -6.5t-5 -6.5q-2 -6 -4.5 -9.5t-2.5 -8.5q-5 -10 -5 -21q0 -5 2.5 -13t5.5 -14q5 -15 15 -24
q8 -14 24 -14q11 -6 28 -6h20q3 2 8 4t8 4q4 3 8.5 5.5t5.5 6.5q9 5 14 15zM1724 190q-7 -7 -13 -23q-2 -4 -4 -9.5t-2 -13.5q0 -9 6 -25.5t13 -22.5q9 -9 22 -15q12 -4 26 -4q5 0 9.5 1t10.5 1q3 2 8 4.5t8 6.5q2 0 8 2h12q2 0 8 -2q2 -1 7 -6l6 -7q-3 -4 -6 -7.5t-7 -7.5
q-6 -3 -10.5 -6t-11.5 -6q-5 -3 -15.5 -6.5t-16.5 -3.5h-10q-11 0 -22 2t-20 4q-20 9 -33 25q-15 14 -21 33q-4 9 -6.5 18.5t-2.5 21.5q0 8 1 13.5t3 13.5q2 16 9 23q6 8 8.5 12.5t8.5 10.5l23 17l26 10q5 0 11.5 1t14.5 1h12q4 0 15 -3t15 -5l22 -13q4 -4 7 -8l6 -8
l-13 -15h-14q-7 0 -14 4q-3 2 -8 4.5t-8 4.5q-8 2 -11 2h-9q-15 0 -26 -6q-15 -2 -22 -13zM1594 125q5 -8 5 -19q0 -14 -7 -27l-8 -12q-3 -5 -8 -8q-6 -6 -10.5 -9.5t-12.5 -5.5q-5 -2 -13 -3t-14 -1q-11 0 -31 4q-9 4 -20 18q-4 1 -6 5l-4 8q-6 2 -6 9l6 4l8 2l2 2h9
q12 -3 13 -4q5 -4 8.5 -5.5t5.5 -3.5q2 0 6 -1t9 -1h5q8 2 12 3.5t7 3.5l4 4t3 4q2 4 4 7t2 7q0 6 -6 9q-4 6 -7 6q-2 4 -6.5 5t-6.5 2q-5 0 -13 6q-5 0 -9 1t-9 6q-9 3 -12.5 6t-7.5 7q-11 4 -11 13q-6 11 -6 23q0 18 6 25q1 4 5 10l8 9q4 2 9 4t12 6q6 0 10.5 1t12.5 1
q4 0 8 -1t10 -1l15 -6q3 -4 6 -6.5t7 -6.5q3 -2 6.5 -5t3.5 -7l-13 -8l-20 -3l-5 1q-3 1 -6 4q-2 0 -3.5 1t-3.5 1h-16q-2 0 -3 -1t-5 -3l-6 -5q-1 -3 -1 -10q3 -6 4 -9t3 -7h6q8 -2 13 -4.5t10 -4.5l8 -2q5 -4 9 -5t9 -4q6 -2 16 -12.5t10 -16.5zM1480 315q-11 8 -15 19
q-6 14 -6 29v15l10 18q2 2 4.5 5.5t6.5 7.5q6 8 12 9q3 5 8.5 6t8.5 3q4 0 8 1.5t9 1.5q4 0 10 -1.5t10 -1.5q4 -2 7.5 -3t7.5 -6l11 -9l12 -13q2 -4 4 -8.5t4 -9.5q0 -4 1 -8.5t1 -6.5q0 -6 -1 -13.5t-5 -15.5q-4 -12 -16 -19q-4 -4 -8.5 -7.5t-11.5 -8.5q-10 -2 -26 -2
h-14q-4 0 -10 2q-15 4 -22 16zM2030 119q5 12 5 25q0 15 -5 23q-3 13 -13.5 23t-23.5 13q-4 4 -11 5t-16 1q-10 0 -24 -6q-7 -1 -11.5 -4t-10.5 -9q-8 -6 -15 -23q0 -4 -1 -9.5t-1 -13.5t1 -13.5t1 -11.5q8 -16 15 -23q6 -4 10.5 -8t11.5 -7q7 -2 13.5 -3t10.5 -1q20 0 27 4
q28 10 37 38zM2141 315q-6 -4 -12 -7.5t-11 -8.5q-8 -2 -12 -2h-28q-4 0 -12 2q-11 4 -21 16q-7 7 -13 19q-2 8 -4 15.5t-2 13.5q0 2 1 6.5t1 8.5q2 4 3 9t4 9q2 3 5 6t5 7q7 5 16 9q3 5 8 6t7 3q5 0 8 1.5t10 1.5q2 0 7.5 -1.5t10.5 -1.5q4 -2 7.5 -3t5.5 -6q4 -2 8.5 -4.5
t7.5 -4.5q1 -2 2 -3.5t2 -3.5l4 -6q6 -10 7 -18q2 -4 3 -8.5t1 -6.5q0 -6 -1 -13.5t-5 -15.5q0 -6 -5 -11zM1039 144q0 14 -4 23q-4 17 -18 23q-2 6 -7.5 9t-11.5 4q-10 6 -27 6q-13 0 -24 -6q-10 -1 -22 -13q-8 -5 -13 -23q-5 -5 -5 -10v-27q0 -4 5 -11q5 -14 13 -22.5
t22 -15.5q9 -4 24 -4q18 0 27 4q14 7 19 15q13 5 17.5 20.5t4.5 27.5zM726 246h130v-37h-94v-52h77v-36h-77v-81h-36v206zM535 209h-55v-169h-40v169h-59v37h154v-37zM1302 246h155v-37h-61v-169h-37v169h-57v37zM1281 1233q16 -8 33.5 -19.5t33.5 -21.5h-304q34 28 70 41
q37 17 82 17t85 -17zM1114 810q-18 7 -35 18t-33 24h302q-16 -13 -33.5 -24t-33.5 -18q-22 -6 -43 -10.5t-42 -4.5q-23 0 -42.5 4.5t-39.5 10.5zM524 566l-44 64q4 0 11 4q7 3 8 9q8 6 8 11v24q-6 14 -12 19q-5 8 -13 8q-2 4 -6.5 5t-8.5 1h-53v-145h22v60h22l37 -52
q1 -4 7 -6zM1096 566l-63 145h-20l-62 -145h11q7 0 9 2q0 2 6 6l10 25h72l11 -25q1 -4 5 -6q2 -2 8 -2h13zM1810 676q2 -2 6.5 -7.5t5.5 -10.5q4 -7 4 -21q0 -12 -4 -21q-1 -4 -6 -9l-6 -6q-5 -4 -9 -6.5t-8 -6.5q-8 -4 -21 -4q-14 0 -21 4q-5 4 -9.5 6.5t-8.5 6.5
q-3 2 -6 6.5t-3 8.5q-4 6 -5 11t-1 10q0 11 6 21q0 5 3 10.5t6 7.5q8 8 18.5 11.5t20.5 3.5q12 0 21 -4zM751 676q6 -2 8.5 -7.5t4.5 -10.5q4 -7 4 -21q0 -10 -4 -21q-2 -4 -4.5 -8.5t-8.5 -6.5q-5 -9 -16 -13t-21 -4t-21 4q-4 4 -8.5 6.5t-8.5 6.5q-2 2 -5.5 6.5t-5.5 8.5
q-4 11 -4 21q0 20 8.5 30.5t23.5 19.5q5 2 11.5 3t9.5 1q13 0 21 -4q12 -4 16 -11zM277 647q5 12 5 18q0 9 -5 18q0 2 -4 6l-6 6q-2 3 -5 6.5t-9 3.5q-2 4 -7.5 5t-9.5 1h-49v-145h16v55h33q4 0 9.5 0.5t7.5 2.5q10 4 14 10q4 2 7 5.5t3 7.5zM2079 311h29l6 3q5 4 9 6l8 4
l3 6q3 6 6 11t3 9v32q-2 6 -6 10t-6 7q-6 2 -9.5 5t-7.5 7h-40q-6 -4 -9.5 -7t-8.5 -5q-7 -5 -11 -17q-2 -8 -2 -12v-20q0 -4 1 -8.5t4 -7.5l4 -4q3 -3 4 -6l6 -3q7 -5 10.5 -6.5t6.5 -3.5zM1993 711h-20v-112q-1 2 -2 5t-3 4l-70 97l-3 6h-23v-145h21v114l84 -114h16v145z
M1480 382q-3 -6 -4 -11.5t-1 -7.5v-8q3 -14 7 -21q0 -2 2 -4t4 -6l5 -3q2 -2 9 -2q2 -4 5.5 -5t5.5 -3h26q5 2 8 3t6 5l10 5q2 4 4.5 6t2.5 4q2 3 3 7.5t3 8.5q0 2 1 5.5t1 7.5q0 2 -1 7.5t-5 11.5q0 6 -3.5 10t-5.5 7q-3 1 -8 6l-9 6h-40q-4 -4 -9 -7t-9 -5q-2 -3 -5 -7
t-3 -10zM935 711h-17v-112l-73 106q-4 0 -6 6h-23v-145h19v117h2l2 -1v-4l81 -112h15v145zM1982 357q-4 -1 -7 -2t-5 -2l42 -56h-11q-7 2 -8.5 3.5t-1.5 5.5l-36 47h-26v-56h-15v130h54q3 0 9 -2q2 -2 5.5 -4.5t4.5 -4.5q4 -2 5 -5.5t7 -7.5v-25q-4 -4 -5 -7.5t-3 -5.5z
M1259 357q-3 -3 -11 -4l44 -56h-14q-9 3 -9 9l-36 47h-26v-56h-13v130h53q9 -2 13.5 -4.5t8.5 -6.5q0 -2 3 -5.5t3 -7.5l2 -19q-3 -16 -6 -19l-5 -4q-2 -2 -7 -4zM386 711h-91v-145h91v20h-69v44h55v17h-55v42h69v22zM1614 711h-88v-145h88v20h-66v44h55v17h-55v42h66v22z
M2306 425l17 2v-130h-11v106l-2 -2v-2q-4 -7 -6.5 -16t-7.5 -13q-4 -7 -6 -12.5t-7 -13.5q-2 -8 -3 -14t-5 -9q-3 -8 -6 -12.5t-5 -11.5h-14q-9 12 -14 24.5t-10 26.5q-4 11 -11 24.5t-11 26.5v2h-4v-104h-13v130h13l8 -4v-5l46 -99l3 -2v4q0 1 7 5l38 92q2 5 3 5t1 2z
M1387 711h-20v-97q0 -3 -2 -7q-1 -7 -9 -12q0 -2 -4 -3.5t-6 -5.5l-8 -2h-8q-7 0 -13 2q-5 4 -8 5.5t-5 3.5l-10 12q0 3 -1 7t-1 10v87h-19v-87q0 -7 1.5 -16.5t6.5 -14.5q2 -6 9 -11q2 -3 4.5 -5.5t7.5 -4.5q2 -2 6 -3t7 -3q4 0 7 -1t8 -1q4 0 7.5 1t10.5 1q2 2 5 3t6 3
q8 6 12 10q3 2 5 5t5 6q0 4 3 7t3 7v104zM622 592q2 5 3 8t1 8q0 10 -5 18t-11 13q-2 0 -3.5 2t-5.5 4l-4 2h-4q-4 3 -6 3.5t-3 1.5q-7 2 -8.5 3t-5.5 3q-6 3 -8 3l-3 21q8 7 11 7l14 2q10 -3 11 -6l6 -2q9 0 13 4l4 2l-6 8q-2 1 -4.5 3.5t-6.5 4.5q-2 0 -4 2t-5 4h-28
q-5 -2 -7 -4t-6 -4q-2 -5 -5.5 -7.5t-6.5 -6.5q0 -4 -2 -6.5t-2 -8.5q0 -7 4 -16l5 -7l5 -4q2 -2 6 -5t7 -3l7 -4q2 -1 7 -1q1 -2 5.5 -2t6.5 -2l5 -2q5 -4 5.5 -5l2.5 -5l2 -15q-4 -5 -4 -7.5t-2 -3.5q-1 -3 -6 -5l-3 -1q-4 0 -7.5 -1t-4.5 -1q-5 0 -11 1.5t-6 6.5l-4 1
q-4 4 -11 4h-5l-9 -4l9 -16h3q7 -7 15.5 -9t18.5 -2h8q5 0 11 2q4 2 8.5 4t6.5 5q4 2 7.5 5.5t4.5 9.5zM1497 592q7 7 7 16q0 10 -4.5 18t-11.5 13q-6 5 -6 6h-4l-36 16l-6 6q0 1 -1 3t-1 4q0 4 4 8q5 4 6.5 5.5t4.5 1.5q2 2 10 2l3 -1l7.5 -3t5.5 -2q6 -2 7 -2q7 0 8 4l5 2
q0 2 -2.5 4t-4.5 4q0 1 -3 3.5t-5 4.5q-3 0 -5 2t-6 4h-6l-4 1q-6 0 -9.5 -0.5t-7.5 -0.5l-13 -8l-11 -14q-1 -4 -3 -6.5t-2 -8.5q0 -4 2 -7.5t3 -8.5q2 -4 4.5 -6.5l4.5 -4.5q4 -2 6.5 -5t6.5 -3q8 -5 13 -5q4 -2 6.5 -2t5.5 -2q5 0 10 -3.5t5 -8.5l2 -14q-2 -7 -3.5 -9
t-3.5 -3q-11 -8 -22 -8q-2 0 -5.5 1t-5.5 1q-3 1 -8 6l-2 1q-4 4 -9 4h-6l-10 -4l8 -9v-2q7 -5 8 -5q6 -7 13.5 -9t16.5 -2h11q3 0 11 2q2 2 5.5 4t7.5 5l5 7q3 3 4 8zM1632 297h-16v130h18l77 -106v106h13v-130h-11l-77 106v4h-4v-110zM73 328q-4 4 -5 7.5t-2 8.5
q-2 6 -3 9.5t-1 9.5t4 15q1 4 2 9t5 9l9 13q2 2 6 4.5t6 4.5q5 5 9.5 6t8.5 3q3 0 8 1.5t10 1.5q15 0 26 -7q13 -4 20 -14l-4 -6h-13q-3 2 -6 5t-7 3h-34l-20 -12q-4 -3 -7 -7t-4 -10q-2 -6 -3 -11.5t-1 -7.5q0 -9 4 -13q0 -4 0.5 -8.5t0.5 -7.5l4 -4q5 -1 6 -6l7 -4
q2 -1 7 -1q2 -4 4.5 -5t6.5 -3h31q2 2 6.5 3t8.5 5v27h-13v2l-6 4h-2l-1 7h35v-48q-2 -5 -3.5 -6t-5.5 -6h-11q-8 -2 -12 -2h-32q-5 0 -18 9q-7 0 -12 9zM225 411v-41h52v-15h-52v-44h63v-14h-79v130h79v-16h-63zM1098 411v-41h56v-15h-56v-44h64v-14h-79v130h79v-16h-64z
M2226 711h-18q-5 0 -9 -4t-4 -9l-35 -44h-4l-36 44q-3 13 -15 13h-16l54 -72v-2l4 -3v-68h20v66l4 5v2zM2112 586h-64v125h-20v-145h84v20zM601 427v-79q0 -6 2 -9t5 -5q0 -6 3 -9t5 -4q0 -2 4 -4t6 -4q6 -2 8 -2h15l12 6t7 4q4 1 8 13q4 3 4 14v79h13v-79q0 -9 -3.5 -20.5
t-11.5 -16.5q-5 -12 -15 -12q-6 -1 -11.5 -1.5t-10.5 -0.5t-10.5 0.5t-12.5 1.5q-3 0 -15 12l-10 15q-1 6 -3 11t-2 11v79h13zM1191 586h-62v125h-19v-145h81v20zM1361 315q1 2 2 3.5t2 3.5q2 2 3 6t1 6q0 17 -15 21q-3 0 -12.5 4t-11.5 6q-9 0 -13 7q-2 0 -3.5 3t-3.5 6v21
q0 1 2 7q0 8 7 9l6 5q2 1 3.5 2t3.5 2q4 0 6.5 1.5t7.5 1.5l10 -3q3 0 4 -1t5 -3q6 0 6 -7q5 0 6 -3l1 -2l-2 -2q-6 -2 -9 -2h-6l-23 4q-8 0 -8 -2q-5 -7 -5 -8q-4 0 -4 -7q0 -5 4 -6q0 -4 3 -6l6 -4q4 -4 7 -4t7 -2l6 -2q3 0 7 -5h4l6 -2q5 -4 7.5 -7t4.5 -4q1 -5 1.5 -9.5
t0.5 -8.5v-10l-7.5 -12t-6.5 -6q-2 -2 -6 -4.5t-6 -2.5q-4 -2 -9 -2h-9q-9 0 -16.5 1t-12.5 8q-2 0 -3 2.5t-5 4.5v4l-2 2l4 2h6q1 0 3 -1t4 -1q4 -4 6.5 -5t4.5 -3h20q7 0 11 4zM1002 297l-55 130h5q10 0 14 -9l40 -97v-2h2l2 2q5 13 12 25.5t11 23.5q4 14 9.5 25.5
t11.5 22.5q0 5 1.5 5t1.5 2l16 2q-7 -16 -14 -32.5t-15 -31.5q-4 -8 -7 -17l-6 -18l-14 -31h-15zM499 411v-46h56v-12h-56v-56h-15v130h80v-16h-65zM1836 411v-46h51v-12h-51v-56h-15v130h77v-16h-62zM824 427v-116h59v-14h-75v130h16zM348 297v114h-44v16h99v-16h-44v-114
h-11zM735 427v-116h60v-14h-75v130h15zM253 683q2 -1 3 -4t3 -5q3 -4 3 -9v-4q0 -2 -3 -7q-2 -2 -3 -4.5t-3 -2.5q-1 -2 -3 -4l-4 -4h-43v50h33q4 0 10 -2zM1242 365q5 0 6 3q4 4 9 4l2 4q5 10 5 16q0 2 -1 3t-1 4q-3 2 -4 3t-1 5q-5 0 -9 4h-41v-46h35zM1970 368q4 4 7 4
q5 7 5 9q2 4 2 11q0 3 -2 7q0 1 -5 8q-3 0 -7 4h-41v-46h33q4 0 8 3zM486 658l-4 -7q-2 0 -3 -2t-3 -2q-2 -2 -9 -2h-31v44h31q3 0 9 -2l6 -4q1 -2 2 -3.5t2 -3.5q3 -1 3 -9q0 -6 -3 -9zM1429 427v-130h-16v130h16zM641 121l-27 69h-2l-28 -69h57zM1024 682v-4l26 -60h-55
l27 60v5zM1645 77q6 0 6 -6l2 -9q0 -7 -2 -9q0 -4 -6 -9l-22 -4q-4 4 -9 4q0 2 -5 9q-2 2 -2 9v4l7 11q7 4 9 4l14 3z" />
    <glyph glyph-name="multiply" unicode="&#xd7;" horiz-adv-x="895" 
d="M233 321q9 -9 19 -9q6 0 12 3t11 8l186 185l185 -184q9 -9 21 -9q11 0 19 8l65 64q10 10 9 21t-9 20l-185 185l187 187q8 9 8.5 21t-7.5 20l-70 71q-10 9 -21 9t-20 -9l-188 -188l-182 182q-9 11 -23 11q-11 0 -20 -9l-64 -64q-11 -11 -8.5 -22.5t10.5 -19.5l182 -183
l-185 -185q-10 -10 -11 -21.5t9 -21.5z" />
    <glyph glyph-name="copyright" unicode="&#xa9;" horiz-adv-x="1686" 
d="M235 719q0 121 47.5 231.5t130 195t195 134.5t242.5 50q119 0 228.5 -46t192.5 -127t132.5 -190.5t49.5 -237.5q0 -121 -48 -232t-130.5 -195.5t-194 -134.5t-239.5 -50q-123 0 -233 47t-193 129t-131.5 191.5t-48.5 234.5zM1131 1079q-56 42 -122.5 63t-138.5 21
q-92 0 -172.5 -34.5t-140.5 -94.5t-95 -140.5t-35 -171.5q0 -93 34.5 -173.5t94.5 -140.5t140 -94.5t171 -34.5q75 0 144 22.5t123 66.5q24 18 7 45l-37 62q-9 12 -23 12q-9 0 -18 -6q-45 -33 -93.5 -46.5t-94.5 -13.5q-63 1 -117.5 24.5t-95 63.5t-63.5 94t-23 117
q0 61 23.5 115t64 94.5t95 64.5t117.5 24q47 0 93 -13.5t94 -43.5q15 -9 24 -9q13 0 21 15l38 67q15 23 -15 45zM109 726q0 -152 58 -286t157.5 -233.5t233 -157t284.5 -57.5q152 0 286 57.5t233.5 157t157.5 233t58 284.5q0 102 -26.5 195.5t-74.5 175.5t-115 149
t-148.5 114.5t-175 74t-193.5 26.5q-153 0 -286.5 -58t-233.5 -157.5t-157.5 -233t-57.5 -284.5z" />
    <glyph glyph-name="registered" unicode="&#xae;" horiz-adv-x="1686" 
d="M843 1297q126 0 236 -45.5t191.5 -124.5t128.5 -186t47 -230q0 -126 -49.5 -233.5t-133.5 -186t-195 -123t-234 -44.5q-124 0 -232 48t-187.5 129t-124.5 187t-45 221q0 124 46.5 231.5t127.5 186.5t190 124.5t234 45.5zM1003 855q0 -49 -31 -82.5t-81 -33.5h-203v231
h203q26 0 46.5 -10t35 -26t22.5 -37t8 -42zM845 1445q-102 0 -196 -26.5t-176 -74.5t-149 -115t-115 -148t-74 -174t-26 -193q0 -102 26.5 -196t74.5 -176t115.5 -148.5t148.5 -114.5t174 -74t193 -26q153 0 286.5 58t233 157.5t157 232t57.5 282.5q0 153 -58 287
t-157.5 234t-232 157.5t-282.5 57.5zM537 331q0 -23 25 -23h101q25 0 25 23v258h190l121 -264q7 -17 21 -17h119q25 0 25 19q0 2 -1 3.5t-1 3.5l-138 289q59 37 94 96t35 134q0 54 -20 101t-55 82.5t-81.5 57t-100.5 23.5h-334q-25 0 -25 -27v-759z" />
    <glyph glyph-name="B" unicode="B" horiz-adv-x="1302" 
d="M810 644q41 0 82.5 -16.5t75.5 -47.5t55 -76.5t21 -102.5q0 -37 -13 -76t-40.5 -71t-70 -53t-102.5 -21h-476v464h468zM748 1247q103 0 163 -53.5t60 -153.5q0 -101 -61 -157t-164 -56h-404v420h406zM156 34q0 -34 33 -34h652q78 0 149 32t125 86.5t86 126.5t32 151
q0 57 -15 112.5t-43 103t-66.5 85.5t-86.5 61q69 47 101 120.5t32 166.5q0 81 -27.5 150.5t-76 121t-115.5 81t-146 29.5h-601q-33 0 -33 -33v-1360z" />
    <glyph glyph-name="G" unicode="G" horiz-adv-x="1415" 
d="M842 161q-115 -1 -215.5 42t-174 118t-116 176.5t-42.5 216.5q0 116 41.5 216.5t115 174.5t174 116.5t217.5 42.5q97 0 180.5 -32t153.5 -85q12 -9 24 -9q9 0 15.5 3.5t9.5 8.5l66 95q5 7 6 20t-17 27q-92 72 -200.5 112t-239.5 40q-152 0 -286 -57t-233.5 -156
t-157 -232t-57.5 -285t58 -285.5t158 -232.5t234 -156.5t286 -57.5q131 0 244 39.5t203 105.5q10 7 14 17t4 21v430q0 20 -9.5 28t-23.5 8h-111q-17 0 -25.5 -9.5t-8.5 -26.5v-350q-51 -39 -128.5 -61t-158.5 -23z" />
    <glyph glyph-name="quotesinglbase" unicode="&#x201a;" horiz-adv-x="507" 
d="M156.99 31.998q0 -32.998 28.998 -32.998h31.998q13 0 13 -16.999q0 -6.99902 -1.5 -20.999q-1.5 -13.999 -8 -32.498q-6.49902 -18.498 -18.499 -39.4971q-11.999 -20.999 -32.998 -41.9971q-5.99902 -6 -9.49902 -15q-3.5 -8.99902 7.5 -17.998l33.9971 -31.998
q7 -7 15.999 -7q10 0 19.999 9.99902q48.9971 48.9971 74.4951 107.494q25.499 58.4961 25.499 146.491v107.993q0 32.998 -29.998 32.998h-119.993q-30.998 0 -30.998 -33.998v-113.993z" />
    <glyph glyph-name="quotedblbase" unicode="&#x201e;" horiz-adv-x="582" 
d="M224.986 31.998q0 -32.998 28.998 -32.998h31.998q12.999 0 12.999 -16.999q0 -6.99902 -1.5 -20.999q-1.49902 -13.999 -7.99902 -32.498q-6.5 -18.498 -18.499 -39.4971t-32.998 -41.9971q-5.99902 -6 -9.49902 -15q-3.5 -8.99902 7.49902 -17.998l33.998 -31.998
q7 -7 15.999 -7q10 0 19.999 9.99902q48.9971 48.9971 74.4951 107.494q25.499 58.4961 25.499 146.491v107.993q0 32.998 -29.999 32.998h-119.992q-30.998 0 -30.998 -33.998v-113.993zM-57.9961 31.998q0 -32.998 28.998 -32.998h31.998q12.999 0 12.999 -16.999
q0 -6.99902 -1.5 -20.999q-1.5 -13.999 -7.99902 -32.498q-6.5 -18.498 -18.499 -39.4971t-32.998 -41.9971q-6 -6 -9.5 -15q-3.49902 -8.99902 7.5 -17.998l33.998 -31.998q6.99902 -7 15.999 -7q9.99902 0 19.999 9.99902q48.9971 48.9971 74.4951 107.494
q25.498 58.4961 25.498 146.491v107.993q0 32.998 -29.998 32.998h-119.992q-30.998 0 -30.998 -33.998v-113.993z" />
    <glyph glyph-name="guilsinglleft" unicode="&#x2039;" horiz-adv-x="828" 
d="M53.9971 532q0 -5 1.99902 -8.5q2 -3.5 8 -9.5l511.969 -509q11.999 -12 26.998 -12q10 0 16.999 7l61.9961 61q10 10 10.5 24t-10.5 25l-427.974 422l427.974 426q11 11 10.5 25t-10.5 24l-61.9961 60q-6.99902 7 -16.999 7q-15.999 0 -26.998 -11l-511.969 -512
q-6 -6 -8 -9.5q-1.99902 -3.5 -1.99902 -9.5z" />
    <glyph glyph-name="Ccaron" unicode="&#x10c;" horiz-adv-x="1365" 
d="M1164 281q-67 -51 -149.5 -84.5t-179.5 -33.5q-115 0 -216 43t-175.5 117t-117.5 175t-43 216q0 116 43 216.5t117.5 174.5t175.5 116.5t216 42.5q97 0 178 -31.5t153 -87.5q13 -10 26 -10q8 0 14.5 3.5t9.5 7.5l70 100q3 5 4 18t-16 27q-88 69 -198 111t-241 42
q-152 0 -286.5 -57t-234.5 -155.5t-158 -231.5t-58 -286q0 -152 58 -285.5t158 -232.5t234.5 -156.5t286.5 -57.5q131 0 241 42t196 111q14 11 17 24t-8 27l-66 97q-10 11 -22 11q-13 0 -29 -13zM1054 1778q11 11 14.5 22t-9.5 24l-46 44q-8 8 -18 8q-11 0 -25 -14
l-167 -167l-169 170q-10 12 -21 12q-10 0 -20 -10l-46 -45q-13 -13 -11 -21t13 -19l230 -232q10 -10 16.5 -11t8.5 -1q8 0 14 4t10 8z" />
    <glyph glyph-name="Dcaron" unicode="&#x10e;" horiz-adv-x="1482" 
d="M1188 712q0 -112 -42.5 -210t-117.5 -171t-177.5 -115t-221.5 -42h-289v1078h289q119 0 221.5 -42.5t177.5 -115.5t117.5 -171.5t42.5 -210.5zM154 34q0 -34 33 -34h464q153 0 285 56.5t229.5 154t153.5 227t56 274.5t-56.5 274.5t-155.5 227t-232.5 155t-286.5 57.5
h-457q-33 0 -33 -33v-1359zM838 1791q11 11 14.5 22t-9.5 24l-46 44q-8 8 -18 8q-11 0 -25 -14l-167 -167l-169 170q-10 12 -21 12q-10 0 -20 -10l-46 -45q-13 -13 -11 -21t13 -19l230 -232q10 -10 16.5 -11t8.5 -1q8 0 14 4t10 8z" />
    <glyph glyph-name="Ecaron" unicode="&#x11a;" horiz-adv-x="1233" 
d="M156 34q0 -34 33 -34h939q17 0 26.5 8.5t9.5 25.5v122q0 17 -9.5 25t-26.5 8h-786v470h609q17 0 28 8t11 25v118q0 17 -11 25.5t-28 8.5h-609v396h787q17 0 26.5 8.5t9.5 25.5v120q0 17 -9.5 25t-26.5 8h-940q-33 0 -33 -33v-1360zM920 1793q11 11 14.5 22t-9.5 24
l-46 44q-8 8 -18 8q-11 0 -25 -14l-167 -167l-169 170q-10 12 -21 12q-10 0 -20 -10l-46 -45q-13 -13 -11 -21t13 -19l230 -232q10 -10 16.5 -11t8.5 -1q8 0 14 4t10 8z" />
    <glyph glyph-name="Idotaccent" unicode="&#x130;" horiz-adv-x="495" 
d="M154 37q0 -37 33 -37h120q33 0 33 37v1354q0 17 -8 26.5t-25 9.5h-120q-16 0 -24.5 -9.5t-8.5 -26.5v-1354zM155 1629q0 -21 10 -29.5t30 -8.5h105q17 0 27 8t10 31v102q0 41 -37 41h-106q-22 0 -30.5 -11.5t-8.5 -28.5v-104z" />
    <glyph glyph-name="Ncaron" unicode="&#x147;" horiz-adv-x="1516" 
d="M1160 28q12 -17 23.5 -22.5t22.5 -5.5h120q35 0 35 37v1355q0 16 -10.5 25t-24.5 9h-111q-17 0 -26 -9.5t-9 -24.5v-1078l-815 1083q-11 16 -23 22.5t-23 6.5h-131q-17 0 -25.5 -10.5t-8.5 -23.5v-1355q0 -37 34 -37h111q35 0 35 37v1113zM1054 1778q11 11 14.5 22
t-9.5 24l-46 44q-8 8 -18 8q-11 0 -25 -14l-167 -167l-169 170q-10 12 -21 12q-10 0 -20 -10l-46 -45q-13 -13 -11 -21t13 -19l230 -232q10 -10 16.5 -11t8.5 -1q8 0 14 4t10 8z" />
    <glyph glyph-name="Rcaron" unicode="&#x158;" horiz-adv-x="1319" 
d="M731 1244q63 0 116 -20t91 -56t59 -86.5t21 -111.5t-21 -110.5t-59 -84.5t-91 -54t-116 -19h-390v542h390zM1007 28q8 -17 17 -22.5t20 -5.5h136q15 0 23 13t1 27l-253 522q59 29 106.5 72t81 96t51.5 113.5t18 123.5q0 92 -32.5 175t-90.5 146.5t-138.5 101t-176.5 37.5
h-582q-17 0 -24.5 -9.5t-7.5 -23.5v-1360q0 -34 32 -34h120q33 0 33 34v483l436 2zM902 1806q11 11 14.5 22t-9.5 24l-46 44q-8 8 -18 8q-11 0 -25 -14l-167 -167l-169 170q-10 12 -21 12q-10 0 -20 -10l-46 -45q-13 -13 -11 -21t13 -19l230 -232q10 -10 16.5 -11t8.5 -1
q8 0 14 4t10 8z" />
    <glyph glyph-name="Tcaron" unicode="&#x164;" horiz-adv-x="1190" 
d="M52 1275q0 -34 34 -34h412v-1207q0 -34 34 -34h120q33 0 33 34v1207h413q32 0 32 34v118q0 34 -32 34h-1012q-34 0 -34 -34v-118zM842 1802q11 11 14.5 22t-9.5 24l-46 44q-8 8 -18 8q-11 0 -25 -14l-167 -167l-169 170q-10 12 -21 12q-10 0 -20 -10l-46 -45
q-13 -13 -11 -21t13 -19l230 -232q10 -10 16.5 -11t8.5 -1q8 0 14 4t10 8z" />
    <glyph glyph-name="at" unicode="@" 
d="M2323 1024v-550h-2254v550h854q0 28 5 55t19 50q11 27 24.5 49t34.5 39q36 39 86 58q25 11 51 16t53 5q31 0 58 -6t50 -15q55 -27 88.5 -60.5t58.5 -89.5q18 -49 18 -101h854zM947 1024q0 -57 17.5 -96.5t52.5 -82.5q36 -35 82 -55t97 -20q50 0 96 17.5t80 55.5
q20 18 33 38t24 41q20 51 20 102q0 43 -13.5 82t-41.5 72q-13 18 -27.5 31t-32.5 24q-17 7 -35 16.5t-37 16.5q-14 3 -30.5 6t-35.5 3q-55 0 -100 -23q-46 -16 -79 -54q-34 -34 -52 -80t-18 -94zM1070 877l295 298q58 -73 58 -151q0 -22 -3 -42t-11 -39q-13 -35 -38 -66
h-301zM1026 870q-26 34 -41 71q-8 17 -11 38t-3 45q0 18 3 37.5t11 39.5q4 18 13.5 33.5t23.5 30.5h299zM2058 194q3 -4 5.5 -10t4.5 -13q4 -7 4 -14v-29q0 -7 -4 -11q-2 -7 -4.5 -14t-5.5 -13q-4 -7 -15 -19q-6 -5 -11.5 -9.5t-12.5 -8.5q-5 -5 -11.5 -7t-12.5 -4
q-8 -2 -13 -2h-16q-19 0 -40 6q-8 6 -15.5 12t-15.5 13q-8 6 -13.5 13.5t-7.5 19.5q-6 9 -7.5 18.5t-1.5 21.5q0 8 1 13.5t1 13.5q3 7 6 13t7 10q2 8 5.5 12.5t9.5 10.5q3 4 9.5 8t11.5 9q4 2 10.5 4t12.5 6q10 0 15.5 1t11.5 1q9 0 16 -1t13 -1q6 -4 12.5 -6t11.5 -4
q13 -10 24 -17q2 -6 7.5 -10.5t7.5 -12.5zM1064 194q2 -4 4 -10t5 -13q2 -10 2 -14v-29q0 -5 -2 -11q-3 -7 -5 -14t-4 -13q-5 -4 -9.5 -9.5t-8.5 -9.5q-14 -14 -21.5 -18t-24.5 -11q-4 -1 -7 -1.5t-7 -0.5h-15q-9 0 -18.5 2t-21.5 4q-11 6 -17.5 12t-15.5 13
q-15 14 -21.5 33.5t-6.5 39.5v13q0 4 2 14q5 17 11 23q4 8 7.5 12.5t7.5 10.5q7 4 11.5 8t10.5 9l27 10q4 0 10.5 1t13.5 1q8 0 15 -1t14 -1q6 -4 12.5 -6t13.5 -4l20 -17q4 -6 8.5 -10.5t9.5 -12.5zM2281 244l1 1l41 1v-206h-35v150l-5 -9v-6q-8 -18 -14.5 -36t-14.5 -31
q-6 -18 -11.5 -33.5t-13.5 -34.5h-34l-52 131q-5 3 -5 10l-3 6v-147h-39v206h37q5 0 6.5 -1t3.5 -1q2 -2 3 -2t3 -2l7 -4q0 -2 2 -3.5t2 -3.5q4 -16 10.5 -30t14.5 -32q6 -15 11.5 -30.5t11.5 -28.5v-12l5 12l9 13l42 108l4 7l5 4q2 2 4 2t4 2zM1246 246h36v-206h-34
l-94 138l-4 3v2q-5 9 -7 11t-5 2v-156h-36v206h32q4 0 8.5 -1t4.5 -3q3 -2 5 -2t4 -2l21 -31q5 -8 9.5 -16t9.5 -17q13 -13 23 -27.5t23 -27.5q0 -2 1 -4.5t1 -6.5l2 -5v143zM630 246l88 -206h-23q-8 0 -15 4q-2 2 -4 6.5t-6 8.5l-12 25h-94l-9 -25q0 -6 -4 -6l-7 -9
q-2 0 -3.5 -1t-5.5 -1l-28 -2l90 206h33zM244 246h130v-37h-94v-46h77v-38h-77v-48h94v-37h-130v206zM69 246h149v-23l-7 -14l-99 -134h1l2 2h102v-37h-155v13q0 9 2 11q0 2 5 7v4l2 4q2 2 4 3.5t2 5.5l88 121h-96v37zM786 618q1 6 2 10t1 9q0 12 -3 21q0 5 -3.5 8.5
t-5.5 9.5q-2 3 -4.5 6t-6.5 7l-7 6q-2 3 -8 8l-8 4q-2 1 -4.5 2t-5.5 2h-38q-10 -4 -17 -8q-4 -5 -7.5 -7.5t-7.5 -6.5q-11 -8 -12 -13q-4 -6 -5 -9.5t-3 -8.5q-1 -5 -1.5 -10t-0.5 -11q0 -15 6 -27.5t16 -23.5q11 -14 24 -14q11 -6 27 -6h19q6 2 10.5 4t7.5 4q11 5 15 12
q7 7 11 15q2 4 5.5 8.5t3.5 8.5zM1843 618v40q-2 5 -3.5 9t-3.5 9q-5 6 -14 13q-1 4 -5.5 6.5t-8.5 7.5l-4 2t-5 2l-7 4h-39l-10 -4l-10 -4q-3 -5 -6 -7.5t-7 -6.5q-3 -4 -6 -6.5t-5 -6.5q-2 -6 -4.5 -9.5t-2.5 -8.5q-5 -10 -5 -21q0 -5 2.5 -13t5.5 -14q5 -15 15 -24
q8 -14 24 -14q11 -6 28 -6h20q3 2 8 4t8 4q4 3 8.5 5.5t5.5 6.5q9 5 14 15zM1724 190q-7 -7 -13 -23q-2 -4 -4 -9.5t-2 -13.5q0 -9 6 -25.5t13 -22.5q9 -9 22 -15q12 -4 26 -4q5 0 9.5 1t10.5 1q3 2 8 4.5t8 6.5q2 0 8 2h12q2 0 8 -2q2 -1 7 -6l6 -7q-3 -4 -6 -7.5t-7 -7.5
q-6 -3 -10.5 -6t-11.5 -6q-5 -3 -15.5 -6.5t-16.5 -3.5h-10q-11 0 -22 2t-20 4q-20 9 -33 25q-15 14 -21 33q-4 9 -6.5 18.5t-2.5 21.5q0 8 1 13.5t3 13.5q2 16 9 23q6 8 8.5 12.5t8.5 10.5l23 17l26 10q5 0 11.5 1t14.5 1h12q4 0 15 -3t15 -5l22 -13q4 -4 7 -8l6 -8
l-13 -15h-14q-7 0 -14 4q-3 2 -8 4.5t-8 4.5q-8 2 -11 2h-9q-15 0 -26 -6q-15 -2 -22 -13zM1594 125q5 -8 5 -19q0 -14 -7 -27l-8 -12q-3 -5 -8 -8q-6 -6 -10.5 -9.5t-12.5 -5.5q-5 -2 -13 -3t-14 -1q-11 0 -31 4q-9 4 -20 18q-4 1 -6 5l-4 8q-6 2 -6 9l6 4l8 2l2 2h9
q12 -3 13 -4q5 -4 8.5 -5.5t5.5 -3.5q2 0 6 -1t9 -1h5q8 2 12 3.5t7 3.5l4 4t3 4q2 4 4 7t2 7q0 6 -6 9q-4 6 -7 6q-2 4 -6.5 5t-6.5 2q-5 0 -13 6q-5 0 -9 1t-9 6q-9 3 -12.5 6t-7.5 7q-11 4 -11 13q-6 11 -6 23q0 18 6 25q1 4 5 10l8 9q4 2 9 4t12 6q6 0 10.5 1t12.5 1
q4 0 8 -1t10 -1l15 -6q3 -4 6 -6.5t7 -6.5q3 -2 6.5 -5t3.5 -7l-13 -8l-20 -3l-5 1q-3 1 -6 4q-2 0 -3.5 1t-3.5 1h-16q-2 0 -3 -1t-5 -3l-6 -5q-1 -3 -1 -10q3 -6 4 -9t3 -7h6q8 -2 13 -4.5t10 -4.5l8 -2q5 -4 9 -5t9 -4q6 -2 16 -12.5t10 -16.5zM1480 315q-11 8 -15 19
q-6 14 -6 29v15l10 18q2 2 4.5 5.5t6.5 7.5q6 8 12 9q3 5 8.5 6t8.5 3q4 0 8 1.5t9 1.5q4 0 10 -1.5t10 -1.5q4 -2 7.5 -3t7.5 -6l11 -9l12 -13q2 -4 4 -8.5t4 -9.5q0 -4 1 -8.5t1 -6.5q0 -6 -1 -13.5t-5 -15.5q-4 -12 -16 -19q-4 -4 -8.5 -7.5t-11.5 -8.5q-10 -2 -26 -2
h-14q-4 0 -10 2q-15 4 -22 16zM2030 119q5 12 5 25q0 15 -5 23q-3 13 -13.5 23t-23.5 13q-4 4 -11 5t-16 1q-10 0 -24 -6q-7 -1 -11.5 -4t-10.5 -9q-8 -6 -15 -23q0 -4 -1 -9.5t-1 -13.5t1 -13.5t1 -11.5q8 -16 15 -23q6 -4 10.5 -8t11.5 -7q7 -2 13.5 -3t10.5 -1q20 0 27 4
q28 10 37 38zM2141 315q-6 -4 -12 -7.5t-11 -8.5q-8 -2 -12 -2h-28q-4 0 -12 2q-11 4 -21 16q-7 7 -13 19q-2 8 -4 15.5t-2 13.5q0 2 1 6.5t1 8.5q2 4 3 9t4 9q2 3 5 6t5 7q7 5 16 9q3 5 8 6t7 3q5 0 8 1.5t10 1.5q2 0 7.5 -1.5t10.5 -1.5q4 -2 7.5 -3t5.5 -6q4 -2 8.5 -4.5
t7.5 -4.5q1 -2 2 -3.5t2 -3.5l4 -6q6 -10 7 -18q2 -4 3 -8.5t1 -6.5q0 -6 -1 -13.5t-5 -15.5q0 -6 -5 -11zM1039 144q0 14 -4 23q-4 17 -18 23q-2 6 -7.5 9t-11.5 4q-10 6 -27 6q-13 0 -24 -6q-10 -1 -22 -13q-8 -5 -13 -23q-5 -5 -5 -10v-27q0 -4 5 -11q5 -14 13 -22.5
t22 -15.5q9 -4 24 -4q18 0 27 4q14 7 19 15q13 5 17.5 20.5t4.5 27.5zM726 246h130v-37h-94v-52h77v-36h-77v-81h-36v206zM535 209h-55v-169h-40v169h-59v37h154v-37zM1302 246h155v-37h-61v-169h-37v169h-57v37zM1281 1233q16 -8 33.5 -19.5t33.5 -21.5h-304q34 28 70 41
q37 17 82 17t85 -17zM1114 810q-18 7 -35 18t-33 24h302q-16 -13 -33.5 -24t-33.5 -18q-22 -6 -43 -10.5t-42 -4.5q-23 0 -42.5 4.5t-39.5 10.5zM524 566l-44 64q4 0 11 4q7 3 8 9q8 6 8 11v24q-6 14 -12 19q-5 8 -13 8q-2 4 -6.5 5t-8.5 1h-53v-145h22v60h22l37 -52
q1 -4 7 -6zM1096 566l-63 145h-20l-62 -145h11q7 0 9 2q0 2 6 6l10 25h72l11 -25q1 -4 5 -6q2 -2 8 -2h13zM1810 676q2 -2 6.5 -7.5t5.5 -10.5q4 -7 4 -21q0 -12 -4 -21q-1 -4 -6 -9l-6 -6q-5 -4 -9 -6.5t-8 -6.5q-8 -4 -21 -4q-14 0 -21 4q-5 4 -9.5 6.5t-8.5 6.5
q-3 2 -6 6.5t-3 8.5q-4 6 -5 11t-1 10q0 11 6 21q0 5 3 10.5t6 7.5q8 8 18.5 11.5t20.5 3.5q12 0 21 -4zM751 676q6 -2 8.5 -7.5t4.5 -10.5q4 -7 4 -21q0 -10 -4 -21q-2 -4 -4.5 -8.5t-8.5 -6.5q-5 -9 -16 -13t-21 -4t-21 4q-4 4 -8.5 6.5t-8.5 6.5q-2 2 -5.5 6.5t-5.5 8.5
q-4 11 -4 21q0 20 8.5 30.5t23.5 19.5q5 2 11.5 3t9.5 1q13 0 21 -4q12 -4 16 -11zM277 647q5 12 5 18q0 9 -5 18q0 2 -4 6l-6 6q-2 3 -5 6.5t-9 3.5q-2 4 -7.5 5t-9.5 1h-49v-145h16v55h33q4 0 9.5 0.5t7.5 2.5q10 4 14 10q4 2 7 5.5t3 7.5zM2079 311h29l6 3q5 4 9 6l8 4
l3 6q3 6 6 11t3 9v32q-2 6 -6 10t-6 7q-6 2 -9.5 5t-7.5 7h-40q-6 -4 -9.5 -7t-8.5 -5q-7 -5 -11 -17q-2 -8 -2 -12v-20q0 -4 1 -8.5t4 -7.5l4 -4q3 -3 4 -6l6 -3q7 -5 10.5 -6.5t6.5 -3.5zM1993 711h-20v-112q-1 2 -2 5t-3 4l-70 97l-3 6h-23v-145h21v114l84 -114h16v145z
M1480 382q-3 -6 -4 -11.5t-1 -7.5v-8q3 -14 7 -21q0 -2 2 -4t4 -6l5 -3q2 -2 9 -2q2 -4 5.5 -5t5.5 -3h26q5 2 8 3t6 5l10 5q2 4 4.5 6t2.5 4q2 3 3 7.5t3 8.5q0 2 1 5.5t1 7.5q0 2 -1 7.5t-5 11.5q0 6 -3.5 10t-5.5 7q-3 1 -8 6l-9 6h-40q-4 -4 -9 -7t-9 -5q-2 -3 -5 -7
t-3 -10zM935 711h-17v-112l-73 106q-4 0 -6 6h-23v-145h19v117h2l2 -1v-4l81 -112h15v145zM1982 357q-4 -1 -7 -2t-5 -2l42 -56h-11q-7 2 -8.5 3.5t-1.5 5.5l-36 47h-26v-56h-15v130h54q3 0 9 -2q2 -2 5.5 -4.5t4.5 -4.5q4 -2 5 -5.5t7 -7.5v-25q-4 -4 -5 -7.5t-3 -5.5z
M1259 357q-3 -3 -11 -4l44 -56h-14q-9 3 -9 9l-36 47h-26v-56h-13v130h53q9 -2 13.5 -4.5t8.5 -6.5q0 -2 3 -5.5t3 -7.5l2 -19q-3 -16 -6 -19l-5 -4q-2 -2 -7 -4zM386 711h-91v-145h91v20h-69v44h55v17h-55v42h69v22zM1614 711h-88v-145h88v20h-66v44h55v17h-55v42h66v22z
M2306 425l17 2v-130h-11v106l-2 -2v-2q-4 -7 -6.5 -16t-7.5 -13q-4 -7 -6 -12.5t-7 -13.5q-2 -8 -3 -14t-5 -9q-3 -8 -6 -12.5t-5 -11.5h-14q-9 12 -14 24.5t-10 26.5q-4 11 -11 24.5t-11 26.5v2h-4v-104h-13v130h13l8 -4v-5l46 -99l3 -2v4q0 1 7 5l38 92q2 5 3 5t1 2z
M1387 711h-20v-97q0 -3 -2 -7q-1 -7 -9 -12q0 -2 -4 -3.5t-6 -5.5l-8 -2h-8q-7 0 -13 2q-5 4 -8 5.5t-5 3.5l-10 12q0 3 -1 7t-1 10v87h-19v-87q0 -7 1.5 -16.5t6.5 -14.5q2 -6 9 -11q2 -3 4.5 -5.5t7.5 -4.5q2 -2 6 -3t7 -3q4 0 7 -1t8 -1q4 0 7.5 1t10.5 1q2 2 5 3t6 3
q8 6 12 10q3 2 5 5t5 6q0 4 3 7t3 7v104zM622 592q2 5 3 8t1 8q0 10 -5 18t-11 13q-2 0 -3.5 2t-5.5 4l-4 2h-4q-4 3 -6 3.5t-3 1.5q-7 2 -8.5 3t-5.5 3q-6 3 -8 3l-3 21q8 7 11 7l14 2q10 -3 11 -6l6 -2q9 0 13 4l4 2l-6 8q-2 1 -4.5 3.5t-6.5 4.5q-2 0 -4 2t-5 4h-28
q-5 -2 -7 -4t-6 -4q-2 -5 -5.5 -7.5t-6.5 -6.5q0 -4 -2 -6.5t-2 -8.5q0 -7 4 -16l5 -7l5 -4q2 -2 6 -5t7 -3l7 -4q2 -1 7 -1q1 -2 5.5 -2t6.5 -2l5 -2q5 -4 5.5 -5l2.5 -5l2 -15q-4 -5 -4 -7.5t-2 -3.5q-1 -3 -6 -5l-3 -1q-4 0 -7.5 -1t-4.5 -1q-5 0 -11 1.5t-6 6.5l-4 1
q-4 4 -11 4h-5l-9 -4l9 -16h3q7 -7 15.5 -9t18.5 -2h8q5 0 11 2q4 2 8.5 4t6.5 5q4 2 7.5 5.5t4.5 9.5zM1497 592q7 7 7 16q0 10 -4.5 18t-11.5 13q-6 5 -6 6h-4l-36 16l-6 6q0 1 -1 3t-1 4q0 4 4 8q5 4 6.5 5.5t4.5 1.5q2 2 10 2l3 -1l7.5 -3t5.5 -2q6 -2 7 -2q7 0 8 4l5 2
q0 2 -2.5 4t-4.5 4q0 1 -3 3.5t-5 4.5q-3 0 -5 2t-6 4h-6l-4 1q-6 0 -9.5 -0.5t-7.5 -0.5l-13 -8l-11 -14q-1 -4 -3 -6.5t-2 -8.5q0 -4 2 -7.5t3 -8.5q2 -4 4.5 -6.5l4.5 -4.5q4 -2 6.5 -5t6.5 -3q8 -5 13 -5q4 -2 6.5 -2t5.5 -2q5 0 10 -3.5t5 -8.5l2 -14q-2 -7 -3.5 -9
t-3.5 -3q-11 -8 -22 -8q-2 0 -5.5 1t-5.5 1q-3 1 -8 6l-2 1q-4 4 -9 4h-6l-10 -4l8 -9v-2q7 -5 8 -5q6 -7 13.5 -9t16.5 -2h11q3 0 11 2q2 2 5.5 4t7.5 5l5 7q3 3 4 8zM1632 297h-16v130h18l77 -106v106h13v-130h-11l-77 106v4h-4v-110zM73 328q-4 4 -5 7.5t-2 8.5
q-2 6 -3 9.5t-1 9.5t4 15q1 4 2 9t5 9l9 13q2 2 6 4.5t6 4.5q5 5 9.5 6t8.5 3q3 0 8 1.5t10 1.5q15 0 26 -7q13 -4 20 -14l-4 -6h-13q-3 2 -6 5t-7 3h-34l-20 -12q-4 -3 -7 -7t-4 -10q-2 -6 -3 -11.5t-1 -7.5q0 -9 4 -13q0 -4 0.5 -8.5t0.5 -7.5l4 -4q5 -1 6 -6l7 -4
q2 -1 7 -1q2 -4 4.5 -5t6.5 -3h31q2 2 6.5 3t8.5 5v27h-13v2l-6 4h-2l-1 7h35v-48q-2 -5 -3.5 -6t-5.5 -6h-11q-8 -2 -12 -2h-32q-5 0 -18 9q-7 0 -12 9zM225 411v-41h52v-15h-52v-44h63v-14h-79v130h79v-16h-63zM1098 411v-41h56v-15h-56v-44h64v-14h-79v130h79v-16h-64z
M2226 711h-18q-5 0 -9 -4t-4 -9l-35 -44h-4l-36 44q-3 13 -15 13h-16l54 -72v-2l4 -3v-68h20v66l4 5v2zM2112 586h-64v125h-20v-145h84v20zM601 427v-79q0 -6 2 -9t5 -5q0 -6 3 -9t5 -4q0 -2 4 -4t6 -4q6 -2 8 -2h15l12 6t7 4q4 1 8 13q4 3 4 14v79h13v-79q0 -9 -3.5 -20.5
t-11.5 -16.5q-5 -12 -15 -12q-6 -1 -11.5 -1.5t-10.5 -0.5t-10.5 0.5t-12.5 1.5q-3 0 -15 12l-10 15q-1 6 -3 11t-2 11v79h13zM1191 586h-62v125h-19v-145h81v20zM1361 315q1 2 2 3.5t2 3.5q2 2 3 6t1 6q0 17 -15 21q-3 0 -12.5 4t-11.5 6q-9 0 -13 7q-2 0 -3.5 3t-3.5 6v21
q0 1 2 7q0 8 7 9l6 5q2 1 3.5 2t3.5 2q4 0 6.5 1.5t7.5 1.5l10 -3q3 0 4 -1t5 -3q6 0 6 -7q5 0 6 -3l1 -2l-2 -2q-6 -2 -9 -2h-6l-23 4q-8 0 -8 -2q-5 -7 -5 -8q-4 0 -4 -7q0 -5 4 -6q0 -4 3 -6l6 -4q4 -4 7 -4t7 -2l6 -2q3 0 7 -5h4l6 -2q5 -4 7.5 -7t4.5 -4q1 -5 1.5 -9.5
t0.5 -8.5v-10l-7.5 -12t-6.5 -6q-2 -2 -6 -4.5t-6 -2.5q-4 -2 -9 -2h-9q-9 0 -16.5 1t-12.5 8q-2 0 -3 2.5t-5 4.5v4l-2 2l4 2h6q1 0 3 -1t4 -1q4 -4 6.5 -5t4.5 -3h20q7 0 11 4zM1002 297l-55 130h5q10 0 14 -9l40 -97v-2h2l2 2q5 13 12 25.5t11 23.5q4 14 9.5 25.5
t11.5 22.5q0 5 1.5 5t1.5 2l16 2q-7 -16 -14 -32.5t-15 -31.5q-4 -8 -7 -17l-6 -18l-14 -31h-15zM499 411v-46h56v-12h-56v-56h-15v130h80v-16h-65zM1836 411v-46h51v-12h-51v-56h-15v130h77v-16h-62zM824 427v-116h59v-14h-75v130h16zM348 297v114h-44v16h99v-16h-44v-114
h-11zM735 427v-116h60v-14h-75v130h15zM253 683q2 -1 3 -4t3 -5q3 -4 3 -9v-4q0 -2 -3 -7q-2 -2 -3 -4.5t-3 -2.5q-1 -2 -3 -4l-4 -4h-43v50h33q4 0 10 -2zM1242 365q5 0 6 3q4 4 9 4l2 4q5 10 5 16q0 2 -1 3t-1 4q-3 2 -4 3t-1 5q-5 0 -9 4h-41v-46h35zM1970 368q4 4 7 4
q5 7 5 9q2 4 2 11q0 3 -2 7q0 1 -5 8q-3 0 -7 4h-41v-46h33q4 0 8 3zM486 658l-4 -7q-2 0 -3 -2t-3 -2q-2 -2 -9 -2h-31v44h31q3 0 9 -2l6 -4q1 -2 2 -3.5t2 -3.5q3 -1 3 -9q0 -6 -3 -9zM1429 427v-130h-16v130h16zM641 121l-27 69h-2l-28 -69h57zM1024 682v-4l26 -60h-55
l27 60v5zM1645 77q6 0 6 -6l2 -9q0 -7 -2 -9q0 -4 -6 -9l-22 -4q-4 4 -9 4q0 2 -5 9q-2 2 -2 9v4l7 11q7 4 9 4l14 3z" />
    <glyph glyph-name="O" unicode="O" horiz-adv-x="1688" 
d="M109 712q0 -152 57.5 -285t157.5 -231.5t233.5 -155.5t285.5 -57t285 57t231.5 155.5t155 231.5t56.5 285t-56.5 285.5t-155 233t-231.5 157t-285 57.5t-285.5 -57.5t-233.5 -157t-157.5 -233t-57.5 -285.5zM296 712q0 116 42 216.5t116 175t174 117.5t215 43
q116 0 214.5 -43t171.5 -117.5t114 -175t41 -216.5q0 -115 -41 -215t-114 -174.5t-171.5 -117t-214.5 -42.5q-115 0 -215 42.5t-174 117t-116 174.5t-42 215z" />
    <glyph glyph-name="Q" unicode="Q" horiz-adv-x="1688" 
d="M296 712q0 116 42 216.5t116 175t174 117.5t215 43q116 0 215 -43t172.5 -117.5t115 -175t41.5 -216.5q0 -115 -41.5 -215t-115 -174.5t-172.5 -117t-215 -42.5q-115 0 -215 42.5t-174 117t-116 174.5t-42 215zM109 712q0 -140 49 -264t135.5 -220.5t203.5 -159
t252 -79.5v-261q0 -17 8 -26.5t25 -9.5h120q17 0 25 9.5t8 26.5v261q135 17 252 79t203.5 158.5t135.5 221t49 264.5q0 152 -57.5 285.5t-156.5 233t-232.5 157t-285.5 57.5t-285.5 -57.5t-233.5 -157t-157.5 -233t-57.5 -285.5z" />
    <glyph glyph-name="a" unicode="a" horiz-adv-x="1478" 
d="M1170 606q0 -94 -37.5 -176.5t-99 -144t-141.5 -96.5t-164 -35t-162 34.5t-138 95.5t-96 143.5t-36 178.5q0 98 34 182t92.5 145.5t137.5 96.5t168 35q90 0 170.5 -36t140.5 -98t95.5 -145.5t35.5 -179.5zM1346 1190q0 37 -33 37h-121q-33 0 -33 -37v-130
q-35 36 -79.5 68t-98.5 56.5t-118.5 39t-140.5 14.5q-126 0 -239 -50t-198.5 -136.5t-136 -201.5t-50.5 -245q0 -134 53.5 -248.5t141.5 -198t200 -131t229 -47.5q65 0 130 14t122.5 38.5t105.5 58t79 72.5v-116q0 -18 7.5 -32.5t31.5 -14.5h115q33 0 33 37v1153z" />
    <glyph glyph-name="b" unicode="b" horiz-adv-x="1488" 
d="M334 607q0 90 32.5 172.5t91 146t140.5 101t180 37.5q95 0 174 -37.5t135 -101.5t87 -149t31 -179q0 -96 -34.5 -176.5t-93.5 -139.5t-138.5 -92t-169.5 -33q-98 0 -178 37t-137 99.5t-88.5 144t-31.5 170.5zM154 37q0 -37 35 -37h108q20 0 32.5 19t12.5 37v97
q35 -37 83.5 -69t107 -55.5t125 -37t137.5 -13.5q115 0 223 47.5t192 131.5t135 199t51 249q0 130 -47 245t-129.5 201.5t-194 136.5t-241.5 50q-75 0 -141.5 -15.5t-122.5 -40.5t-100.5 -57.5t-77.5 -67.5v488q0 37 -33 37h-120q-35 0 -35 -37v-1508z" />
    <glyph glyph-name="d" unicode="d" horiz-adv-x="1478" 
d="M1160 607q0 -89 -31.5 -170.5t-88.5 -144t-137 -99.5t-178 -37q-90 0 -169.5 33t-138.5 92t-93.5 139.5t-34.5 176.5q0 94 31 179t87.5 149t135 101.5t173.5 37.5q98 0 180 -37.5t140.5 -101t91 -146t32.5 -172.5zM1340 1545q0 37 -35 37h-120q-33 0 -33 -37v-488
q-33 35 -77.5 67.5t-100.5 57.5t-122.5 40.5t-141.5 15.5q-130 0 -241.5 -50t-194 -136.5t-129.5 -201.5t-47 -245q0 -134 51 -249t135 -199t192 -131.5t223 -47.5q71 0 137.5 13.5t125 37t107.5 55.5t83 69v-97q0 -18 12.5 -37t32.5 -19h108q35 0 35 37v1508z" />
    <glyph glyph-name="e" unicode="e" horiz-adv-x="1453" 
d="M734 1055q87 0 160.5 -26t130.5 -72.5t95 -111.5t54 -142h-872q17 77 56 142t95.5 111.5t128 72.5t152.5 26zM1296 515q14 0 26 2t20.5 9.5t13.5 21t5 35.5q0 130 -40.5 248.5t-121 208.5t-201 143.5t-279.5 53.5q-132 0 -246 -50t-198 -136.5t-131.5 -201.5t-47.5 -245
q0 -129 50.5 -243t136.5 -199t200 -134.5t241 -49.5q133 0 235 43.5t196 125.5q24 22 4 50l-70 93q-7 10 -20 10q-7 0 -13.5 -3t-11.5 -7q-26 -21 -54.5 -44.5t-65.5 -43t-86.5 -32.5t-118.5 -13t-135 25.5t-122.5 72.5t-98.5 113t-63 147h996z" />
    <glyph glyph-name="f" unicode="f" horiz-adv-x="622" 
d="M200 962h-108q-14 0 -23 8t-9 23v106q0 15 9 22t23 7h108v196q0 73 18 136t56.5 109.5t98.5 73.5t144 27q30 0 37 -13t7 -28v-104q0 -14 -9 -25t-36 -11q-58 0 -86 -28.5t-38.5 -67.5t-9.5 -79t1 -63v-123h144q32 0 32 -29v-106q0 -31 -32 -31h-144v-926q0 -36 -33 -36
h-117q-33 0 -33 36v926z" />
    <glyph glyph-name="g" unicode="g" horiz-adv-x="1515" 
d="M1220 613q0 -93 -34 -175.5t-92.5 -145t-136.5 -98.5t-167 -36q-83 0 -162.5 31.5t-142 90t-100.5 142.5t-38 190q0 93 33 175t91 143t136.5 96.5t169.5 35.5q95 0 176 -35t140 -96t93 -143t34 -175zM1401 1189q0 17 -6.5 27t-18.5 10h-123q-36 0 -39 -42v-125
q-82 88 -195 134t-266 46q-124 0 -232.5 -50t-189.5 -135.5t-128 -199t-47 -240.5q0 -138 51 -254.5t136.5 -201t197 -132t232.5 -47.5q149 0 257.5 49.5t183.5 138.5v-72q0 -67 -36 -127t-94.5 -105t-132.5 -71t-150 -26q-57 0 -101 5t-81 15.5t-70.5 26.5t-70.5 38
q-15 9 -28 9q-11 0 -18 -4.5t-12 -11.5l-49 -81q-5 -8 -8 -21.5t18 -28.5q42 -29 86 -51t93 -37t105 -22.5t122 -7.5q114 0 224 35.5t197 108.5t140 184t53 262v1004z" />
    <glyph glyph-name="h" unicode="h" horiz-adv-x="1261" 
d="M985 38q0 -38 35 -38h116q17 0 25.5 10.5t8.5 27.5l-1 618q0 123 -33.5 229.5t-97 185t-155 123.5t-207.5 45q-61 0 -108 -9t-86 -26.5t-73 -44.5t-70 -63v448q0 17 -8.5 27.5t-25.5 10.5h-116q-17 0 -26 -10.5t-9 -27.5v-1506q0 -38 35 -38h116q17 0 25.5 10.5t8.5 27.5
v710q0 63 24 118.5t65.5 97t98.5 66t123 24.5q81 0 143.5 -32.5t105 -85.5t64.5 -120.5t22 -137.5v-640z" />
    <glyph glyph-name="i" unicode="i" horiz-adv-x="495" 
d="M154 36q0 -36 34 -36h118q34 0 34 36v1155q0 16 -9 25.5t-25 9.5h-118q-15 0 -24.5 -9t-9.5 -26v-1155zM154 1432q0 -20 10.5 -28.5t30.5 -8.5h108q17 0 27 7.5t10 30.5v106q0 43 -37 43h-109q-22 0 -31 -12t-9 -29v-109z" />
    <glyph glyph-name="j" unicode="j" horiz-adv-x="495" 
d="M159 16q0 -52 -6.5 -95t-22.5 -73.5t-43 -47.5t-68 -17q-16 0 -25 -4.5t-13 -10.5t-5 -12t-1 -9v-93q0 -8 10 -20.5t38 -12.5q94 0 157.5 31.5t102 84.5t55 122t16.5 144v1186q0 37 -33 37h-127q-35 0 -35 -37v-1173zM162 1436q0 -20 10.5 -28.5t30.5 -8.5h108
q17 0 27 7.5t10 30.5v106q0 43 -37 43h-109q-22 0 -31 -12t-9 -29v-109z" />
    <glyph glyph-name="k" unicode="k" horiz-adv-x="1198" 
d="M1059 1169q9 8 11 18t-1.5 18.5t-12.5 14.5t-23 6h-138q-12 0 -23 -2.5t-26 -17.5l-507 -544v885q0 35 -32 35h-118q-33 0 -33 -35v-1510q0 -17 8 -27t25 -10h118q17 0 24.5 10t7.5 27v391l124 128l432 -529q13 -16 23.5 -21.5t21.5 -5.5h152q9 0 17.5 5t12.5 13t3 18
t-10 21l-531 619z" />
    <glyph glyph-name="l" unicode="l" horiz-adv-x="495" 
d="M154 38q0 -38 35 -38h116q17 0 25.5 10.5t8.5 27.5v1506q0 17 -8.5 27.5t-25.5 10.5h-116q-17 0 -26 -10.5t-9 -27.5v-1506z" />
    <glyph glyph-name="m" unicode="m" horiz-adv-x="2072" 
d="M341 751q0 85 33 143t81.5 94t103.5 52t98 16q77 0 134.5 -30.5t95.5 -77t57 -102t19 -105.5v-705q0 -36 35 -36h114q33 0 33 36v704q0 55 20.5 111.5t59.5 102t95.5 74.5t128.5 29q84 0 144.5 -30.5t99.5 -77.5t58 -103.5t19 -108.5v-700q0 -37 35 -37h113q33 0 33 37
v696q0 106 -32.5 198t-94.5 160.5t-152.5 107.5t-206.5 39q-137 0 -239.5 -56.5t-157.5 -162.5q-24 48 -63 88.5t-89.5 69.5t-111 45t-127.5 16q-97 0 -184 -41t-150 -128v116q0 17 -13 29.5t-30 12.5h-110q-34 0 -34 -38v-1152q0 -37 34 -37h115q36 0 36 37v714z" />
    <glyph glyph-name="n" unicode="n" horiz-adv-x="1261" 
d="M339 713q0 85 29.5 149t76 107t104 65t113.5 22q79 0 139 -29.5t100.5 -77.5t61 -110.5t20.5 -128.5v-674q0 -36 36 -36h115q33 0 33 36v685q0 120 -37 215.5t-101 163t-149 103.5t-181 36q-110 0 -200.5 -45.5t-159.5 -136.5v127q0 17 -6 29.5t-23 12.5h-122
q-34 0 -34 -38v-1151q0 -37 34 -37h108q17 0 30 9.5t13 27.5v676z" />
    <glyph glyph-name="o" unicode="o" horiz-adv-x="1457" 
d="M102 609q0 -130 49.5 -245t134.5 -201.5t199.5 -136.5t244.5 -50q131 0 245.5 50.5t199.5 136.5t133.5 201t48.5 245q0 131 -49 245.5t-134 199.5t-199.5 134.5t-245.5 49.5q-130 0 -244.5 -49t-199.5 -134.5t-134 -200t-49 -245.5zM289 609q0 95 35.5 178t96 144
t140.5 96t168 35q96 0 176.5 -35t138 -96.5t89.5 -144t32 -177.5q0 -94 -31 -176.5t-88 -144t-137 -96.5t-179 -35q-88 0 -167.5 35t-140.5 96.5t-97 144t-36 176.5z" />
    <glyph glyph-name="p" unicode="p" horiz-adv-x="1496" 
d="M336 618q0 89 31.5 171t88.5 144t137 99t178 37q90 0 169.5 -33t138.5 -92t93.5 -139.5t34.5 -176.5q0 -94 -31 -179t-87 -149t-135 -101.5t-174 -37.5q-98 0 -180 37.5t-140.5 101t-91 146t-32.5 172.5zM156 -330q0 -37 35 -37h120q33 0 33 37v498q33 -34 77.5 -67
t100.5 -58t122.5 -40.5t141.5 -15.5q130 0 241.5 50t194 136.5t129.5 201.5t47 245q0 134 -51 249t-135 199t-192 131.5t-223 47.5q-71 0 -137.5 -13.5t-125 -37t-107 -55.5t-83.5 -69v98q0 18 -12.5 37t-32.5 19h-108q-35 0 -35 -37v-1519z" />
    <glyph glyph-name="q" unicode="q" horiz-adv-x="1496" 
d="M1150 618q0 -90 -32.5 -172.5t-91 -146t-140.5 -101t-180 -37.5q-95 0 -173.5 37.5t-135 101.5t-87.5 149t-31 179q0 96 34.5 176.5t93.5 139.5t138.5 92t169.5 33q98 0 178 -37t137 -99t88.5 -144t31.5 -171zM1330 1189q0 37 -35 37h-118q-20 0 -27.5 -9t-7.5 -27v-118
q-34 37 -83 69t-107.5 55.5t-125 37t-137.5 13.5q-115 0 -223 -47.5t-192 -131.5t-135 -199t-51 -249q0 -130 47 -245t129.5 -201.5t194 -136.5t241.5 -50q75 0 141.5 15.5t122.5 40.5t100.5 58t77.5 67v-498q0 -37 33 -37h120q35 0 35 37v1519z" />
    <glyph glyph-name="r" unicode="r" horiz-adv-x="993" 
d="M150 37q0 -37 34 -37h117q34 0 34 37v731q0 83 21.5 139t57 90t82 48.5t96.5 14.5q42 0 76.5 -7.5t63 -19.5t53.5 -27.5t49 -30.5q14 -10 27 -10q15 0 24 14l54 87q7 11 6.5 23.5t-20.5 29.5q-18 16 -48.5 37t-71 39.5t-89.5 31.5t-103 13q-46 0 -85 -7.5t-72.5 -24.5
t-62.5 -44.5t-56 -68.5v93q0 24 -9 31.5t-26 7.5h-118q-34 0 -34 -36v-1154z" />
    <glyph glyph-name="s" unicode="s" horiz-adv-x="996" 
d="M63 238q25 -65 70.5 -113t102.5 -79.5t121 -47t124 -15.5q96 0 177.5 25t140.5 71.5t92 113t33 150.5q0 76 -29.5 135.5t-83.5 105t-129.5 78t-166.5 53.5q-39 9 -81 25.5t-77.5 39.5t-58.5 51.5t-23 62.5q0 45 17 77t46 52.5t66.5 30.5t79.5 10q47 0 83 -11.5t65 -30
t52 -42.5t45 -50q9 -11 17 -18t18 -7t23 10l75 57q18 13 18 27.5t-13 32.5q-34 48 -72.5 86.5t-85 65.5t-103.5 41.5t-128 14.5q-90 0 -161.5 -25t-121.5 -70t-76.5 -108t-26.5 -140q0 -70 25 -126t72.5 -100t115.5 -77t154 -56q49 -13 98.5 -26t89 -33.5t64.5 -52.5t25 -83
q0 -48 -23 -83t-59.5 -57.5t-82 -33t-90.5 -10.5q-27 0 -64 9t-73.5 28t-68 47t-46.5 65q-6 14 -15.5 25t-24.5 11q-9 0 -18 -4l-91 -42q-20 -9 -23.5 -20t6.5 -40z" />
    <glyph glyph-name="t" unicode="t" horiz-adv-x="622" 
d="M388 1439q0 16 -6.5 27t-20.5 11q-5 0 -8 -1l-115 -18q-19 -5 -26.5 -13.5t-7.5 -25.5v-193h-122q-14 0 -25 -9t-11 -28v-98q0 -18 11 -26t25 -8h122v-770q0 -69 21.5 -124.5t63.5 -94.5t104.5 -60.5t145.5 -21.5q32 0 38.5 8.5t6.5 19.5v110q0 5 -0.5 10.5t-4.5 10
t-13 7.5t-26 3l-34 1q-36 1 -58.5 16t-36 38t-18.5 51.5t-5 55.5v740h137q16 0 26.5 9.5t10.5 24.5v100q0 17 -9.5 26t-25.5 9h-139v213z" />
    <glyph glyph-name="u" unicode="u" horiz-adv-x="1267" 
d="M980 41q0 -17 12 -29.5t32 -12.5h100q17 0 29.5 11.5t12.5 30.5v1144q0 42 -45 42h-99q-42 0 -42 -42v-728q0 -73 -31 -130t-79.5 -95t-107 -58t-113.5 -20q-87 0 -146 31t-95 80t-52 108.5t-16 117.5v694q0 18 -6 30t-29 12h-112q-26 0 -32.5 -12.5t-6.5 -32.5v-691
q0 -108 31 -203t92 -165.5t151 -111.5t208 -41q126 0 207.5 37.5t136.5 104.5v-71z" />
    <glyph glyph-name="v" unicode="v" horiz-adv-x="1142" 
d="M1122 1178q11 24 2 36.5t-26 12.5h-121q-11 0 -21.5 -5.5t-16.5 -22.5l-357 -906l-366 904q-6 17 -16.5 23.5t-21.5 6.5h-114q-19 0 -30.5 -13.5t-0.5 -39.5l468 -1145q7 -17 17.5 -23.5t21.5 -6.5h82q11 0 21.5 6.5t17.5 23.5z" />
    <glyph glyph-name="w" unicode="w" horiz-adv-x="1853" 
d="M1826 1177q11 24 2 36.5t-26 12.5h-132q-11 0 -21 -5.5t-16 -22.5l-347 -904l-254 638l95 245q10 24 1 36.5t-26 12.5h-131q-11 0 -21 -5.5t-17 -22.5l-344 -897l-370 896q-7 17 -17 23.5t-21 6.5h-114q-19 0 -30.5 -13.5t-0.5 -39.5l476 -1145q7 -17 17 -23.5t21 -6.5
h85q11 0 21.5 6.5t17.5 23.5l262 654l270 -654q7 -16 17 -23t21 -7h81q11 0 21.5 6.5t17.5 23.5z" />
    <glyph glyph-name="y" unicode="y" horiz-adv-x="1142" 
d="M1127 1176q8 20 1.5 35.5t-32.5 15.5h-119q-12 0 -22 -6.5t-16 -23.5l-358 -914l-353 914q-7 17 -17 23.5t-21 6.5h-121q-16 0 -30 -13t-3 -40l444 -1097l-151 -384q-13 -32 1 -46t36 -14h109q11 0 21.5 6t17.5 23z" />
    <glyph glyph-name="z" unicode="z" horiz-adv-x="1204" 
d="M1105 1039q9 11 11 22t2 17l1 114q0 20 -13.5 27.5t-28.5 7.5h-958q-9 0 -21.5 -7t-12.5 -24v-113q0 -12 9 -21t25 -9h775l-789 -888q-5 -5 -12.5 -15.5t-7.5 -29.5v-84q0 -15 7 -25.5t23 -10.5h969q9 0 21.5 7t12.5 24v114q0 13 -9.5 21.5t-24.5 8.5h-747z" />
    <glyph glyph-name="c" unicode="c" horiz-adv-x="1210" 
d="M1006 288q-28 -23 -59 -46.5t-67.5 -42t-80 -30.5t-96.5 -12q-94 0 -175 34t-141 94t-94 142.5t-34 180.5q0 96 34 178.5t94 144t142 96.5t178 35q76 0 148 -27.5t146 -90.5q9 -8 20 -8q8 0 14 3.5t9 7.5l75 98q4 6 5 17.5t-13 24.5q-85 72 -191 112t-222 39
q-124 -1 -238 -49.5t-200 -132.5t-137.5 -198.5t-51.5 -248.5q0 -133 50.5 -249t136.5 -201.5t202 -134.5t246 -49q61 0 119 14.5t110 38t98 53.5t83 61q28 22 7 51l-72 94q-6 10 -20 10t-25 -9z" />
    <glyph glyph-name="Obreve" unicode="&#x14e;" horiz-adv-x="1688" 
d="M109 712q0 -152 57.5 -285t157.5 -231.5t233.5 -155.5t285.5 -57t285 57t231.5 155.5t155 231.5t56.5 285t-56.5 285.5t-155 233t-231.5 157t-285 57.5t-285.5 -57.5t-233.5 -157t-157.5 -233t-57.5 -285.5zM296 712q0 116 42 216.5t116 175t174 117.5t215 43
q116 0 214.5 -43t171.5 -117.5t114 -175t41 -216.5q0 -115 -41 -215t-114 -174.5t-171.5 -117t-214.5 -42.5q-115 0 -215 42.5t-174 117t-116 174.5t-42 215zM873 1563q57 1 106 21t85 53.5t57 77t21 89.5q0 17 -11 26.5t-26 9.5h-79q-17 0 -25.5 -10.5t-8.5 -25.5
q0 -18 -7.5 -36.5t-22.5 -34.5t-36 -26t-48 -10q-30 0 -52.5 10t-37 25.5t-21.5 34.5t-7 37q0 15 -10 25.5t-27 10.5h-77q-15 0 -26 -9.5t-11 -26.5q0 -46 20 -88.5t55.5 -76t84 -54t104.5 -22.5z" />
    <glyph glyph-name="Ocircumflex" unicode="&#xd4;" horiz-adv-x="1688" 
d="M109 712q0 -152 57.5 -285t157.5 -231.5t233.5 -155.5t285.5 -57t285 57t231.5 155.5t155 231.5t56.5 285t-56.5 285.5t-155 233t-231.5 157t-285 57.5t-285.5 -57.5t-233.5 -157t-157.5 -233t-57.5 -285.5zM296 712q0 116 42 216.5t116 175t174 117.5t215 43
q116 0 214.5 -43t171.5 -117.5t114 -175t41 -216.5q0 -115 -41 -215t-114 -174.5t-171.5 -117t-214.5 -42.5q-115 0 -215 42.5t-174 117t-116 174.5t-42 215zM372.381 1371.48q-10.2627 -10.252 -11.7285 -23.0654q-1.4668 -12.8145 10.9951 -25.2627l36.6514 -36.6113
q10.2627 -9.51953 21.9912 -9.51953q13.1943 0 26.3887 10.9834l165.666 166.219l164.199 -164.754q11.7285 -11.7158 26.3887 -11.7158q13.1943 0 23.457 10.251l38.1182 37.3447q21.9902 24.8955 -2.19922 49.792l-225.041 224.064q-11.7285 13.1807 -23.457 13.1807
t-24.1904 -13.1807z" />
    <glyph glyph-name="Odieresis" unicode="&#xd6;" horiz-adv-x="1688" 
d="M109 712q0 -152 57.5 -285t157.5 -231.5t233.5 -155.5t285.5 -57t285 57t231.5 155.5t155 231.5t56.5 285t-56.5 285.5t-155 233t-231.5 157t-285 57.5t-285.5 -57.5t-233.5 -157t-157.5 -233t-57.5 -285.5zM296 712q0 116 42 216.5t116 175t174 117.5t215 43
q116 0 214.5 -43t171.5 -117.5t114 -175t41 -216.5q0 -115 -41 -215t-114 -174.5t-171.5 -117t-214.5 -42.5q-115 0 -215 42.5t-174 117t-116 174.5t-42 215zM548 1606q0 -38 40 -38h105q17 0 27 8t10 31v102q0 20 -8.5 31t-28.5 11h-106q-22 0 -30.5 -11.5t-8.5 -28.5v-105
zM928 1606q0 -38 40 -38h105q17 0 27 8t10 31v102q0 20 -8.5 31t-28.5 11h-106q-22 0 -30.5 -11.5t-8.5 -28.5v-105z" />
    <glyph glyph-name="Ohungarumlaut" unicode="&#x150;" horiz-adv-x="1688" 
d="M109 712q0 -152 57.5 -285t157.5 -231.5t233.5 -155.5t285.5 -57t285 57t231.5 155.5t155 231.5t56.5 285t-56.5 285.5t-155 233t-231.5 157t-285 57.5t-285.5 -57.5t-233.5 -157t-157.5 -233t-57.5 -285.5zM296 712q0 116 42 216.5t116 175t174 117.5t215 43
q116 0 214.5 -43t171.5 -117.5t114 -175t41 -216.5q0 -115 -41 -215t-114 -174.5t-171.5 -117t-214.5 -42.5q-115 0 -215 42.5t-174 117t-116 174.5t-42 215zM886 1812q10 18 0.5 32t-24.5 15h-99q-13 0 -21.5 -6t-17.5 -23l-116 -221q-6 -12 -5 -20t5.5 -13.5t12 -8.5
t13.5 -3h101q12 0 21 4.5t19 25.5zM1247 1812q10 19 0.5 32.5t-24.5 14.5h-100q-14 0 -22 -6t-18 -23l-114 -221q-6 -12 -5 -20t5.5 -13.5t11.5 -8.5t13 -3h102q12 0 21 4.5t18 25.5z" />
    <glyph glyph-name="aring" unicode="&#xe5;" horiz-adv-x="1478" 
d="M1170 606q0 -94 -37.5 -176.5t-99 -144t-141.5 -96.5t-164 -35t-162 34.5t-138 95.5t-96 143.5t-36 178.5q0 98 34 182t92.5 145.5t137.5 96.5t168 35q90 0 170.5 -36t140.5 -98t95.5 -145.5t35.5 -179.5zM1346 1190q0 37 -33 37h-121q-33 0 -33 -37v-130
q-35 36 -79.5 68t-98.5 56.5t-118.5 39t-140.5 14.5q-126 0 -239 -50t-198.5 -136.5t-136 -201.5t-50.5 -245q0 -134 53.5 -248.5t141.5 -198t200 -131t229 -47.5q65 0 130 14t122.5 38.5t105.5 58t79 72.5v-116q0 -18 7.5 -32.5t31.5 -14.5h115q33 0 33 37v1153zM744 1762
q-41 0 -77.5 -16t-63.5 -43t-42.5 -63.5t-15.5 -77.5q0 -42 15.5 -78.5t42.5 -63.5t63.5 -42.5t77.5 -15.5q42 0 78.5 15.5t64 42.5t43.5 63.5t16 78.5q0 41 -16 77.5t-43.5 63.5t-64 43t-78.5 16zM744 1661q44 0 73 -28.5t29 -70.5q0 -43 -27 -71t-73 -28q-45 0 -71.5 28
t-26.5 71q0 42 27 70.5t69 28.5z" />
    <glyph glyph-name="aogonek" unicode="&#x105;" horiz-adv-x="1478" 
d="M1170 606q0 -94 -37.5 -176.5t-99 -144t-141.5 -96.5t-164 -35t-162 34.5t-138 95.5t-96 143.5t-36 178.5q0 98 34 182t92.5 145.5t137.5 96.5t168 35q90 0 170.5 -36t140.5 -98t95.5 -145.5t35.5 -179.5zM1346 1190q0 37 -33 37h-121q-33 0 -33 -37v-130
q-35 36 -79.5 68t-98.5 56.5t-118.5 39t-140.5 14.5q-126 0 -239 -50t-198.5 -136.5t-136 -201.5t-50.5 -245q0 -134 53.5 -248.5t141.5 -198t200 -131t229 -47.5q65 0 130 14t122.5 38.5t105.5 58t79 72.5v-116q0 -18 7.5 -32.5t31.5 -14.5h115q33 0 33 37v1153zM1396 -249
q0 16 -9 24t-20 8h-49q-11 0 -20 -8.5t-9 -27.5q1 -34 -24 -59.5t-64 -24.5q-25 0 -42 10t-27.5 24.5t-14.5 32t-2 32.5q6 26 24.5 48t38.5 40l157 156q21 23 2 42l-35 35q-9 10 -20 10t-21 -11l-160 -159q-19 -20 -36 -39t-29.5 -39.5t-20 -44t-7.5 -51.5q0 -41 15.5 -76
t41.5 -61t62 -41t76 -15q43 0 78.5 16t61 42.5t39.5 62t14 74.5z" />
    <glyph glyph-name="atilde" unicode="&#xe3;" horiz-adv-x="1478" 
d="M1170 606q0 -94 -37.5 -176.5t-99 -144t-141.5 -96.5t-164 -35t-162 34.5t-138 95.5t-96 143.5t-36 178.5q0 98 34 182t92.5 145.5t137.5 96.5t168 35q90 0 170.5 -36t140.5 -98t95.5 -145.5t35.5 -179.5zM1346 1190q0 37 -33 37h-121q-33 0 -33 -37v-130
q-35 36 -79.5 68t-98.5 56.5t-118.5 39t-140.5 14.5q-126 0 -239 -50t-198.5 -136.5t-136 -201.5t-50.5 -245q0 -134 53.5 -248.5t141.5 -198t200 -131t229 -47.5q65 0 130 14t122.5 38.5t105.5 58t79 72.5v-116q0 -18 7.5 -32.5t31.5 -14.5h115q33 0 33 37v1153zM549 1422
q10 12 19.5 23t20 19.5t24 13.5t31.5 5q26 0 51 -14t52 -30.5t56 -30.5t62 -14q55 0 100.5 27.5t82.5 80.5q7 9 9 20t-10 23l-36 37q-10 9 -23 9q-17 0 -33 -20q-17 -20 -36.5 -38t-48.5 -18q-24 0 -50.5 14t-55 30.5t-59 30.5t-62.5 14q-51 0 -93.5 -26t-80.5 -74
q-14 -19 -16.5 -28t14.5 -25l27 -26q7 -6 15.5 -10.5t16.5 -4.5q14 0 23 12z" />
    <glyph glyph-name="yacute" unicode="&#xfd;" horiz-adv-x="1142" 
d="M1127 1176q8 20 1.5 35.5t-32.5 15.5h-119q-12 0 -22 -6.5t-16 -23.5l-358 -914l-353 914q-7 17 -17 23.5t-21 6.5h-121q-16 0 -30 -13t-3 -40l444 -1097l-151 -384q-13 -32 1 -46t36 -14h109q11 0 21.5 6t17.5 23zM805 1587q9 19 -0.5 33t-24.5 15h-101q-13 0 -22 -6
t-17 -24l-105 -222q-11 -23 0.5 -34t24.5 -11h102q11 0 20 4.5t19 24.5z" />
    <glyph glyph-name="ygrave" unicode="&#x1ef3;" horiz-adv-x="1142" 
d="M1127 1176q8 20 1.5 35.5t-32.5 15.5h-119q-12 0 -22 -6.5t-16 -23.5l-358 -914l-353 914q-7 17 -17 23.5t-21 6.5h-121q-16 0 -30 -13t-3 -40l444 -1097l-151 -384q-13 -32 1 -46t36 -14h109q11 0 21.5 6t17.5 23zM537 1383q10 -20 19 -25t21 -5h91q13 1 24.5 11.5
t1.5 33.5l-105 223q-8 18 -17 23.5t-22 5.5h-102q-15 0 -24.5 -14t0.5 -33z" />
    <glyph glyph-name="zacute" unicode="&#x17a;" horiz-adv-x="1204" 
d="M1105 1039q9 11 11 22t2 17l1 114q0 20 -13.5 27.5t-28.5 7.5h-958q-9 0 -21.5 -7t-12.5 -24v-113q0 -12 9 -21t25 -9h775l-789 -888q-5 -5 -12.5 -15.5t-7.5 -29.5v-84q0 -15 7 -25.5t23 -10.5h969q9 0 21.5 7t12.5 24v114q0 13 -9.5 21.5t-24.5 8.5h-747zM802 1610
q9 19 -0.5 33t-24.5 15h-101q-13 0 -22 -6t-17 -24l-105 -222q-11 -23 0.5 -34t24.5 -11h102q11 0 20 4.5t19 24.5z" />
    <glyph glyph-name="sacute" unicode="&#x15b;" horiz-adv-x="996" 
d="M63 238q25 -65 70.5 -113t102.5 -79.5t121 -47t124 -15.5q96 0 177.5 25t140.5 71.5t92 113t33 150.5q0 76 -29.5 135.5t-83.5 105t-129.5 78t-166.5 53.5q-39 9 -81 25.5t-77.5 39.5t-58.5 51.5t-23 62.5q0 45 17 77t46 52.5t66.5 30.5t79.5 10q47 0 83 -11.5t65 -30
t52 -42.5t45 -50q9 -11 17 -18t18 -7t23 10l75 57q18 13 18 27.5t-13 32.5q-34 48 -72.5 86.5t-85 65.5t-103.5 41.5t-128 14.5q-90 0 -161.5 -25t-121.5 -70t-76.5 -108t-26.5 -140q0 -70 25 -126t72.5 -100t115.5 -77t154 -56q49 -13 98.5 -26t89 -33.5t64.5 -52.5t25 -83
q0 -48 -23 -83t-59.5 -57.5t-82 -33t-90.5 -10.5q-27 0 -64 9t-73.5 28t-68 47t-46.5 65q-6 14 -15.5 25t-24.5 11q-9 0 -18 -4l-91 -42q-20 -9 -23.5 -20t6.5 -40zM697 1585q9 19 -0.5 33t-24.5 15h-101q-13 0 -22 -6t-17 -24l-105 -222q-11 -23 0.5 -34t24.5 -11h102
q11 0 20 4.5t19 24.5z" />
    <glyph glyph-name="dcaron" unicode="&#x10f;" horiz-adv-x="1478" 
d="M1160 607q0 -89 -31.5 -170.5t-88.5 -144t-137 -99.5t-178 -37q-90 0 -169.5 33t-138.5 92t-93.5 139.5t-34.5 176.5q0 94 31 179t87.5 149t135 101.5t173.5 37.5q98 0 180 -37.5t140.5 -101t91 -146t32.5 -172.5zM1340 1545q0 37 -35 37h-120q-33 0 -33 -37v-488
q-33 35 -77.5 67.5t-100.5 57.5t-122.5 40.5t-141.5 15.5q-130 0 -241.5 -50t-194 -136.5t-129.5 -201.5t-47 -245q0 -134 51 -249t135 -199t192 -131.5t223 -47.5q71 0 137.5 13.5t125 37t107.5 55.5t83 69v-97q0 -18 12.5 -37t32.5 -19h108q35 0 35 37v1508zM1417 1442
q0 -34 31 -34h39q12 0 12 -10v-12q0 -14 -10.5 -38t-30.5 -44q-6 -6 -9 -15.5t8 -20.5l28 -24q11 -9 19 -9t21 9q12 9 25.5 24.5t25.5 39.5t20 58t8 79v106q0 34 -32 34h-122q-15 0 -24 -8.5t-9 -26.5v-108z" />
    <glyph glyph-name="dcroat" unicode="&#x111;" horiz-adv-x="1478" 
d="M1160 607q0 -89 -31.5 -170.5t-88.5 -144t-137 -99.5t-178 -37q-90 0 -169.5 33t-138.5 92t-93.5 139.5t-34.5 176.5q0 94 31 179t87.5 149t135 101.5t173.5 37.5q98 0 180 -37.5t140.5 -101t91 -146t32.5 -172.5zM1340 1545q0 37 -35 37h-120q-33 0 -33 -37v-85h-207
q-13 0 -22.5 -8t-9.5 -24v-100q0 -16 10 -23t22 -7h207v-241q-33 35 -77.5 67.5t-100.5 57.5t-122.5 40.5t-141.5 15.5q-130 0 -241.5 -50t-194 -136.5t-129.5 -201.5t-47 -245q0 -134 51 -249t135 -199t192 -131.5t223 -47.5q71 0 137.5 13.5t125 37t107.5 55.5t83 69v-97
q0 -18 12.5 -37t32.5 -19h108q35 0 35 37v1261h76q14 0 22.5 9t8.5 20v102q0 16 -10 23.5t-19 7.5h-78v85z" />
    <glyph glyph-name="hbar" unicode="&#x127;" horiz-adv-x="1261" 
d="M985 38q0 -38 35 -38h116q17 0 25.5 10.5t8.5 27.5l-1 618q0 123 -33.5 229.5t-97 185t-155 123.5t-207.5 45q-61 0 -108 -9t-86 -26.5t-73 -44.5t-70 -63v218h197q11 0 19.5 7.5t8.5 18.5v105q0 13 -8 19.5t-19 6.5h-198v73q0 17 -8.5 27.5t-25.5 10.5h-116
q-17 0 -26 -10.5t-9 -27.5v-73h-107q-12 0 -20.5 -7t-8.5 -20v-104q0 -14 9 -20t20 -6h107v-1276q0 -38 35 -38h116q17 0 25.5 10.5t8.5 27.5v710q0 63 24 118.5t65.5 97t98.5 66t123 24.5q81 0 143.5 -32.5t105 -85.5t64.5 -120.5t22 -137.5v-640z" />
    <glyph glyph-name="hcircumflex" unicode="&#x125;" horiz-adv-x="1261" 
d="M985 38q0 -38 35 -38h116q17 0 25.5 10.5t8.5 27.5l-1 618q0 123 -33.5 229.5t-97 185t-155 123.5t-207.5 45q-61 0 -108 -9t-86 -26.5t-73 -44.5t-70 -63v448q0 17 -8.5 27.5t-25.5 10.5h-116q-17 0 -26 -10.5t-9 -27.5v-1506q0 -38 35 -38h116q17 0 25.5 10.5t8.5 27.5
v710q0 63 24 118.5t65.5 97t98.5 66t123 24.5q81 0 143.5 -32.5t105 -85.5t64.5 -120.5t22 -137.5v-640zM283.684 1268.97q-10.2627 -10.251 -11.7285 -23.0654t10.9951 -25.2627l36.6514 -36.6113q10.2627 -9.51953 21.9912 -9.51953q13.1943 0 26.3896 10.9834
l165.665 166.219l164.199 -164.754q11.7285 -11.7158 26.3896 -11.7158q13.1943 0 23.457 10.251l38.1172 37.3447q21.9912 24.8955 -2.19922 49.792l-225.041 224.065q-11.7285 13.1797 -23.457 13.1797t-24.1895 -13.1797z" />
    <glyph glyph-name="a.end" horiz-adv-x="1209" 
d="M879 537q0 -103 -32.5 -177t-82.5 -122t-110.5 -71t-116.5 -23q-72 0 -125.5 21t-89 53t-53.5 71t-18 76q0 33 11 64t36.5 55t69 38.5t107.5 14.5h404zM158 932q15 -18 33 -18q16 0 36 13q24 18 58 40.5t77 43t94.5 34t109.5 13.5q84 0 143.5 -28.5t97 -77.5t55 -114
t17.5 -138l-398 -1q-93 -1 -170.5 -26t-133 -69.5t-86.5 -106t-31 -135.5q0 -84 28.5 -155t84.5 -122.5t139 -81t193 -29.5q73 0 132.5 18t106 48t80 69t55.5 82v-139q3 -29 12.5 -40.5t31.5 -11.5h104q17 0 30 11.5t13 32.5v661q0 117 -31.5 214t-92.5 167t-150 108.5
t-203 38.5q-80 0 -147 -13.5t-123.5 -36t-103 -51.5t-85.5 -59q-26 -20 -27.5 -41t8.5 -36z" />
    <glyph glyph-name="uacute" unicode="&#xfa;" horiz-adv-x="1267" 
d="M980 41q0 -17 12 -29.5t32 -12.5h100q17 0 29.5 11.5t12.5 30.5v1144q0 42 -45 42h-99q-42 0 -42 -42v-728q0 -73 -31 -130t-79.5 -95t-107 -58t-113.5 -20q-87 0 -146 31t-95 80t-52 108.5t-16 117.5v694q0 18 -6 30t-29 12h-112q-26 0 -32.5 -12.5t-6.5 -32.5v-691
q0 -108 31 -203t92 -165.5t151 -111.5t208 -41q126 0 207.5 37.5t136.5 104.5v-71zM837 1590q9 19 -0.5 33t-24.5 15h-101q-13 0 -22 -6t-17 -24l-105 -222q-11 -23 0.5 -34t24.5 -11h102q11 0 20 4.5t19 24.5z" />
    <glyph glyph-name="ugrave" unicode="&#xf9;" horiz-adv-x="1267" 
d="M980 41q0 -17 12 -29.5t32 -12.5h100q17 0 29.5 11.5t12.5 30.5v1144q0 42 -45 42h-99q-42 0 -42 -42v-728q0 -73 -31 -130t-79.5 -95t-107 -58t-113.5 -20q-87 0 -146 31t-95 80t-52 108.5t-16 117.5v694q0 18 -6 30t-29 12h-112q-26 0 -32.5 -12.5t-6.5 -32.5v-691
q0 -108 31 -203t92 -165.5t151 -111.5t208 -41q126 0 207.5 37.5t136.5 104.5v-71zM605 1368q10 -20 19 -25t21 -5h91q13 1 24.5 11.5t1.5 33.5l-105 223q-8 18 -17 23.5t-22 5.5h-102q-15 0 -24.5 -14t0.5 -33z" />
    <glyph glyph-name="uogonek" unicode="&#x173;" horiz-adv-x="1267" 
d="M980 41q0 -17 12 -29.5t32 -12.5h100q17 0 29.5 11.5t12.5 30.5v1144q0 42 -45 42h-99q-42 0 -42 -42v-728q0 -73 -31 -130t-79.5 -95t-107 -58t-113.5 -20q-87 0 -146 31t-95 80t-52 108.5t-16 117.5v694q0 18 -6 30t-29 12h-112q-26 0 -32.5 -12.5t-6.5 -32.5v-691
q0 -108 31 -203t92 -165.5t151 -111.5t208 -41q126 0 207.5 37.5t136.5 104.5v-71zM1214 -245q0 16 -9 24t-20 8h-49q-11 0 -20 -8.5t-9 -27.5q1 -34 -24 -59.5t-64 -24.5q-25 0 -42 10t-27.5 24.5t-14.5 32t-2 32.5q6 26 24.5 48t38.5 40l157 156q21 23 2 42l-35 35
q-9 10 -20 10t-21 -11l-160 -159q-19 -20 -36 -39t-29.5 -39.5t-20 -44t-7.5 -51.5q0 -41 15.5 -76t41.5 -61t62 -41t76 -15q43 0 78.5 16t61 42.5t39.5 62t14 74.5z" />
    <glyph glyph-name="wacute" unicode="&#x1e83;" horiz-adv-x="1853" 
d="M1826 1177q11 24 2 36.5t-26 12.5h-132q-11 0 -21 -5.5t-16 -22.5l-347 -904l-254 638l95 245q10 24 1 36.5t-26 12.5h-131q-11 0 -21 -5.5t-17 -22.5l-344 -897l-370 896q-7 17 -17 23.5t-21 6.5h-114q-19 0 -30.5 -13.5t-0.5 -39.5l476 -1145q7 -17 17 -23.5t21 -6.5
h85q11 0 21.5 6.5t17.5 23.5l262 654l270 -654q7 -16 17 -23t21 -7h81q11 0 21.5 6.5t17.5 23.5zM1267 1605q9 19 -0.5 33t-24.5 15h-101q-13 0 -22 -6t-17 -24l-105 -222q-11 -23 0.5 -34t24.5 -11h102q11 0 20 4.5t19 24.5z" />
    <glyph glyph-name="wgrave" unicode="&#x1e81;" horiz-adv-x="1853" 
d="M1826 1177q11 24 2 36.5t-26 12.5h-132q-11 0 -21 -5.5t-16 -22.5l-347 -904l-254 638l95 245q10 24 1 36.5t-26 12.5h-131q-11 0 -21 -5.5t-17 -22.5l-344 -897l-370 896q-7 17 -17 23.5t-21 6.5h-114q-19 0 -30.5 -13.5t-0.5 -39.5l476 -1145q7 -17 17 -23.5t21 -6.5
h85q11 0 21.5 6.5t17.5 23.5l262 654l270 -654q7 -16 17 -23t21 -7h81q11 0 21.5 6.5t17.5 23.5zM948 1386q10 -20 19 -25t21 -5h91q13 1 24.5 11.5t1.5 33.5l-105 223q-8 18 -17 23.5t-22 5.5h-102q-15 0 -24.5 -14t0.5 -33z" />
    <glyph glyph-name="oacute" unicode="&#xf3;" horiz-adv-x="1457" 
d="M102 609q0 -130 49.5 -245t134.5 -201.5t199.5 -136.5t244.5 -50q131 0 245.5 50.5t199.5 136.5t133.5 201t48.5 245q0 131 -49 245.5t-134 199.5t-199.5 134.5t-245.5 49.5q-130 0 -244.5 -49t-199.5 -134.5t-134 -200t-49 -245.5zM289 609q0 95 35.5 178t96 144
t140.5 96t168 35q96 0 176.5 -35t138 -96.5t89.5 -144t32 -177.5q0 -94 -31 -176.5t-88 -144t-137 -96.5t-179 -35q-88 0 -167.5 35t-140.5 96.5t-97 144t-36 176.5zM944 1635q9 19 -0.5 33t-24.5 15h-101q-13 0 -22 -6t-17 -24l-105 -222q-11 -23 0.5 -34t24.5 -11h102
q11 0 20 4.5t19 24.5z" />
    <glyph glyph-name="obreve" unicode="&#x14f;" horiz-adv-x="1457" 
d="M102 609q0 -130 49.5 -245t134.5 -201.5t199.5 -136.5t244.5 -50q131 0 245.5 50.5t199.5 136.5t133.5 201t48.5 245q0 131 -49 245.5t-134 199.5t-199.5 134.5t-245.5 49.5q-130 0 -244.5 -49t-199.5 -134.5t-134 -200t-49 -245.5zM289 609q0 95 35.5 178t96 144
t140.5 96t168 35q96 0 176.5 -35t138 -96.5t89.5 -144t32 -177.5q0 -94 -31 -176.5t-88 -144t-137 -96.5t-179 -35q-88 0 -167.5 35t-140.5 96.5t-97 144t-36 176.5zM743 1352q57 1 106 21t85 53.5t57 77t21 89.5q0 17 -11 26.5t-26 9.5h-79q-17 0 -25.5 -10.5t-8.5 -25.5
q0 -18 -7.5 -36.5t-22.5 -34.5t-36 -26t-48 -10q-30 0 -52.5 10t-37 25.5t-21.5 34.5t-7 37q0 15 -10 25.5t-27 10.5h-77q-15 0 -26 -9.5t-11 -26.5q0 -46 20 -88.5t55.5 -76t84 -54t104.5 -22.5z" />
    <glyph glyph-name="ocircumflex" unicode="&#xf4;" horiz-adv-x="1457" 
d="M102 609q0 -130 49.5 -245t134.5 -201.5t199.5 -136.5t244.5 -50q131 0 245.5 50.5t199.5 136.5t133.5 201t48.5 245q0 131 -49 245.5t-134 199.5t-199.5 134.5t-245.5 49.5q-130 0 -244.5 -49t-199.5 -134.5t-134 -200t-49 -245.5zM289 609q0 95 35.5 178t96 144
t140.5 96t168 35q96 0 176.5 -35t138 -96.5t89.5 -144t32 -177.5q0 -94 -31 -176.5t-88 -144t-137 -96.5t-179 -35q-88 0 -167.5 35t-140.5 96.5t-97 144t-36 176.5zM295.412 1260.18q-10.2627 -10.251 -11.7285 -23.0654t10.9951 -25.2617l36.6514 -36.6123
q10.2627 -9.51855 21.9912 -9.51855q13.1943 0 26.3896 10.9834l165.665 166.218l164.199 -164.754q11.7285 -11.7158 26.3896 -11.7158q13.1943 0 23.457 10.252l38.1172 37.3438q21.9912 24.8965 -2.19922 49.792l-225.041 224.065q-11.7285 13.1807 -23.457 13.1807
t-24.1895 -13.1807z" />
    <glyph glyph-name="ograve" unicode="&#xf2;" horiz-adv-x="1457" 
d="M102 609q0 -130 49.5 -245t134.5 -201.5t199.5 -136.5t244.5 -50q131 0 245.5 50.5t199.5 136.5t133.5 201t48.5 245q0 131 -49 245.5t-134 199.5t-199.5 134.5t-245.5 49.5q-130 0 -244.5 -49t-199.5 -134.5t-134 -200t-49 -245.5zM289 609q0 95 35.5 178t96 144
t140.5 96t168 35q96 0 176.5 -35t138 -96.5t89.5 -144t32 -177.5q0 -94 -31 -176.5t-88 -144t-137 -96.5t-179 -35q-88 0 -167.5 35t-140.5 96.5t-97 144t-36 176.5zM649 1404q10 -20 19 -25t21 -5h91q13 1 24.5 11.5t1.5 33.5l-105 223q-8 18 -17 23.5t-22 5.5h-102
q-15 0 -24.5 -14t0.5 -33z" />
    <glyph glyph-name="oslash" unicode="&#xf8;" horiz-adv-x="1457" 
d="M277 609q0 95 35 178.5t95.5 145.5t143 98t177.5 36q96 0 180.5 -36t146.5 -98t98 -145.5t36 -178.5q0 -94 -35 -178t-96.5 -147t-145.5 -100t-183 -37q-95 0 -177.5 37t-143.5 100t-96 147t-35 178zM101 609q0 -89 23.5 -172t66.5 -154.5t103 -129.5t133 -99l-59 -139
q-8 -20 1.5 -28t22.5 -8h94q9 0 18 5t15 19l40 97q81 -24 170 -24q131 0 247 50.5t202.5 136.5t137 201t50.5 245q0 87 -23.5 168t-65.5 151.5t-101 128t-131 97.5l51 123q2 5 3.5 9t3.5 9q8 18 -0.5 27.5t-22.5 9.5h-94q-9 0 -18 -5t-15 -20l-40 -96q-45 13 -91 20t-94 7
q-130 0 -244.5 -49t-199.5 -134.5t-134 -200t-49 -245.5z" />
    <glyph glyph-name="otilde" unicode="&#xf5;" horiz-adv-x="1457" 
d="M102 609q0 -130 49.5 -245t134.5 -201.5t199.5 -136.5t244.5 -50q131 0 245.5 50.5t199.5 136.5t133.5 201t48.5 245q0 131 -49 245.5t-134 199.5t-199.5 134.5t-245.5 49.5q-130 0 -244.5 -49t-199.5 -134.5t-134 -200t-49 -245.5zM289 609q0 95 35.5 178t96 144
t140.5 96t168 35q96 0 176.5 -35t138 -96.5t89.5 -144t32 -177.5q0 -94 -31 -176.5t-88 -144t-137 -96.5t-179 -35q-88 0 -167.5 35t-140.5 96.5t-97 144t-36 176.5zM529 1404q10 12 19.5 23t20 19.5t24 13.5t31.5 5q26 0 51 -14t52 -30.5t56 -30.5t62 -14q55 0 100.5 27.5
t82.5 80.5q7 9 9 20t-10 23l-36 37q-10 9 -23 9q-17 0 -33 -20q-17 -20 -36.5 -38t-48.5 -18q-24 0 -50.5 14t-55 30.5t-59 30.5t-62.5 14q-51 0 -93.5 -26t-80.5 -74q-14 -19 -16.5 -28t14.5 -25l27 -26q7 -6 15.5 -10.5t16.5 -4.5q14 0 23 12z" />
    <glyph glyph-name="oe" unicode="&#x153;" horiz-adv-x="2475" 
d="M1766 1055q87 0 160.5 -26t130.5 -72.5t95 -111.5t54 -142h-872q17 77 56 142t95.5 111.5t128 72.5t152.5 26zM2328 515q14 0 26 2t20.5 9.5t13.5 21t5 35.5q0 130 -40.5 248.5t-121 208.5t-201 143.5t-279.5 53.5q-132 0 -246 -50t-198 -136.5t-131.5 -201.5t-47.5 -245
q0 -129 50.5 -243t136.5 -199t200 -134.5t241 -49.5q133 0 235 43.5t196 125.5q24 22 4 50l-70 93q-7 10 -20 10q-7 0 -13.5 -3t-11.5 -7q-26 -21 -54.5 -44.5t-65.5 -43t-86.5 -32.5t-118.5 -13t-135 25.5t-122.5 72.5t-98.5 113t-63 147h996zM63 609q0 -130 49.5 -245
t134.5 -201.5t199.5 -136.5t244.5 -50q131 0 245.5 50.5t199.5 136.5t133.5 201t48.5 245q0 131 -49 245.5t-134 199.5t-199.5 134.5t-245.5 49.5q-130 0 -244.5 -49t-199.5 -134.5t-134 -200t-49 -245.5zM250 609q0 95 35.5 178t96 144t140.5 96t168 35q96 0 176.5 -35
t138 -96.5t89.5 -144t32 -177.5q0 -94 -31 -176.5t-88 -144t-137 -96.5t-179 -35q-88 0 -167.5 35t-140.5 96.5t-97 144t-36 176.5z" />
    <glyph glyph-name="nacute" unicode="&#x144;" horiz-adv-x="1261" 
d="M339 713q0 85 29.5 149t76 107t104 65t113.5 22q79 0 139 -29.5t100.5 -77.5t61 -110.5t20.5 -128.5v-674q0 -36 36 -36h115q33 0 33 36v685q0 120 -37 215.5t-101 163t-149 103.5t-181 36q-110 0 -200.5 -45.5t-159.5 -136.5v127q0 17 -6 29.5t-23 12.5h-122
q-34 0 -34 -38v-1151q0 -37 34 -37h108q17 0 30 9.5t13 27.5v676zM892 1615q9 19 -0.5 33t-24.5 15h-101q-13 0 -22 -6t-17 -24l-105 -222q-11 -23 0.5 -34t24.5 -11h102q11 0 20 4.5t19 24.5z" />
    <glyph glyph-name="ntilde" unicode="&#xf1;" horiz-adv-x="1261" 
d="M339 713q0 85 29.5 149t76 107t104 65t113.5 22q79 0 139 -29.5t100.5 -77.5t61 -110.5t20.5 -128.5v-674q0 -36 36 -36h115q33 0 33 36v685q0 120 -37 215.5t-101 163t-149 103.5t-181 36q-110 0 -200.5 -45.5t-159.5 -136.5v127q0 17 -6 29.5t-23 12.5h-122
q-34 0 -34 -38v-1151q0 -37 34 -37h108q17 0 30 9.5t13 27.5v676zM475 1412q10 12 19.5 23t20 19.5t24 13.5t31.5 5q26 0 51 -14t52 -30.5t56 -30.5t62 -14q55 0 100.5 27.5t82.5 80.5q7 9 9 20t-10 23l-36 37q-10 9 -23 9q-17 0 -33 -20q-17 -20 -36.5 -38t-48.5 -18
q-24 0 -50.5 14t-55 30.5t-59 30.5t-62.5 14q-51 0 -93.5 -26t-80.5 -74q-14 -19 -16.5 -28t14.5 -25l27 -26q7 -6 15.5 -10.5t16.5 -4.5q14 0 23 12z" />
    <glyph glyph-name="gbreve" unicode="&#x11f;" horiz-adv-x="1515" 
d="M1220 613q0 -93 -34 -175.5t-92.5 -145t-136.5 -98.5t-167 -36q-83 0 -162.5 31.5t-142 90t-100.5 142.5t-38 190q0 93 33 175t91 143t136.5 96.5t169.5 35.5q95 0 176 -35t140 -96t93 -143t34 -175zM1401 1189q0 17 -6.5 27t-18.5 10h-123q-36 0 -39 -42v-125
q-82 88 -195 134t-266 46q-124 0 -232.5 -50t-189.5 -135.5t-128 -199t-47 -240.5q0 -138 51 -254.5t136.5 -201t197 -132t232.5 -47.5q149 0 257.5 49.5t183.5 138.5v-72q0 -67 -36 -127t-94.5 -105t-132.5 -71t-150 -26q-57 0 -101 5t-81 15.5t-70.5 26.5t-70.5 38
q-15 9 -28 9q-11 0 -18 -4.5t-12 -11.5l-49 -81q-5 -8 -8 -21.5t18 -28.5q42 -29 86 -51t93 -37t105 -22.5t122 -7.5q114 0 224 35.5t197 108.5t140 184t53 262v1004zM820 1352q57 1 106 21t85 53.5t57 77t21 89.5q0 17 -11 26.5t-26 9.5h-79q-17 0 -25.5 -10.5t-8.5 -25.5
q0 -18 -7.5 -36.5t-22.5 -34.5t-36 -26t-48 -10q-30 0 -52.5 10t-37 25.5t-21.5 34.5t-7 37q0 15 -10 25.5t-27 10.5h-77q-15 0 -26 -9.5t-11 -26.5q0 -46 20 -88.5t55.5 -76t84 -54t104.5 -22.5z" />
    <glyph glyph-name="gcircumflex" unicode="&#x11d;" horiz-adv-x="1515" 
d="M1220 613q0 -93 -34 -175.5t-92.5 -145t-136.5 -98.5t-167 -36q-83 0 -162.5 31.5t-142 90t-100.5 142.5t-38 190q0 93 33 175t91 143t136.5 96.5t169.5 35.5q95 0 176 -35t140 -96t93 -143t34 -175zM1401 1189q0 17 -6.5 27t-18.5 10h-123q-36 0 -39 -42v-125
q-82 88 -195 134t-266 46q-124 0 -232.5 -50t-189.5 -135.5t-128 -199t-47 -240.5q0 -138 51 -254.5t136.5 -201t197 -132t232.5 -47.5q149 0 257.5 49.5t183.5 138.5v-72q0 -67 -36 -127t-94.5 -105t-132.5 -71t-150 -26q-57 0 -101 5t-81 15.5t-70.5 26.5t-70.5 38
q-15 9 -28 9q-11 0 -18 -4.5t-12 -11.5l-49 -81q-5 -8 -8 -21.5t18 -28.5q42 -29 86 -51t93 -37t105 -22.5t122 -7.5q114 0 224 35.5t197 108.5t140 184t53 262v1004zM337.195 1261.65q-10.2627 -10.251 -11.7285 -23.0654q-1.4668 -12.8145 10.9951 -25.2627
l36.6514 -36.6113q10.2627 -9.51953 21.9912 -9.51953q13.1943 0 26.3887 10.9834l165.666 166.219l164.199 -164.754q11.7285 -11.7158 26.3887 -11.7158q13.1943 0 23.457 10.251l38.1182 37.3447q21.9902 24.8955 -2.19922 49.792l-225.041 224.065
q-11.7285 13.1797 -23.457 13.1797t-24.1904 -13.1797z" />
    <glyph glyph-name="uni0123" unicode="&#x123;" horiz-adv-x="1515" 
d="M1220 613q0 -93 -34 -175.5t-92.5 -145t-136.5 -98.5t-167 -36q-83 0 -162.5 31.5t-142 90t-100.5 142.5t-38 190q0 93 33 175t91 143t136.5 96.5t169.5 35.5q95 0 176 -35t140 -96t93 -143t34 -175zM1401 1189q0 17 -6.5 27t-18.5 10h-123q-36 0 -39 -42v-125
q-82 88 -195 134t-266 46q-124 0 -232.5 -50t-189.5 -135.5t-128 -199t-47 -240.5q0 -138 51 -254.5t136.5 -201t197 -132t232.5 -47.5q149 0 257.5 49.5t183.5 138.5v-72q0 -67 -36 -127t-94.5 -105t-132.5 -71t-150 -26q-57 0 -101 5t-81 15.5t-70.5 26.5t-70.5 38
q-15 9 -28 9q-11 0 -18 -4.5t-12 -11.5l-49 -81q-5 -8 -8 -21.5t18 -28.5q42 -29 86 -51t93 -37t105 -22.5t122 -7.5q114 0 224 35.5t197 108.5t140 184t53 262v1004zM884.946 1520.91q0 33.998 -30.998 33.998h-38.998q-11.999 0 -11.999 9.99902v11.999
q0 14 10.499 37.998q10.499 23.999 30.498 43.9971q6 6 9 15.499q2.99902 9.5 -8 20.499l-27.998 23.999q-10.999 8.99902 -18.999 8.99902q-7.99902 0 -20.999 -8.99902q-11.999 -9 -25.498 -24.499t-25.498 -39.4971q-12 -23.999 -19.999 -57.9971q-8 -33.998 -8 -78.9951
v-105.993q0 -33.998 31.998 -33.998h121.993q14.999 0 23.998 8.49902q9 8.5 9 26.499v107.993z" />
    <glyph glyph-name="ccedilla" unicode="&#xe7;" horiz-adv-x="1210" 
d="M1006 288q-28 -23 -59 -46.5t-67.5 -42t-80 -30.5t-96.5 -12q-94 0 -175 34t-141 94t-94 142.5t-34 180.5q0 96 34 178.5t94 144t142 96.5t178 35q76 0 148 -27.5t146 -90.5q9 -8 20 -8q8 0 14 3.5t9 7.5l75 98q4 6 5 17.5t-13 24.5q-85 72 -191 112t-222 39
q-124 -1 -238 -49.5t-200 -132.5t-137.5 -198.5t-51.5 -248.5q0 -133 50.5 -249t136.5 -201.5t202 -134.5t246 -49q61 0 119 14.5t110 38t98 53.5t83 61q28 22 7 51l-72 94q-6 10 -20 10t-25 -9zM601 -10q-14 -12 -17 -23.5t-3 -22.5q0 -28 14.5 -49t36 -38.5t46.5 -32
t46.5 -29.5t36 -31.5t14.5 -37.5q0 -30 -38 -54t-123 -46q-8 -2 -11 -10.5t1 -17.5l31 -78q5 -13 19 -13q4 0 10 2q137 40 199 94.5t62 122.5q0 35 -14.5 62t-36.5 47.5t-48 36t-48 29.5t-36.5 27t-14.5 28q0 19 21 34q19 19 5 28t-42 9q-27 0 -59 -9t-51 -28z" />
    <glyph glyph-name="ccircumflex" unicode="&#x109;" horiz-adv-x="1210" 
d="M1006 288q-28 -23 -59 -46.5t-67.5 -42t-80 -30.5t-96.5 -12q-94 0 -175 34t-141 94t-94 142.5t-34 180.5q0 96 34 178.5t94 144t142 96.5t178 35q76 0 148 -27.5t146 -90.5q9 -8 20 -8q8 0 14 3.5t9 7.5l75 98q4 6 5 17.5t-13 24.5q-85 72 -191 112t-222 39
q-124 -1 -238 -49.5t-200 -132.5t-137.5 -198.5t-51.5 -248.5q0 -133 50.5 -249t136.5 -201.5t202 -134.5t246 -49q61 0 119 14.5t110 38t98 53.5t83 61q28 22 7 51l-72 94q-6 10 -20 10t-25 -9zM288.814 1263.11q-10.2617 -10.252 -11.7285 -23.0664
q-1.46582 -12.8135 10.9961 -25.2617l36.6514 -36.6123q10.2627 -9.51855 21.9912 -9.51855q13.1943 0 26.3887 10.9834l165.665 166.218l164.199 -164.753q11.7285 -11.7158 26.3896 -11.7158q13.1943 0 23.457 10.251l38.1172 37.3438q21.9912 24.8965 -2.19922 49.793
l-225.04 224.064q-11.7285 13.1807 -23.457 13.1807t-24.1904 -13.1807z" />
    <glyph glyph-name="cdotaccent" unicode="&#x10b;" horiz-adv-x="1210" 
d="M1006 288q-28 -23 -59 -46.5t-67.5 -42t-80 -30.5t-96.5 -12q-94 0 -175 34t-141 94t-94 142.5t-34 180.5q0 96 34 178.5t94 144t142 96.5t178 35q76 0 148 -27.5t146 -90.5q9 -8 20 -8q8 0 14 3.5t9 7.5l75 98q4 6 5 17.5t-13 24.5q-85 72 -191 112t-222 39
q-124 -1 -238 -49.5t-200 -132.5t-137.5 -198.5t-51.5 -248.5q0 -133 50.5 -249t136.5 -201.5t202 -134.5t246 -49q61 0 119 14.5t110 38t98 53.5t83 61q28 22 7 51l-72 94q-6 10 -20 10t-25 -9zM611 1421q0 -21 10 -29.5t30 -8.5h105q17 0 27 8t10 31v102q0 41 -37 41h-106
q-22 0 -30.5 -11.5t-8.5 -28.5v-104z" />
    <glyph glyph-name="ibreve" unicode="&#x12d;" horiz-adv-x="495" 
d="M154 36q0 -36 34 -36h118q34 0 34 36v1155q0 16 -9 25.5t-25 9.5h-118q-15 0 -24.5 -9t-9.5 -26v-1155zM254 1372q57 1 106 21t85 53.5t57 77t21 89.5q0 17 -11 26.5t-26 9.5h-79q-17 0 -25.5 -10.5t-8.5 -25.5q0 -18 -7.5 -36.5t-22.5 -34.5t-36 -26t-48 -10
q-30 0 -52.5 10t-37 25.5t-21.5 34.5t-7 37q0 15 -10 25.5t-27 10.5h-77q-15 0 -26 -9.5t-11 -26.5q0 -46 20 -88.5t55.5 -76t84 -54t104.5 -22.5z" />
    <glyph glyph-name="lslash" unicode="&#x142;" horiz-adv-x="495" 
d="M167 38q0 -38 35 -38h116q17 0 25.5 10.5t8.5 27.5v692l224 84q11 5 14 14t3 23l-1 82q0 9 -7 13t-17 4q-5 0 -13 -2l-203 -77v673q0 17 -8.5 27.5t-25.5 10.5h-116q-17 0 -26 -10.5t-9 -27.5v-742l-174 -66q-13 -5 -15.5 -14.5t-2.5 -23.5v-81q4 -17 23 -17q9 0 16 3
l153 57v-622z" />
    <glyph glyph-name="uni0137" unicode="&#x137;" horiz-adv-x="1198" 
d="M1059 1169q9 8 11 18t-1.5 18.5t-12.5 14.5t-23 6h-138q-12 0 -23 -2.5t-26 -17.5l-507 -544v885q0 35 -32 35h-118q-33 0 -33 -35v-1510q0 -17 8 -27t25 -10h118q17 0 24.5 10t7.5 27v391l124 128l432 -529q13 -16 23.5 -21.5t21.5 -5.5h152q9 0 17.5 5t12.5 13t3 18
t-10 21l-531 619zM501 -240q0 -34 31 -34h39q12 0 12 -10v-12q0 -14 -10.5 -38t-30.5 -44q-6 -6 -9 -15.5t8 -20.5l28 -24q11 -9 19 -9t21 9q12 9 25.5 24.5t25.5 39.5t20 58t8 79v106q0 34 -32 34h-122q-15 0 -24 -8.5t-9 -26.5v-108z" />
    <glyph glyph-name="kgreenlandic" unicode="&#x138;" horiz-adv-x="1198" 
d="M1059 1169q9 8 11 18t-1.5 18.5t-12.5 14.5t-23 6h-138q-12 0 -23 -2.5t-26 -17.5l-507 -544v729q0 35 -32 35h-118q-33 0 -33 -35v-1354q0 -17 8 -27t25 -10h118q17 0 24.5 10t7.5 27v391l124 128l432 -529q13 -16 23.5 -21.5t21.5 -5.5h152q9 0 17.5 5t12.5 13t3 18
t-10 21l-531 619z" />
    <glyph glyph-name="jcircumflex" unicode="&#x135;" horiz-adv-x="495" 
d="M159 1188v-1172q0 -52 -12.5 -98.5t-40 -82t-71 -56t-106.5 -20.5q-16 0 -25 -4.5t-13 -10.5t-5 -12t-1 -9v-84q0 -8 10 -20.5t38 -12.5q102 0 179 34t128.5 89.5t77.5 127t26 146.5v1185q0 37 -33 37h-117q-35 0 -35 -37zM38.8506 1261.65
q-10.2627 -10.251 -11.7285 -23.0654t10.9951 -25.2627l36.6523 -36.6113q10.2617 -9.51953 21.9902 -9.51953q13.1953 0 26.3896 10.9834l165.665 166.219l164.199 -164.754q11.7285 -11.7158 26.3896 -11.7158q13.1943 0 23.457 10.251l38.1172 37.3447
q21.9912 24.8955 -2.19922 49.792l-225.04 224.065q-11.7285 13.1797 -23.457 13.1797t-24.1904 -13.1797z" />
    <glyph glyph-name="itilde" unicode="&#x129;" horiz-adv-x="495" 
d="M154 36q0 -36 34 -36h118q34 0 34 36v1155q0 16 -9 25.5t-25 9.5h-118q-15 0 -24.5 -9t-9.5 -26v-1155zM21 1397q10 12 19.5 23t20 19.5t24 13.5t31.5 5q26 0 51 -14t52 -30.5t56 -30.5t62 -14q55 0 100.5 27.5t82.5 80.5q7 9 9 20t-10 23l-36 37q-10 9 -23 9
q-17 0 -33 -20q-17 -20 -36.5 -38t-48.5 -18q-24 0 -50.5 14t-55 30.5t-59 30.5t-62.5 14q-51 0 -93.5 -26t-80.5 -74q-14 -19 -16.5 -28t14.5 -25l27 -26q7 -6 15.5 -10.5t16.5 -4.5q14 0 23 12z" />
    <glyph glyph-name="iogonek" unicode="&#x12f;" horiz-adv-x="495" 
d="M154 36q0 -36 34 -36h118q34 0 34 36v1155q0 16 -9 25.5t-25 9.5h-118q-15 0 -24.5 -9t-9.5 -26v-1155zM154 1432q0 -20 10.5 -28.5t30.5 -8.5h108q17 0 27 7.5t10 30.5v106q0 43 -37 43h-109q-22 0 -31 -12t-9 -29v-109zM387 -250q0 16 -9 24t-20 8h-49q-11 0 -20 -8.5
t-9 -27.5q1 -34 -24 -59.5t-64 -24.5q-25 0 -42 10t-27.5 24.5t-14.5 32t-2 32.5q6 26 24.5 48t38.5 40l157 156q21 23 2 42l-35 35q-9 10 -20 10t-21 -11l-160 -159q-19 -20 -36 -39t-29.5 -39.5t-20 -44t-7.5 -51.5q0 -41 15.5 -76t41.5 -61t62 -41t76 -15q43 0 78.5 16
t61 42.5t39.5 62t14 74.5z" />
    <glyph glyph-name="ae" unicode="&#xe6;" horiz-adv-x="2457" 
d="M1165 612q0 -90 -34.5 -172t-94 -145t-139 -100.5t-170.5 -37.5q-90 0 -169 37.5t-138.5 100.5t-93.5 145t-34 172q0 91 34 172.5t93.5 143.5t138.5 98.5t169 36.5q91 0 170.5 -36.5t139 -98.5t94 -143.5t34.5 -172.5zM1787 1056q79 0 152.5 -25t132 -71.5t97.5 -111.5
t49 -145h-868q21 80 62 145.5t97.5 111.5t127 71t150.5 25zM2072 277q-27 -23 -57 -44.5t-65.5 -38.5t-78 -27t-95.5 -10q-75 0 -145 27.5t-127 76t-97.5 114t-57.5 141.5h1012q26 0 34 16t8 48q0 141 -44.5 261.5t-126.5 209t-197 138.5t-255 50q-135 0 -246 -48t-192 -132
v126q0 42 -45 42h-99q-42 0 -42 -42v-124q-83 84 -192 132.5t-237 48.5q-129 0 -243.5 -50t-200.5 -135.5t-136 -200.5t-50 -244t50 -244t136 -201t200.5 -136t243.5 -50q128 0 237 48t192 133v-120q0 -17 12 -29.5t32 -12.5h100q17 0 29.5 11.5t12.5 30.5v126
q84 -88 196 -139t242 -51q122 0 218.5 40t178.5 105q20 16 28.5 28t8.5 23q0 7 -3 13.5t-8 12.5q-4 5 -11 16q-8 9 -19.5 25t-31.5 42q-8 10 -14.5 13.5t-13.5 3.5q-11 0 -21 -6.5t-18 -14.5z" />
    <glyph glyph-name="Gbreve" unicode="&#x11e;" horiz-adv-x="1415" 
d="M842 161q-115 -1 -215.5 42t-174 118t-116 176.5t-42.5 216.5q0 116 41.5 216.5t115 174.5t174 116.5t217.5 42.5q97 0 180.5 -32t153.5 -85q12 -9 24 -9q9 0 15.5 3.5t9.5 8.5l66 95q5 7 6 20t-17 27q-92 72 -200.5 112t-239.5 40q-152 0 -286 -57t-233.5 -156
t-157 -232t-57.5 -285t58 -285.5t158 -232.5t234 -156.5t286 -57.5q131 0 244 39.5t203 105.5q10 7 14 17t4 21v430q0 20 -9.5 28t-23.5 8h-111q-17 0 -25.5 -9.5t-8.5 -26.5v-350q-51 -39 -128.5 -61t-158.5 -23zM834 1572q57 1 106 21t85 53.5t57 77t21 89.5
q0 17 -11 26.5t-26 9.5h-79q-17 0 -25.5 -10.5t-8.5 -25.5q0 -18 -7.5 -36.5t-22.5 -34.5t-36 -26t-48 -10q-30 0 -52.5 10t-37 25.5t-21.5 34.5t-7 37q0 15 -10 25.5t-27 10.5h-77q-15 0 -26 -9.5t-11 -26.5q0 -46 20 -88.5t55.5 -76t84 -54t104.5 -22.5z" />
    <glyph glyph-name="Gcircumflex" unicode="&#x11c;" horiz-adv-x="1415" 
d="M842 161q-115 -1 -215.5 42t-174 118t-116 176.5t-42.5 216.5q0 116 41.5 216.5t115 174.5t174 116.5t217.5 42.5q97 0 180.5 -32t153.5 -85q12 -9 24 -9q9 0 15.5 3.5t9.5 8.5l66 95q5 7 6 20t-17 27q-92 72 -200.5 112t-239.5 40q-152 0 -286 -57t-233.5 -156
t-157 -232t-57.5 -285t58 -285.5t158 -232.5t234 -156.5t286 -57.5q131 0 244 39.5t203 105.5q10 7 14 17t4 21v430q0 20 -9.5 28t-23.5 8h-111q-17 0 -25.5 -9.5t-8.5 -26.5v-350q-51 -39 -128.5 -61t-158.5 -23zM353.321 1375.88q-10.2627 -10.252 -11.7285 -23.0654
q-1.46582 -12.8145 10.9961 -25.2627l36.6514 -36.6123q10.2627 -9.51855 21.9912 -9.51855q13.1943 0 26.3887 10.9834l165.665 166.218l164.199 -164.753q11.7285 -11.7158 26.3896 -11.7158q13.1943 0 23.457 10.251l38.1172 37.3447q21.9912 24.8955 -2.19824 49.792
l-225.041 224.064q-11.7285 13.1807 -23.457 13.1807t-24.1904 -13.1807z" />
    <glyph glyph-name="Gdotaccent" unicode="&#x120;" horiz-adv-x="1415" 
d="M842 161q-115 -1 -215.5 42t-174 118t-116 176.5t-42.5 216.5q0 116 41.5 216.5t115 174.5t174 116.5t217.5 42.5q97 0 180.5 -32t153.5 -85q12 -9 24 -9q9 0 15.5 3.5t9.5 8.5l66 95q5 7 6 20t-17 27q-92 72 -200.5 112t-239.5 40q-152 0 -286 -57t-233.5 -156
t-157 -232t-57.5 -285t58 -285.5t158 -232.5t234 -156.5t286 -57.5q131 0 244 39.5t203 105.5q10 7 14 17t4 21v430q0 20 -9.5 28t-23.5 8h-111q-17 0 -25.5 -9.5t-8.5 -26.5v-350q-51 -39 -128.5 -61t-158.5 -23zM734 1609q0 -21 10 -29.5t30 -8.5h105q17 0 27 8t10 31v102
q0 41 -37 41h-106q-22 0 -30.5 -11.5t-8.5 -28.5v-104z" />
    <glyph glyph-name="Otilde" unicode="&#xd5;" horiz-adv-x="1688" 
d="M109 712q0 -152 57.5 -285t157.5 -231.5t233.5 -155.5t285.5 -57t285 57t231.5 155.5t155 231.5t56.5 285t-56.5 285.5t-155 233t-231.5 157t-285 57.5t-285.5 -57.5t-233.5 -157t-157.5 -233t-57.5 -285.5zM296 712q0 116 42 216.5t116 175t174 117.5t215 43
q116 0 214.5 -43t171.5 -117.5t114 -175t41 -216.5q0 -115 -41 -215t-114 -174.5t-171.5 -117t-214.5 -42.5q-115 0 -215 42.5t-174 117t-116 174.5t-42 215zM656 1600q10 12 19.5 23t20 19.5t24 13.5t31.5 5q26 0 51 -14t52 -30.5t56 -30.5t62 -14q55 0 100.5 27.5
t82.5 80.5q7 9 9 20t-10 23l-36 37q-10 9 -23 9q-17 0 -33 -20q-17 -20 -36.5 -38t-48.5 -18q-24 0 -50.5 14t-55 30.5t-59 30.5t-62.5 14q-51 0 -93.5 -26t-80.5 -74q-14 -19 -16.5 -28t14.5 -25l27 -26q7 -6 15.5 -10.5t16.5 -4.5q14 0 23 12z" />
    <glyph glyph-name="OE" unicode="&#x152;" horiz-adv-x="2406" 
d="M257 714q0 116 42.5 217.5t116.5 177.5t174.5 119.5t215.5 43.5q116 0 216.5 -43.5t174.5 -119.5t116.5 -177.5t42.5 -217.5q0 -115 -42.5 -216.5t-116.5 -177.5t-174.5 -119.5t-216.5 -43.5q-115 0 -215.5 43.5t-174.5 119.5t-116.5 177.5t-42.5 216.5zM71 714
q0 -152 58 -286t157.5 -233.5t233.5 -157.5t286 -58q83 0 160.5 17.5t147.5 49.5t131.5 78.5t112.5 103.5v-194q0 -34 34 -34h948q35 0 35 34v107q0 33 -35 33h-796v485h628q37 0 37 34v84q0 32 -37 32h-628v448h777q35 0 35 34v101q0 34 -35 34h-929q-34 0 -34 -34v-192
q-51 57 -112.5 103.5t-131.5 79t-147.5 50t-160.5 17.5q-152 0 -286 -58t-233.5 -158t-157.5 -234t-58 -286z" />
    </font>
</defs>
</svg>
